<?xml version="1.0" encoding="UTF-8" standalone="no"?>
<svg
   xmlns:dc="http://purl.org/dc/elements/1.1/"
   xmlns:cc="http://creativecommons.org/ns#"
   xmlns:rdf="http://www.w3.org/1999/02/22-rdf-syntax-ns#"
   xmlns:svg="http://www.w3.org/2000/svg"
   xmlns="http://www.w3.org/2000/svg"
   xmlns:sodipodi="http://sodipodi.sourceforge.net/DTD/sodipodi-0.dtd"
   xmlns:inkscape="http://www.inkscape.org/namespaces/inkscape"
   width="50mm"
   height="50mm"
   viewBox="0 0 50 50"
   version="1.1"
   id="svg8"
   inkscape:version="1.0.1 (3bc2e813f5, 2020-09-07)"
   sodipodi:docname="圖畫.svg">
  <defs
     id="defs2" />
  <sodipodi:namedview
     id="base"
     pagecolor="#ffffff"
     bordercolor="#666666"
     borderopacity="1.0"
     inkscape:pageopacity="0.0"
     inkscape:pageshadow="2"
     inkscape:zoom="2"
     inkscape:cx="165.03951"
     inkscape:cy="102.85714"
     inkscape:document-units="mm"
     inkscape:current-layer="layer1"
     inkscape:document-rotation="0"
     showgrid="false"
     inkscape:window-width="1920"
     inkscape:window-height="1001"
     inkscape:window-x="-9"
     inkscape:window-y="-9"
     inkscape:window-maximized="1"
     inkscape:snap-global="false" />
  <metadata
     id="metadata5">
    <rdf:RDF>
      <cc:Work
         rdf:about="">
        <dc:format>image/svg+xml</dc:format>
        <dc:type
           rdf:resource="http://purl.org/dc/dcmitype/StillImage" />
        <dc:title></dc:title>
      </cc:Work>
    </rdf:RDF>
  </metadata>
  <g
     inkscape:label="Layer 1"
     inkscape:groupmode="layer"
     id="layer1">
    <circle
       style="fill:#80bf3d;fill-opacity:1;fill-rule:evenodd;stroke-width:0.668151"
       id="path10"
       cx="25"
       cy="-25"
       r="25"
       transform="rotate(90)" />
    <g
       aria-label="C"
       id="text923"
       style="font-style:normal;font-variant:normal;font-weight:normal;font-stretch:normal;font-size:26.6551px;line-height:1.25;font-family:sans-serif;-inkscape-font-specification:'sans-serif, Normal';font-variant-ligatures:normal;font-variant-caps:normal;font-variant-numeric:normal;font-variant-east-asian:normal;fill:#000000;fill-opacity:1;stroke:none;stroke-width:0.666378">
      <path
         d="m 32.505754,32.776275 q -0.715835,0.312365 -1.301518,0.585684 -0.572668,0.273318 -1.509762,0.572668 -0.793926,0.247288 -1.731019,0.416486 -0.924078,0.182212 -2.043384,0.182212 -2.10846,0 -3.83948,-0.585683 Q 20.362586,33.348943 19.087098,32.08647 17.83764,30.850028 17.13482,28.949811 16.432,27.036578 16.432,24.511632 q 0,-2.394794 0.67679,-4.281996 0.67679,-1.887201 1.952278,-3.18872 1.236443,-1.262473 2.980477,-1.926247 1.75705,-0.663775 3.891541,-0.663775 1.561822,0 3.110629,0.37744 1.561822,0.377441 3.462039,1.327549 v 3.058569 h -0.195227 q -1.600868,-1.340564 -3.175706,-1.952278 -1.574837,-0.611714 -3.370933,-0.611714 -1.470716,0 -2.655097,0.481562 -1.171367,0.468547 -2.095445,1.470716 -0.898048,0.976139 -1.40564,2.472886 -0.494577,1.483731 -0.494577,3.436008 0,2.043385 0.546637,3.514101 0.559653,1.470716 1.431671,2.394794 0.911063,0.963123 2.121475,1.43167 1.223427,0.455532 2.577007,0.455532 1.861171,0 3.488069,-0.637745 1.626899,-0.637744 3.045554,-1.913232 h 0.182212 z"
         id="path935" />
    </g>
  </g>
</svg>
