<?xml version="1.0" encoding="UTF-8"?><svg id="_レイヤー_1" xmlns="http://www.w3.org/2000/svg" viewBox="0 0 3401.28 3401.28"><defs><style>.cls-1{fill:#8b5030;}</style></defs><polygon class="cls-1" points="2161.44 881.03 1863.95 2071.1 902.41 2071.1 994.79 1698.97 1613.23 1698.46 1687.38 1524.05 1038.67 1524.05 1130.69 1150.6 1843.5 1149.84 1957.04 881.03 2161.44 881.03"/><path class="cls-1" d="M1775.67,0l142.74,13.68c759.07,95.15,1368.03,699.64,1469.16,1457.86l13.71,138.89v161.23c-3.18,2-1.92,7.29-1.95,10.53-3.02,288.61-116.81,609.73-273.62,849.23-297.22,453.93-821.47,761.15-1370.22,767.91-3.24.04-8.53-1.23-10.53,1.95h-115.16c-6.69-1.98-17.03-3.37-24.01-3.82C750.18,3341.97,66.85,2680.61,6.13,1820.59c-1.92-27.13.31-55.13-5.78-81.56.82-25.49-1.11-51.31,0-76.78,9.07-207.45,49.48-412.39,127.69-604.57C377.02,445.95,968.1,30.04,1629.8,0h145.86ZM3099.96,1153.59c-196.01-507.34-667.46-874.86-1208.45-942.18C1014.7,102.3,237.39,763.52,203.78,1644c-34.6,906.37,731.56,1629.37,1634.26,1551.89,581.02-49.87,1085.63-446.35,1279.23-993.27,15.16-42.82,29.63-87.06,38.35-131.52h-1199.54l295.65-1189.98,320.44,3.74-15.37,268.73h543.15ZM3194,1527.89h-658.31l-9.6,170.83h677.5l-9.6-170.83Z"/></svg>