<?xml version="1.0" encoding="UTF-8" standalone="no"?>
<!-- Created with Inkscape (http://www.inkscape.org/) -->

<svg
  xmlns:dc="http://purl.org/dc/elements/1.1/"
  xmlns:cc="http://creativecommons.org/ns#"
  xmlns:rdf="http://www.w3.org/1999/02/22-rdf-syntax-ns#"
  xmlns:svg="http://www.w3.org/2000/svg"
  xmlns="http://www.w3.org/2000/svg"
  xmlns:sodipodi="http://sodipodi.sourceforge.net/DTD/sodipodi-0.dtd"
  xmlns:inkscape="http://www.inkscape.org/namespaces/inkscape"
  width="84.666664mm"
  height="84.666664mm"
  viewBox="0 0 299.99999 299.99999"
  id="svg4800"
  version="1.1"
  inkscape:version="0.91 r13725"
  sodipodi:docname="CHIKUHO.svg">
  <defs
    id="defs4802" />
  <sodipodi:namedview
    id="base"
    pagecolor="#ffffff"
    bordercolor="#666666"
    borderopacity="1.0"
    inkscape:pageopacity="0.0"
    inkscape:pageshadow="2"
    inkscape:zoom="1.4"
    inkscape:cx="15.507788"
    inkscape:cy="41.080249"
    inkscape:document-units="px"
    inkscape:current-layer="layer1"
    showgrid="false"
    fit-margin-top="0"
    fit-margin-left="0"
    fit-margin-right="0"
    fit-margin-bottom="0"
    inkscape:window-width="1920"
    inkscape:window-height="1001"
    inkscape:window-x="-9"
    inkscape:window-y="-9"
    inkscape:window-maximized="1" />
  <metadata
    id="metadata4805">
    <rdf:RDF>
      <cc:Work
        rdf:about="">
        <dc:format>image/svg+xml</dc:format>
        <dc:type
          rdf:resource="http://purl.org/dc/dcmitype/StillImage" />
        <dc:title />
      </cc:Work>
    </rdf:RDF>
  </metadata>
  <g
    inkscape:label="レイヤー 1"
    inkscape:groupmode="layer"
    id="layer1"
    transform="translate(-55.714286,-256.64792)">
    <path
      inkscape:connector-curvature="0"
      style="color:#000000;clip-rule:nonzero;display:inline;overflow:visible;visibility:visible;opacity:1;isolation:auto;mix-blend-mode:normal;color-interpolation:sRGB;color-interpolation-filters:linearRGB;solid-color:#000000;solid-opacity:1;fill:#004ea2;fill-opacity:1;fill-rule:nonzero;stroke:none;stroke-width:1;stroke-linecap:butt;stroke-linejoin:miter;stroke-miterlimit:4;stroke-dasharray:none;stroke-dashoffset:0;stroke-opacity:0.41984738;color-rendering:auto;image-rendering:auto;shape-rendering:auto;text-rendering:auto;enable-background:accumulate"
      d="m 199.46429,256.78463 c -74.1973,3.07617 -134.859584,60.62279 -142.847664,133.49804 4.91984,-7.82491 32.11914,-48.17708 82.113284,-69.83202 l 32.69141,56.62109 c 1.61089,2.79009 1.41751,6.87396 -0.19336,9.66406 -1.61087,2.79011 -5.05168,5.00001 -8.27344,5 l -106.496094,0 c -0.48922,4.90676 -0.74414,9.88138 -0.74414,14.91211 0,82.54663 67.453384,150 150.000004,150 82.54662,0 150,-67.45337 150,-150 0,-5.03073 -0.25492,-10.00535 -0.74414,-14.91211 l -106.49609,0 c -3.22176,1e-5 -6.66257,-2.20989 -8.27344,-5 -1.61087,-2.7901 -1.80425,-6.87398 -0.19336,-9.66406 l 32.69141,-56.62109 c 49.99413,21.65494 77.19344,62.00711 82.11328,69.83202 C 346.82387,317.40743 286.16159,259.8608 211.96429,256.78463 l 0,49.99805 c 11.26813,0.40024 21.86288,1.87087 31.79297,4.15039 l -29.57617,51.22851 c -1.61087,2.79013 -5.24506,4.66406 -8.4668,4.66406 -3.22174,0 -6.85593,-1.87393 -8.4668,-4.66406 l -29.57617,-51.22851 c 9.93009,-2.27952 20.52484,-3.75015 31.79297,-4.15039 l 0,-49.99805 z m -36.50977,164.77343 c 3.22176,-1e-5 6.66257,2.20989 8.27344,5 1.61087,2.79011 1.80425,6.87395 0.19336,9.66407 L 143.2846,484.9565 c -19.28852,-15.35974 -32.69614,-37.73862 -36.47852,-63.39648 l 56.14844,-0.002 z m 85.51954,0 56.14843,0.002 c -3.78237,25.65786 -17.18999,48.03674 -36.47851,63.39648 l -28.13672,-48.73437 c -1.61089,-2.79012 -1.41751,-6.87396 0.19336,-9.66407 1.61087,-2.79011 5.05168,-5.00001 8.27344,-5 z m -42.75977,24.91211 c 3.22174,0 6.85593,1.8739 8.4668,4.66407 l 28.11328,48.69335 c -11.31268,4.40439 -23.64568,6.82032 -36.58008,6.82032 -12.9344,0 -25.2674,-2.41593 -36.58008,-6.82032 l 28.11328,-48.69335 c 1.61087,-2.79017 5.24506,-4.66407 8.4668,-4.66407 z"
      id="path4672-9" />
  </g>
</svg>
