<?xml version="1.0" encoding="utf-8"?>
<!-- Generator: Adobe Illustrator 19.0.0, SVG Export Plug-In . SVG Version: 6.00 Build 0)  -->
<svg version="1.1" id="Layer_1" xmlns="http://www.w3.org/2000/svg"
	xmlns:xlink="http://www.w3.org/1999/xlink" x="0px" y="0px"
	viewBox="-179 -14.6 600 588.6" style="enable-background:new -179 -14.6 600 588.6;"
	xml:space="preserve">
<style type="text/css">
	.st0{fill:#16B68F;}
	.st1{fill:#FFFFFF;}
</style>
<title>JR Central Kansai Line</title>
<rect x="-179" y="-14.6" class="st0" width="600" height="588.6"/>
<path class="st1" d="M59.1,428.9C-34.3,428.9-98,375-98,283.8c0-88.2,65.7-144.8,153.3-144.8c25,0,46.1,1.9,70.3,10.2l-4.2,49
	c-20.8-9.4-38.8-12.8-61.5-12.8c-57.6,0-95.7,33.9-95.7,96.9s42.3,98.8,96.4,98.8c21.2,0,41.1-2.3,64.2-10.9l1.9,49.4
	C108.7,425.5,84.2,428.9,59.1,428.9"/>
<path class="st1" d="M212.8,379.5c25.4,0,36.1-13.9,36.1-47.1V141.7h58.8v196.4c0,57.3-23,92.7-84.9,92.7c-12.7,0-27.3-1.5-39.6-5.6
	l1.5-49.8C193.8,378.2,203.3,379.6,212.8,379.5"/>
</svg>
