<svg width="4368" height="3537" xmlns="http://www.w3.org/2000/svg"
  xmlns:xlink="http://www.w3.org/1999/xlink" overflow="hidden">
  <defs>
    <clipPath id="clip0">
      <path d="M65 457 4433 457 4433 3994 65 3994Z" fill-rule="evenodd" clip-rule="evenodd" />
    </clipPath>
  </defs>
  <g clip-path="url(#clip0)" transform="translate(-65 -457)">
    <path
      d="M1578 458C1542.31 474.292 1536.73 579.945 1534.5 606.907 1534.72 735.392 1534.28 774.515 1534.5 903L1491 458 1578 458Z"
      fill="#C90729" fill-rule="evenodd" />
    <path
      d="M0 445C35.2821 428.708 40.7948 323.055 43 296.093 42.7794 167.608 43.2205 128.485 43 0L86 445 0 445Z"
      fill="#C90729" fill-rule="evenodd" transform="matrix(1 0 0 -1 1071 903)" />
    <rect x="1114" y="458" width="420" height="1462" fill="#C90729" />
    <rect x="1768" y="458" width="420" height="936" fill="#C90729" />
    <rect x="1768" y="799" width="304" height="777" fill="#C90729" />
    <path
      d="M2232 458C2196.31 474.292 2190.73 579.945 2188.5 606.907 2188.72 735.392 2188.28 774.515 2188.5 903L2145 458 2232 458Z"
      fill="#C90729" fill-rule="evenodd" />
    <path
      d="M0 445C35.2821 428.708 40.7948 323.055 43 296.093 42.7794 167.608 43.2205 128.485 43 0L86 445 0 445Z"
      fill="#C90729" fill-rule="evenodd" transform="matrix(1 0 0 -1 1725 903)" />
    <path
      d="M1146.43 2138.69C1353.07 1910.9 1779.21 1486.83 2189.16 1261.21 2599.1 1035.59 2832.74 933.199 3510.1 904.989 3470.33 923.507 3486.56 1042.02 3446.79 1060.54 3200.11 1062.65 2625.29 1106.16 2040.71 1632.52 1600.13 2050.89 1515.06 2285.24 1445.74 2423.13L1146.43 2138.69Z"
      fill="#C90729" fill-rule="evenodd" />
    <path
      d="M3509.58 904.886C3520.05 1011.63 3477.05 1175.16 3420.79 1295.3 3364.53 1415.45 3280.22 1535.88 3172 1625.75 3063.78 1731.62 2900 1743.75 2808 1849.75 2699.78 2027.62 2724 2123.08 2616 2209.75 2509.78 2288.29 2374.67 2295.75 2292 2405.75 2239.12 2450.29 2203.33 2679.08 2080 2809.75 1954.67 2922.42 1923.64 2906.19 1828 2985.75 1452.89 3341.24 1462.38 3789.56 1462.16 3864.42L1378.67 3864.21C1378.31 3737.99 1335.26 3120.07 1816 2725.75 2094.22 2532.9 1941.55 2417.17 2134 2209.75 2237.33 2081.75 2286.88 2109.84 2440 2021.75 2547.33 1939.08 2561.55 1730.51 2688 1629.75 2814.45 1504.99 2844.9 1551.63 2990.31 1465.21 3161.01 1314.75 3216.64 1244.44 3256.12 1055.91 3281.9 1023.04 3475.8 923.755 3509.58 904.886Z"
      fill="#C90729" fill-rule="evenodd" />
    <path
      d="M1120.73 3501.73C1122.68 3382.55 1095.79 3181.29 1038 3050 958.212 2874.71 891 2768.67 713.333 2681.33 560.778 2611.22 489.222 2592.56 394.667 2524 300.111 2455.44 200.423 2375.23 146 2270 80.9001 2165.7 57.9246 2003.78 68.1289 1885.94 98.3838 1666.02 220.803 1566.34 237.226 1554.9 347.649 1455.47 488.043 1403.38 598.667 1397.33 846.879 1394.05 960.444 1507.33 992 1540 1094.66 1629.82 1146 1782.67 1148 1892 1143.99 2137.82 1008.67 2199.33 936 2241.33 761.99 2303.82 661.333 2229.33 600 2184 473.99 2062.49 507.333 1921.33 524 1881.33 554.445 1813.33 586.667 1782.67 601.333 1772 618.667 1758.67 661.851 1731.7 708 1729.33 751.483 1730.97 814.896 1724.49 859.563 1812.49 788.229 1797.83 809.26 1795.64 752 1812 693.406 1841.7 638.952 1896.93 694.667 1998.67 793.333 2088 850.667 2050.67 901.333 2025.33 948.667 1983.33 1042.28 1901.6 944 1708 898.222 1650.22 918 1667.33 874.667 1632 850 1612.67 800.062 1589.38 736 1586.67 689.778 1587.56 636 1596.89 590.667 1616 545.333 1635.11 510.111 1665.67 460 1714.67 409.889 1779.67 383.618 1827.6 364.667 1962 366.334 2067.22 374.285 2089.82 432.667 2206.67 489.667 2291 520.475 2331.96 622.667 2398.76 712.667 2448.43 807.618 2477.49 912 2575.33 1058.67 2720 1091.95 2809.49 1136 3016 1178.05 3170.51 1163 3434.37 1164.54 3501.58L1120.73 3501.73Z"
      fill="#C90729" fill-rule="evenodd" />
    <path
      d="M1135 1868 1443.32 1868C1443.32 2041.22 1451 2241.44 1451 2414.65 1328.22 2685.43 1303.33 2749.6 1243.86 2952.66 1202.44 3131.72 1168.8 3260.44 1166.02 3502L1135 3502 1135 1868Z"
      fill="#C90729" fill-rule="evenodd" />
    <path
      d="M2659.36 3481C2659.05 3432.16 2659.46 3438.54 2659 3407.2 2662.6 3347.44 2678.58 3331.73 2699.44 3311.37 2718.8 3293.5 2752.55 3279.34 2797.22 3280.02 2841.89 3280.7 2858.3 3282.43 2889.59 3297.44 2925.86 3319.45 2942.16 3354.33 2942 3387.09 2920.14 3387.09 2853.59 3450.54 2831.73 3450.54 2831.73 3402.68 2832.79 3377.59 2796.58 3377.59 2758.84 3385.21 2761.42 3433.14 2761.42 3481L2659.36 3481Z"
      fill-rule="evenodd" />
    <path
      d="M3054 3467.98C3054 3368.32 3151.78 3300.22 3197.61 3286.01 3243.44 3271.8 3329 3283.05 3329 3382.7 3299.46 3382.7 3253.12 3484.73 3223.58 3484.73 3215.94 3490.19 3235.86 3412.4 3191.5 3394.13 3142.56 3394.13 3154.83 3449.07 3142.61 3467.98L3054 3467.98Z"
      fill-rule="evenodd" />
    <path d="M0 199 37.8056 0 80 0 42.1944 199Z" fill-rule="evenodd"
      transform="matrix(1 -0 -0 -1 3848 3896)" />
    <rect x="2217" y="3105" width="124" height="755" />
    <rect x="2451" y="3105" width="123" height="755" />
    <rect x="2263" y="3409" width="282" height="119" />
    <rect x="2830" y="3380" width="112" height="480" />
    <rect x="3036" y="3290" width="113" height="570" />
    <rect x="3216" y="3380" width="113" height="480" />
    <rect x="3413" y="3105" width="112" height="755" />
    <rect x="4136" y="3290" width="112" height="479" />
    <rect x="4319" y="3290" width="113" height="570" />
    <path d="M3875 3889 3987.56 3290 4088 3290 3975.44 3889Z" fill-rule="evenodd" />
    <path d="M3499 3540 3621.64 3290 3746 3290 3623.36 3540Z" fill-rule="evenodd" />
    <path d="M0 317 122.635 0 247 0 124.365 317Z" fill-rule="evenodd"
      transform="matrix(1 -0 -0 -1 3499 3857)" />
    <path d="M0 523 95.4591 0 202 0 106.541 523Z" fill-rule="evenodd"
      transform="matrix(1 -0 -0 -1 3774 3813)" />
    <rect x="3807" y="3896" width="56" height="97" />
    <path
      d="M3976.52 3850.48C3987.07 3917.87 3940.76 3981.02 3873.1 3991.53 3866.78 3992.51 3860.39 3993 3854 3993L3854 3896.17C3869.01 3896.17 3881.17 3884.23 3881.17 3869.5 3881.17 3868.1 3881.06 3866.71 3880.84 3865.33Z"
      fill-rule="evenodd" />
    <path
      d="M4410 3677.02C4410 3776.68 4312.58 3844.78 4266.91 3858.99 4221.24 3873.2 4136 3861.95 4136 3762.3 4165.43 3762.3 4211.6 3660.27 4241.03 3660.27 4248.64 3654.81 4228.81 3732.6 4273 3750.88 4321.76 3750.88 4316.53 3692.93 4321.71 3677.02L4410 3677.02Z"
      fill-rule="evenodd" />
    <path
      d="M2754.69 3861C2746.18 3855.75 2640.15 3894.09 2655.52 3646.92 2661.53 3514.25 2788.72 3527.6 2836.21 3443L2838.89 3569.29C2817.87 3577.86 2791.51 3595.75 2775.84 3621.63 2766.67 3644.78 2766.89 3716.22 2770.49 3741.44 2776.51 3762.3 2788.72 3763.03 2805.25 3764.07 2817.77 3762.45 2849.79 3699.34 2840.25 3718.38 2821.9 3748.7 2854.35 3769.7 2836 3800.01 2818.25 3872.26 2789.81 3856.65 2754.69 3861Z"
      fill-rule="evenodd" />
  </g>
</svg>
