<svg width="30" height="30" viewBox="0 0 30 30" fill="none" xmlns="http://www.w3.org/2000/svg">
  <rect width="30" height="30" fill="#003B99" />
  <path
    d="M21.2877 14.4702C21.2877 16.9664 20.5775 18.8488 19.157 20.1176C17.7366 21.3725 15.7576 22 13.2201 22H9.04145V7.23004H13.6752C15.2197 7.23004 16.5574 7.50585 17.6883 8.05749C18.8329 8.60912 19.7155 9.42278 20.3361 10.4985C20.9705 11.5741 21.2877 12.8981 21.2877 14.4702ZM18.04 14.553C18.04 12.9256 17.6814 11.7258 16.9643 10.9536C16.2471 10.1813 15.2059 9.79513 13.8407 9.79513H12.1651V19.4142H13.5097C16.5299 19.4142 18.04 17.7938 18.04 14.553Z"
    fill="white" />
</svg>
