<?xml version="1.0" encoding="utf-8"?>
<svg version="1.1" xmlns="http://www.w3.org/2000/svg" xmlns:xlink="http://www.w3.org/1999/xlink"
  width="401.1" height="401.1" viewBox="0 0 401.1 401.1">
  <defs>
    <path fill="#1E2877" id="window"
      d="m283.1,191.7h-15.7c-3.6,0-6.6-2.9-6.6-6.6v-19.6c0-3.6,2.9-6.6,6.6-6.6h15.7c3.6,0,6.6,2.9,6.6,6.6v19.6
		C289.7,188.7,286.7,191.7,283.1,191.7" />
  </defs>

  <path fill="#1E2877"
    d="M0,355.4L0,45.7C0,20.6,20.6,0,45.7,0l309.7,0c25.1,0,45.7,20.6,45.7,45.7v309.7c0,25.1-20.6,45.7-45.7,45.7H45.7C20.6,401.1,0,380.5,0,355.4z" />
  <g fill="#FFF">
    <rect x="0" y="270" width="391.1" height="22.3" />
    <path
      d="M282.5,122c-34.3,0-41.1,4.2-41.1,4.2l-18.7,7.3l-35.4,15.9c-21.9,9.5-131.9,35.4-131.9,35.4s-41.6,9.5-45,38
		h380.8V122H282.5z" />
    <path
      d="M118.4,163.9c11.8-2.5,60-12.8,110.8-40.1c0.8-0.4,0.6-1.7-0.4-1.7c-12.6-1.1-66.7-2.6-111.3,40.3
		C116.9,162.9,117.5,164.1,118.4,163.9z" />
  </g>
  <path fill="#847779" d="M80.4,256.2h310.7v-22.3H11.6C21.7,257.6,80.4,256.2,80.4,256.2z" />
  <use xlink:href="#window" />
  <use xlink:href="#window" transform="translate(45,0)" />
  <use xlink:href="#window" transform="translate(90,0)" />
</svg>
