<?xml version="1.0" encoding="UTF-8" standalone="no"?>
<svg
  xmlns:dc="http://purl.org/dc/elements/1.1/"
  xmlns:cc="http://creativecommons.org/ns#"
  xmlns:rdf="http://www.w3.org/1999/02/22-rdf-syntax-ns#"
  xmlns:svg="http://www.w3.org/2000/svg"
  xmlns="http://www.w3.org/2000/svg"
  xmlns:sodipodi="http://sodipodi.sourceforge.net/DTD/sodipodi-0.dtd"
  xmlns:inkscape="http://www.inkscape.org/namespaces/inkscape"
  width="375.39886"
  height="375.84903"
  viewBox="0 0 375.39886 375.84903"
  id="svg2"
  version="1.1"
  inkscape:version="0.91 r13725"
  sodipodi:docname="IR Logomark.svg">
  <sodipodi:namedview
    pagecolor="#ffffff"
    bordercolor="#666666"
    borderopacity="1"
    objecttolerance="10"
    gridtolerance="10"
    guidetolerance="10"
    inkscape:pageopacity="0"
    inkscape:pageshadow="2"
    inkscape:window-width="1920"
    inkscape:window-height="1001"
    id="namedview11"
    showgrid="false"
    fit-margin-top="0"
    fit-margin-left="0"
    fit-margin-right="0"
    fit-margin-bottom="0"
    inkscape:zoom="0.6675088"
    inkscape:cx="253.77914"
    inkscape:cy="109.22217"
    inkscape:window-x="-9"
    inkscape:window-y="-9"
    inkscape:window-maximized="1"
    inkscape:current-layer="svg2" />
  <defs
    id="defs4" />
  <metadata
    id="metadata7">
    <rdf:RDF>
      <cc:Work
        rdf:about="">
        <dc:format>image/svg+xml</dc:format>
        <dc:type
          rdf:resource="http://purl.org/dc/dcmitype/StillImage" />
        <dc:title></dc:title>
        <cc:license
          rdf:resource="http://creativecommons.org/publicdomain/zero/1.0/" />
      </cc:Work>
      <cc:License
        rdf:about="http://creativecommons.org/publicdomain/zero/1.0/">
        <cc:permits
          rdf:resource="http://creativecommons.org/ns#Reproduction" />
        <cc:permits
          rdf:resource="http://creativecommons.org/ns#Distribution" />
        <cc:permits
          rdf:resource="http://creativecommons.org/ns#DerivativeWorks" />
      </cc:License>
    </rdf:RDF>
  </metadata>
  <g
    id="g4274"
    transform="matrix(0.33333333,0,0,0.33333333,-62.879077,-8.2569766)">
    <path
      id="path3376"
      style="fill:#01a7e3;fill-opacity:1"
      d="M 189.36593,624.28583 C 188.18621,604.98894 188.48466,563.35732 189.93072,545.5 196.62235,462.86559 219.83176,385.66385 259.22667,315 331.667,185.06157 452.87362,88.4612 594.76493,47.57963 612.72903,42.40383 635.13276,36.92865 635.8344,37.54277 636.65576,38.26169 589.06895,113.30365 557.54573,161 465.55971,300.17988 359.68361,441.37964 254.61362,565 c -18.49968,21.76585 -60.85935,70.15396 -62.84237,71.78583 -1.39709,1.14969 -1.65176,-0.17379 -2.40532,-12.5 z M 432.4489,1052.8917 C 391.03749,1024.6503 348.07585,985.16905 315.95092,945.83139 l -8.83587,-10.81972 24.25485,-48.25583 c 13.34017,-26.54071 29.96178,-60.25844 36.93692,-74.92829 111.18422,-233.8384 226.0951,-524.33287 298.18255,-753.80483 4.74752,-15.1125 8.71707,-27.53213 8.82124,-27.59919 C 677.01124,29.32877 713,26.52946 713,27.49194 c 0,0.43285 -2.91611,15.91174 -6.48024,34.39753 C 645.06778,380.61761 567.23364,688.28022 480.32287,956 c -11.23278,34.60143 -33.85625,101.2282 -35.23573,103.7703 -0.48781,0.8989 -4.18245,-1.112 -12.63824,-6.8786 z M 751,588.54449 l 0,-563.77356 17.25,0.68218 c 69.27349,2.73954 129.67831,15.16962 190.66758,39.2355 56.11742,22.14349 107.94172,53.00925 155.13792,92.39778 17.469,14.57911 49.738,46.5834 65.3025,64.7669 80.2287,93.72816 126.4273,207.0688 134.714,330.49836 1.4984,22.31912 0.6778,72.59607 -1.5122,92.64835 -4.9387,45.2196 -13.051,82.82514 -26.5338,123 -6.0494,18.02571 -14.4852,39.84014 -15.9948,41.36196 -1.0209,1.02907 -12.0165,-7.20259 -32.506,-24.33497 -43.586,-36.44463 -84.4332,-79.23733 -115.4639,-120.96312 C 1108.3258,645.59417 1088,614.14442 1088,611.36135 c 0,-0.56227 2.1375,-2.54427 4.75,-4.40445 6.4423,-4.58709 25.0394,-22.74653 32.7814,-32.00987 14.8534,-17.77225 29.6444,-43.26897 37.9667,-65.44703 4.8051,-12.80507 9.8032,-32.71282 12.051,-48 2.1323,-14.50207 2.4429,-46.10881 0.5699,-58 -15.3058,-97.17384 -100.0228,-174.37233 -228.16764,-207.91797 -33.98003,-8.89527 -76.52698,-15.38862 -112.89166,-17.2291 l -13.19464,-0.6678 0.60887,5.90744 c 0.59018,5.72614 8.52502,113.74179 8.52572,116.05924 2.1e-4,0.67653 2.57938,1.42121 6.25035,1.80465 13.26019,1.38508 37.92304,5.88449 53.00775,9.67056 52.45923,13.16657 91.34282,34.65278 114.23625,63.12438 8.3784,10.41989 16.6944,26.98891 20.2008,40.2486 2.3167,8.76053 2.644,11.92117 2.6407,25.5 0,18.15884 -1.5737,25.43836 -8.75,40.58774 -6.2282,13.14783 -13.4715,23.23131 -25.0855,34.92201 -26.55172,26.72697 -68.41081,50.0603 -117.76326,65.64425 l -13.76325,4.346 0.63591,3 c 1.42987,6.74567 14.30878,42.60435 23.88397,66.5 31.63903,78.95775 72.84919,156.01043 120.87183,226 32.3707,47.17804 65.0978,87.49696 106.4474,131.1406 l 4.3967,4.6406 -8.8546,7.3665 c -50.8339,42.2904 -117.52277,79.0094 -181.53283,99.9522 -50.3829,16.4843 -103.38304,25.8385 -156.07187,27.5458 l -20.75,0.6723 0,-563.77351 z"
      inkscape:connector-curvature="0" />
  </g>
</svg>
