<svg version="1.1" viewBox="0.0 0.0 237.3727034120735 211.0524934383202" fill="none" stroke="none"
  stroke-linecap="square" stroke-miterlimit="10" xmlns:xlink="http://www.w3.org/1999/xlink"
  xmlns="http://www.w3.org/2000/svg">
  <clipPath id="p.0">
    <path d="m0 0l237.3727 0l0 211.05249l-237.3727 0l0 -211.05249z" clip-rule="nonzero" />
  </clipPath>
  <g clip-path="url(#p.0)">
    <path fill="#000000" fill-opacity="0.0" d="m0 0l237.3727 0l0 211.05249l-237.3727 0z"
      fill-rule="evenodd" />
    <path fill="#ffffff"
      d="m31.678478 105.52612l0 0c0 -48.775005 38.954754 -88.31496 87.00787 -88.31496l0 0c23.07592 0 45.20672 9.3045845 61.523857 25.866854c16.317139 16.562267 25.484024 39.02552 25.484024 62.448105l0 0c0 48.77501 -38.954758 88.31496 -87.00788 88.31496l0 0c-48.053116 0 -87.00787 -39.539948 -87.00787 -88.31496z"
      fill-rule="evenodd" />
    <path stroke="#651427" stroke-width="24.0" stroke-linejoin="round" stroke-linecap="butt"
      d="m31.678478 105.52612l0 0c0 -48.775005 38.954754 -88.31496 87.00787 -88.31496l0 0c23.07592 0 45.20672 9.3045845 61.523857 25.866854c16.317139 16.562267 25.484024 39.02552 25.484024 62.448105l0 0c0 48.77501 -38.954758 88.31496 -87.00788 88.31496l0 0c-48.053116 0 -87.00787 -39.539948 -87.00787 -88.31496z"
      fill-rule="evenodd" />
    <path fill="#000000"
      d="m78.28703 127.40612l-10.484375 -43.90625l9.078125 0l6.625 30.15625l8.015625 -30.15625l10.546875 0l7.6875 30.671875l6.75 -30.671875l8.921875 0l-10.671875 43.90625l-9.390625 0l-8.75 -32.8125l-8.71875 32.8125l-9.609375 0zm51.77504 0l0 -43.90625l8.875 0l0 19.5l17.90625 -19.5l11.90625 0l-16.53125 17.109375l17.4375 26.796875l-11.46875 0l-12.078125 -20.609375l-7.171875 7.34375l0 13.265625l-8.875 0z"
      fill-rule="nonzero" />
  </g>
</svg>
