<?xml version="1.0" encoding="UTF-8" standalone="no"?>
<!-- Created with Inkscape (http://www.inkscape.org/) -->

<svg
  xmlns:dc="http://purl.org/dc/elements/1.1/"
  xmlns:cc="http://creativecommons.org/ns#"
  xmlns:rdf="http://www.w3.org/1999/02/22-rdf-syntax-ns#"
  xmlns:svg="http://www.w3.org/2000/svg"
  xmlns="http://www.w3.org/2000/svg"
  xmlns:sodipodi="http://sodipodi.sourceforge.net/DTD/sodipodi-0.dtd"
  xmlns:inkscape="http://www.inkscape.org/namespaces/inkscape"
  width="84.666664mm"
  height="84.666664mm"
  viewBox="0 0 299.99999 300"
  id="svg4756"
  version="1.1"
  inkscape:version="0.91 r13725"
  sodipodi:docname="MIZMA.svg">
  <defs
    id="defs4758" />
  <sodipodi:namedview
    id="base"
    pagecolor="#ffffff"
    bordercolor="#666666"
    borderopacity="1.0"
    inkscape:pageopacity="0.0"
    inkscape:pageshadow="2"
    inkscape:zoom="0.98994949"
    inkscape:cx="181.11996"
    inkscape:cy="115.35955"
    inkscape:document-units="px"
    inkscape:current-layer="layer1"
    showgrid="false"
    fit-margin-top="0"
    fit-margin-left="0"
    fit-margin-right="0"
    fit-margin-bottom="0"
    inkscape:window-width="1106"
    inkscape:window-height="816"
    inkscape:window-x="781"
    inkscape:window-y="86"
    inkscape:window-maximized="0" />
  <metadata
    id="metadata4761">
    <rdf:RDF>
      <cc:Work
        rdf:about="">
        <dc:format>image/svg+xml</dc:format>
        <dc:type
          rdf:resource="http://purl.org/dc/dcmitype/StillImage" />
        <dc:title></dc:title>
      </cc:Work>
    </rdf:RDF>
  </metadata>
  <g
    inkscape:label="レイヤー 1"
    inkscape:groupmode="layer"
    id="layer1"
    transform="translate(392.02817,-358.73773)">
    <g
      style="display:inline"
      id="g6068"
      transform="matrix(0.9375,0,0,0.9375,-348.86927,-75.432882)">
      <circle
        r="52"
        cy="537.86523"
        cx="217.9639"
        id="path5765"
        style="color:#000000;clip-rule:nonzero;display:inline;overflow:visible;visibility:visible;opacity:1;isolation:auto;mix-blend-mode:normal;color-interpolation:sRGB;color-interpolation-filters:linearRGB;solid-color:#000000;solid-opacity:1;fill:#626365;fill-opacity:1;fill-rule:nonzero;stroke:none;stroke-width:17;stroke-linecap:butt;stroke-linejoin:miter;stroke-miterlimit:4;stroke-dasharray:none;stroke-dashoffset:0;stroke-opacity:0.60833333;color-rendering:auto;image-rendering:auto;shape-rendering:auto;text-rendering:auto;enable-background:accumulate" />
      <circle
        r="34.5"
        cy="537.86523"
        cx="217.9639"
        id="path5765-5"
        style="color:#000000;clip-rule:nonzero;display:inline;overflow:visible;visibility:visible;opacity:1;isolation:auto;mix-blend-mode:normal;color-interpolation:sRGB;color-interpolation-filters:linearRGB;solid-color:#000000;solid-opacity:1;fill:#fef200;fill-opacity:1;fill-rule:nonzero;stroke:none;stroke-width:17;stroke-linecap:butt;stroke-linejoin:miter;stroke-miterlimit:4;stroke-dasharray:none;stroke-dashoffset:0;stroke-opacity:0.60833333;color-rendering:auto;image-rendering:auto;shape-rendering:auto;text-rendering:auto;enable-background:accumulate" />
      <path
        sodipodi:nodetypes="ccccc"
        inkscape:connector-curvature="0"
        id="rect5782"
        d="m 176.96384,596.36532 79.99999,0 0,121.00002 -79.99999,0 z"
        style="color:#000000;clip-rule:nonzero;display:inline;overflow:visible;visibility:visible;opacity:1;isolation:auto;mix-blend-mode:normal;color-interpolation:sRGB;color-interpolation-filters:linearRGB;solid-color:#000000;solid-opacity:1;fill:#0062ab;fill-opacity:1;fill-rule:nonzero;stroke:none;stroke-width:17;stroke-linecap:butt;stroke-linejoin:miter;stroke-miterlimit:4;stroke-dasharray:none;stroke-dashoffset:0;stroke-opacity:0.60833333;color-rendering:auto;image-rendering:auto;shape-rendering:auto;text-rendering:auto;enable-background:accumulate" />
      <path
        sodipodi:nodetypes="ccccc"
        inkscape:connector-curvature="0"
        id="rect5782-0"
        d="m 73.96383,596.36532 79.99999,0 0,121.00002 -79.99999,0 z"
        style="color:#000000;clip-rule:nonzero;display:inline;overflow:visible;visibility:visible;opacity:1;isolation:auto;mix-blend-mode:normal;color-interpolation:sRGB;color-interpolation-filters:linearRGB;solid-color:#000000;solid-opacity:1;fill:#00a5e5;fill-opacity:1;fill-rule:nonzero;stroke:none;stroke-width:17;stroke-linecap:butt;stroke-linejoin:miter;stroke-miterlimit:4;stroke-dasharray:none;stroke-dashoffset:0;stroke-opacity:0.60833333;color-rendering:auto;image-rendering:auto;shape-rendering:auto;text-rendering:auto;enable-background:accumulate" />
      <path
        sodipodi:nodetypes="ccccc"
        inkscape:connector-curvature="0"
        id="rect5782-0-9"
        d="m -29.03617,596.36532 79.99999,0 0,121.00002 -79.99999,0 z"
        style="color:#000000;clip-rule:nonzero;display:inline;overflow:visible;visibility:visible;opacity:1;isolation:auto;mix-blend-mode:normal;color-interpolation:sRGB;color-interpolation-filters:linearRGB;solid-color:#000000;solid-opacity:1;fill:#5fbd4f;fill-opacity:1;fill-rule:nonzero;stroke:none;stroke-width:17;stroke-linecap:butt;stroke-linejoin:miter;stroke-miterlimit:4;stroke-dasharray:none;stroke-dashoffset:0;stroke-opacity:0.60833333;color-rendering:auto;image-rendering:auto;shape-rendering:auto;text-rendering:auto;enable-background:accumulate" />
      <path
        sodipodi:nodetypes="cccccccccccccccccccccccccccccccssssssccsssscscccccccccccccccccccccccccc"
        inkscape:connector-curvature="0"
        id="path5815"
        d="m -29.03617,725.36541 0,35 7,0 0,-25.00196 17.5,25.00196 8,0 17.5,-25.00196 0,25.00196 7,0 0,-35 -8.25,0 -20.25,28.66015 -20.25,-28.66015 z m 63.5,0 0,35 7,0 0,-35 z m 13,0 0,7 28,0 -28,24.5 0,3.5 41,0 0,-7 -27,0 27,-22.5 0,-5.5 z m 47,0 0,22.5 c 0,3.7171 1.11331,7.01973 3.38281,9.27734 2.2695,2.25762 5.42351,3.22266 8.6172,3.22266 l 20.5,0 c 3.19367,0 6.34768,-0.96504 8.61718,-3.22266 2.26951,-2.25761 3.38282,-5.56024 3.38282,-9.27734 l 0,-22.5 -7,0 0,22.5 c 0,2.40709 -0.60523,3.60506 -1.32032,4.3164 -0.71507,0.71133 -1.8117,1.1836 -3.67968,1.1836 l -20.5,0 c -1.86801,0 -2.96461,-0.47227 -3.6797,-1.1836 -0.71507,-0.71134 -1.3203,-1.90931 -1.3203,-4.3164 l 0,-22.5 z m 50.00001,0 0,35 7,0 0,-25.00196 17.5,25.00196 8,0 17.5,-25.00196 0,25.00196 7,0 0,-35 -8.25,0 -20.25,28.66015 -20.25,-28.66015 z m 82.5,0 -20.5,35 8,0 17.25,-29.45117 17.25,29.45117 7.99999,0 -20.5,-35 -1.5,0 -6.5,0 z"
        style="color:#000000;font-style:normal;font-variant:normal;font-weight:normal;font-stretch:normal;font-size:medium;line-height:normal;font-family:sans-serif;text-indent:0;text-align:start;text-decoration:none;text-decoration-line:none;text-decoration-style:solid;text-decoration-color:#000000;letter-spacing:normal;word-spacing:normal;text-transform:none;direction:ltr;block-progression:tb;writing-mode:lr-tb;baseline-shift:baseline;text-anchor:start;white-space:normal;clip-rule:nonzero;display:inline;overflow:visible;visibility:visible;opacity:1;isolation:auto;mix-blend-mode:normal;color-interpolation:sRGB;color-interpolation-filters:linearRGB;solid-color:#000000;solid-opacity:1;fill:#626365;fill-opacity:1;fill-rule:nonzero;stroke:none;stroke-width:7;stroke-linecap:butt;stroke-linejoin:miter;stroke-miterlimit:4;stroke-dasharray:none;stroke-dashoffset:0;stroke-opacity:1;color-rendering:auto;image-rendering:auto;shape-rendering:auto;text-rendering:auto;enable-background:accumulate" />
    </g>
  </g>
</svg>
