<svg xmlns="http://www.w3.org/2000/svg" width="149.416" height="149.416"
  xmlns:v="https://vecta.io/nano">
  <path
    d="M135.582 116.287a73.4 73.4 0 0 0 12.751-41.454c0-40.731-33.019-73.75-73.75-73.75S.833 34.102.833 74.833s33.019 73.75 73.75 73.75c24.423 0 46.063-11.88 59.484-30.167h-17.185c-10.938 10.619-25.851 17.167-42.3 17.167-25.758 0-47.755-16.038-56.593-38.667h33.176l-5.625 11.5h27.25l2.342-11.64h26.022l5.844 20.432h27.625L85.791 29.291 64.666 69.416 46.782 36.818 17.815 96.472c-2.565-6.724-3.982-14.014-3.982-21.639 0-33.551 27.199-60.75 60.75-60.75s60.75 27.199 60.75 60.75a60.46 60.46 0 0 1-7.078 28.462l7.327 12.992zM78.071 82.166l1.938-9.637h14.253l2.739 9.637h-18.93zm7.845-39l5.614 19.75h-9.587l3.973-19.75zm-39.062 4.688l4.37 15.063h-7.189l2.819-15.063zm-4.619 24.675h11.777l2.82 9.72H40.416l1.819-9.72z" />
</svg>
