<?xml version="1.0" encoding="UTF-8" standalone="no"?>
<svg
   xmlns:dc="http://purl.org/dc/elements/1.1/"
   xmlns:cc="http://creativecommons.org/ns#"
   xmlns:rdf="http://www.w3.org/1999/02/22-rdf-syntax-ns#"
   xmlns:svg="http://www.w3.org/2000/svg"
   xmlns="http://www.w3.org/2000/svg"
   xmlns:sodipodi="http://sodipodi.sourceforge.net/DTD/sodipodi-0.dtd"
   xmlns:inkscape="http://www.inkscape.org/namespaces/inkscape"
   width="100"
   height="100"
   viewBox="0 0 120 120"
   version="1.0"
   id="svg2"
   sodipodi:version="0.32"
   inkscape:version="0.46"
   sodipodi:docname="Yokohama_Municipal_Subway.svg"
   inkscape:output_extension="org.inkscape.output.svg.inkscape">
  <metadata
     id="metadata21">
    <rdf:RDF>
      <cc:Work
         rdf:about="">
        <dc:format>image/svg+xml</dc:format>
        <dc:type
           rdf:resource="http://purl.org/dc/dcmitype/StillImage" />
      </cc:Work>
    </rdf:RDF>
  </metadata>
  <defs
     id="defs19">
    <inkscape:perspective
       sodipodi:type="inkscape:persp3d"
       inkscape:vp_x="0 : 75 : 1"
       inkscape:vp_y="0 : 1000 : 0"
       inkscape:vp_z="150 : 75 : 1"
       inkscape:persp3d-origin="75 : 50 : 1"
       id="perspective23" />
  </defs>
  <sodipodi:namedview
     inkscape:window-height="1018"
     inkscape:window-width="1920"
     inkscape:pageshadow="2"
     inkscape:pageopacity="0.0"
     guidetolerance="10.0"
     gridtolerance="10.0"
     objecttolerance="10.0"
     borderopacity="1.0"
     bordercolor="#666666"
     pagecolor="#ffffff"
     id="base"
     showgrid="false"
     inkscape:zoom="3.08"
     inkscape:cx="75"
     inkscape:cy="75"
     inkscape:window-x="-8"
     inkscape:window-y="-8"
     inkscape:current-layer="svg2" />
  <path
     sodipodi:type="arc"
     style="opacity:1;fill:#ffffff;fill-opacity:1;fill-rule:nonzero;stroke:none;stroke-width:7;stroke-miterlimit:4;stroke-dasharray:none;stroke-dashoffset:0;stroke-opacity:1"
     id="path2396"
     sodipodi:cx="42.662338"
     sodipodi:cy="108.7013"
     sodipodi:rx="31.363636"
     sodipodi:ry="103.63636"
     d="M 74.025974,108.7013 A 31.363636,103.63636 0 1 1 11.298702,108.7013 A 31.363636,103.63636 0 1 1 74.025974,108.7013 z"
     transform="matrix(1.9130435,0,0,0.5789474,-21.614909,-2.9323372)" />
  <g
     id="#ffffffff" />
  <g
     id="#0d6badff"
     transform="matrix(1.3564699,0,0,1.3568933,-21.393329,-23.114677)">
    <path
       d="M 33.9,25.67 C 48.73,14.12 71.18,14.23 86.11,25.56 C 75.29,27.79 66.43,35.16 59.76,43.66 C 53.26,35.22 44.49,28.04 33.9,25.67 z"
       id="path6"
       style="opacity:1;fill:#0d6bad" />
    <path
       d="M 28.49,30.08 C 40.18,31.5 49.69,39.95 56.18,49.27 C 54.91,51.7 53.79,54.2 52.82,56.77 C 47.5,45.26 35.66,37.62 23.13,36.67 C 24.82,34.4 26.61,32.2 28.49,30.08 z"
       id="path8"
       style="opacity:1;fill:#0d6bad" />
    <path
       d="M 63.3,49.13 C 70.13,39.89 79.57,31.14 91.54,30.06 C 93.39,32.18 95.17,34.37 96.87,36.62 C 84.4,37.52 71.87,44.87 67.04,56.75 C 65.68,54.27 64.48,51.7 63.3,49.13 z"
       id="path10"
       style="opacity:1;fill:#0d6bad" />
    <path
       d="M 20.06,42.03 C 35.71,42.03 50.62,56.01 49.74,71.97 C 49.67,82.78 49.77,93.58 49.68,104.39 C 39.28,101.64 29.67,95.44 23.65,86.42 C 14.53,73.68 13.32,56.1 20.06,42.03 z"
       id="path12"
       style="opacity:1;fill:#0d6bad" />
    <path
       d="M 69.71,71.95 C 68.94,55.82 84.11,41.77 99.94,42.02 C 105.76,54.36 105.76,69.32 99.37,81.44 C 93.56,93.06 82.33,101.52 69.75,104.5 C 69.69,93.65 69.77,82.8 69.71,71.95 z"
       id="path14"
       style="opacity:1;fill:#0d6bad" />
    <path
       d="M 59.76,55.89 C 61.84,60.63 63.55,65.7 63.52,70.93 C 63.48,82.44 63.51,93.94 63.5,105.44 C 60.98,105.5 58.46,105.48 55.94,105.35 C 56.21,93.55 55.79,81.75 56.06,69.95 C 56.1,65.04 57.83,60.34 59.76,55.89 z"
       id="path16"
       style="opacity:1;fill:#0d6bad" />
  </g>
</svg>
