<?xml version="1.0" encoding="UTF-8" standalone="no"?>
<!-- Created with Inkscape (http://www.inkscape.org/) -->

<svg
  xmlns:dc="http://purl.org/dc/elements/1.1/"
  xmlns:cc="http://creativecommons.org/ns#"
  xmlns:rdf="http://www.w3.org/1999/02/22-rdf-syntax-ns#"
  xmlns:svg="http://www.w3.org/2000/svg"
  xmlns="http://www.w3.org/2000/svg"
  xmlns:sodipodi="http://sodipodi.sourceforge.net/DTD/sodipodi-0.dtd"
  xmlns:inkscape="http://www.inkscape.org/namespaces/inkscape"
  width="84.666664mm"
  height="84.666664mm"
  viewBox="0 0 299.99999 299.99999"
  id="svg4142"
  version="1.1"
  inkscape:version="0.91 r13725"
  sodipodi:docname="Aoimori_Logo.svg">
  <defs
    id="defs4144" />
  <sodipodi:namedview
    id="base"
    pagecolor="#ffffff"
    bordercolor="#666666"
    borderopacity="1.0"
    inkscape:pageopacity="0.0"
    inkscape:pageshadow="2"
    inkscape:zoom="0.98994949"
    inkscape:cx="-14.897607"
    inkscape:cy="33.705338"
    inkscape:document-units="px"
    inkscape:current-layer="layer1"
    showgrid="false"
    fit-margin-top="0"
    fit-margin-left="0"
    fit-margin-right="0"
    fit-margin-bottom="0"
    inkscape:window-width="1920"
    inkscape:window-height="1001"
    inkscape:window-x="-9"
    inkscape:window-y="-9"
    inkscape:window-maximized="1" />
  <metadata
    id="metadata4147">
    <rdf:RDF>
      <cc:Work
        rdf:about="">
        <dc:format>image/svg+xml</dc:format>
        <dc:type
          rdf:resource="http://purl.org/dc/dcmitype/StillImage" />
        <dc:title></dc:title>
      </cc:Work>
    </rdf:RDF>
  </metadata>
  <g
    inkscape:label="レイヤー 1"
    inkscape:groupmode="layer"
    id="layer1"
    transform="translate(-181.42858,-70.933611)">
    <path
      d="m 292.96612,288.68201 c 0,4.0531 -3.3163,7.3694 -7.3694,7.3694 l -33.7191,0 c -4.0531,0 -7.3694,-3.3163 -7.3694,-7.3694 l 0,-9.1829 c 0,-4.0531 3.3163,-7.3687 7.3694,-7.3687 l 33.7191,0 c 4.0531,0 7.3694,3.3156 7.3694,7.3687 z m 62.6405,0 c 0,4.0531 -3.3013,7.3694 -7.3345,7.3694 l -33.5641,0 c -4.0339,0 -7.3353,-3.3163 -7.3353,-7.3694 l 0,-9.1829 c 0,-4.0531 3.3014,-7.3687 7.3353,-7.3687 l 33.5641,0 c 4.0339,0 7.3345,3.3156 7.3345,7.3687 z m 62.7529,0 c 0,4.0531 -3.3049,7.3694 -7.3445,7.3694 l -33.6018,0 c -4.0395,0 -7.3437,-3.3163 -7.3437,-7.3694 l 0,-9.1829 c 0,-4.0531 3.3042,-7.3687 7.3437,-7.3687 l 33.6018,0 c 4.0396,0 7.3445,3.3156 7.3445,7.3687 z m 45.6679,-22.01 c 0.027,0.4182 0,54.8529 0,54.8529 0,0 0.4182,13.3157 -10.8877,24.6209 -11.4303,11.431 -25.2907,10.217 -25.2907,10.217 0,7.9554 -6.4484,14.5709 -14.4046,14.5709 -7.9561,0 -14.4038,-6.4484 -14.4038,-14.4038 l -9.7995,0 c 0,7.9554 -6.4491,14.4038 -14.4038,14.4038 -7.9547,0 -14.4045,-6.4484 -14.4045,-14.4038 l -58.0199,0 c 0,7.9554 -6.4491,14.4038 -14.4045,14.4038 -7.9554,0 -14.4038,-6.4484 -14.4038,-14.4038 l -9.7996,0 c 0,7.9554 -6.4484,14.4038 -14.4038,14.4038 -7.9554,0 -14.4038,-6.6162 -14.4038,-14.5709 0,0 -13.8597,1.214 -25.2908,-10.217 -11.30509,-11.3052 -10.88691,-24.6209 -10.88691,-24.6209 l 0,-54.8529 c 0,-5.1917 1.84769,-15.4706 9.29601,-23.6159 11.6401,-12.729 26.9934,-11.8364 26.9934,-11.8364 l 21.5498,0 0,-21.8287 -26.0723,0 c -0.7816,0 -2.9031,0.055 -4.4108,-2.6243 -1.7631,-3.1335 0.8377,-5.4705 0.8377,-5.4705 l 26.7423,-25.7936 -15.5203,0 c -0.335,0 -2.736,-0.1671 -4.0197,-2.7914 -1.2837,-2.6243 0.2795,-4.5218 0.2795,-4.5218 l 22.1089,-26.5751 -9.3792,0 c -0.8371,0 -3.406,-0.056 -4.6342,-2.3448 -1.5824,-2.94865 -0.056,-5.13635 -0.056,-5.13635 l 22.276,-34.837802 c 0.8371,-1.0611 1.5633,-1.9544 3.7964,-1.9544 l 0.2802,0 c 2.2332,0 2.9586,0.8933 3.7964,1.9544 l 22.276,34.837802 c 0,0 1.5262,2.1877 -0.056,5.13635 -1.2282,2.2893 -3.7964,2.3448 -4.6342,2.3448 l -9.3792,0 22.1082,26.5759 c 0,0 1.5632,1.8974 0.2788,4.5217 -1.2844,2.6243 -3.6847,2.7915 -4.0197,2.7915 l -15.5211,0 26.743,25.7935 c 0,0 2.6002,2.3377 0.8371,5.4712 -1.5077,2.6798 -3.6292,2.6236 -4.4101,2.6236 l -26.0731,0 0,21.8294 53.3737,0 c 2.6798,0.056 8.5976,-0.5028 9.2676,7.4811 l 0,9.6032 c 0,0 -0.4211,6.4747 -6.8119,6.8111 l -64.5386,0 -38.0205,0 c 0,0 -9.9937,0.4466 -11.3336,11.9474 l 0,53.4853 c 0,0 0.5583,12.1145 13.6222,11.8357 l 192.0551,0 c 1.5269,0.1116 5.6205,-0.6337 8.5855,-4.0858 1.4793,-1.7218 3.0546,-4.1164 3.1378,-7.4149 l 0,-53.4854 c 0,0 0.043,-4.1633 -2.5119,-7.4248 -1.5675,-2.0006 -4.7458,-4.8568 -9.7697,-4.8568 l -56.7789,0 c -0.8939,-0.065 -2.295,0.1209 -3.6968,-0.3591 -2.3369,-0.7994 -4.6775,-2.8512 -4.6775,-6.6198 l 0,-38.8027 -38.4784,0.056 c -0.7823,0 -2.9038,0.055 -4.4115,-2.6243 -1.7624,-3.1335 0.8377,-5.4705 0.8377,-5.4705 l 34.3187,-33.2013 -20.7391,0 c -0.335,0 -2.7353,-0.1679 -4.0197,-2.7915 -1.2844,-2.6236 0.2795,-4.6903 0.2795,-4.6903 l 28.0822,-33.62675 -12.8406,0 c -0.8378,0 -3.4059,-0.055 -4.6341,-2.3448 -1.5824,-2.9486 -0.055,-5.1369 -0.055,-5.1369 l 29.8125,-46.617342 c 0.8378,-1.06039 1.6187,-1.95436 3.4614,-1.95436 l 1.1073,0 c 1.8427,0 2.6236,0.89326 3.4614,1.95436 l 29.8133,46.617342 c 0,0 1.5262,2.1883 -0.055,5.1369 -1.229,2.2894 -3.7971,2.3448 -4.6349,2.3448 l -12.8406,0 28.0815,33.62675 c 0,0 1.5632,2.066 0.2802,4.6903 -1.283,2.6243 -3.6854,2.7915 -4.0204,2.7915 l -20.7384,0 34.318,33.2013 c 0,0 2.6001,2.3377 0.8378,5.4712 -1.5071,2.6798 -3.6293,2.6236 -4.4109,2.6236 l -38.637,0 0,21.6061 36.6805,0 c 8.1297,0.1266 21.2996,1.3555 30.528,11.3371 4.8682,5.2657 9.1232,12.3634 9.9084,24.3371 z"
      id="path4"
      inkscape:connector-curvature="0"
      style="fill:#29badb"
      sodipodi:nodetypes="sssssssssssssssssssssssssssccccsccsccsccscscsccccssccssccscccsscccsccssccssccccccccccccccccsccscccccssccscccsscccsccsscccsccccc" />
  </g>
</svg>
