<?xml version="1.0" encoding="utf-8"?>
<!-- Generator: Adobe Illustrator 19.2.1, SVG Export Plug-In . SVG Version: 6.00 Build 0)  -->
<svg version="1.1" id="レイヤー_1" xmlns="http://www.w3.org/2000/svg"
  xmlns:xlink="http://www.w3.org/1999/xlink" x="0px"
  y="0px" viewBox="0 0 401.1 401.1" style="enable-background:new 0 0 401.1 401.1;"
  xml:space="preserve">
<style type="text/css">
	.st0{fill:url(#SVGID_1_);}
	.st1{fill:#FFFFFF;}
	.st2{fill:none;stroke:#FFFFFF;stroke-width:12.386;stroke-miterlimit:10;}
	.st3{fill:#FFFFFF;stroke:#FFFFFF;stroke-width:4.129;stroke-miterlimit:10;}
	.st4{fill:#73BB2B;stroke:#FFFFFF;stroke-width:3.0621;stroke-linecap:round;stroke-linejoin:round;stroke-miterlimit:10;}
</style>
<g>
	<g>

			<linearGradient id="SVGID_1_" gradientUnits="userSpaceOnUse" x1="1228.0468" y1="-791.601" x2="1629.1467" y2="-791.601" gradientTransform="matrix(4.489659e-11 1 1 -4.489659e-11 992.1511 -1228.0468)">
			<stop  offset="0" style="stop-color:#75BB2A"/>
			<stop  offset="0.3302" style="stop-color:#6CB92D"/>
			<stop  offset="0.6125" style="stop-color:#5EB430"/>
			<stop  offset="0.6841" style="stop-color:#4C8731"/>
			<stop  offset="0.7597" style="stop-color:#3C602B"/>
			<stop  offset="0.8316" style="stop-color:#2F4323"/>
			<stop  offset="0.8976" style="stop-color:#262F1B"/>
			<stop  offset="0.9559" style="stop-color:#202316"/>
			<stop  offset="1" style="stop-color:#1E1F14"/>
		</linearGradient>
		<path class="st0" d="M0,372V29.1C0,13.1,13.1,0,29.1,0H372c16,0,29.1,13.1,29.1,29.1V372c0,16-13.1,29.1-29.1,29.1H29.1
			C13.1,401.1,0,388,0,372z"/>
	</g>
	<rect y="296" class="st1" width="401.1" height="26.7"/>
	<rect y="263.9" class="st1" width="401.1" height="13.4"/>
	<rect y="238.5" class="st1" width="401.1" height="6.7"/>
	<path class="st1" d="M401.1,232.3H65.9c-4,0-5.3-5.4-1.7-7.2c16.6-8.2,45.6-20.4,70.9-20.4h266V232.3z"/>
	<path class="st2" d="M401.1,99.9c0,0-44.1,0-77.8,0s-50.6,0-64.4,10.5c-2.3,1.8-4.7,3.5-7.2,5.1c-12.1,8.2-26,15.4-45.3,26
		c-9.7,5.3-32.7,10.5-56.2,14.7c-33,5.9-67,10-67,10s-40.8,7.1-40.8,28.1s36.3,24.1,36.3,24.1H143"/>
	<path class="st1" d="M401.1,172.6H211.3c0,0,20.8-5.9,50.8-5.9s139,0,139,0V172.6z"/>
	<path class="st1" d="M401.1,129.3h-9.3c-1.3,0-2.3,1.1-2.3,2.3v22.2c0,1.3,1.1,2.3,2.3,2.3h9.3V129.3z"/>
	<path class="st1" d="M372.4,156.2H342c-1.3,0-2.3-1.1-2.3-2.3v-22.2c0-1.3,1.1-2.3,2.3-2.3h30.4c1.3,0,2.3,1.1,2.3,2.3v22.2
		C374.7,155.1,373.7,156.2,372.4,156.2z"/>
	<path class="st3" d="M251.6,115.5c-12.1,8.2-26,15.4-45.3,26c-9.7,5.3-32.7,10.5-56.2,14.7l0,0c0,0,24-19.6,32.3-26.3
		c0,0,15.7-18.2,41.6-18.2C237.3,111.5,245.2,112.7,251.6,115.5"/>
	<path class="st4" d="M165.3,145.3c6.7-5.5,14.7-12,18.7-15.3c0,0,16-16.4,40.1-16.4c0,0,2.9-0.4,8.2,0c6.1,0.1,8.2,8.2,2.9,11.2
		c-8.2,4.7-17.5,9.7-28.9,16c-7,3.8-21.5,7.6-37.9,10.9C164.6,152.5,162.3,147.7,165.3,145.3z"/>
</g>
</svg>
