<?xml version="1.0" encoding="UTF-8"?>
<svg version="1.1" xmlns="http://www.w3.org/2000/svg" width="169.137" height="146.5">
<path fill="#18A698" d="M42.305,146.5 0,73.275 42.305,0 H 126.859 L 169.137,73.275 126.859,146.5 z"/>
<g fill="#FDFDFE">
	<path d="M71.263,95.964l-28.18-34.432h-0.211v34.432H31.459V45.459h14.512l27.194,34.357h0.282V45.459h11.342 v50.505H71.263z"/>
	<path d="M133.686,94.194c-4.298,2.212-10.497,2.802-15.922,2.802c-6.552,0-12.893-0.369-19.938-0.811V85.42 c5.777,0.664,13.175,1.254,18.317,1.254c4.227,0,7.891-0.295,10.004-0.737c2.536-0.59,3.1-1.991,3.1-4.129 c0-2.286-0.846-3.466-3.24-4.202c-2.748-0.738-6.834-1.328-10.497-1.991c-12.399-2.138-17.824-5.677-17.824-15.188 c0-5.898,2.043-10.691,7.608-13.493c4.228-2.138,10.004-2.507,15.076-2.507c5.848,0,11.695,0.369,17.965,0.811v10.47 c-5.636-0.664-12.61-1.18-18.176-1.18c-2.536,0-5.425,0.147-7.608,0.59c-2.325,0.59-3.029,1.843-3.029,3.834 c0,2.138,0.845,3.318,3.17,3.908c2.677,0.737,6.552,1.253,10.004,1.843c12.399,1.991,18.669,5.382,18.669,15.63 C141.364,86.453,139.251,91.318,133.686,94.194z"/>
</g>
</svg>
