<?xml version="1.0" encoding="UTF-8" standalone="no"?>
<!-- Created with Inkscape (http://www.inkscape.org/) -->

<svg
   xmlns:dc="http://purl.org/dc/elements/1.1/"
   xmlns:cc="http://creativecommons.org/ns#"
   xmlns:rdf="http://www.w3.org/1999/02/22-rdf-syntax-ns#"
   xmlns:svg="http://www.w3.org/2000/svg"
   xmlns="http://www.w3.org/2000/svg"
   xmlns:sodipodi="http://sodipodi.sourceforge.net/DTD/sodipodi-0.dtd"
   xmlns:inkscape="http://www.inkscape.org/namespaces/inkscape"
   width="84.666664mm"
   height="84.666664mm"
   viewBox="0 0 299.99999 299.99999"
   id="svg5912"
   version="1.1"
   inkscape:version="0.91 r13725"
   sodipodi:docname="KANTO-B.svg">
  <defs
     id="defs5914" />
  <sodipodi:namedview
     id="base"
     pagecolor="#ffffff"
     bordercolor="#666666"
     borderopacity="1.0"
     inkscape:pageopacity="0.0"
     inkscape:pageshadow="2"
     inkscape:zoom="0.98994949"
     inkscape:cx="392.76218"
     inkscape:cy="87.613092"
     inkscape:document-units="px"
     inkscape:current-layer="layer1"
     showgrid="false"
     fit-margin-top="0"
     fit-margin-left="0"
     fit-margin-right="0"
     fit-margin-bottom="0"
     inkscape:window-width="1920"
     inkscape:window-height="1001"
     inkscape:window-x="-9"
     inkscape:window-y="-9"
     inkscape:window-maximized="1" />
  <metadata
     id="metadata5917">
    <rdf:RDF>
      <cc:Work
         rdf:about="">
        <dc:format>image/svg+xml</dc:format>
        <dc:type
           rdf:resource="http://purl.org/dc/dcmitype/StillImage" />
        <dc:title></dc:title>
      </cc:Work>
    </rdf:RDF>
  </metadata>
  <g
     inkscape:label="レイヤー 1"
     inkscape:groupmode="layer"
     id="layer1"
     transform="translate(-290,-256.64793)">
    <path
       style="color:#000000;font-style:normal;font-variant:normal;font-weight:normal;font-stretch:normal;font-size:medium;line-height:normal;font-family:sans-serif;text-indent:0;text-align:start;text-decoration:none;text-decoration-line:none;text-decoration-style:solid;text-decoration-color:#000000;letter-spacing:normal;word-spacing:normal;text-transform:none;direction:ltr;block-progression:tb;writing-mode:lr-tb;baseline-shift:baseline;text-anchor:start;white-space:normal;clip-rule:nonzero;display:inline;overflow:visible;visibility:visible;opacity:1;isolation:auto;mix-blend-mode:normal;color-interpolation:sRGB;color-interpolation-filters:linearRGB;solid-color:#000000;solid-opacity:1;fill:#1d2088;fill-opacity:1;fill-rule:nonzero;stroke:none;stroke-width:35;stroke-linecap:round;stroke-linejoin:round;stroke-miterlimit:4;stroke-dasharray:none;stroke-dashoffset:0;stroke-opacity:1;color-rendering:auto;image-rendering:auto;shape-rendering:auto;text-rendering:auto;enable-background:accumulate"
       d="m 422.5,256.64793 0,13.61914 c -59.26393,7.58599 -106.9371,53.14803 -117.70898,111.38086 l 35.75781,0 c 9.72072,-39.1091 41.75941,-69.17314 81.95117,-76.02344 l 0,38.52344 0,20.96679 c 5.36625,-2.23385 11.2746,-3.46679 17.5,-3.46679 6.2254,0 12.13375,1.23294 17.5,3.46679 l 0,-36.49804 0,-22.99219 c 40.19176,6.8503 72.23045,36.91434 81.95117,76.02344 l 35.75781,0 C 564.43711,323.4151 516.76393,277.85306 457.5,270.26707 l 0,-13.61914 -35,0 z m -7.5,74.05273 c -26.41339,8.769 -46.83912,31.00005 -53.03906,58.44727 l -22.98242,0 -35.36719,0 -13.61133,0 0,35 13.61133,0 35.36719,0 22.98242,0 c 6.19994,27.44721 26.62567,49.67827 53.03906,58.44726 l 0,-38.41797 c -12.10011,-8.02159 -20,-21.75874 -20,-37.52929 0,-15.77056 7.89989,-29.5077 20,-37.5293 l 0,-38.41797 z m 50,0 0,38.41797 c 12.10011,8.0216 20,21.75874 20,37.5293 0,15.77055 -7.89989,29.5077 -20,37.52929 l 0,38.41797 c 26.41339,-8.76899 46.83912,-31.00005 53.03906,-58.44726 l 22.98242,0 35.36719,0 13.61133,0 0,-35 -13.61133,0 -35.36719,0 -22.98242,0 C 511.83912,361.70071 491.41339,339.46966 465,330.70066 Z M 304.79102,431.64793 C 315.5629,489.88075 363.23607,535.44281 422.5,543.02881 l 0,13.6191 35,0 0,-13.6191 c 59.26393,-7.586 106.93711,-53.14806 117.70898,-111.38088 l -35.75781,0 c -9.72072,39.10909 -41.75941,69.17313 -81.95117,76.02343 l 0,-37.02343 0,-22.4668 c -5.36625,2.23385 -11.2746,3.4668 -17.5,3.4668 -6.2254,0 -12.13375,-1.23295 -17.5,-3.4668 l 0,36.49805 0,22.99218 c -40.19176,-6.8503 -72.23045,-36.91434 -81.95117,-76.02343 l -35.75781,0 z"
       id="path2838-7-4-1-8"
       inkscape:connector-curvature="0" />
  </g>
</svg>
