<?xml version="1.0" encoding="UTF-8"?>
<svg xmlns="http://www.w3.org/2000/svg" version="1.1" viewBox="0 0 512 512">
  <defs>
    <style>
      .cls-1 {
        fill: #fe0000;
      }
    </style>
  </defs>
  <!-- Generator: Adobe Illustrator 28.7.1, SVG Export Plug-In . SVG Version: 1.2.0 Build 142)  -->
  <g>
    <g id="_レイヤー_1" data-name="レイヤー_1">
      <path d="M192.15,209.96c.29,3.77.59,7.53.87,11.3.7,9.45,1.1,18.91,1.1,28.38,0,30.57-.03,61.14.02,91.71.02,14.63.22,29.26,2.22,43.79.28,2.05-.28,2.51-2.27,2.5-16.97-.07-33.94-.05-50.92-.02-1.46,0-2.43.09-2.13-2.03,2.23-15.74,2.25-31.59,2.27-47.44.04-53.73.01-107.46.02-161.19,0-14.26-.5-28.5-2.32-42.66-.21-1.6.06-2.08,1.75-2.07,18.19.06,36.38.04,54.57.02,1.1,0,1.89.09,2.38,1.36,4.51,11.62,11.31,21.96,18.18,32.25,25.89,38.72,51.85,77.4,77.74,116.13,5.57,8.34,10.56,17.04,15.34,25.86.47.86.99,1.69,1.96,2.38-.29-5-.57-9.99-.88-14.99-.5-8.24-.79-16.48-.8-24.74-.07-36.38-.08-72.76-.2-109.15-.03-9.01-.92-17.97-2.3-26.87-.25-1.6-.21-2.29,1.79-2.28,17.35.08,34.69.07,52.04.02,1.6,0,2.14.38,1.89,2.04-2.61,17.7-2.29,35.53-2.28,53.34.01,55.61.02,111.21.08,166.82.01,10.41.54,20.81,2.15,31.11.26,1.67-.23,2.09-1.86,2.08-18.38-.05-36.76-.04-55.14-.01-1.12,0-1.9-.18-2.46-1.33-9.15-18.99-21.24-36.17-32.93-53.61-20.98-31.3-42.01-62.56-62.95-93.89-5.63-8.42-10.25-17.44-14.99-26.38-.46-.86-.91-1.73-1.37-2.59-.19.05-.39.09-.58.14Z"/>
      <path class="cls-1" d="M256,1C114.62,1,0,115.62,0,257s114.62,256,256,256,256-114.62,256-256S397.38,1,256,1ZM256,475c-120.4,0-218-97.6-218-218S135.6,39,256,39s218,97.6,218,218-97.6,218-218,218Z"/>
    </g>
  </g>
</svg>