<?xml version="1.0" encoding="UTF-8"?>
<svg xmlns="http://www.w3.org/2000/svg" xmlns:xlink="http://www.w3.org/1999/xlink" version="1.1" viewBox="0 0 512 512">
  <defs>
    <style>
      .cls-1 {
        fill: url(#_名称未設定グラデーション_7);
      }

      .cls-2 {
        fill: url(#_名称未設定グラデーション_7-3);
      }

      .cls-3 {
        fill: url(#_名称未設定グラデーション_7-2);
      }

      .cls-4 {
        fill: #3f2391;
      }
    </style>
    <linearGradient id="_名称未設定グラデーション_7" data-name="名称未設定グラデーション 7" x1="79.08" y1="512" x2="79.08" y2="114.68" gradientUnits="userSpaceOnUse">
      <stop offset="0" stop-color="#fff"/>
      <stop offset=".5" stop-color="#389f50"/>
      <stop offset="1" stop-color="#3f2391"/>
    </linearGradient>
    <linearGradient id="_名称未設定グラデーション_7-2" data-name="名称未設定グラデーション 7" x1="424.92" x2="424.92" xlink:href="#_名称未設定グラデーション_7"/>
    <linearGradient id="_名称未設定グラデーション_7-3" data-name="名称未設定グラデーション 7" x1="252.07" x2="252.07" xlink:href="#_名称未設定グラデーション_7"/>
  </defs>
  <!-- Generator: Adobe Illustrator 28.7.1, SVG Export Plug-In . SVG Version: 1.2.0 Build 142)  -->
  <g>
    <g id="_レイヤー_1" data-name="レイヤー_1">
      <g>
        <rect class="cls-4" x="59.45" y="18.24" width="88.09" height="88.09" transform="translate(74.36 -54.94) rotate(45)"/>
        <rect class="cls-4" x="208.62" y="18.24" width="88.09" height="88.09" transform="translate(118.05 -160.41) rotate(45)"/>
        <rect class="cls-4" x="357.78" y="18.24" width="88.09" height="88.09" transform="translate(161.74 -265.89) rotate(45)"/>
        <polygon class="cls-1" points="130.56 512 62.91 512 27.6 114.68 71.85 114.68 130.56 313.34 130.56 512"/>
        <polygon class="cls-3" points="373.44 512 441.09 512 476.4 114.68 432.15 114.68 373.44 313.34 373.44 512"/>
        <polygon class="cls-2" points="134.47 114.68 134.47 319.37 193.35 512 310.38 512 369.68 325.88 369.68 114.68 325.92 114.68 252.66 362.6 176.95 114.68 134.47 114.68"/>
      </g>
    </g>
  </g>
</svg>