<svg xmlns="http://www.w3.org/2000/svg" width="1430" height="1430" fill="#14488e" xmlns:v="https://vecta.io/nano"><path d="M754.212 1.068l-2.751.114C1124.604 22.395 1418 331.621 1418 710c0 392.122-315.102 707-707.5 707C328.667 1417 17.203 1118.858.707 741.498l-.2.591C14.749 1124.42 329.187 1430 715 1430c394.884 0 715-320.116 715-715 0-381.726-299.142-693.573-675.788-713.932zM282 548.5L308 306h286l100.5 316S508 543.5 282 548.5zm1067.386 184.152c-1.636-1.096-6.886-.402-6.886-.402-65.16 17.616-150.128 20.456-174.309 20.912L1125 306H834L732.5 636.5c11 4.5 63.5 30.5 144.5 59 44.441 15.637 92.861 29.14 131.044 38.13 25.107 5.911 48.059 9.871 54.539 11.204 1.627.335-4.529.54-11.458-.334-22.438-2.83-56.395-7.54-89.613-14.807-71.17-15.568-158.543-40.161-210.012-60.193-83.5-32.5-229.5-71.5-357-72s-194 18.5-236 33.5-90.259 35.115-86.5 39.5c3 3.5 41.603-6.179 83.441-10.561 36.187-3.79 69.809-4.064 90.059-3.939 4.869.03 15.223.284 20.313 6.83 4.312 5.545 2.21 16.873 1.687 22.17l-44 413h269l16.711-169.648C517 854.333 523.5 740.5 523.5 740.5s14.833 56.5 52.636 171.337L637.5 1098h151L891 783.5l20 3 25.5 311.5h265l-28.136-291.289c107.827-29.004 165.863-63.392 175.136-69.711 2.266-1.544 1.507-3.932.886-4.348z"/></svg>
