<?xml version="1.0" encoding="UTF-8" standalone="no"?>
<svg xmlns="http://www.w3.org/2000/svg" xmlns:xlink="http://www.w3.org/1999/xlink" width="1000" height="1000" viewBox="0 0 264.58334 264.58334" version="1.1">
<rect fill="#3164a3" width="264.58334" height="264.58334" x="0" y="0" ry="26.34083"/>
<path fill="#0095b5" transform="scale(0.26458333)" d="m 709.77914,781.58463 c -41.553,-2.4118 -90.83353,-11.50303 -199.2386,-36.75536 C 402.643,719.69515 372.61661,713.90381 334.50747,710.87689 c -54.99795,-4.36836 -134.65996,7.44076 -256.928578,38.08719 -23.249142,5.82736 -42.469124,10.39725 -42.711071,10.1553 -0.241947,-0.24194 11.05241,-5.35142 25.098573,-11.35439 102.616896,-43.85579 198.471346,-75.78141 257.605636,-85.79904 23.92781,-4.05348 38.9418,-4.90635 64.57691,-3.66829 46.16475,2.22956 84.70649,7.03429 210.95758,26.29859 119.09373,18.17218 147.68903,20.93075 207.08128,19.97705 52.32032,-0.84014 96.47531,-5.76849 150.93181,-16.84622 8.28646,-1.68566 15.22929,-2.90184 15.4285,-2.70263 0.61043,0.61043 -13.27962,13.30982 -23.16819,21.18218 -40.28923,32.0746 -85.8963,53.96218 -139.15442,66.78253 -34.48474,8.30119 -59.80871,10.6059 -94.44636,8.59547 z"/>
<path fill="#fff" id="M" d="M 19.107362,118.15939 V 72.80224 H 48.170255 l 1.643089,5.19718 c 0.903701,2.85844 5.803054,18.41911 10.887451,34.57925 5.0844,16.16015 9.329409,29.38207 9.433353,29.38205 0.103942,-2e-5 5.217076,-15.51816 11.362516,-34.48476 l 11.173523,-34.48473 14.245373,-0.099 14.24537,-0.099 v 45.36169 45.36169 h -8.50446 -8.50447 v -37.86062 c 0,-20.82333 -0.0997,-37.76092 -0.22154,-37.63907 -0.12184,0.12184 -5.9679,17.1166 -12.991238,37.76612 l -12.769702,37.54458 -8.533489,0.10154 -8.533487,0.10154 -12.587621,-37.89916 -12.587621,-37.89916 -0.09631,37.89212 -0.09631,37.89211 h -8.313658 -8.31366 z"/>
<use xlink:href="#M" transform="translate(123.976189)"/>
</svg>
