<?xml version="1.0" encoding="UTF-8" standalone="no"?>
<!-- Created with Inkscape (http://www.inkscape.org/) -->

<svg
  xmlns:dc="http://purl.org/dc/elements/1.1/"
  xmlns:cc="http://creativecommons.org/ns#"
  xmlns:rdf="http://www.w3.org/1999/02/22-rdf-syntax-ns#"
  xmlns:svg="http://www.w3.org/2000/svg"
  xmlns="http://www.w3.org/2000/svg"
  xmlns:sodipodi="http://sodipodi.sourceforge.net/DTD/sodipodi-0.dtd"
  xmlns:inkscape="http://www.inkscape.org/namespaces/inkscape"
  width="84.666664mm"
  height="84.666664mm"
  viewBox="0 0 299.99999 299.99999"
  id="svg4898"
  version="1.1"
  inkscape:version="0.91 r13725"
  sodipodi:docname="ISE.svg">
  <defs
    id="defs4900" />
  <sodipodi:namedview
    id="base"
    pagecolor="#ffffff"
    bordercolor="#666666"
    borderopacity="1.0"
    inkscape:pageopacity="0.0"
    inkscape:pageshadow="2"
    inkscape:zoom="0.98994949"
    inkscape:cx="170.33408"
    inkscape:cy="199.02329"
    inkscape:document-units="px"
    inkscape:current-layer="layer1"
    showgrid="false"
    fit-margin-top="0"
    fit-margin-left="0"
    fit-margin-right="0"
    fit-margin-bottom="0"
    inkscape:window-width="1168"
    inkscape:window-height="824"
    inkscape:window-x="743"
    inkscape:window-y="78"
    inkscape:window-maximized="0" />
  <metadata
    id="metadata4903">
    <rdf:RDF>
      <cc:Work
        rdf:about="">
        <dc:format>image/svg+xml</dc:format>
        <dc:type
          rdf:resource="http://purl.org/dc/dcmitype/StillImage" />
        <dc:title></dc:title>
      </cc:Work>
    </rdf:RDF>
  </metadata>
  <g
    inkscape:label="レイヤー 1"
    inkscape:groupmode="layer"
    id="layer1"
    transform="translate(-240.78118,-192.38103)">
    <path
      style="color:#000000;font-style:normal;font-variant:normal;font-weight:normal;font-stretch:normal;font-size:medium;line-height:normal;font-family:sans-serif;text-indent:0;text-align:start;text-decoration:none;text-decoration-line:none;text-decoration-style:solid;text-decoration-color:#000000;letter-spacing:normal;word-spacing:normal;text-transform:none;direction:ltr;block-progression:tb;writing-mode:lr-tb;baseline-shift:baseline;text-anchor:start;white-space:normal;clip-rule:nonzero;display:inline;overflow:visible;visibility:visible;opacity:1;isolation:auto;mix-blend-mode:normal;color-interpolation:sRGB;color-interpolation-filters:linearRGB;solid-color:#000000;solid-opacity:1;fill:#28502d;fill-opacity:1;fill-rule:nonzero;stroke:none;stroke-width:30;stroke-linecap:round;stroke-linejoin:round;stroke-miterlimit:4;stroke-dasharray:none;stroke-dashoffset:0;stroke-opacity:1;color-rendering:auto;image-rendering:auto;shape-rendering:auto;text-rendering:auto;enable-background:accumulate"
      d="m 390.78119,192.38101 c -82.66519,0 -150.00001,67.33483 -150.00001,150.00002 0,82.66519 67.33482,150.00002 150.00001,150.00002 82.66517,0 150.00001,-67.33483 150.00001,-150.00002 0,-82.66519 -67.33484,-150.00002 -150.00001,-150.00002 z m 0,30.00001 c 66.45197,0 120.00001,53.54803 120.00001,120.00001 0,11.09019 -1.49901,21.81755 -4.29297,32.00001 l -5.26562,0 c -11.41046,0 -14.23984,-4.55473 -21.91408,-18.98829 L 450.664,301.51384 c -14.70351,-27.65222 -15.82777,-32.13282 -43.84765,-32.13282 l -57.55078,0 22.33203,42.00001 26.13086,0 c 11.41045,0 14.23982,2.55473 21.91406,16.98828 l 28.64453,53.87891 c 13.73452,25.82987 15.63398,31.43894 38.66016,32.06641 -21.85292,29.21298 -56.73774,48.06642 -96.16602,48.06642 -66.45199,0 -120.00001,-53.54804 -120.00001,-120.00002 0,-11.0902 1.49901,-21.81755 4.29297,-32 l 5.26562,0 c 11.41045,0 14.23983,4.55473 21.91407,18.98828 l 28.64454,53.87891 c 14.70351,27.65221 15.82777,32.13282 43.84765,32.13282 l 57.55078,0 -22.33203,-42 -26.13086,0 c -11.41045,0 -14.23982,-2.55473 -21.91406,-16.98829 l -28.64453,-53.87891 c -13.73494,-25.83065 -15.634,-31.43922 -38.66212,-32.06642 21.85281,-29.21421 56.73873,-48.0664 96.16798,-48.0664 z"
      id="path2838-7-4-1-2-9-7-1-3-1"
      inkscape:connector-curvature="0"
      sodipodi:nodetypes="ssssssscsccsccscccsscsccsccscccs" />
  </g>
</svg>
