<?xml version="1.0" encoding="utf-8"?>
<!-- Generator: Adobe Illustrator 15.0.0, SVG Export Plug-In . SVG Version: 6.00 Build 0)  -->
<!DOCTYPE svg PUBLIC "-//W3C//DTD SVG 1.1//EN" "http://www.w3.org/Graphics/SVG/1.1/DTD/svg11.dtd">
<svg version="1.1" id="Laag_1" xmlns="http://www.w3.org/2000/svg"
  xmlns:xlink="http://www.w3.org/1999/xlink" x="0px" y="0px"
  width="1000px" height="573.77px" viewBox="0 0 1000 573.77" enable-background="new 0 0 1000 573.77"
  xml:space="preserve">
<path fill="#FC1F1F" d="M1000,0H0v573.77h1000V0L1000,0z"/>
<path fill="#FFFFFF" d="M380.167,262.385H445.5c0,0-1.333-34,16.667-46.667s49-13.667,65.333,3s19,50-9.667,72
	c-9.8,7.521-29.377,23.417-50.901,37.195c-41.44,26.525-90.098,61.436-90.098,127.471h232.333v-52.333H462.833
	c0,0-1.667-6.334,39.333-32.667s106-54.666,106-121.333s-62.667-95-115.167-95c-20.82,0-42.872,3.831-61.904,12.88
	C402.136,180.704,380.167,207.875,380.167,262.385z"/>
</svg>
