<?xml version="1.0" encoding="utf-8"?>
<!-- Generator: Adobe Illustrator 15.0.0, SVG Export Plug-In . SVG Version: 6.00 Build 0)  -->
<!DOCTYPE svg PUBLIC "-//W3C//DTD SVG 1.1//EN" "http://www.w3.org/Graphics/SVG/1.1/DTD/svg11.dtd">
<svg version="1.1" id="Laag_1" xmlns="http://www.w3.org/2000/svg"
  xmlns:xlink="http://www.w3.org/1999/xlink" x="0px" y="0px"
  width="1000px" height="573.77px" viewBox="0 0 1000 573.77" enable-background="new 0 0 1000 573.77"
  xml:space="preserve">
<path fill="#13349B" d="M1000,0H0v573.77h1000V0L1000,0z"/>
<path fill="#FFFFFF" d="M382.167,250.385h63.926c0,0-0.927-49.333,44.074-47.333s41.333,38,41.333,38s1,37.667-41.333,37.667H465.5
	v45.667h22.333c0,0,53-2.333,53,40.667s-37.333,48-51.333,48s-47.333-6-47.333-52h-65.333c0,0-4.726,59.469,45.679,86.311
	c13.792,7.345,31.713,15.022,54.988,15.022c0,0,9.5,0,18.667,0c20,0,102.999-4.667,114.666-89c2.049-14.81-2.4-39.22-12.666-53
	c-14.06-18.875-35.667-25-35.667-25s37.333-16.667,37.333-55v-9c0,0,1.001-70.666-91.666-77.333H479.5
	C479.5,154.052,382.167,153.718,382.167,250.385z"/>
</svg>
