<?xml version="1.0" encoding="utf-8"?>
<!-- Generator: Adobe Illustrator 15.0.0, SVG Export Plug-In . SVG Version: 6.00 Build 0)  -->
<!DOCTYPE svg PUBLIC "-//W3C//DTD SVG 1.1//EN" "http://www.w3.org/Graphics/SVG/1.1/DTD/svg11.dtd">
<svg version="1.1" id="Laag_1" xmlns="http://www.w3.org/2000/svg"
  xmlns:xlink="http://www.w3.org/1999/xlink" x="0px" y="0px"
  width="1000px" height="573.77px" viewBox="0 0 1000 573.77" enable-background="new 0 0 1000 573.77"
  xml:space="preserve">
<path fill="#54C66C" d="M1000,0H0v573.77h1000V0L1000,0z"/>
<path d="M596.5,159.719v49.667H459.833L448.5,272.052h2.333c0,0,22.667-13,56-13s103,16.667,103,97s-67.029,104.159-106.667,107
	h-7.417c-24.953,1.06-61.398-3.064-87.083-23.5c-18.748-14.917-31.271-41.802-31.833-65.5h67c0,0,3.667,42,47.667,42
	s49.334-45,49.334-54.667s1-50.667-47.5-56c-6.244-0.687-20.397,1.291-28.834,6.072c-11.31,6.408-16.333,16.261-16.333,16.261l-60-2
	l23-166H596.5z"/>
</svg>
