<?xml version="1.0" encoding="utf-8"?>
<!-- Generator: Adobe Illustrator 15.0.0, SVG Export Plug-In . SVG Version: 6.00 Build 0)  -->
<!DOCTYPE svg PUBLIC "-//W3C//DTD SVG 1.1//EN" "http://www.w3.org/Graphics/SVG/1.1/DTD/svg11.dtd">
<svg version="1.1" id="Laag_1" xmlns="http://www.w3.org/2000/svg"
  xmlns:xlink="http://www.w3.org/1999/xlink" x="0px" y="0px"
  width="1000px" height="573.77px" viewBox="0 0 1000 573.77" enable-background="new 0 0 1000 573.77"
  xml:space="preserve">
<path fill="#FEFE00" d="M1000,0H0v573.77h1000V0L1000,0z"/>
<path d="M509.593,260.886c-11.22-0.466-28.062,2.341-40.192,7.972c-16.07,7.458-26.141,18.361-26.141,18.361
	s2.002-85.667,56.834-84.667c10.175,0.186,23.934,3.979,30.515,10.338c8.17,7.894,7.984,18.662,7.984,18.662h66.667
	c0,0-3.001-76-102.334-76s-123.333,77.333-123.333,145.667c0,68.334,7.002,162,120.501,162s112.166-109,112.166-109
	S613.927,265.219,509.593,260.886z M496.426,416.885c-27.706,0-50.166-23.549-50.166-53.834c0-10.838,1.877-21.943,6.842-30.451
	c8.908-15.26,25.535-24.381,43.324-24.381c13.772,0,27.248,6.064,36.313,15.885c9.173,9.938,13.854,23.717,13.854,38.947
	C546.593,393.336,524.132,416.885,496.426,416.885z"/>
</svg>
