<?xml version="1.0" encoding="utf-8"?>
<!-- Generator: Adobe Illustrator 15.0.0, SVG Export Plug-In . SVG Version: 6.00 Build 0)  -->
<!DOCTYPE svg PUBLIC "-//W3C//DTD SVG 1.1//EN" "http://www.w3.org/Graphics/SVG/1.1/DTD/svg11.dtd">
<svg version="1.1" id="Laag_1" xmlns="http://www.w3.org/2000/svg"
  xmlns:xlink="http://www.w3.org/1999/xlink" x="0px" y="0px"
  width="1000px" height="573.77px" viewBox="0 0 1000 573.77" enable-background="new 0 0 1000 573.77"
  xml:space="preserve">
<path fill="#FF61D2" d="M1000,0H0v573.77h1000V0L1000,0z"/>
<path d="M568.096,297.843c-1.853-0.896-3.788-1.727-5.763-2.525c25.093-13.574,41.159-34.815,41.159-60.1
	c0-44.274-43.666-78.167-110-78.167c-63.333,0-103,36.892-103,81.167c0,25.857,14.415,46.464,38.506,59.138
	c-31.174,15.089-49.172,39.612-49.172,75.029c0,59.667,52.383,92,117,92c31.191,0,58.521-6.641,78.937-22.309
	c21.88-16.791,35.819-43.504,38.063-69.691C616.901,336.511,599.382,312.965,568.096,297.843z M496.492,204.052
	c24.301,0,44,16.715,44,37.333s-19.699,37.333-44,37.333s-44-16.715-44-37.333S472.191,204.052,496.492,204.052z M497.158,418.385
	c-27.245,0-49.332-21.49-49.332-48s22.087-48,49.332-48c27.247,0,49.334,21.49,49.334,48S524.405,418.385,497.158,418.385z"/>
</svg>
