<?xml version="1.0" encoding="utf-8"?>
<!-- Generator: Adobe Illustrator 15.0.0, SVG Export Plug-In . SVG Version: 6.00 Build 0)  -->
<!DOCTYPE svg PUBLIC "-//W3C//DTD SVG 1.1//EN" "http://www.w3.org/Graphics/SVG/1.1/DTD/svg11.dtd">
<svg version="1.1" id="Laag_1" xmlns="http://www.w3.org/2000/svg"
  xmlns:xlink="http://www.w3.org/1999/xlink" x="0px" y="0px"
  width="1000px" height="573.77px" viewBox="0 0 1000 573.77" enable-background="new 0 0 1000 573.77"
  xml:space="preserve">
<path fill="#666666" d="M1000,0H0v573.77h1000V0L1000,0z"/>
<path fill="#FFFFFF" d="M482.261,357.885c11.22,0.467,28.062-2.341,40.193-7.972c16.07-7.458,26.141-18.361,26.141-18.361
	s-2.002,85.667-56.834,84.667c-10.175-0.186-23.934-3.979-30.515-10.339c-8.17-7.894-7.984-18.661-7.984-18.661h-66.667
	c0,0,3.001,76,102.334,76c99.333,0,123.333-77.333,123.333-145.667s-7.002-162-120.501-162c-113.499,0-112.166,109-112.166,109
	S377.927,353.552,482.261,357.885z M495.428,201.886c27.707,0,50.167,23.549,50.167,53.834c0,10.838-1.877,21.943-6.842,30.451
	c-8.908,15.26-25.535,24.381-43.325,24.381c-13.772,0-27.248-6.064-36.313-15.885c-9.173-9.938-13.854-23.717-13.854-38.947
	C445.261,225.435,467.722,201.886,495.428,201.886z"/>
</svg>
