<?xml version="1.0" encoding="UTF-8" standalone="no"?>
<!-- Created with Inkscape (http://www.inkscape.org/) -->

<svg
  xmlns:dc="http://purl.org/dc/elements/1.1/"
  xmlns:cc="http://creativecommons.org/ns#"
  xmlns:rdf="http://www.w3.org/1999/02/22-rdf-syntax-ns#"
  xmlns:svg="http://www.w3.org/2000/svg"
  xmlns="http://www.w3.org/2000/svg"
  xmlns:sodipodi="http://sodipodi.sourceforge.net/DTD/sodipodi-0.dtd"
  xmlns:inkscape="http://www.inkscape.org/namespaces/inkscape"
  width="84.666664mm"
  height="84.666664mm"
  viewBox="0 0 299.99999 299.99999"
  id="svg4977"
  version="1.1"
  inkscape:version="0.91 r13725"
  sodipodi:docname="HEICHIKU.svg">
  <defs
    id="defs4979" />
  <sodipodi:namedview
    id="base"
    pagecolor="#ffffff"
    bordercolor="#666666"
    borderopacity="1.0"
    inkscape:pageopacity="0.0"
    inkscape:pageshadow="2"
    inkscape:zoom="1.4"
    inkscape:cx="187.59385"
    inkscape:cy="86.155534"
    inkscape:document-units="px"
    inkscape:current-layer="layer1"
    showgrid="false"
    fit-margin-top="0"
    fit-margin-left="0"
    fit-margin-right="0"
    fit-margin-bottom="0"
    inkscape:window-width="1920"
    inkscape:window-height="1001"
    inkscape:window-x="-9"
    inkscape:window-y="-9"
    inkscape:window-maximized="1" />
  <metadata
    id="metadata4982">
    <rdf:RDF>
      <cc:Work
        rdf:about="">
        <dc:format>image/svg+xml</dc:format>
        <dc:type
          rdf:resource="http://purl.org/dc/dcmitype/StillImage" />
        <dc:title></dc:title>
      </cc:Work>
    </rdf:RDF>
  </metadata>
  <g
    inkscape:label="レイヤー 1"
    inkscape:groupmode="layer"
    id="layer1"
    transform="translate(-341.42857,-350.93363)">
    <path
      style="color:#000000;font-style:normal;font-variant:normal;font-weight:normal;font-stretch:normal;font-size:medium;line-height:normal;font-family:sans-serif;text-indent:0;text-align:start;text-decoration:none;text-decoration-line:none;text-decoration-style:solid;text-decoration-color:#000000;letter-spacing:normal;word-spacing:normal;text-transform:none;direction:ltr;block-progression:tb;writing-mode:lr-tb;baseline-shift:baseline;text-anchor:start;white-space:normal;clip-rule:nonzero;display:inline;overflow:visible;visibility:visible;opacity:1;isolation:auto;mix-blend-mode:normal;color-interpolation:sRGB;color-interpolation-filters:linearRGB;solid-color:#000000;solid-opacity:1;fill:#21489c;fill-opacity:1;fill-rule:nonzero;stroke:none;stroke-width:28;stroke-linecap:butt;stroke-linejoin:miter;stroke-miterlimit:4;stroke-dasharray:none;stroke-dashoffset:0;stroke-opacity:1;color-rendering:auto;image-rendering:auto;shape-rendering:auto;text-rendering:auto;enable-background:accumulate"
      d="m 422.60557,350.93363 0,178.6533 c -2.5e-4,4.1219 -1.58227,8.0751 -4.39471,10.9901 l -48.7812,50.5485 0,-69.7256 -28.00109,0 0,129.5337 81.50318,0 69.59452,-72.1179 c 9.07343,-8.8421 13.90289,-20.1627 13.90289,-32.5757 l 0,-35.2028 -30.00118,0 0,34.0593 c -2.5e-4,4.122 -1.58226,8.0751 -4.3947,10.9902 l -63.52983,65.8314 -26.3604,0 66.07094,-68.4647 c 2.81244,-2.915 4.3925,-6.8681 4.39275,-10.9901 l 0,-191.5297 -30.00117,0 z m 137.31982,0 -69.59452,72.1179 c -9.07343,8.8421 -13.90289,20.1627 -13.90289,32.5757 l 0,35.2028 30.00118,0 0,-34.0593 c 2.5e-4,-4.122 1.58226,-8.0751 4.3947,-10.9902 l 63.52983,-65.8314 26.3604,0 -66.07094,68.4647 c -2.81244,2.915 -4.3925,6.8681 -4.39275,10.9901 l 0,191.5297 30.00117,0 0,-178.6533 c 2.5e-4,-4.1219 1.58226,-8.0751 4.3947,-10.9901 l 48.78121,-50.5485 0,69.7256 28.00109,0 0,-129.5337 -81.50318,0 z"
      id="path4150-6-7"
      inkscape:connector-curvature="0" />
  </g>
</svg>
