<svg xmlns="http://www.w3.org/2000/svg" width="241.901" height="145.667" fill="#1c4a9a"
  xmlns:v="https://vecta.io/nano">
  <path
    d="M118.149 76.115l39.148-71.934h82.944l-71.689 132.858s-7.585 16.637-21.776.244l-28.627-61.168z" />
  <path
    d="M118.597 75.292L88.543 8.584S85.362.999 78.512.999s-9.787 4.404-11.745 8.074L23.949 95.322h48.446s3.915 0 11.401-1.541c11.685-2.405 28.358-7.635 34.801-18.489zM6.195 131.526l-4.267 8.693h54.318s8.074.124 18.595-4.893 25.691-15.782 23-17.372c-1.134-.67-3.014.613-4.893 1.958-4.599 3.292-19.208 11.622-34.132 11.622l-52.621-.008zm6.988-14.428l-4.037 8.079h54.318s8.686.026 19.329-4.893c14.809-6.844 25.382-17.13 22.266-17.372-1.712-.133-3.749 1.346-5.627 2.691-4.599 3.292-20.171 11.502-35.096 11.502l-51.153-.007zm6.973-14.202l-3.333 6.525h54.318s8.227-.305 18.993-4.038c13.409-4.649 25.675-16.671 22.558-16.913-1.712-.133-4.531 1.805-6.41 3.15-4.599 3.292-20.002 10.827-34.974 11.282l-51.152-.006z" />
</svg>
