<?xml version="1.0" encoding="UTF-8" standalone="no"?>
<!-- Created with Inkscape (http://www.inkscape.org/) -->

<svg
  xmlns:dc="http://purl.org/dc/elements/1.1/"
  xmlns:cc="http://creativecommons.org/ns#"
  xmlns:rdf="http://www.w3.org/1999/02/22-rdf-syntax-ns#"
  xmlns:svg="http://www.w3.org/2000/svg"
  xmlns="http://www.w3.org/2000/svg"
  xmlns:sodipodi="http://sodipodi.sourceforge.net/DTD/sodipodi-0.dtd"
  xmlns:inkscape="http://www.inkscape.org/namespaces/inkscape"
  width="104.42223mm"
  height="87.488892mm"
  viewBox="0 0 369.99997 310.00001"
  id="svg2"
  version="1.1"
  inkscape:version="0.91 r13725"
  sodipodi:docname="EIDEN2.svg">
  <defs
    id="defs4" />
  <sodipodi:namedview
    id="base"
    pagecolor="#ffffff"
    bordercolor="#666666"
    borderopacity="1.0"
    inkscape:pageopacity="0.0"
    inkscape:pageshadow="2"
    inkscape:zoom="0.49497475"
    inkscape:cx="143.81794"
    inkscape:cy="151.50575"
    inkscape:document-units="px"
    inkscape:current-layer="layer1"
    showgrid="false"
    fit-margin-top="0"
    fit-margin-left="0"
    fit-margin-right="0"
    fit-margin-bottom="0"
    inkscape:window-width="1178"
    inkscape:window-height="852"
    inkscape:window-x="730"
    inkscape:window-y="51"
    inkscape:window-maximized="0" />
  <metadata
    id="metadata7">
    <rdf:RDF>
      <cc:Work
        rdf:about="">
        <dc:format>image/svg+xml</dc:format>
        <dc:type
          rdf:resource="http://purl.org/dc/dcmitype/StillImage" />
        <dc:title></dc:title>
      </cc:Work>
    </rdf:RDF>
  </metadata>
  <g
    inkscape:label="レイヤー 1"
    inkscape:groupmode="layer"
    id="layer1"
    transform="translate(-73.145523,-314.50507)">
    <g
      style="display:inline"
      id="g4783"
      transform="matrix(1.0266144,0,0,1.0266144,256.34505,-125.2318)">
      <path
        sodipodi:nodetypes="sssccsssccssssccsssccsccsccscsssccsssccsccsccsc"
        inkscape:connector-curvature="0"
        id="path2838-7-4-1-4-5"
        d="m 12.19474,433.20732 c -82.69699,0 -165.53876,65.55845 -184.63086,146.11133 -19.09211,80.55288 32.67215,146.11133 115.36914,146.11133 65.4707501,0 131.02422,-41.09497 164.9707,-98.18555 l -22.20508,-6.34766 c -28.56673,47.05577 -82.6787999,80.58008 -137.08789,80.58008 -69.40748,0 -112.48101,-54.55027 -96.45703,-122.1582 16.02398,-67.60793 84.9558,-122.1582 154.3632801,-122.1582 43.3934599,0 76.4926299,21.32328 91.2929699,53.82812 l 24.15625,-11.67773 C 104.5606,459.534 64.59279,433.20732 12.19474,433.20732 Z M 0.83927011,481.11357 c -55.53560011,0 -111.27431011,44.10935 -124.09571011,98.20508 -12.8214,54.09572 22.00933,98.20508 77.54493,98.20508 42.8156801,0 85.74539,-26.22066 109.04296,-63.01953 l -22.27929,-6.36914 c -17.8424,26.74787 -49.3460299,45.4375 -81.08789,45.4375 -42.2461,0 -68.38413,-33.10314 -58.63086,-74.25391 9.75328,-41.15077 51.58398,-74.25195 93.8300801,-74.25195 24.9510899,0 44.2745899,11.55026 53.9121099,29.48242 L 73.33927,522.81865 C 61.03081,497.61948 34.81023,481.11357 0.83927011,481.11357 Z m 127.08788989,35.67188 -23.4336,15.31054 c 2.78876,14.51871 2.45135,30.46882 -1.51953,47.22266 -2.2315,9.4151 -5.49275,18.57647 -9.63476,27.37305 l 19.51757,11.67773 c 6.49412,-12.43627 11.50257,-25.53059 14.70704,-39.05078 5.30007,-22.36192 5.13023,-43.56416 0.36328,-62.5332 z m -138.44141,12.23242 c -28.37403,0 -57.00988,22.66242 -63.56055,50.30078 -6.55066,27.63837 11.34277,50.30078 39.7168,50.30078 20.14279,0 40.4083701,-11.4271 52.82031,-27.9414 l -22.9160099,-6.55079 c -6.4268701,6.42342 -15.2624101,10.53907 -24.2265601,10.53907 -15.08451,0 -24.28723,-11.65425 -20.80469,-26.34766 3.48254,-14.69341 18.20846,-26.34766 33.29297,-26.34766 6.3991501,0 11.7334101,2.10363 15.49609011,5.64063 L 24.35684,546.50029 C 17.39622,535.81924 5.0183201,529.01787 -10.51425,529.01787 Z m 91.02539,18.74805 -24.70508,16.14062 c -0.10976,4.96995 -0.76009,10.12305 -2.01367,15.41211 -0.25481,1.0751 -0.54376,2.14142 -0.84179,3.20508 l 20.50585,12.26953 c 2.02045,-5.04304 3.68021,-10.21106 4.92774,-15.47461 2.61418,-11.02968 3.24625,-21.64255 2.12695,-31.55273 z"
        style="color:#000000;font-style:normal;font-variant:normal;font-weight:normal;font-stretch:normal;font-size:medium;line-height:normal;font-family:sans-serif;text-indent:0;text-align:start;text-decoration:none;text-decoration-line:none;text-decoration-style:solid;text-decoration-color:#000000;letter-spacing:normal;word-spacing:normal;text-transform:none;direction:ltr;block-progression:tb;writing-mode:lr-tb;baseline-shift:baseline;text-anchor:start;white-space:normal;clip-rule:nonzero;display:inline;overflow:visible;visibility:visible;opacity:1;isolation:auto;mix-blend-mode:normal;color-interpolation:sRGB;color-interpolation-filters:linearRGB;solid-color:#000000;solid-opacity:1;fill:#008066;fill-opacity:1;fill-rule:nonzero;stroke:none;stroke-width:25;stroke-linecap:round;stroke-linejoin:round;stroke-miterlimit:4;stroke-dasharray:none;stroke-dashoffset:0;stroke-opacity:1;color-rendering:auto;image-rendering:auto;shape-rendering:auto;text-rendering:auto;enable-background:accumulate" />
      <path
        sodipodi:nodetypes="ccccc"
        inkscape:connector-curvature="0"
        id="path4730-6-9"
        d="M 110.4982,622.78538 -35.58368,581.02947 179.90558,476.85254 30.14156,574.70211 Z"
        style="color:#000000;clip-rule:nonzero;display:inline;overflow:visible;visibility:visible;opacity:1;isolation:auto;mix-blend-mode:normal;color-interpolation:sRGB;color-interpolation-filters:linearRGB;solid-color:#000000;solid-opacity:1;fill:#00aaff;fill-opacity:1;fill-rule:nonzero;stroke:none;stroke-width:2;stroke-linecap:butt;stroke-linejoin:miter;stroke-miterlimit:4;stroke-dasharray:none;stroke-dashoffset:0;stroke-opacity:0.39583333;color-rendering:auto;image-rendering:auto;shape-rendering:auto;text-rendering:auto;enable-background:accumulate" />
    </g>
  </g>
</svg>
