<?xml version="1.0" encoding="UTF-8" standalone="no"?>
<!-- Created with Inkscape (http://www.inkscape.org/) -->

<svg
  xmlns:dc="http://purl.org/dc/elements/1.1/"
  xmlns:cc="http://creativecommons.org/ns#"
  xmlns:rdf="http://www.w3.org/1999/02/22-rdf-syntax-ns#"
  xmlns:svg="http://www.w3.org/2000/svg"
  xmlns="http://www.w3.org/2000/svg"
  xmlns:sodipodi="http://sodipodi.sourceforge.net/DTD/sodipodi-0.dtd"
  xmlns:inkscape="http://www.inkscape.org/namespaces/inkscape"
  width="100"
  height="100"
  viewBox="0 0 26.458333 26.458334"
  version="1.1"
  id="svg8"
  inkscape:version="0.92.1 r15371"
  sodipodi:docname="Eizan_Line_icon.svg">
  <defs
    id="defs2" />
  <sodipodi:namedview
    id="base"
    pagecolor="#ffffff"
    bordercolor="#666666"
    borderopacity="1.0"
    inkscape:pageopacity="0.0"
    inkscape:pageshadow="2"
    inkscape:zoom="1"
    inkscape:cx="137.80861"
    inkscape:cy="32"
    inkscape:document-units="mm"
    inkscape:current-layer="layer1"
    showgrid="false"
    units="px"
    inkscape:window-width="1366"
    inkscape:window-height="706"
    inkscape:window-x="-8"
    inkscape:window-y="-8"
    inkscape:window-maximized="1" />
  <metadata
    id="metadata5">
    <rdf:RDF>
      <cc:Work
        rdf:about="">
        <dc:format>image/svg+xml</dc:format>
        <dc:type
          rdf:resource="http://purl.org/dc/dcmitype/StillImage" />
        <dc:title></dc:title>
      </cc:Work>
    </rdf:RDF>
  </metadata>
  <g
    inkscape:label="Layer 1"
    inkscape:groupmode="layer"
    id="layer1"
    transform="translate(0,-270.54165)">
    <path
      inkscape:connector-curvature="0"
      id="path4995"
      style="fill:#007236;fill-opacity:1;fill-rule:nonzero;stroke:none;stroke-width:0.08466668"
      d="m 26.458333,295.2711 c 0,0.95799 -0.773021,1.7289 -1.730991,1.7289 H 1.7273522 C 0.77354322,297 0,296.22909 0,295.2711 v -23.0005 c 0,-0.95536 0.77354322,-1.73099 1.7273522,-1.73099 H 24.727342 c 0.95797,0 1.730991,0.77563 1.730991,1.73099 v 23.0005" />
    <path
      inkscape:connector-curvature="0"
      id="path4997"
      style="fill:#ffffff;fill-opacity:1;fill-rule:evenodd;stroke:none;stroke-width:0.08466668"
      d="m 10.7049,290.69687 6.310928,-10.29864 c 0,0 0.257706,-0.34299 0.668086,-0.34299 0.411962,0 0.632756,0.31047 0.632756,0.31047 l 6.392492,10.33502 -14.004262,-0.004" />
    <path
      inkscape:connector-curvature="0"
      id="path4999"
      style="fill:#ffffff;fill-opacity:1;fill-rule:evenodd;stroke:none;stroke-width:0.08466668"
      d="m 2.1211341,290.73534 9.4217229,-15.34563 c 0,0 0.328822,-0.3792 0.718474,-0.3792 0.389628,0 0.64107,0.35895 0.64107,0.35895 l 3.443789,5.50774 -6.057413,9.84617 -8.1676429,0.0123" />
  </g>
</svg>
