<?xml version="1.0" encoding="UTF-8" standalone="no"?>
<!-- Created with Inkscape (http://www.inkscape.org/) -->

<svg
  xmlns:dc="http://purl.org/dc/elements/1.1/"
  xmlns:cc="http://creativecommons.org/ns#"
  xmlns:rdf="http://www.w3.org/1999/02/22-rdf-syntax-ns#"
  xmlns:svg="http://www.w3.org/2000/svg"
  xmlns="http://www.w3.org/2000/svg"
  xmlns:sodipodi="http://sodipodi.sourceforge.net/DTD/sodipodi-0.dtd"
  xmlns:inkscape="http://www.inkscape.org/namespaces/inkscape"
  width="100"
  height="100"
  viewBox="0 0 26.458333 26.458334"
  version="1.1"
  id="svg8"
  inkscape:version="0.92.1 r15371"
  sodipodi:docname="Kurama_Line_icon.svg">
  <defs
    id="defs2" />
  <sodipodi:namedview
    id="base"
    pagecolor="#ffffff"
    bordercolor="#666666"
    borderopacity="1.0"
    inkscape:pageopacity="0.0"
    inkscape:pageshadow="2"
    inkscape:zoom="1"
    inkscape:cx="137.80861"
    inkscape:cy="32"
    inkscape:document-units="mm"
    inkscape:current-layer="layer1"
    showgrid="false"
    units="px"
    inkscape:window-width="1366"
    inkscape:window-height="706"
    inkscape:window-x="-8"
    inkscape:window-y="-8"
    inkscape:window-maximized="1" />
  <metadata
    id="metadata5">
    <rdf:RDF>
      <cc:Work
        rdf:about="">
        <dc:format>image/svg+xml</dc:format>
        <dc:type
          rdf:resource="http://purl.org/dc/dcmitype/StillImage" />
        <dc:title></dc:title>
      </cc:Work>
    </rdf:RDF>
  </metadata>
  <g
    inkscape:label="Layer 1"
    inkscape:groupmode="layer"
    id="layer1"
    transform="translate(0,-270.54165)">
    <path
      inkscape:connector-curvature="0"
      id="path4991"
      style="fill:#da1e4a;fill-opacity:1;fill-rule:nonzero;stroke:none;stroke-width:0.08466667"
      d="m 26.458333,295.27227 c 0,0.95226 -0.773817,1.72771 -1.728304,1.72771 H 1.7299302 C 0.77544939,296.99998 0,296.22453 0,295.27227 v -23.00228 c 0,-0.95233 0.77544939,-1.72617 1.7299302,-1.72617 H 24.730029 c 0.954487,0 1.728304,0.77384 1.728304,1.72617 v 23.00228" />
    <path
      inkscape:connector-curvature="0"
      id="path4993"
      style="fill:#ffffff;fill-opacity:1;fill-rule:nonzero;stroke:none;stroke-width:0.08466667"
      d="m 15.372942,277.93099 c -0.367832,-0.30658 -0.952309,-0.77596 -1.090527,-0.88644 l -0.03021,-0.0257 -0.421179,-0.28088 v 0.10605 l -0.386342,-0.2783 v 0.13819 l -0.384736,-0.35093 v 0.21274 l -0.421179,-0.31879 v 0.17868 l -0.631222,-0.28537 0.280808,0.49168 -0.174693,-0.0656 0.208436,0.38499 h -0.174115 l 0.174115,0.13819 0.212742,0.59709 -0.07019,0.10669 0.210043,0.2076 -0.103928,0.10669 0.489243,0.73515 c 0,0 -1.156374,-0.10604 -1.928012,-0.10604 -0.770006,0 -0.770006,0 -0.770006,0 l 0.03407,0.1761 -0.8075602,-0.10605 0.071857,0.14269 -0.9114889,-0.0701 0.1398573,0.10605 -0.699267,-0.0726 0.102322,0.17482 -0.9098627,-0.0681 0.033422,0.20761 -0.979515,0.14268 0.5610359,0.13819 0.034065,0.14011 0.7014459,0.24424 -0.035993,0.14011 0.3869213,-0.0321 -0.034064,0.10669 0.5931721,0.10605 -0.068,0.10155 0.805921,0.0321 0.6291013,0.17868 v 0.10605 c 0,0 0.701439,0.0656 1.018149,0.0656 0.316736,0 0.912042,0.0386 0.912042,0.0386 0,0 -2.5592601,1.08833 -3.5752306,1.509 -1.0165232,0.42098 -1.8942753,0.83747 -1.8942753,0.83747 l 0.1784851,0.10669 -1.1052195,0.46984 -0.040492,0.0257 -0.8995213,0.42485 -0.1273241,0.0643 -0.5974785,0.38499 0.1381862,0.1022 -1.2581305,0.56302 0.1360652,0.0701 -1.0839966,0.56303 1.2603093,-0.21274 v 0.10669 l 1.2369077,-0.36764 0.062344,-0.0193 0.8053812,-0.17868 -0.070186,0.17868 0.9800549,-0.38692 0.1045073,0.17418 1.0883543,-0.38693 v 0.14269 c 0,0 3.0141812,-1.08402 3.5730512,-1.33269 0.563221,-0.24488 1.190111,-0.55725 1.190111,-0.55725 0,0 -1.258131,1.46876 -1.611302,1.85401 -0.350415,0.38628 -1.0497143,1.36862 -1.4687269,2.10435 -0.4228497,0.73515 -0.3504787,0.5566 -0.3504787,0.5566 h 0.2421793 l -0.5952932,0.91415 0.2808072,-0.14268 -0.4892434,0.91203 0.3150645,-0.17225 -0.5251074,0.87179 0.384736,-0.24231 -0.6655239,1.22658 0.3488076,-0.17225 -0.3488076,1.08402 1.0159704,-0.9817 v 0.2783 l 1.0861755,-1.11988 v 0.31879 l 0.6677036,-0.81189 v 0.31879 l 0.839664,-0.94635 0.03406,0.31429 0.805921,-1.01596 0.07019,0.13819 c 0,0 0.982234,-1.11989 1.36697,-1.61131 0.386343,-0.48655 1.260309,-1.82136 1.473077,-2.27628 0.210043,-0.45698 0.49085,-0.91203 0.49085,-0.91203 0,0 0.384736,1.22658 0.805382,1.89373 0.421178,0.66554 0.699806,1.0862 0.699806,1.0862 l 0.1083,-0.10605 0.418479,0.66767 0.13825,-0.10669 0.525108,0.62987 0.03599,-0.17225 0.421178,0.73573 0.103929,-0.35093 0.703618,0.80591 v -0.24681 l 0.559429,0.52704 0.316736,0.10669 -0.316736,-0.91421 0.244301,0.10605 -0.312365,-0.91209 0.174114,0.0386 -0.280807,-0.77159 0.280807,0.17417 -0.210621,-0.66496 0.174693,0.0386 -0.244879,-0.73573 0.210622,0.0386 c 0,0 -0.384737,-1.33269 -0.595294,-1.7898 -0.212228,-0.45698 -0.528963,-1.05028 -0.807553,-1.39909 -0.278622,-0.35028 -0.278622,-0.35028 -0.278622,-0.35028 0,0 -0.282414,-0.34901 0.348807,-0.10605 0.629101,0.24423 0.350479,0.13754 1.470906,0.31429 1.120452,0.17611 1.120452,0.17611 1.120452,0.17611 l 0.737361,0.10605 -0.03406,-0.14076 0.803742,0.0701 -0.068,-0.14205 0.631222,0.072 -0.106114,-0.10605 0.947957,0.14076 -0.07237,-0.14076 0.982234,0.0701 -0.76946,-0.42035 0.138251,-0.07 -0.735729,-0.2783 0.174693,-0.0726 -0.525107,-0.17611 0.138186,-0.0656 -0.699807,-0.24873 0.247064,-0.0701 -0.70144,-0.17418 0.174115,-0.0701 c 0,0 -0.140371,-0.07 -0.837485,-0.24873 -0.703619,-0.17225 -1.301123,-0.42099 -1.439348,-0.42099 0,0 0.03664,0.006 0.493036,-0.17161 0.453315,-0.1761 0.80157,-0.24295 0.946325,-0.349 l 0.522922,-0.14268 -0.07019,-0.10155 0.595293,-0.14269 -0.104507,-0.07 0.595293,-0.17611 -0.208436,-0.0681 0.769459,-0.17611 v -0.15297 l 0.76944,-0.31236 -0.779807,0.0701 -0.05335,-0.0656 -0.516431,0.0321 -0.05142,-0.10155 -0.401576,0.0848 -0.08542,-0.10219 -0.518616,0.1189 v -0.0514 l -0.501712,0.13754 -0.101744,-0.0514 c 0,0 -1.01597,0.14012 -2.31492,0.52704 -1.298944,0.38499 -1.647218,0.59259 -2.066231,0.8054 -0.422849,0.20824 -0.422849,0.20824 -0.422849,0.20824 l 2.327466,-3.53069 h -0.416294 l -2.400351,3.46044 c 0,0 -0.420665,-1.22876 -0.841297,-1.57706" />
  </g>
</svg>
