<svg height="541.8667mm" viewBox="0 0 541.8667 541.8667" width="541.8667mm" xmlns="http://www.w3.org/2000/svg"><g fill="#fabe00" stroke-width="6.65099" transform="translate(-201.6125 -105.83333)"><path d="m472.5525 647.69999c-149.39377 0-270.93999-121.54088-270.93999-270.93643 0-149.39582 121.54622-270.93019 270.93999-270.93019 149.38724 0 270.92668 121.53437 270.92668 270.93019 0 149.39555-121.53944 270.93643-270.92668 270.93643z" fill="#fabe00"/><path d="m472.55217 634.15334c-141.92409 0-257.39299-115.46384-257.39299-257.38963 0-141.92603 115.4689-257.3837 257.39299-257.3837 141.91787 0 257.38034 115.45767 257.38034 257.3837 0 141.92579-115.46247 257.38963-257.38034 257.38963z" fill="#fff" stroke-width="6.14993"/><path d="m564.73488 201.63491h-184.38463c-30.82709 0-55.82807 25.00128-55.82807 55.83553v.69129h35.90838v-.69129c0-9.25171 7.48921-16.75408 16.74055-16.75408h190.74291c9.25813 0 16.74709 7.50237 16.74709 16.75408v.69129h35.90838v-.69129c0-30.84078-25.00098-55.83553-55.83461-55.83553z"/><path d="m620.42997 483.65212c.0503-.90496.15083-1.79484.15083-2.72017v-201.839h-35.90838v57.46496c0 9.25145-7.48896 16.74729-16.74709 16.74729h-190.7429c-9.25135 0-16.74056-7.49584-16.74056-16.74729v-57.46496h-35.91969v201.839c0 .92508.10055 1.80993.15083 2.72017-.10055 1.44291-.2011 2.87324-.2011 4.33652 0 35.29042 28.61248 63.90978 63.90901 63.90978h14.87158v-39.07467h-14.87158c-13.70093 0-24.84136-11.13402-24.84136-24.83511v-13.66791h24.84136 168.36904 24.83457v13.66791c0 13.70109-11.14043 24.83511-24.83457 24.83511h-14.87158v39.07467h14.87158c35.30332 0 63.90901-28.61936 63.90901-63.90978.007-1.46303-.10055-2.89311-.20109-4.33652zm-235.80987-44.7548c-12.33747 0-22.3271-9.99654-22.3271-22.32737 0-12.33109 9.98963-22.32763 22.3271-22.32763 12.33772 0 22.33414 9.99654 22.33414 22.32763 0 12.33083-9.99642 22.32737-22.33414 22.32737zm175.858 0c-12.33747 0-22.33389-9.99654-22.33389-22.32737 0-12.33109 9.99642-22.32763 22.33389-22.32763 12.33094 0 22.32736 9.99654 22.32736 22.32763 0 12.33083-9.99642 22.32737-22.32736 22.32737z"/></g></svg>