<svg xmlns="http://www.w3.org/2000/svg" width="612.575" height="612.576"
  xmlns:v="https://vecta.io/nano">
  <circle fill="#e50000" cx="306.288" cy="306.287" r="306.288" />
  <path
    d="M306.287 583.013c-73.916 0-143.407-28.784-195.673-81.051S29.563 380.204 29.563 306.288s28.784-143.407 81.051-195.674 121.757-81.051 195.673-81.051 143.408 28.784 195.675 81.051 81.051 121.758 81.051 195.674-28.784 143.407-81.051 195.674-121.759 81.051-195.675 81.051zm0-530.45c-139.904 0-253.724 113.82-253.724 253.725s113.82 253.725 253.724 253.725 253.726-113.82 253.726-253.725S446.191 52.563 306.287 52.563zm-9.096 154.964h59.667l49.667 82 50.666-82h57.667l-81.667 133v98.666h-53V340.86zM103.858 380.193v47.334s50.667 17 83 17 86.667-9.334 86.667-76.667c0-16.646-3.821-31.354-18.378-43.503-17.281-14.424-35.834-19.002-50.623-22.83-12.585-3.258-50.667-10.333-50.667-31s37.333-38.334 105.667-8.667v-47.333s-38-12-70.833-12-84.833 13.666-84.833 72.333c0 56.666 47.666 61.667 64.333 66.667s53.667 9.333 53.667 34.333-44.667 39.666-118 4.333z"
    fill="#fff" />
</svg>
