<?xml version="1.0" encoding="UTF-8" standalone="no"?>
<svg xmlns="http://www.w3.org/2000/svg" width="300" height="277" viewBox="0 0 300 277" version="1.1">
<g fill="#1c1ca7">
	<path d="m 150,0 c -82.62062,0 -150,67.37939 -150,150 0,41.31022 16.81006,78.94287 43.93359,106.0664 4.00665,4.00664 8.24816,7.7808 12.69141,11.31641 L 150,131.75195 243.375,267.38476 c 4.4436,-3.53582 8.68448,-7.31143 12.69141,-11.31836 C 283.18994,228.94287 300,191.31022 300,150 c -2e-5,-82.62062 -67.37938,-150.00001 -150,-150 z m 0,37.5 c 62.35411,-10e-6 112.49999,50.14588 112.5,112.5 0,24.29039 -7.63323,46.64623 -20.64258,64.97656 L 150,81.54883 58.14063,214.97656 C 45.1318,196.64622 37.5,174.29037 37.5,150 c 0,-62.35411 50.14589,-112.5 112.5,-112.5 z"/>
	<circle cx="150" cy="241.625" r="35.375"/>
</g>

</svg>
