<?xml version="1.0" encoding="UTF-8"?>
<svg xmlns="http://www.w3.org/2000/svg" version="1.1" viewBox="0 0 512 512">
  <defs>
    <style>
      .cls-1 {
        fill: #d74123;
      }
    </style>
  </defs>
  <!-- Generator: Adobe Illustrator 28.7.1, SVG Export Plug-In . SVG Version: 1.2.0 Build 142)  -->
  <g>
    <g id="_レイヤー_1" data-name="レイヤー_1">
      <path class="cls-1" d="M256,0C114.62,0,0,114.62,0,256s114.62,256,256,256,256-114.62,256-256S397.38,0,256,0ZM256.5,452c-108.52,0-196.5-87.98-196.5-196.5S147.98,59,256.5,59s196.5,87.98,196.5,196.5-87.98,196.5-196.5,196.5Z"/>
      <g>
        <path d="M112.28,338.77v-165.7h65.37c12.51,0,23.21,2.23,32.08,6.67,8.87,4.45,15.64,10.73,20.31,18.85,4.67,8.12,7,17.65,7,28.6s-2.37,20.46-7.12,28.36c-4.75,7.9-11.61,13.96-20.59,18.16s-19.84,6.31-32.56,6.31h-43.77v-28.16h38.11c6.69,0,12.24-.92,16.67-2.75,4.42-1.83,7.73-4.58,9.91-8.25,2.18-3.67,3.28-8.22,3.28-13.67s-1.09-10.14-3.28-13.92c-2.18-3.77-5.5-6.65-9.95-8.62-4.45-1.97-10.05-2.95-16.79-2.95h-23.62v137.06h-35.03ZM201.76,263.36l41.18,75.4h-38.67l-40.29-75.4h37.78Z"/>
        <path d="M400.38,173.07v165.7h-30.26l-72.09-104.29h-1.21v104.29h-35.03v-165.7h30.74l71.52,104.21h1.46v-104.21h34.87Z"/>
      </g>
    </g>
  </g>
</svg>