<?xml version="1.0" encoding="UTF-8" standalone="no"?>
<svg
   version="1.0"
   width="1024.000000pt"
   height="1024.000000pt"
   viewBox="0 0 1024.000000 1024.000000"
   preserveAspectRatio="xMidYMid meet"
   id="svg8"
   sodipodi:docname="Number_prefix_Daiyuzan.svg"
   inkscape:version="1.1.2 (b8e25be833, 2022-02-05)"
   xmlns:inkscape="http://www.inkscape.org/namespaces/inkscape"
   xmlns:sodipodi="http://sodipodi.sourceforge.net/DTD/sodipodi-0.dtd"
   xmlns="http://www.w3.org/2000/svg"
   xmlns:svg="http://www.w3.org/2000/svg">
  <defs
     id="defs12" />
  <sodipodi:namedview
     id="namedview10"
     pagecolor="#ffffff"
     bordercolor="#666666"
     borderopacity="1.0"
     inkscape:pageshadow="2"
     inkscape:pageopacity="0.0"
     inkscape:pagecheckerboard="0"
     inkscape:document-units="pt"
     showgrid="false"
     inkscape:zoom="0.58740234"
     inkscape:cx="682.66667"
     inkscape:cy="683.51787"
     inkscape:window-width="1920"
     inkscape:window-height="991"
     inkscape:window-x="-9"
     inkscape:window-y="-9"
     inkscape:window-maximized="1"
     inkscape:current-layer="g6" />
  <g
     transform="translate(0.000000,1024.000000) scale(0.100000,-0.100000)"
     fill="#000000"
     stroke="none"
     id="g6">
    <path
       d="M4885 10224 c-1300 -72 -2472 -591 -3375 -1494 -768 -768 -1268 -1748 -1435 -2815 -44 -285 -59 -477 -59 -795 0 -318 15 -510 59 -795 238 -1520 1162 -2864 2494 -3630 644 -370 1325 -586 2085 -662 234 -23 698 -23 932 0 1218 122 2295 628 3144 1477 849 849 1355 1926 1477 3144 23 234 23 698 0 932 -122 1218 -628 2295 -1477 3144 -846 847 -1937 1360 -3135 1475 -158 15 -574 26 -710 19z m-1720 -5019 l0 -2680 -547 -3 -548 -2 0 2685 0 2685 548 -2 547 -3 0 -2680z m3650 2662 c307 -42 470 -88 690 -198 169 -84 296 -172 429 -299 185 -177 328 -369 445 -600 222 -436 321 -931 321 -1606 0 -621 -91 -1060 -311 -1504 -215 -432 -492 -719 -872 -903 -268 -130 -516 -196 -862 -227 -66 -6 -584 -10 -1287 -10 l-1178 0 0 2685 0 2686 1253 -4 c1088 -3 1268 -6 1372 -20z"
       id="path2"
       style="fill:#0173bc;fill-opacity:1" />
    <path
       d="M5290 5204 l0 -1765 618 4 c525 3 633 6 721 21 267 44 486 155 615 313 145 175 254 488 301 864 22 171 31 736 16 939 -26 343 -72 544 -171 757 -141 300 -361 489 -662 568 -200 52 -397 65 -985 65 l-453 0 0 -1766z"
       id="path4"
       style="fill:#0173bc;fill-opacity:1" />
  </g>
</svg>
