<?xml version="1.0" encoding="UTF-8"?>
<svg version="1.1" xmlns="http://www.w3.org/2000/svg" width="311.81" height="311.81" viewBox="0 0 311.81 311.81">
<g fill="#0CB14B">
	<path d="M155.886,279.745l-29.331,28.372L3.688,185.25l28.372-29.341L3.688,126.597L126.555,3.692l29.331,28.372 l29.323-28.372l122.912,122.904l-28.352,29.313l28.352,29.341L185.209,308.117L155.886,279.745 M280.719,126.597l-95.51-95.521l-29.323,28.392l-29.331-28.392l-95.483,95.521l28.373,29.313L31.072,185.25l95.483,95.521l29.331-28.41l29.323,28.41l95.51-95.521l-28.354-29.341L280.719,126.597z"/>
	<path d="M108.245,240.959L72.3,205.006v-98.154l35.945-35.982h98.19l35.936,35.982v98.154l-35.936,35.953H108.245M232.641,200.957V110.88l-30.232-30.224h-90.134L82.049,110.88v90.077l30.226,30.253h90.134L232.641,200.957z"/>
	<path d="M173.998,97.646c0,0,11.752-0.295,11.752,7.649v19.089l-15.451,0.759c0,0-8.967,0.171-8.967,11.754l0.721,55.66c0,0,6.945,14.349,17.9,14.349l26.293,3.04c0,0,9.826,4.429-1.199,4.238h-97.543c-10.974,0.19-1.188-4.238-1.188-4.238l26.33-3.04c10.917,0,17.882-14.349,17.882-14.349l0.703-55.66c0-11.583-8.951-11.754-8.951-11.754l-15.412-0.759v-19.089c0-7.944,11.716-7.649,11.716-7.649H173.998"/>
</g>
</svg>
