<?xml version="1.0" encoding="UTF-8" standalone="no"?>
<!-- Created with Inkscape (http://www.inkscape.org/) -->
<svg width="20mm" height="20mm" viewBox="0 0 20 20" version="1.1" id="svg849" inkscape:version="1.1 (c68e22c387, 2021-05-23)" sodipodi:docname="k.svg" xmlns:inkscape="http://www.inkscape.org/namespaces/inkscape" xmlns:sodipodi="http://sodipodi.sourceforge.net/DTD/sodipodi-0.dtd" xmlns="http://www.w3.org/2000/svg" xmlns:svg="http://www.w3.org/2000/svg">
  <sodipodi:namedview id="namedview851" pagecolor="#ffffff" bordercolor="#666666" borderopacity="1.0" inkscape:pageshadow="2" inkscape:pageopacity="0.0" inkscape:pagecheckerboard="0" inkscape:document-units="mm" showgrid="false" width="20mm" inkscape:zoom="8" inkscape:cx="47.5625" inkscape:cy="35.875" inkscape:window-width="1920" inkscape:window-height="1001" inkscape:window-x="-9" inkscape:window-y="-9" inkscape:window-maximized="1" inkscape:current-layer="layer1"/>
  <defs id="defs846"/>
  <g inkscape:label="圖層 1" inkscape:groupmode="layer" id="layer1">
    <rect style="fill:#c3b091;fill-opacity:1;stroke-width:0.264583" id="rect1072" width="20" height="20" x="0" y="0" rx="5"/>
    <path style="fill:#ffffff;fill-opacity:1;stroke-width:0.0483925" d="M 7.000028,10.078173 V 6.000009 H 7.613205 8.226379 L 8.239189,7.987607 8.251999,9.975205 10.21589,7.98817 12.17978,6.001133 12.915965,6.000567 13.652147,6 l -1.638318,1.592151 -1.638317,1.592153 1.822707,2.43779 c 1.002488,1.340784 1.822707,2.448758 1.822707,2.462162 0,0.0134 -0.339263,0.02437 -0.75392,0.02437 H 12.513071 L 11.129775,12.204218 C 10.368962,11.156791 9.704169,10.249936 9.652456,10.188985 l -0.09403,-0.110821 -0.665497,0.643257 -0.665501,0.643258 v 1.395825 1.395823 H 7.613713 7 Z" id="path4297"/>
  </g>
</svg>