<?xml version="1.0" encoding="UTF-8" standalone="no"?>
<!-- Created with Inkscape (http://www.inkscape.org/) -->

<svg
   width="167.91299"
   height="100"
   viewBox="0 0 44.426979 26.458333"
   version="1.1"
   id="svg1"
   xmlns="http://www.w3.org/2000/svg"
   xmlns:svg="http://www.w3.org/2000/svg">
  <defs
     id="defs1" />
  <g
     id="layer1">
    <path
       style="display:inline;fill:#0081a0;fill-opacity:1;stroke-width:0.280582"
       d="M 0.06003872,25.889379 C 1.2394208,22.808719 8.3497536,6.8855393 8.9248946,6.0382793 c 1.2475224,-1.83908 3.7894864,-4.03959 5.6977904,-4.93253 2.054504,-0.96148 4.870986,-1.44752 4.600445,-0.7939 -1.615603,3.90105 -8.280132,18.9315897 -8.761673,19.7594297 -0.8175611,1.40642 -3.2513854,3.72768 -4.9176084,4.69002 -1.3788025,0.7965 -3.9145071,1.61908 -4.991029,1.61908 -0.53246095,0 -0.63962114,-0.1064 -0.49278088,-0.491 z m 18.25060928,0.1528 c -2.09848,-0.73326 -3.054282,-2.3822 -2.878982,-4.96508 0.112401,-1.63304 0.618781,-2.98348 4.308065,-11.4546797 4.050107,-9.29975 4.206868,-9.60359 4.962909,-9.60991 1.989664,-0.016 4.187687,1.8563 4.504528,3.83791 0.274501,1.71274 -0.2249,3.1438 -4.596468,13.2004797 -4.463508,10.2677 -4.106328,9.75788 -6.300052,8.99128 z m 7.238993,-0.53468 c 3.970068,-9.31666 8.241095,-18.8002597 8.893956,-19.7493797 1.099022,-1.59692 3.355916,-3.54849 5.15872,-4.46067 1.507462,-0.76262 4.515768,-1.53134 4.816068,-1.2307 0.317501,0.3165 -8.259284,19.6173497 -9.356986,21.0594297 -2.000244,2.62686 -5.48911,4.75474 -8.423656,5.13736 l -1.492922,0.1948 z"
       id="path56" />
  </g>
</svg>
