<?xml version="1.0" encoding="UTF-8" standalone="no"?>
<!-- Created with Inkscape (http://www.inkscape.org/) -->

<svg
  xmlns:dc="http://purl.org/dc/elements/1.1/"
  xmlns:cc="http://creativecommons.org/ns#"
  xmlns:rdf="http://www.w3.org/1999/02/22-rdf-syntax-ns#"
  xmlns:svg="http://www.w3.org/2000/svg"
  xmlns="http://www.w3.org/2000/svg"
  xmlns:sodipodi="http://sodipodi.sourceforge.net/DTD/sodipodi-0.dtd"
  xmlns:inkscape="http://www.inkscape.org/namespaces/inkscape"
  width="84.666664mm"
  height="84.666664mm"
  viewBox="0 0 299.99999 299.99999"
  id="svg4766"
  version="1.1"
  inkscape:version="0.91 r13725"
  sodipodi:docname="ICHIBATA.svg">
  <defs
    id="defs4768" />
  <sodipodi:namedview
    id="base"
    pagecolor="#ffffff"
    bordercolor="#666666"
    borderopacity="1.0"
    inkscape:pageopacity="0.0"
    inkscape:pageshadow="2"
    inkscape:zoom="0.98994949"
    inkscape:cx="118.48434"
    inkscape:cy="35.856313"
    inkscape:document-units="px"
    inkscape:current-layer="layer1"
    showgrid="false"
    fit-margin-top="0"
    fit-margin-left="0"
    fit-margin-right="0"
    fit-margin-bottom="0"
    inkscape:window-width="1097"
    inkscape:window-height="839"
    inkscape:window-x="758"
    inkscape:window-y="51"
    inkscape:window-maximized="0" />
  <metadata
    id="metadata4771">
    <rdf:RDF>
      <cc:Work
        rdf:about="">
        <dc:format>image/svg+xml</dc:format>
        <dc:type
          rdf:resource="http://purl.org/dc/dcmitype/StillImage" />
        <dc:title></dc:title>
      </cc:Work>
    </rdf:RDF>
  </metadata>
  <g
    inkscape:label="レイヤー 1"
    inkscape:groupmode="layer"
    id="layer1"
    transform="translate(-221.42857,-185.21935)">
    <path
      style="color:#000000;clip-rule:nonzero;display:inline;overflow:visible;visibility:visible;opacity:1;isolation:auto;mix-blend-mode:normal;color-interpolation:sRGB;color-interpolation-filters:linearRGB;solid-color:#000000;solid-opacity:1;fill:#e70012;fill-opacity:1;fill-rule:nonzero;stroke:none;stroke-width:1;stroke-linecap:square;stroke-linejoin:round;stroke-miterlimit:4;stroke-dasharray:none;stroke-dashoffset:0;stroke-opacity:0.61666667;color-rendering:auto;image-rendering:auto;shape-rendering:auto;text-rendering:auto;enable-background:accumulate"
      d="m 371.42857,185.21934 a 150,150 0 0 0 -150,150 150,150 0 0 0 150,150 150,150 0 0 0 150,-150 150,150 0 0 0 -150,-150 z m -100.87109,67.8164 c 44.83968,14.36098 80.33454,48.94244 95.85937,93.39258 -6.8117,18.10971 -10.33444,37.29038 -10.40234,56.63867 0.12126,13.87912 2.02018,27.68552 5.65039,41.08203 L 245.45005,367.72715 c -2.77147,-10.61476 -4.19026,-21.53725 -4.22265,-32.50781 0.0325,-29.95271 10.39126,-58.97827 29.33008,-82.1836 z m 203.27539,1.83008 a 130.201,130.201 0 0 1 27.79687,80.35352 130.201,130.201 0 0 1 -4.69922,34.10547 l -121.57226,79.94531 c -5.85914,-16.21197 -8.87989,-33.31259 -8.92969,-50.55078 0,-68.04428 45.31191,-125.49551 107.4043,-143.85352 z"
      id="path6249"
      inkscape:connector-curvature="0" />
  </g>
</svg>
