<?xml version="1.0" encoding="utf-8"?>
<!-- Generator: Adobe Illustrator 26.5.0, SVG Export Plug-In . SVG Version: 6.00 Build 0)  -->
<svg version="1.1" id="レイヤー_1" xmlns="http://www.w3.org/2000/svg"
  xmlns:xlink="http://www.w3.org/1999/xlink" x="0px"
  y="0px" viewBox="0 0 20 20" style="enable-background:new 0 0 20 20;" xml:space="preserve">
<style type="text/css">
	.st0{fill:#C22047;}
	.st1{display:none;}
	.st2{display:inline;fill:#FFFFFF;}
	.st3{fill:#FFFFFF;}
</style>
<g>
	<g>
		<path class="st0" d="M17,20H3c-1.7,0-3-1.3-3-3V3c0-1.7,1.3-3,3-3h14c1.7,0,3,1.3,3,3v14C20,18.7,18.7,20,17,20z"/>
	</g>
	<g class="st1">
		<path class="st2" d="M9,2.1h2.1l4.4,11.4h-2.1l-1.1-3H7.8l-1.1,3H4.6L9,2.1z M8.3,9h3.5l-1.7-4.9h0L8.3,9z"/>
	</g>
	<g>
		<path class="st3" d="M8.9,4.3h2.1l4.4,11.4h-2.1l-1.1-3H7.7l-1.1,3H4.5L8.9,4.3z M8.2,11.2h3.5L10,6.3h0L8.2,11.2z"/>
	</g>
</g>
</svg>
