<?xml version="1.0" encoding="utf-8"?>
<!-- Generator: Adobe Illustrator 26.5.0, SVG Export Plug-In . SVG Version: 6.00 Build 0)  -->
<svg version="1.1" id="レイヤー_1" xmlns="http://www.w3.org/2000/svg"
  xmlns:xlink="http://www.w3.org/1999/xlink" x="0px"
  y="0px" viewBox="0 0 20 20" style="enable-background:new 0 0 20 20;" xml:space="preserve">
<style type="text/css">
	.st0{fill:#E7A61A;}
	.st1{display:none;}
	.st2{display:inline;fill:#FFFFFF;}
	.st3{fill:#FFFFFF;}
</style>
<g>
	<g>
		<path class="st0" d="M17,20H3c-1.7,0-3-1.3-3-3V3c0-1.7,1.3-3,3-3h14c1.7,0,3,1.3,3,3v14C20,18.7,18.7,20,17,20z"/>
	</g>
	<g class="st1">
		<path class="st2" d="M5.9,4.3h5.6c1,0,1.8,0.2,2.5,0.7c0.6,0.5,0.9,1.2,0.9,2.1c0,0.6-0.1,1.1-0.4,1.5c-0.3,0.4-0.7,0.7-1.2,1v0
			c0.7,0.1,1.2,0.5,1.6,1s0.5,1.2,0.5,1.9c0,0.4-0.1,0.9-0.2,1.3c-0.2,0.4-0.4,0.7-0.8,1c-0.3,0.3-0.8,0.5-1.3,0.7
			c-0.5,0.2-1.2,0.2-1.9,0.2H5.9V4.3z M7.9,9.1h3.3c0.5,0,0.9-0.1,1.2-0.4c0.3-0.3,0.5-0.7,0.5-1.2c0-0.6-0.1-1-0.4-1.2
			c-0.3-0.2-0.7-0.4-1.2-0.4H7.9V9.1z M7.9,14.1h3.5c0.6,0,1.1-0.2,1.4-0.5c0.3-0.3,0.5-0.8,0.5-1.3c0-0.6-0.2-1-0.5-1.3
			c-0.3-0.3-0.8-0.5-1.4-0.5H7.9V14.1z"/>
	</g>
	<g>
		<path class="st3" d="M5.9,4.3h5.6c1,0,1.8,0.2,2.5,0.7c0.6,0.5,0.9,1.2,0.9,2.1c0,0.6-0.1,1.1-0.4,1.5c-0.3,0.4-0.7,0.7-1.2,1v0
			c0.7,0.1,1.2,0.5,1.6,1s0.5,1.2,0.5,1.9c0,0.4-0.1,0.9-0.2,1.3c-0.2,0.4-0.4,0.7-0.8,1c-0.3,0.3-0.8,0.5-1.3,0.7
			c-0.5,0.2-1.2,0.2-1.9,0.2H5.9V4.3z M7.9,9.1h3.3c0.5,0,0.9-0.1,1.2-0.4c0.3-0.3,0.5-0.7,0.5-1.2c0-0.6-0.1-1-0.4-1.2
			c-0.3-0.2-0.7-0.4-1.2-0.4H7.9V9.1z M7.9,14.1h3.5c0.6,0,1.1-0.2,1.4-0.5c0.3-0.3,0.5-0.8,0.5-1.3c0-0.6-0.2-1-0.5-1.3
			c-0.3-0.3-0.8-0.5-1.4-0.5H7.9V14.1z"/>
	</g>
</g>
</svg>
