<?xml version="1.0" encoding="utf-8"?>
<!-- Generator: Adobe Illustrator 26.5.0, SVG Export Plug-In . SVG Version: 6.00 Build 0)  -->
<svg version="1.1" id="レイヤー_1" xmlns="http://www.w3.org/2000/svg"
  xmlns:xlink="http://www.w3.org/1999/xlink" x="0px"
  y="0px" viewBox="0 0 20 20" style="enable-background:new 0 0 20 20;" xml:space="preserve">
<style type="text/css">
	.st0{fill:#65C03A;}
	.st1{display:none;}
	.st2{display:inline;fill:#FFFFFF;}
	.st3{fill:#FFFFFF;}
</style>
<g>
	<g>
		<path class="st0" d="M17,20H3c-1.7,0-3-1.3-3-3V3c0-1.7,1.3-3,3-3h14c1.7,0,3,1.3,3,3v14C20,18.7,18.7,20,17,20z"/>
	</g>
	<g class="st1">
		<path class="st2" d="M13.2,7.9c-0.1-0.3-0.2-0.6-0.4-0.9s-0.3-0.5-0.6-0.7s-0.5-0.4-0.8-0.5s-0.7-0.2-1.1-0.2
			C9.7,5.6,9.2,5.8,8.7,6C8.3,6.3,7.9,6.6,7.6,7S7.2,7.9,7,8.4C6.9,8.9,6.8,9.5,6.8,10s0.1,1.1,0.2,1.6c0.1,0.5,0.3,1,0.6,1.4
			c0.3,0.4,0.6,0.7,1.1,1c0.4,0.2,1,0.4,1.6,0.4c0.4,0,0.8-0.1,1.2-0.2c0.3-0.2,0.6-0.4,0.9-0.6c0.2-0.3,0.4-0.6,0.6-1
			c0.1-0.4,0.2-0.8,0.3-1.2h2c0,0.7-0.2,1.3-0.4,1.9c-0.3,0.6-0.6,1.1-1,1.5c-0.4,0.4-0.9,0.7-1.5,1C11.6,15.9,11,16,10.3,16
			c-0.9,0-1.6-0.2-2.3-0.5c-0.7-0.3-1.3-0.7-1.7-1.3c-0.5-0.5-0.8-1.2-1.1-1.9C5,11.6,4.8,10.8,4.8,10c0-0.8,0.1-1.6,0.4-2.3
			C5.5,7,5.8,6.3,6.3,5.8c0.5-0.5,1-1,1.7-1.3C8.7,4.2,9.5,4,10.3,4c0.6,0,1.2,0.1,1.8,0.3c0.6,0.2,1.1,0.4,1.5,0.8
			c0.4,0.3,0.8,0.7,1,1.2s0.4,1,0.5,1.6H13.2z"/>
	</g>
	<g>
		<path class="st3" d="M13.2,8.1c-0.1-0.3-0.2-0.6-0.4-0.9s-0.3-0.5-0.6-0.7S11.7,6.1,11.4,6s-0.7-0.2-1.1-0.2
			C9.7,5.8,9.2,6,8.7,6.2c-0.4,0.2-0.8,0.6-1.1,1S7.2,8.1,7,8.6c-0.1,0.5-0.2,1.1-0.2,1.6s0.1,1.1,0.2,1.6c0.1,0.5,0.3,1,0.6,1.4
			c0.3,0.4,0.6,0.7,1.1,1c0.4,0.2,1,0.4,1.6,0.4c0.4,0,0.8-0.1,1.2-0.2c0.3-0.2,0.6-0.4,0.9-0.6c0.2-0.3,0.4-0.6,0.6-1
			c0.1-0.4,0.2-0.8,0.3-1.2h2c0,0.7-0.2,1.3-0.4,1.9c-0.3,0.6-0.6,1.1-1,1.5c-0.4,0.4-0.9,0.7-1.5,1c-0.6,0.2-1.2,0.3-1.9,0.3
			c-0.9,0-1.6-0.2-2.3-0.5c-0.7-0.3-1.3-0.7-1.7-1.3c-0.5-0.5-0.8-1.2-1.1-1.9C5,11.8,4.8,11,4.8,10.2c0-0.8,0.1-1.6,0.4-2.3
			C5.5,7.2,5.8,6.5,6.3,6c0.5-0.5,1-1,1.7-1.3c0.7-0.3,1.4-0.5,2.3-0.5c0.6,0,1.2,0.1,1.8,0.3c0.6,0.2,1.1,0.4,1.5,0.8
			c0.4,0.3,0.8,0.7,1,1.2s0.4,1,0.5,1.6H13.2z"/>
	</g>
</g>
</svg>
