<?xml version="1.0" encoding="utf-8"?>
<!-- Generator: Adobe Illustrator 26.5.0, SVG Export Plug-In . SVG Version: 6.00 Build 0)  -->
<svg version="1.1" id="レイヤー_1" xmlns="http://www.w3.org/2000/svg"
  xmlns:xlink="http://www.w3.org/1999/xlink" x="0px"
  y="0px" viewBox="0 0 20 20" style="enable-background:new 0 0 20 20;" xml:space="preserve">
<style type="text/css">
	.st0{fill:#2E89D9;}
	.st1{display:none;}
	.st2{display:inline;fill:#FFFFFF;}
	.st3{fill:#FFFFFF;}
</style>
<g>
	<g>
		<path class="st0" d="M17,20H3c-1.7,0-3-1.3-3-3V3c0-1.7,1.3-3,3-3h14c1.7,0,3,1.3,3,3v14C20,18.7,18.7,20,17,20z"/>
	</g>
	<g class="st1">
		<path class="st2" d="M5.4,4.3h4.7c0.9,0,1.6,0.1,2.3,0.4C13.1,5,13.6,5.4,14,6c0.4,0.5,0.7,1.1,0.9,1.8c0.2,0.7,0.3,1.4,0.3,2.2
			s-0.1,1.5-0.3,2.2c-0.2,0.7-0.5,1.3-0.9,1.8s-0.9,0.9-1.6,1.2c-0.6,0.3-1.4,0.4-2.3,0.4H5.4V4.3z M7.4,14.1h2
			c0.8,0,1.4-0.1,1.9-0.3s0.9-0.5,1.2-0.9c0.3-0.4,0.5-0.8,0.6-1.3c0.1-0.5,0.2-1,0.2-1.6S13.1,8.9,13,8.4s-0.3-0.9-0.6-1.3
			c-0.3-0.4-0.7-0.7-1.2-0.9s-1.1-0.3-1.9-0.3h-2V14.1z"/>
	</g>
	<g>
		<path class="st3" d="M5.4,4.3h4.7c0.9,0,1.6,0.1,2.3,0.4C13.1,5,13.6,5.4,14,6c0.4,0.5,0.7,1.1,0.9,1.8c0.2,0.7,0.3,1.4,0.3,2.2
			s-0.1,1.5-0.3,2.2c-0.2,0.7-0.5,1.3-0.9,1.8s-0.9,0.9-1.6,1.2c-0.6,0.3-1.4,0.4-2.3,0.4H5.4V4.3z M7.4,14.1h2
			c0.8,0,1.4-0.1,1.9-0.3s0.9-0.5,1.2-0.9c0.3-0.4,0.5-0.8,0.6-1.3c0.1-0.5,0.2-1,0.2-1.6S13.1,8.9,13,8.4s-0.3-0.9-0.6-1.3
			c-0.3-0.4-0.7-0.7-1.2-0.9s-1.1-0.3-1.9-0.3h-2V14.1z"/>
	</g>
</g>
</svg>
