<?xml version="1.0" encoding="utf-8"?>
<!-- Generator: Adobe Illustrator 26.5.0, SVG Export Plug-In . SVG Version: 6.00 Build 0)  -->
<svg version="1.1" id="レイヤー_1" xmlns="http://www.w3.org/2000/svg"
  xmlns:xlink="http://www.w3.org/1999/xlink" x="0px"
  y="0px" viewBox="0 0 20 20" style="enable-background:new 0 0 20 20;" xml:space="preserve">
<style type="text/css">
	.st0{fill:#C22047;}
	.st1{display:none;}
	.st2{display:inline;fill:#FFFFFF;}
	.st3{fill:#FFFFFF;}
</style>
<g>
	<g>
		<path class="st0" d="M17,20H3c-1.7,0-3-1.3-3-3V3c0-1.7,1.3-3,3-3h14c1.7,0,3,1.3,3,3v14C20,18.7,18.7,20,17,20z"/>
	</g>
	<g class="st1">
		<path class="st2" d="M15.2,15.7H14l-0.3-1.3c-0.5,0.6-1.1,1-1.6,1.3S10.9,16,10.2,16c-0.9,0-1.6-0.2-2.3-0.5
			c-0.7-0.3-1.3-0.7-1.7-1.3c-0.5-0.5-0.8-1.2-1.1-1.9c-0.3-0.7-0.4-1.5-0.4-2.3c0-0.8,0.1-1.6,0.4-2.3C5.4,7,5.7,6.3,6.2,5.8
			c0.5-0.5,1-1,1.7-1.3C8.6,4.2,9.4,4,10.2,4c0.6,0,1.2,0.1,1.8,0.2c0.6,0.2,1.1,0.4,1.5,0.7s0.8,0.7,1.1,1.2s0.5,1.1,0.5,1.7h-2
			c-0.1-0.4-0.2-0.7-0.3-1c-0.2-0.3-0.4-0.5-0.7-0.7c-0.3-0.2-0.6-0.3-0.9-0.4c-0.3-0.1-0.7-0.1-1-0.1C9.6,5.6,9.1,5.8,8.6,6
			C8.2,6.3,7.8,6.6,7.6,7S7.1,7.9,7,8.4C6.8,8.9,6.8,9.5,6.8,10s0.1,1.1,0.2,1.6c0.1,0.5,0.3,1,0.6,1.4c0.3,0.4,0.6,0.7,1.1,1
			c0.4,0.2,1,0.4,1.6,0.4c0.5,0,1-0.1,1.4-0.2c0.4-0.1,0.7-0.4,1-0.6c0.3-0.3,0.5-0.6,0.6-1s0.2-0.8,0.2-1.3h-3V9.7h4.9V15.7z"/>
	</g>
	<g>
		<path class="st3" d="M15.2,15.7H14l-0.3-1.3c-0.5,0.6-1.1,1-1.6,1.3S10.9,16,10.2,16c-0.9,0-1.6-0.2-2.3-0.5
			c-0.7-0.3-1.3-0.7-1.7-1.3c-0.5-0.5-0.8-1.2-1.1-1.9c-0.3-0.7-0.4-1.5-0.4-2.3c0-0.8,0.1-1.6,0.4-2.3C5.4,7,5.7,6.3,6.2,5.8
			c0.5-0.5,1-1,1.7-1.3C8.6,4.2,9.4,4,10.2,4c0.6,0,1.2,0.1,1.8,0.2c0.6,0.2,1.1,0.4,1.5,0.7s0.8,0.7,1.1,1.2s0.5,1.1,0.5,1.7h-2
			c-0.1-0.4-0.2-0.7-0.3-1c-0.2-0.3-0.4-0.5-0.7-0.7c-0.3-0.2-0.6-0.3-0.9-0.4c-0.3-0.1-0.7-0.1-1-0.1C9.6,5.6,9.1,5.8,8.6,6
			C8.2,6.3,7.8,6.6,7.6,7S7.1,7.9,7,8.4C6.8,8.9,6.8,9.5,6.8,10s0.1,1.1,0.2,1.6c0.1,0.5,0.3,1,0.6,1.4c0.3,0.4,0.6,0.7,1.1,1
			c0.4,0.2,1,0.4,1.6,0.4c0.5,0,1-0.1,1.4-0.2c0.4-0.1,0.7-0.4,1-0.6c0.3-0.3,0.5-0.6,0.6-1s0.2-0.8,0.2-1.3h-3V9.7h4.9V15.7z"/>
	</g>
</g>
</svg>
