<?xml version="1.0" encoding="utf-8"?>
<!-- Generator: Adobe Illustrator 26.5.0, SVG Export Plug-In . SVG Version: 6.00 Build 0)  -->
<svg version="1.1" id="レイヤー_1" xmlns="http://www.w3.org/2000/svg"
  xmlns:xlink="http://www.w3.org/1999/xlink" x="0px"
  y="0px" viewBox="0 0 20 20" style="enable-background:new 0 0 20 20;" xml:space="preserve">
<style type="text/css">
	.st0{fill:#2E89D9;}
	.st1{display:none;}
	.st2{display:inline;fill:#FFFFFF;}
	.st3{fill:#FFFFFF;}
</style>
<g>
	<g>
		<path class="st0" d="M17,20H3c-1.7,0-3-1.3-3-3V3c0-1.7,1.3-3,3-3h14c1.7,0,3,1.3,3,3v14C20,18.7,18.7,20,17,20z"/>
	</g>
	<g class="st1">
		<path class="st2" d="M13.4,12c0,0.5,0,1-0.1,1.5c-0.1,0.5-0.3,0.9-0.5,1.3c-0.3,0.4-0.6,0.7-1.1,0.9c-0.5,0.2-1.2,0.3-2,0.3
			c-0.6,0-1.1-0.1-1.6-0.3c-0.4-0.2-0.8-0.4-1.1-0.8c-0.3-0.3-0.5-0.7-0.6-1.2c-0.1-0.4-0.2-0.9-0.2-1.5v-0.6h2v0.6
			c0,0.7,0.1,1.2,0.3,1.5c0.2,0.4,0.6,0.5,1.2,0.5c0.3,0,0.6,0,0.8-0.1s0.4-0.2,0.5-0.4c0.1-0.2,0.2-0.4,0.2-0.7
			c0-0.3,0.1-0.6,0.1-0.9V4.3h2V12z"/>
	</g>
	<g>
		<path class="st3" d="M13.4,12c0,0.5,0,1-0.1,1.5c-0.1,0.5-0.3,0.9-0.5,1.3c-0.3,0.4-0.6,0.7-1.1,0.9c-0.5,0.2-1.2,0.3-2,0.3
			c-0.6,0-1.1-0.1-1.6-0.3c-0.4-0.2-0.8-0.4-1.1-0.8c-0.3-0.3-0.5-0.7-0.6-1.2c-0.1-0.4-0.2-0.9-0.2-1.5v-0.6h2v0.6
			c0,0.7,0.1,1.2,0.3,1.5c0.2,0.4,0.6,0.5,1.2,0.5c0.3,0,0.6,0,0.8-0.1s0.4-0.2,0.5-0.4c0.1-0.2,0.2-0.4,0.2-0.7
			c0-0.3,0.1-0.6,0.1-0.9V4.3h2V12z"/>
	</g>
</g>
</svg>
