<?xml version="1.0" encoding="UTF-8" standalone="no"?>
<svg
  xmlns:dc="http://purl.org/dc/elements/1.1/"
  xmlns:cc="http://creativecommons.org/ns#"
  xmlns:rdf="http://www.w3.org/1999/02/22-rdf-syntax-ns#"
  xmlns:svg="http://www.w3.org/2000/svg"
  xmlns="http://www.w3.org/2000/svg"
  id="svg24"
  version="1.1"
  viewBox="0 0 300.00001 300.00001"
  height="300"
  width="300">
  <defs
    id="defs28" />
  <metadata
    id="metadata20">
    <rdf:RDF>
      <cc:Work
        rdf:about="">
        <dc:format>image/svg+xml</dc:format>
        <dc:type
          rdf:resource="http://purl.org/dc/dcmitype/StillImage" />
        <dc:title></dc:title>
      </cc:Work>
    </rdf:RDF>
  </metadata>
  <path
    id="path22"
    style="fill:#0d529f;stroke-width:1.76782453"
    d="m 150,0 a 150,150 0 0 0 0,300 150,150 0 0 0 0,-300 z m 129.74959,150.00001 c 0,21.09192 -5.06313,40.99057 -13.99412,58.59455 L 236.48558,125.10901 C 225.68416,87.5162 191.06663,59.999999 150,59.999999 c -4.85621,0 -9.61873,0.397772 -14.26635,1.138476 l 0.0132,-0.009 19.88164,-40.734675 c 69.04497,2.94812 124.11997,59.834966 124.11997,129.60575 z m -180.749586,0 c 0,-28.16678 22.835006,-51.000013 50.999996,-51.000013 28.16508,0 51.00166,22.833233 51.00166,51.000013 0,28.1668 -22.83486,51.00173 -51.00166,51.00173 -28.16677,0 -50.999996,-22.83493 -50.999996,-51.00173 z M 143.132,20.43429 86.381276,86.340594 C 70.081912,102.62936 60,125.1373 60,150.00001 c 0,21.82734 7.773126,41.83559 20.699475,57.41724 l -0.0074,-0.003 -45.816736,2.41118 C 25.55053,191.91692 20.248822,171.58345 20.248822,149.99829 20.25044,80.646495 74.666028,24.00538 143.13214,20.43435 Z m -3.16264,219.01239 -0.0389,-0.0221 c 3.3076,0.36939 6.66647,0.57453 10.07132,0.57453 38.31588,0 71.01707,-23.95416 84.00344,-57.69473 v 0.0584 l 25.48153,37.22693 c -23.02946,36.15547 -63.44197,60.15908 -109.48497,60.15908 -45.71951,0 -85.888069,-23.66769 -108.997082,-59.40069 z" />
</svg>
