<?xml version="1.0" encoding="utf-8"?>
<!-- Generator: Adobe Illustrator 26.5.0, SVG Export Plug-In . SVG Version: 6.00 Build 0)  -->
<svg version="1.1" id="レイヤー_1" xmlns="http://www.w3.org/2000/svg"
  xmlns:xlink="http://www.w3.org/1999/xlink" x="0px"
  y="0px" viewBox="0 0 20 20" style="enable-background:new 0 0 20 20;" xml:space="preserve">
<style type="text/css">
	.st0{fill:#00B1BB;}
	.st1{display:none;}
	.st2{display:inline;fill:#FFFFFF;}
	.st3{fill:#FFFFFF;}
</style>
<g>
	<g>
		<path class="st0" d="M17,20H3c-1.7,0-3-1.3-3-3V3c0-1.7,1.3-3,3-3h14c1.7,0,3,1.3,3,3v14C20,18.7,18.7,20,17,20z"/>
	</g>
	<g class="st1">
		<path class="st2" d="M4.1,4.3h2.8l3.2,8.9h0l3.1-8.9h2.8v11.4H14V6.9h0l-3.2,8.8H9.2L6,6.9h0v8.8H4.1V4.3z"/>
	</g>
	<g>
		<path class="st3" d="M4.1,4.3h2.8l3.2,8.9h0l3.1-8.9h2.8v11.4H14V6.9h0l-3.2,8.8H9.2L6,6.9h0v8.8H4.1V4.3z"/>
	</g>
</g>
</svg>
