<?xml version="1.0" encoding="utf-8"?>
<!-- Generator: Adobe Illustrator 26.5.0, SVG Export Plug-In . SVG Version: 6.00 Build 0)  -->
<svg version="1.1" id="レイヤー_1" xmlns="http://www.w3.org/2000/svg"
  xmlns:xlink="http://www.w3.org/1999/xlink" x="0px"
  y="0px" viewBox="0 0 20 20" style="enable-background:new 0 0 20 20;" xml:space="preserve">
<style type="text/css">
	.st0{fill:#008446;}
	.st1{display:none;}
	.st2{display:inline;fill:#FFFFFF;}
	.st3{fill:#FFFFFF;}
</style>
<g>
	<g>
		<path class="st0" d="M17,20H3c-1.7,0-3-1.3-3-3V3c0-1.7,1.3-3,3-3h14c1.7,0,3,1.3,3,3v14C20,18.7,18.7,20,17,20z"/>
	</g>
	<g class="st1">
		<path class="st2" d="M10,4c0.9,0,1.6,0.2,2.3,0.5C13,4.8,13.5,5.2,14,5.8c0.5,0.5,0.8,1.2,1.1,1.9s0.4,1.5,0.4,2.3
			c0,0.8-0.1,1.6-0.4,2.3s-0.6,1.4-1.1,1.9c-0.5,0.5-1,1-1.7,1.3S10.9,16,10,16s-1.6-0.2-2.3-0.5C7,15.2,6.5,14.8,6,14.2
			c-0.5-0.5-0.8-1.2-1.1-1.9c-0.3-0.7-0.4-1.5-0.4-2.3c0-0.8,0.1-1.6,0.4-2.3C5.2,7,5.5,6.3,6,5.8c0.5-0.5,1-1,1.7-1.3
			C8.4,4.2,9.1,4,10,4z M10,5.6C9.4,5.6,8.9,5.8,8.4,6C8,6.3,7.6,6.6,7.3,7S6.9,7.9,6.7,8.4C6.6,8.9,6.5,9.5,6.5,10s0.1,1.1,0.2,1.6
			c0.1,0.5,0.3,1,0.6,1.4c0.3,0.4,0.6,0.7,1.1,1c0.4,0.2,1,0.4,1.6,0.4s1.1-0.1,1.6-0.4c0.4-0.2,0.8-0.6,1.1-1
			c0.3-0.4,0.5-0.9,0.6-1.4c0.1-0.5,0.2-1.1,0.2-1.6s-0.1-1.1-0.2-1.6c-0.1-0.5-0.3-1-0.6-1.4S12,6.3,11.6,6
			C11.1,5.8,10.6,5.6,10,5.6z"/>
	</g>
	<g>
		<path class="st3" d="M10,4c0.9,0,1.6,0.2,2.3,0.5C13,4.8,13.5,5.2,14,5.8c0.5,0.5,0.8,1.2,1.1,1.9s0.4,1.5,0.4,2.3
			c0,0.8-0.1,1.6-0.4,2.3s-0.6,1.4-1.1,1.9c-0.5,0.5-1,1-1.7,1.3S10.9,16,10,16s-1.6-0.2-2.3-0.5C7,15.2,6.5,14.8,6,14.2
			c-0.5-0.5-0.8-1.2-1.1-1.9c-0.3-0.7-0.4-1.5-0.4-2.3c0-0.8,0.1-1.6,0.4-2.3C5.2,7,5.5,6.3,6,5.8c0.5-0.5,1-1,1.7-1.3
			C8.4,4.2,9.1,4,10,4z M10,5.6C9.4,5.6,8.9,5.8,8.4,6C8,6.3,7.6,6.6,7.3,7S6.9,7.9,6.7,8.4C6.6,8.9,6.5,9.5,6.5,10s0.1,1.1,0.2,1.6
			c0.1,0.5,0.3,1,0.6,1.4c0.3,0.4,0.6,0.7,1.1,1c0.4,0.2,1,0.4,1.6,0.4s1.1-0.1,1.6-0.4c0.4-0.2,0.8-0.6,1.1-1
			c0.3-0.4,0.5-0.9,0.6-1.4c0.1-0.5,0.2-1.1,0.2-1.6s-0.1-1.1-0.2-1.6c-0.1-0.5-0.3-1-0.6-1.4S12,6.3,11.6,6
			C11.1,5.8,10.6,5.6,10,5.6z"/>
	</g>
</g>
</svg>
