<?xml version="1.0" encoding="utf-8"?>
<!-- Generator: Adobe Illustrator 26.5.0, SVG Export Plug-In . SVG Version: 6.00 Build 0)  -->
<svg version="1.1" id="レイヤー_1" xmlns="http://www.w3.org/2000/svg"
  xmlns:xlink="http://www.w3.org/1999/xlink" x="0px"
  y="0px" viewBox="0 0 20 20" style="enable-background:new 0 0 20 20;" xml:space="preserve">
<style type="text/css">
	.st0{fill:#008446;}
	.st1{display:none;}
	.st2{display:inline;fill:#FFFFFF;}
	.st3{fill:#FFFFFF;}
</style>
<g>
	<g>
		<path class="st0" d="M17,20H3c-1.7,0-3-1.3-3-3V3c0-1.7,1.3-3,3-3h14c1.7,0,3,1.3,3,3v14C20,18.7,18.7,20,17,20z"/>
	</g>
	<g class="st1">
		<path class="st2" d="M5.7,4.3h5c0.8,0,1.5,0.1,2,0.4c0.5,0.2,0.9,0.5,1.2,0.9s0.5,0.7,0.6,1.2c0.1,0.4,0.2,0.8,0.2,1.2
			c0,0.4-0.1,0.7-0.2,1.1c-0.1,0.4-0.3,0.8-0.6,1.1c-0.3,0.4-0.7,0.6-1.2,0.9c-0.5,0.2-1.2,0.3-2,0.3h-3v4.4h-2V4.3z M7.7,9.7h2.9
			c0.2,0,0.5,0,0.7-0.1c0.2-0.1,0.5-0.2,0.6-0.3c0.2-0.1,0.4-0.3,0.5-0.6c0.1-0.2,0.2-0.5,0.2-0.9c0-0.4-0.1-0.7-0.2-0.9
			c-0.1-0.2-0.3-0.4-0.4-0.6S11.7,6.1,11.4,6S11,5.9,10.7,5.9h-3V9.7z"/>
	</g>
	<g>
		<path class="st3" d="M5.7,4.3h5c0.8,0,1.5,0.1,2,0.4c0.5,0.2,0.9,0.5,1.2,0.9s0.5,0.7,0.6,1.2c0.1,0.4,0.2,0.8,0.2,1.2
			c0,0.4-0.1,0.7-0.2,1.1c-0.1,0.4-0.3,0.8-0.6,1.1c-0.3,0.4-0.7,0.6-1.2,0.9c-0.5,0.2-1.2,0.3-2,0.3h-3v4.4h-2V4.3z M7.7,9.7h2.9
			c0.2,0,0.5,0,0.7-0.1c0.2-0.1,0.5-0.2,0.6-0.3c0.2-0.1,0.4-0.3,0.5-0.6c0.1-0.2,0.2-0.5,0.2-0.9c0-0.4-0.1-0.7-0.2-0.9
			c-0.1-0.2-0.3-0.4-0.4-0.6S11.7,6.1,11.4,6S11,5.9,10.7,5.9h-3V9.7z"/>
	</g>
</g>
</svg>
