<svg height="600" viewBox="0 0 158.75 158.75" width="600" xmlns="http://www.w3.org/2000/svg"><circle cx="79.375" cy="79.375" fill="#6889ca" r="79.375" stroke-width=".217041"/><g fill="#fff" transform="translate(0 -138.25)"><path d="m44.396665 227.69127v-31.86197h5.678744v31.86197zm-7.505013-5.91108q-6.418188-3.04713-10.182422-8.93585-1.084591 2.33226-4.293684 5.65752-3.186754 3.3018-5.634064 4.61761l-4.202093-4.17863q4.872281-2.12451 7.988666-6.2808 3.116383-4.17863 3.116383-8.47344v-6.4651h5.819485v6.28079q0 4.29481 3.209094 8.08138 3.23255 3.76311 7.850159 5.07892zm-15.560697 17.0396v-15.1921h5.819484v10.32093h23.780578v4.87117zm70.349855-17.77904v-25.21032h5.679862v25.21256zm-3.786575-2.14683q-3.763115.57748-6.649401.78523-2.862827.20776-7.688198.18542l-10.712989-.0234v-13.7144h15.699204v-4.01778h-15.699205v-4.71032h21.42598v13.27646h-15.746118v4.45677q9.397183 0 12.790577-.16309 3.41797-.16084 5.887621-.78412zm-19.279134 20.5268v-16.50902h28.745571v16.50902zm23.112623-11.68365h-17.432762v6.85826h17.432762zm47.908536-.0458v-17.20157h-9.37373v-4.91808h9.37373v-9.74234h5.67986v31.86197zm-8.88896-5.91107q-6.3266-3.02478-10.15896-9.12017-1.31582 2.60927-4.50145 5.93453-3.16441 3.32415-5.4263 4.52491l-4.22555-4.01779q4.87116-2.17031 7.98866-6.39474 3.13984-4.249 3.13984-8.52034v-6.4651h5.74912v6.28078q0 4.3406 3.27834 8.17297 3.27947 3.83349 7.85016 5.12696zm-14.17675 17.03959v-15.1921h5.79602v10.32093h23.80404v4.87117z" stroke-width="1.11699"/><path d="m37.095875 256.61653 1.688773-.14728q.119606 1.01488.553403 1.66914.442724.64624 1.365658 1.05236.922041.39631 2.075262.39631 1.023796 0 1.808379-.30437.783691-.30438 1.162147-.83011.387383-.53555.387383-1.16215 0-.6373-.368638-1.1068-.369531-.48021-1.21838-.80333-.544477-.21243-2.407305-.65516-1.86372-.45165-2.610814-.84795-.968456-.50788-1.448668-1.25498-.470393-.75691-.470393-1.68788 0-1.02469.581074-1.91013.581073-.89438 1.697699-1.35673 1.115732-.46058 2.48139-.46058 1.504007 0 2.64741.48914 1.153221.47932 1.771783 1.4201.61767.94168.664084 2.1315l-1.71555.12943q-.138351-1.28266-.941678-1.93692-.792617-.65605-2.351965-.65605-1.624506 0-2.370709.59982-.738169.59089-.738169 1.42993 0 .72923.525734 1.19963.516807.47039 2.693825.96845 2.186835.48914 2.998196.85778 1.180892.54447 1.743221 1.38351.56233.8301.56233 1.91905 0 1.08004-.61767 2.03867-.61767.95061-1.780709 1.48526-1.152329.52664-2.600997.52664-1.836049 0-3.081206-.53556-1.236232-.53555-1.945838-1.60487-.701573-1.08002-.739062-2.43587zm13.026402-7.26922v-1.91014h1.66021v1.91014zm0 11.61433v-9.79703h1.66021v9.79703zm4.160344 0v-13.52447h1.660211v13.52447zm4.206759 0v-13.52447h1.66021v13.52447zm4.25228-11.61433v-1.91014h1.66021v1.91014zm0 11.61433v-9.79703h1.66021v9.79703zm4.197832 0v-9.79703h1.485264v1.37459q.461468-.71943 1.227307-1.15322.764945-.44273 1.74322-.44273 1.088955 0 1.780709.45166.70068.45254.9872 1.2639 1.162147-1.71556 3.025867-1.71556 1.457593 0 2.241284.81226.784584.80244.784584 2.48139v6.72474h-1.651285v-6.17134q0-.99701-.166914-1.42993-.156203-.44271-.58018-.7105-.424872-.26777-.997019-.26777-1.032722 0-1.715551.69176-.682828.68283-.682828 2.19576v5.69202h-1.66021v-6.36503q0-1.10681-.406127-1.66021-.406127-.55341-1.328169-.55341-.701572 0-1.30139.36865-.59.36864-.856882 1.07914-.267776.7105-.267776 2.04759v5.08327zm21.134656 0v-13.52447h1.789635v11.92853h6.660478v1.59594zm10.387917-11.61433v-1.91014h1.660215v1.91014zm0 11.61433v-9.79703h1.660215v9.79703zm4.196945 0v-9.79703h1.49508v1.39245q1.07914-1.61381 3.11781-1.61381.88544 0 1.62361.32312.74709.3133 1.11573.83011.36954.51681.51771 1.22641.0919.46147.0919 1.61469v6.02406h-1.6602v-5.9598q0-1.01486-.1946-1.51293-.19369-.50699-.69173-.80244-.48915-.30348-1.15323-.30348-1.0604 0-1.83605.67301-.76495.67302-.76495 2.55458v5.35106zm17.22335-3.15529 1.71643.21244q-.40612 1.504-1.504 2.33411-1.0979.8301-2.80451.8301-2.14934 0-3.41325-1.31923-1.25498-1.32817-1.25498-3.71763 0-2.47246 1.27371-3.83812 1.27283-1.36566 3.30259-1.36566 1.96456 0 3.20974 1.33888 1.24603 1.33709 1.24603 3.76315 0 .14817-.009.44272h-7.30671q.0919 1.61469.91313 2.47246.82118.85778 2.04759.85778.91401 0 1.55935-.47933.64623-.47931 1.02379-1.53167zm-5.45192-2.684h5.47065q-.11068-1.23623-.62748-1.8548-.79351-.95953-2.05742-.95953-1.1434 0-1.92797.76584-.77477.76584-.85689 2.04849z" stroke-width=".892586"/></g></svg>