<?xml version="1.0" encoding="UTF-8" standalone="no"?>
<!-- Created with Inkscape (http://www.inkscape.org/) -->

<svg
   xmlns:dc="http://purl.org/dc/elements/1.1/"
   xmlns:cc="http://creativecommons.org/ns#"
   xmlns:rdf="http://www.w3.org/1999/02/22-rdf-syntax-ns#"
   xmlns:svg="http://www.w3.org/2000/svg"
   xmlns="http://www.w3.org/2000/svg"
   xmlns:sodipodi="http://sodipodi.sourceforge.net/DTD/sodipodi-0.dtd"
   xmlns:inkscape="http://www.inkscape.org/namespaces/inkscape"
   width="153.48204mm"
   height="71.547745mm"
   viewBox="0 0 543.83401 253.51563"
   id="svg4853"
   version="1.1"
   inkscape:version="0.91 r13725"
   sodipodi:docname="TKJ logomark.svg">
  <defs
     id="defs4855" />
  <sodipodi:namedview
     id="base"
     pagecolor="#ffffff"
     bordercolor="#666666"
     borderopacity="1.0"
     inkscape:pageopacity="0.0"
     inkscape:pageshadow="2"
     inkscape:zoom="1.4"
     inkscape:cx="427.69309"
     inkscape:cy="49.224475"
     inkscape:document-units="px"
     inkscape:current-layer="layer1"
     showgrid="false"
     fit-margin-top="0"
     fit-margin-left="0"
     fit-margin-right="0"
     fit-margin-bottom="0"
     inkscape:window-width="1920"
     inkscape:window-height="1017"
     inkscape:window-x="-8"
     inkscape:window-y="-8"
     inkscape:window-maximized="1" />
  <metadata
     id="metadata4858">
    <rdf:RDF>
      <cc:Work
         rdf:about="">
        <dc:format>image/svg+xml</dc:format>
        <dc:type
           rdf:resource="http://purl.org/dc/dcmitype/StillImage" />
        <dc:title></dc:title>
      </cc:Work>
    </rdf:RDF>
  </metadata>
  <g
     inkscape:label="レイヤー 1"
     inkscape:groupmode="layer"
     id="layer1"
     transform="translate(-171.58301,-284.17581)">
    <path
       inkscape:connector-curvature="0"
       style="display:inline;fill:#f77321;fill-opacity:1;stroke:none;stroke-width:1;stroke-linecap:square;stroke-miterlimit:4;stroke-dasharray:none;stroke-opacity:1"
       d="m 443.50098,284.17581 -91.72266,42.75782 -129.02734,0 -11.08399,50 32.85157,0 -72.93555,34 77.08008,35.93164 -11.98633,54.06836 50,0 7.30274,-32.94336 58.23242,27.14648 -1.28516,5.79688 13.72266,0 78.85156,36.75781 1.05664,-0.49219 103.16406,-48.09179 5.51563,11.82617 42,0 26.18945,0 11.41992,-51.50977 82.57031,-38.49023 -67.10156,-31.28125 0.60156,-2.71875 52.5,0 11.08399,-50 -155,0 -2.08594,9.41211 -10.65039,-4.96485 0.98633,-4.44726 -10.52734,0 -91.72266,-42.75782 z m 0,5.51562 79.89062,37.2422 -28.61523,0 -65.03125,44.00781 9.75586,-44.00781 -25,0 -25,0 -36.17969,163.20312 -58.23242,-27.14648 19.07813,-86.05664 52.5,0 11.08398,-50 -14.14063,0 79.89063,-37.2422 z m 100.15625,46.68946 10.64844,4.96485 -7.88868,35.58789 52.5,0 -19.81835,89.39257 -10.90821,-23.39257 -42,0 19.41992,41.64257 -102.10937,47.59961 -67.01953,-31.24218 24.44531,0 12.60938,-56.875 43.64062,56.875 43.85742,0 6.14258,0 3.58594,-16.17774 -3.95508,-5.15429 -38.56836,-50.26172 -5.74023,-7.48047 9.44531,-6.39063 4.91601,-3.32812 49.41016,-33.4336 0,-0.002 9.41602,-6.37109 7.9707,-35.95313 z m -287.30469,40.55274 7.81446,0 -14.39454,64.93164 -66.35547,-30.93164 72.93555,-34 z m 390.85352,7.71875 56.3789,26.28125 -69.375,32.34179 12.9961,-58.62304 z"
       id="rect4999-9" />
  </g>
</svg>
