<?xml version="1.0" encoding="utf-8"?>
<!-- Generator: Adobe Illustrator 23.1.0, SVG Export Plug-In . SVG Version: 6.00 Build 0)  -->
<svg version="1.0" id="レイヤー_1" xmlns="http://www.w3.org/2000/svg" xmlns:xlink="http://www.w3.org/1999/xlink" x="0px"
	 y="0px" viewBox="0 0 171.251 170.92" enable-background="new 0 0 171.251 170.92" xml:space="preserve">
<rect x="13.108" y="12.409" fill="none" width="145.261" height="145.261"/>
<g>
	<path d="M72.596,38.466h12.379V93.23c0,9.945,1.729,17.307,5.189,22.082c3.459,4.777,8.731,7.165,15.818,7.165
		c7.168,0,12.566-2.562,16.192-7.688c3.626-5.124,5.439-12.703,5.439-22.736V38.466h11.566v53.848
		c0,13.609-2.793,23.828-8.377,30.654c-5.586,6.827-13.984,10.239-25.196,10.239c-10.837,0-19.048-3.337-24.633-10.011
		c-5.585-6.674-8.377-16.531-8.377-29.574V38.466z"/>
</g>
<g>
	<path d="M47.099,38.467h12.566v61.766c0,10.992-1.875,19.073-5.627,24.241c-3.751,5.17-9.649,7.754-17.693,7.754
		c-1.835,0-3.668-0.109-5.502-0.327c-1.834-0.219-3.626-0.545-5.377-0.981v-11.516c1.333,0.523,2.626,0.916,3.876,1.178
		s2.563,0.393,3.939,0.393c4.876,0,8.398-1.82,10.565-5.463c2.167-3.642,3.251-9.673,3.251-18.092V38.467z"/>
</g>
<ellipse transform="matrix(0.3065 -0.9519 0.9519 0.3065 -21.878 140.8739)" fill="#EFD463" cx="85.738" cy="85.451" rx="85.039" ry="85.039"/>
<path fill="#00593E" d="M162.724,85.451c0,42.669-34.467,77.259-76.985,77.259c-42.519,0-76.988-34.59-76.988-77.259
	c0-42.67,34.469-77.26,76.988-77.26C128.257,8.191,162.724,42.781,162.724,85.451z"/>
<path fill="#FFFFFF" d="M154.527,85.451c0,38.126-30.796,69.032-68.789,69.032c-37.992,0-68.79-30.906-68.79-69.032
	s30.798-69.033,68.79-69.033C123.731,16.418,154.527,47.325,154.527,85.451z"/>
<g>
	<g>
		<g>
			<polygon points="34.121,113.625 34.121,54.452 78.257,54.452 78.257,64.917 46.711,64.917 46.711,78.274 75.642,78.274
				75.642,87.923 46.711,87.923 46.711,103.158 78.91,103.158 78.91,113.625 			"/>
		</g>
		<g>
			<polygon points="125.566,113.625 100.077,72.751 100.077,113.625 88.345,113.625 88.345,54.452 100.98,54.452 126.51,95.574
				126.51,54.452 138.242,54.452 138.242,113.625 			"/>
		</g>
	</g>
</g>
<g>
</g>
<g>
</g>
<g>
</g>
<g>
</g>
<g>
</g>
<g>
</g>
</svg>
