<?xml version="1.0" encoding="utf-8"?>
<!-- Generator: Adobe Illustrator 19.0.0, SVG Export Plug-In . SVG Version: 6.00 Build 0)  -->
<svg version="1.1" id="Layer_1" xmlns="http://www.w3.org/2000/svg" xmlns:xlink="http://www.w3.org/1999/xlink" x="0px" y="0px"
	 viewBox="-179 -14.6 600 588.6" style="enable-background:new -179 -14.6 600 588.6;" xml:space="preserve">
<style type="text/css">
	.st0{fill:#F6861F;}
	.st1{fill:#FFFFFF;}
</style>
<title>JR Central Tokaido Line</title>
<rect x="-179" y="-14.6" class="st0" width="600" height="588.6"/>
<path class="st1" d="M1.3,429.5c-91.6,0-154.2-53.9-154.2-145.1c0-88.2,64.5-144.7,150.4-144.7c24.5,0,45.2,1.9,69,10.2l-4.2,49
	C42,189.4,24.3,186,2.1,186c-56.5,0-93.9,33.9-93.9,96.9s41.5,98.8,94.6,98.8c20.8,0,40.3-2.3,63-10.9l1.9,49.4
	C50,426.1,25.8,429.6,1.3,429.5"/>
<path class="st1" d="M303.6,360.9H185.2l-24.9,65.6h-59.2l111.6-284.2h64.8l113.1,284.2h-62.2L303.6,360.9z M245.2,187.2h-0.8
	c-4.1,14.7-14.7,47.1-21.1,64.5L199.9,318h88.2l-23.4-66.3C258.4,234.3,248.6,201.8,245.2,187.2"/>
</svg>
