<?xml version="1.0" encoding="utf-8"?>
<!-- Generator: Adobe Illustrator 19.0.0, SVG Export Plug-In . SVG Version: 6.00 Build 0)  -->
<svg version="1.1" id="Layer_1" xmlns="http://www.w3.org/2000/svg" xmlns:xlink="http://www.w3.org/1999/xlink" x="0px" y="0px"
	 viewBox="-179 -14.6 600 588.6" style="enable-background:new -179 -14.6 600 588.6;" xml:space="preserve">
<style type="text/css">
	.st0{fill:#477543;}
	.st1{fill:#FFFFFF;}
</style>
<title>JR Central Gotemba Line</title>
<rect x="-179" y="-14.6" class="st0" width="600" height="588.6"/>
<path class="st1" d="M21.8,430.1c-91.6,0-154.1-53.9-154.1-145.1c0-88.2,64.4-144.7,150.4-144.7c24.5,0,45.3,1.9,69,10.2l-4.1,49
	c-20.4-9.4-38.1-12.8-60.3-12.8c-56.6,0-93.8,33.9-93.8,96.9s41.5,98.8,94.6,98.8c20.7,0,40.3-2.3,63-10.9l1.8,49.4
	C70.5,426.7,46.4,430.1,21.8,430.1"/>
<path class="st1" d="M242,427.1h-88.3V142.8h87.1c63.3,0,105.6,20.4,105.6,72.8c0,32.8-19.6,57.3-59.2,65.2v0.8
	c41.5,5.3,66.3,30.2,66.3,67.8C353.5,408.2,298.1,427.1,242,427.1 M229.9,185.1h-20.7v77.6h15.1c38.8,0,66-6.8,66-39.2
	C290.3,192.2,262.7,185,229.9,185.1 M225,302.7h-15.8v81.8h18.5c46.4,0,68.6-12,68.6-41.9C296.2,314,273.2,302.7,225,302.7"/>
</svg>
