<?xml version="1.0" encoding="utf-8"?>
<!-- Generator: Adobe Illustrator 19.0.0, SVG Export Plug-In . SVG Version: 6.00 Build 0)  -->
<svg version="1.1" id="Layer_1" xmlns="http://www.w3.org/2000/svg" xmlns:xlink="http://www.w3.org/1999/xlink" x="0px" y="0px"
	 viewBox="-179 -14.6 600 588.6" style="enable-background:new -179 -14.6 600 588.6;" xml:space="preserve">
<style type="text/css">
	.st0{fill:#327198;}
	.st1{fill:#FFFFFF;}
</style>
<title>JR Central Chuo Line</title>
<rect x="-179" y="-14.6" class="st0" width="600" height="588.6"/>
<path class="st1" d="M45,429.4c-91.6,0-154.2-53.9-154.2-145.1c0-88.2,64.5-144.8,150.4-144.8c24.5,0,45.3,1.9,69,10.2l-4.2,49
	c-20.3-9.4-38-12.8-60.3-12.8c-56.6,0-93.9,33.9-93.9,96.9s41.5,98.8,94.6,98.8c20.8,0,40.4-2.3,63-11l1.9,49.4
	C93.7,425.9,69.6,429.4,45,429.4"/>
<polygon class="st1" points="176.9,142.1 335.6,142.1 335.6,190 234.2,190 234.2,261.6 330.4,261.6 330.4,308 234.2,308
	234.2,426.4 176.9,426.4 "/>
</svg>
