<?xml version="1.0" encoding="utf-8"?>
<!-- Generator: Adobe Illustrator 19.0.0, SVG Export Plug-In . SVG Version: 6.00 Build 0)  -->
<svg version="1.1" id="Layer_1" xmlns="http://www.w3.org/2000/svg" xmlns:xlink="http://www.w3.org/1999/xlink" x="0px" y="0px"
	 viewBox="-179 -14.57 600 588.57" style="enable-background:new -179 -14.57 600 588.57;" xml:space="preserve">
<style type="text/css">
	.st0{fill:#9E1813;}
	.st1{fill:#FFFFFF;}
</style>
<title>JR Central Takayama Line</title>
<rect x="-179" y="-14.57" class="st0" width="600" height="588.57"/>
<path class="st1" d="M4.3,429.24c-91.61,0-154.17-53.9-154.17-145.11c0-88.2,64.46-144.76,150.39-144.76c24.52,0,45.23,1.9,69,10.19
	l-4.16,49C45,189.12,27.29,185.72,5,185.72c-56.52,0-93.85,33.91-93.85,96.87s41.48,98.76,94.62,98.76c20.73,0,40.31-2.27,63-10.92
	l1.88,49.36c-17.72,6-41.83,9.43-66.34,9.43"/>
<path class="st1" d="M268.13,429.24c-87.46,0-151.9-55.4-151.9-146.25c0-88.59,62.56-143.63,161-143.63
	c28.26,0,55.78,2.64,79.17,10.93l-4.15,50.89c-17.35-9-46-15.84-75.41-15.84c-59.92,0-99.12,37.69-99.12,98
	c0,59.18,35.44,98.37,98,98.37c11.69,0,24.5-1.12,33.54-4.15V307.1h-60.72v-45.6h115v152.64c-30.56,10.58-63,15.1-95.4,15.1"/>
</svg>
