<?xml version="1.0" encoding="UTF-8"?>
<svg xmlns="http://www.w3.org/2000/svg" version="1.1" viewBox="0 0 512 512">
  <defs>
    <style>
      .cls-1 {
        fill: #004387;
      }

      .cls-2 {
        fill: #014387;
      }

      .cls-3 {
        fill: #009044;
      }
    </style>
  </defs>
  <!-- Generator: Adobe Illustrator 28.7.1, SVG Export Plug-In . SVG Version: 1.2.0 Build 142)  -->
  <g>
    <g id="_レイヤー_1" data-name="レイヤー_1">
      <polygon class="cls-1" points="48.26 361.01 -.17 485.01 161.9 485.01 161.9 361.05 48.26 361.01"/>
      <path class="cls-1" d="M192.63,361.05v124.63l160.81-.08v-20.56c-3.66,2.93-9.21,6.93-16.54,10.64-8.54,4.33-14,7.09-21.64,7.21-1.91.03-15.56.05-24.05-9.62-5.07-5.78-6.63-12.53-6.63-16.3v-95.97l-91.95.04Z"/>
      <polygon class="cls-1" points="383.93 361.02 383.93 485.21 512 485.21 466.06 361.02 383.93 361.02"/>
      <path class="cls-2" d="M320.27,361.02h31.05v78.59c-.94,1.24-2.51,3.06-4.81,4.81-2.21,1.68-9.03,6.85-16.83,4.81-5.29-1.38-8.4-5.4-9.62-7.21.07-27,.14-54,.21-81Z"/>
      <path class="cls-3" d="M161.9,330.1H63.16L178.19,26l80.32,199.09L338.21,28.5l115.85,301.59h-134v-102.13c.84-7.81,7.07-13.84,14.43-14.4,8.17-.61,15.84,5.67,16.83,14.4v57.03h32.61v-72.31c-1.56-4.75-5.15-13.4-13.37-20.76-13.45-12.05-29.7-12.03-36.07-12.02-6.36,0-22.29.26-36.07,12.02-8.6,7.34-12.63,15.98-14.43,20.76v117.41h-91.37v-27.55l37.75-117.71h-25.74l-26.45,81.64-24.05-81.76h-26.32l34.08,117.43v27.95Z"/>
    </g>
  </g>
</svg>