<?xml version="1.0" encoding="UTF-8"?>
<svg id="busan-metro" data-name="busan-metro" xmlns="http://www.w3.org/2000/svg" version="1.1"
  viewBox="0 0 50.3 50.5">
  <!-- Generator: Adobe Illustrator 29.1.0, SVG Export Plug-In . SVG Version: 2.1.0 Build 142)  -->
  <defs>
    <style>
      .st0 {
      fill: #3b5ba9;
      }
    </style>
  </defs>
  <path class="st0" d="M28.7,20.5h21.6v-4.5h-13.5c-5,0-8.2,4.5-8.2,4.5" />
  <path class="st0"
    d="M9.9,23.5c2.6-2.7,4.5-2.9,4.5-2.9h6s2.3-2.3,6.4-6.5c4.2-4.2,7.1-3.6,7.1-3.6h16.5v-5.1C50.3,2.4,48,0,45,0c0,0,0,0,0,0H5.3C2.4,0,0,2.4,0,5.3v27.9c2.4-2.3,7.9-7.7,9.9-9.8" />
  <path class="st0"
    d="M14.5,35.3s1.9-2,3.7-3.8c1.8-1.8,4.2-1.4,4.2-1.4h27.9v-4.6h-29c-4.6,0-6.8,3.1-6.8,3.1L0,43H0v2.1c0,2.9,2.4,5.3,5.3,5.3h39.7c2.9,0,5.3-2.4,5.3-5.3,0,0,0,0,0,0v-9.9H14.5Z" />
</svg>
