<?xml version="1.0" encoding="UTF-8" standalone="no"?>
<svg
   xmlns:dc="http://purl.org/dc/elements/1.1/"
   xmlns:cc="http://creativecommons.org/ns#"
   xmlns:rdf="http://www.w3.org/1999/02/22-rdf-syntax-ns#"
   xmlns:svg="http://www.w3.org/2000/svg"
   xmlns="http://www.w3.org/2000/svg"
   xmlns:sodipodi="http://sodipodi.sourceforge.net/DTD/sodipodi-0.dtd"
   xmlns:inkscape="http://www.inkscape.org/namespaces/inkscape"
   width="75.03167"
   height="24.693535"
   viewBox="0 0 60.025336 19.754828"
   version="1.1"
   id="svg2"
   inkscape:version="0.48.2 r9819"
   sodipodi:docname="KTX.svg">
  <metadata
     id="metadata17">
    <rdf:RDF>
      <cc:Work
         rdf:about="">
        <dc:format>image/svg+xml</dc:format>
        <dc:type
           rdf:resource="http://purl.org/dc/dcmitype/StillImage" />
      </cc:Work>
    </rdf:RDF>
  </metadata>
  <defs
     id="defs15" />
  <sodipodi:namedview
     pagecolor="#ffffff"
     bordercolor="#666666"
     borderopacity="1"
     objecttolerance="10"
     gridtolerance="10"
     guidetolerance="10"
     inkscape:pageopacity="0"
     inkscape:pageshadow="2"
     inkscape:window-width="1920"
     inkscape:window-height="1017"
     id="namedview13"
     showgrid="false"
     fit-margin-top="0"
     fit-margin-left="0"
     fit-margin-right="0"
     fit-margin-bottom="0"
     inkscape:zoom="1"
     inkscape:cx="838.18098"
     inkscape:cy="128.49962"
     inkscape:window-x="-8"
     inkscape:window-y="-8"
     inkscape:window-maximized="1"
     inkscape:current-layer="svg2" />
  <g
     id="#ffffffff"
     transform="translate(-71.91,-277.78518)" />
  <g
     id="#e00024ff"
     transform="matrix(0.07041343,0,0,0.07041343,-5.0634298,-1.1959864)">
    <path
       d="m 831.04,31.92 c 28.58,-7.02 57.7,-11.63 86.94,-14.83 2.12,-0.2 4.27,-0.09 6.4,0.13 -16.27,4.71 -32.78,8.72 -48.85,14.14 -40.04,13.05 -78.56,31.06 -113.55,54.56 -37.61,24.94 -71.64,54.87 -103.5,86.72 -19.97,19.53 -38.98,40.05 -57.11,61.31 -17.66,20.65 -34.4,42.08 -51.03,63.57 -30.61,-0.08 -61.22,0.06 -91.83,-0.07 36.92,-42.95 74.83,-85.19 116.19,-123.93 13.63,-12.92 27.83,-25.22 42.32,-37.17 28.56,-22.69 58.41,-44.3 91.59,-59.78 39.06,-19.19 80.14,-34.33 122.43,-44.65 z"
       id="path6"
       inkscape:connector-curvature="0"
       style="fill:#e00024" />
  </g>
  <g
     id="#000000ff"
     transform="matrix(0.07041343,0,0,0.07041343,-5.0634298,-1.1959864)"
     style="fill:#000055">
    <path
       d="m 99.21,203.22 c 13.48,-46.16 26.77,-92.37 40.36,-138.49 27.84,0.05 55.67,0 83.51,0.03 -5.85,19.63 -11.31,39.4 -17.3,58.98 -3.59,5.29 -7.98,9.99 -11.83,15.09 35.08,-24.69 70.2,-49.32 105.23,-74.08 103.99,-0.01 207.99,0.01 311.99,-0.01 7.42,17.01 14.94,33.97 22.3,51 -5.68,6.71 -11.28,13.5 -16.45,20.61 -14.49,11.95 -28.69,24.25 -42.32,37.17 -7.75,-18.61 -16.2,-36.94 -24.12,-55.48 -25.5,-0.1 -50.99,-0.01 -76.49,-0.04 -17.47,59.83 -34.8,119.71 -52.27,179.54 -27.84,-0.14 -55.67,0.08 -83.51,-0.11 17.41,-59.81 34.76,-119.63 52.22,-179.43 -21.62,0 -43.24,0.01 -64.86,-0.01 -22.46,14.43 -44.84,28.97 -67.29,43.41 17.09,45.36 34.23,90.69 51.27,136.07 -27.85,0.09 -55.7,-0.02 -83.55,0.05 -11.65,-30.89 -23.25,-61.81 -34.97,-92.68 -3.57,2.52 -7.66,4.51 -10.91,7.35 -8.39,28.41 -16.57,56.88 -24.86,85.32 -27.82,-0.02 -55.64,-0.01 -83.45,0 8.86,-31.49 18.24,-62.85 27.3,-94.29 z"
       id="path9"
       inkscape:connector-curvature="0"
       style="fill:#000055" />
    <path
       d="m 601.37,233.95 c 18.13,-21.26 37.14,-41.78 57.11,-61.31 18.22,41.62 36.6,83.17 54.67,124.85 -27.96,0.04 -55.92,-0.01 -83.88,0.02 -9.35,-21.16 -18.59,-42.38 -27.9,-63.56 z"
       id="path11"
       inkscape:connector-curvature="0"
       style="fill:#000055" />
  </g>
</svg>
