<?xml version="1.0" encoding="utf-8"?>
<!-- Generator: Adobe Illustrator 15.0.0, SVG Export Plug-In . SVG Version: 6.00 Build 0)  -->
<svg version="1.1" id="Laag_1" xmlns="http://www.w3.org/2000/svg"
  xmlns:xlink="http://www.w3.org/1999/xlink" x="0px" y="0px"
  width="612.575px" height="612.576px" viewBox="0 0 612.575 612.576"
  enable-background="new 0 0 612.575 612.576"
  xml:space="preserve">
<circle fill="#A13837" cx="306.288" cy="306.287" r="306.288"/>
<g>
	<path fill="#FFFFFF" d="M306.287,583.013c-73.916,0-143.407-28.784-195.673-81.051c-52.267-52.267-81.051-121.758-81.051-195.674
		s28.784-143.407,81.051-195.674c52.266-52.267,121.757-81.051,195.673-81.051s143.408,28.784,195.675,81.051
		c52.267,52.266,81.051,121.758,81.051,195.674s-28.784,143.407-81.051,195.674S380.203,583.013,306.287,583.013z M306.287,52.563
		c-139.904,0-253.724,113.82-253.724,253.725s113.82,253.725,253.724,253.725c139.904,0,253.726-113.82,253.726-253.725
		S446.191,52.563,306.287,52.563z"/>
</g>
<path fill="#FFFFFF" d="M376.191,456.693h64l-94-307h-74.5l-93,307h64.5l16.322-57.5h100.107L376.191,456.693z M274.56,346.193
	l34.632-122l35.157,122H274.56z"/>
</svg>
