<?xml version="1.0" encoding="UTF-8"?>
<svg xmlns="http://www.w3.org/2000/svg" version="1.1" viewBox="0 0 512 512">
  <defs>
    <style>
      .cls-1 {
        fill: #fff;
      }

      .cls-2 {
        fill: #666;
      }
    </style>
  </defs>
  <!-- Generator: Adobe Illustrator 28.7.1, SVG Export Plug-In . SVG Version: 1.2.0 Build 142)  -->
  <g>
    <g id="_レイヤー_1" data-name="レイヤー_1">
      <path d="M-.39,453.53V57.9C-.39,25.83,25.93-.48,57.99-.48h395.63c32.06,0,58.38,26.32,58.38,58.38v395.63c0,32.06-26.32,58.38-58.38,58.38H57.99c-32.06,0-58.38-26.32-58.38-58.38Z"/>
      <rect class="cls-1" x="19" y="344.43" width="493.23" height="21.57"/>
      <path class="cls-1" d="M155.74,233.72c15.2-2.52,77.3-12.91,143.69-44.85,1.04-.46.86-2.14-.41-2.19-8.43-1.12-92.92-.14-144.34,45.08-.79.6-.1,2.17,1.06,1.97Z"/>
      <path class="cls-1" d="M387.49,169.37c-43.82,0-49.5,5.37-49.5,5.37l-38.99,19.27-50.12,25.37c-27.98,12.14-165.5,30.22-165.5,30.22,0,0-53.14,12.14-57.49,48.54h0c.1,26.87,88.56,28.67,88.56,28.67h397.89v-28.67h0v-128.77h-124.86Z"/>
      <path id="window" d="M365.66,231.11h-10.32c-2.37,0-4.34-2.97-4.34-6.76v-20.08c0-3.69,1.91-6.76,4.34-6.76h10.32c2.37,0,4.34,2.97,4.34,6.76v20.08c0,3.69-1.97,6.76-4.34,6.76"/>
      <path id="window-2" data-name="window" d="M426.98,231.11h-16.08c-3.69,0-6.76-2.97-6.76-6.76v-20.08c0-3.69,2.97-6.76,6.76-6.76h16.08c3.69,0,6.76,2.97,6.76,6.76v20.08c0,3.69-3.07,6.76-6.76,6.76"/>
      <path id="window-3" data-name="window" d="M481.9,231.11h-16.08c-3.69,0-6.76-2.97-6.76-6.76v-20.08c0-3.69,2.97-6.76,6.76-6.76h16.08c3.69,0,6.76,2.97,6.76,6.76v20.08c0,3.69-3.07,6.76-6.76,6.76"/>
      <polygon points="83 260 55.85 269.71 86 267 83 260"/>
      <polygon points="164.08 255 318 242 360.5 255 164.08 255"/>
      <polygon points="319.09 264.86 360.85 278.51 513.87 278.51 514 264.86 319.09 264.86"/>
      <polygon class="cls-2" points="367.52 283.84 398.9 291 513.9 291 514 283.84 367.52 283.84"/>
    </g>
  </g>
</svg>