<?xml version="1.0" encoding="UTF-8"?>
<svg id="_レイヤー_1" data-name="レイヤー 1" xmlns="http://www.w3.org/2000/svg" version="1.1" viewBox="0 0 100 100">
  <defs>
    <style>
      .cls-1 {
        fill: #3d62ac;
      }

      .cls-1, .cls-2, .cls-3, .cls-4 {
        stroke-width: 0px;
      }

      .cls-2 {
        fill: #f29600;
      }

      .cls-3 {
        fill: #4ca535;
      }

      .cls-4 {
        fill: #eb6d73;
      }
    </style>
  </defs>
  <path class="cls-1" d="M46.4,1.1c2.6-1.5,4.7-1.5,7.3,0l36.9,21.3c2.6,1.5,3.6,3.3,3.6,6.3v9.7c0,1.9-1.6,2.9-3.8,1.7l-36.7-21.2c-2.6-1.5-4.7-1.5-7.3,0l-17,9.8c-2,1.2-4.7,1.5-6.7.3l-9-5.2c-1.8-1-1.8-2.9,0-3.9L46.4,1.1Z"/>
  <path class="cls-3" d="M53.6,98.9c-2.6,1.5-4.7,1.5-7.3,0l-36.9-21.3c-2.6-1.5-3.6-3.3-3.6-6.3v-9.7c0-1.9,1.6-2.9,3.8-1.7l36.7,21.2c2.6,1.5,4.7,1.5,7.3,0l17-9.8c2-1.2,4.7-1.5,6.7-.3l9,5.2c1.8,1,1.8,2.9,0,3.9l-32.7,18.9Z"/>
  <path class="cls-4" d="M5.8,43.2c0,3,1.1,4.8,3.6,6.3l36.9,21.3c2.5,1.5,4.7,1.5,7.3,0l8.1-4.7c1.9-1.1,1.9-3.1,0-4.2l-35.6-20.5c-4.5-2.5-4.5-8.3,0-10.9l3.2-1.8c-2,1.2-4.7,1.5-6.7.3l-9-5.2c-1.8-1-1.8-2.9,0-3.9l-4.2,2.4c-2.6,1.5-3.6,3.3-3.6,6.3v14.5h0Z"/>
  <path class="cls-2" d="M94.2,56.8c0-3-1.1-4.8-3.6-6.3l-36.9-21.3c-2.5-1.5-4.7-1.5-7.3,0l-8.1,4.7c-1.9,1.1-1.9,3.1,0,4.2l35.6,20.5c4.5,2.5,4.5,8.3,0,10.9l-3.2,1.8c2-1.2,4.7-1.5,6.7-.3l9,5.2c1.8,1,1.8,2.9,0,3.9l4.2-2.4c2.6-1.5,3.6-3.3,3.6-6.3v-14.5Z"/>
</svg>