<?xml version="1.0" encoding="UTF-8" standalone="no"?>
<svg xmlns="http://www.w3.org/2000/svg" width="600" height="600" version="1.1">
<g transform="translate(-6.9704948,68.775645)matrix(10.201682,0,0,10.201682,379.83969,-1425.1423)">
	<path transform="scale(-1,1)"
		style="fill:#ffffff;stroke:#b074d6;stroke-width:8.72410965;"
		d="m -10.585916,180.09091 a 25.072271,25.072271 0 0 1 0,-35.45755 25.072271,25.072271 0 0 1 35.457546,0 25.072271,25.072271 0 0 1 0,35.45755"/>
	<path d="m 0.21602015,173.72141 -13.65125015,0 0,-22.71838 13.14564829,0 0,3.60662 -8.79747239,0 0,5.56163 8.32557731,0 0,3.57291 -8.32557731,0 0,6.37059 9.30307425,0 0,3.60663 z" />
</g>
</svg>
