<?xml version="1.0" encoding="UTF-8" standalone="no"?>
<svg xmlns="http://www.w3.org/2000/svg" width="600" height="600" version="1.1">
<g transform="translate(-6.9704948,68.775645)matrix(10.201681,0,0,10.201681,379.83965,-1425.1424)">
	<path transform="scale(-1,1)"
		style="fill:#ffffff;stroke:#fab123;stroke-width:8.72410965"
		d="m -10.585916,180.09091 a 25.072271,25.072271 0 0 1 0,-35.45755 25.072271,25.072271 0 0 1 35.457546,0 25.072271,25.072271 0 0 1 0,35.45755"/>
	<path d="m 1.7607392,173.72141 -4.3818828,0 0,-9.87609 -9.0334204,0 0,9.87609 -4.348176,0 0,-22.71838 4.348176,0 0,9.03342 9.0334204,0 0,-9.03342 4.3818828,0 0,22.71838 z" />
</g>
</svg>
