<?xml version="1.0" encoding="UTF-8" standalone="no"?>
<svg xmlns="http://www.w3.org/2000/svg" width="600" height="600" version="1.1">
<g transform="translate(-6.9704948,68.775645)matrix(10.201682,0,0,10.201682,379.83969,-1425.1423)">
	<path transform="scale(-1,1)"
		style="fill:#ffffff;stroke:#ec78b4;stroke-width:8.72410965;"
		d="m -10.585916,180.09091 a 25.072271,25.072271 0 0 1 0,-35.45755 25.072271,25.072271 0 0 1 35.457546,0 25.072271,25.072271 0 0 1 0,35.45755"/>
	<path d="m 2.8053864,173.72141 -5.0560187,0 -6.0672223,-10.21316 -1.9549944,2.35947 0,7.85369 -4.314469,0 0,-22.71838 4.314469,0 0,10.34798 0.101121,0 q 0.8426696,-1.38198 1.6179258,-2.4943 l 5.5616205,-7.85368 5.3593798,0 -7.584028,9.67385 8.0222163,13.04453 z"/>
</g>
</svg>
