<?xml version="1.0" encoding="UTF-8" standalone="no"?>
<svg xmlns="http://www.w3.org/2000/svg" width="600" height="600" version="1.1">
<g transform="translate(-6.9704948,68.775645)matrix(10.201682,0,0,10.201682,379.83969,-1425.1423)">
	<path transform="scale(-1,1)"
		style="fill:#ffffff;stroke:#b074d6;stroke-width:8.72410965"
		d="m -10.585916,180.09091 a 25.072271,25.072271 0 0 1 0,-35.45755 25.072271,25.072271 0 0 1 35.457546,0 25.072271,25.072271 0 0 1 0,35.45755"/>
	<path d="m 4.8904674,173.72141 -4.24705567,0 -0.43818829,-9.06713 q -0.26965432,-5.86498 -0.23594753,-9.4042 l -0.10112038,0 q -0.97749693,3.87628 -2.56171613,8.62894 l -3.1347315,9.53902 -3.3369723,0 -2.8313706,-9.40419 q -1.280858,-4.34818 -2.190941,-8.76377 l -0.06741,0 q -0.168534,5.49421 -0.404481,9.50532 l -0.471895,8.96601 -4.044815,0 1.516805,-22.71838 5.696448,0 2.6965432,8.73006 q 1.1460309,3.64033 2.0561142,7.98851 l 0.067414,0 q 1.1460309,-4.82007 2.2246482,-7.98851 l 2.898784,-8.73006 5.5953273,0 1.3145649,22.71838 z"/>
</g>
</svg>
