<?xml version="1.0" encoding="utf-8"?>
<!-- Generator: Adobe Illustrator 16.0.4, SVG Export Plug-In . SVG Version: 6.00 Build 0)  -->
<!DOCTYPE svg PUBLIC "-//W3C//DTD SVG 1.1//EN" "http://www.w3.org/Graphics/SVG/1.1/DTD/svg11.dtd">
<svg version="1.1"
	 id="svg2" sodipodi:version="0.32" sodipodi:docname="drawing.svg" inkscape:version="0.46" inkscape:output_extension="org.inkscape.output.svg.inkscape" xmlns:dc="http://purl.org/dc/elements/1.1/" xmlns:inkscape="http://www.inkscape.org/namespaces/inkscape" xmlns:svg="http://www.w3.org/2000/svg" xmlns:sodipodi="http://sodipodi.sourceforge.net/DTD/sodipodi-0.dtd" xmlns:cc="http://creativecommons.org/ns#" xmlns:rdf="http://www.w3.org/1999/02/22-rdf-syntax-ns#"
	 xmlns="http://www.w3.org/2000/svg" xmlns:xlink="http://www.w3.org/1999/xlink" x="0px" y="0px" width="100px" height="86.704px"
	 viewBox="0 0 100 86.704" enable-background="new 0 0 100 86.704" xml:space="preserve">
<defs>


		<inkscape:perspective  id="perspective10" inkscape:persp3d-origin="372.04724 : 350.78739 : 1" sodipodi:type="inkscape:persp3d" inkscape:vp_z="744.09448 : 526.18109 : 1" inkscape:vp_y="0 : 1000 : 0" inkscape:vp_x="0 : 526.18109 : 1">
		</inkscape:perspective>
</defs>
<sodipodi:namedview  id="base" inkscape:window-width="1920" inkscape:pageshadow="2" inkscape:window-x="-8" inkscape:window-y="-8" inkscape:window-height="1018" inkscape:current-layer="layer1" inkscape:document-units="px" inkscape:pageopacity="0.0" inkscape:cy="49.136001" inkscape:zoom="5.6568543" showgrid="false" inkscape:cx="23.509577" objecttolerance="10" pagecolor="#ffffff" guidetolerance="10" bordercolor="#666666" borderopacity="1.0" gridtolerance="10000">
	</sodipodi:namedview>
<g id="layer1" inkscape:groupmode="layer" inkscape:label="Layer 1">
	<path d="M85.454,14.744c-19.47-19.581-51.129-19.67-70.71-0.199c-19.581,19.471-19.67,51.128-0.199,70.71l9.272-9.221
		c-6.974-6.809-11.309-16.307-11.31-26.823c0-0.002,0-0.005,0-0.007c-0.002-20.71,16.785-37.501,37.497-37.503
		c20.71-0.002,37.501,16.785,37.504,37.496c0,0.002,0,0.005,0,0.007c0.001,10.597-4.401,20.161-11.468,26.982l9.217,9.268
		C104.836,65.984,104.926,34.326,85.454,14.744z"/>
	<path id="path3179" d="M16.257,86.704l30.825-30.715L30.842,86.704H16.257z"/>
	<path id="path3181" d="M83.333,86.704L52.508,55.989l16.241,30.715H83.333z"/>
</g>
</svg>
