<?xml version="1.0" encoding="UTF-8" standalone="no"?>
<svg xmlns="http://www.w3.org/2000/svg" width="600" height="600" version="1.1">
<g transform="translate(-6.9704948,68.775645)matrix(10.201682,0,0,10.201682,379.83969,-1425.1423)">
	<path transform="scale(-1,1)"
		style="fill:#ffffff;stroke:#c92f44;stroke-width:8.72410965;"
		d="m -10.585916,180.09091 a 25.072271,25.072271 0 0 1 0,-35.45755 25.072271,25.072271 0 0 1 35.457546,0 25.072271,25.072271 0 0 1 0,35.45755"/>
	<path d="m 0.25130695,167.18229 q 0,2.9662 -2.15723465,4.85378 -2.3257685,2.0224 -6.5054106,2.0224 -3.7414537,0 -6.0672227,-1.38198 l 0.910084,-3.64033 q 2.494302,1.41569 5.426793,1.41569 1.8875803,0 2.898784,-0.77526 1.0449105,-0.80896 1.0449105,-2.15723 0,-1.24716 -0.9100833,-2.05612 -0.8763766,-0.80896 -2.9999044,-1.61792 -6.0335158,-2.22465 -6.0335158,-6.60654 0,-2.86507 2.190942,-4.71895 2.2246478,-1.85387 5.898688,-1.85387 3.1684384,0 5.39308659,1.11232 l -1.01120369,3.50551 q -2.0561143,-1.04491 -4.4830032,-1.04491 -1.7527532,0 -2.7302501,0.80896 -0.8426698,0.70785 -0.8426698,1.78646 0,1.17974 1.0112038,1.9887 0.8426697,0.67414 3.2021451,1.61793 5.76386125,2.25835 5.76386125,6.74136 z" />
</g>
</svg>
