<?xml version="1.0" encoding="UTF-8" standalone="no"?>
<svg xmlns="http://www.w3.org/2000/svg" width="29.786907mm" height="29.786907mm"
  viewBox="0 0 105.54416 105.54416" version="1.1">
  <circle
    style="fill:#fff;stroke:#ff0000;stroke-width:5px;"
    cx="52.772079" cy="52.77209" r="50.272079" />
  <g
    transform="matrix(0.94467749,0,0,1.0585623,2.5,-949.31801)"
    fill="#ff0000">
    <path
      d="m 54.613744,964.9101 h-6.135641 l -14.061841,-15.82853 -3.533366,3.77211 v12.05642 h-4.72707 v-35.54853 h4.72707 v18.55017 l 17.260969,-18.55017 h5.729783 l -15.876272,16.71187 16.616368,18.83666 z" />
    <path
      d="m 86.748272,953.97576 q 0,2.65002 -1.002712,4.67932 -1.002711,2.0293 -2.697772,3.34238 -2.005424,1.57569 -4.416707,2.24416 -2.387409,0.66848 -6.087894,0.66848 h-12.605521 v-35.54853 h10.528475 q 3.891477,0 5.825279,0.28649 1.933801,0.28649 3.700484,1.1937 1.957676,1.02659 2.841017,2.65003 0.883342,1.59956 0.883342,3.84373 0,2.53065 -1.289201,4.32121 -1.289201,1.76668 -3.43787,2.84102 v0.19099 q 3.604988,0.7401 5.682034,3.17525 2.077046,2.41129 2.077046,6.11177 m -7.950073,-16.01952 q 0,-1.2892 -0.429733,-2.17254 -0.429734,-0.88334 -1.384698,-1.43244 -1.122082,-0.6446 -2.721646,-0.78785 -1.599564,-0.16712 -3.9631,-0.16712 h-5.634286 v10.26586 h6.111768 q 2.220291,0 3.533366,-0.21486 1.313075,-0.23875 2.435157,-0.95497 1.122083,-0.71622 1.575691,-1.8383 0.477481,-1.14596 0.477481,-2.69778 m 3.03201,16.21051 q 0,-2.14866 -0.6446,-3.41399 -0.644601,-1.26533 -2.339661,-2.14867 -1.145957,-0.59685 -2.793269,-0.76397 -1.623439,-0.19099 -3.9631,-0.19099 h-7.424843 v13.22624 h6.255013 q 3.103632,0 5.085182,-0.31036 1.981549,-0.33424 3.246876,-1.1937 1.336949,-0.93109 1.957676,-2.1248 0.620726,-1.1937 0.620726,-3.07976" />
  </g>
</svg>
