<?xml version="1.0" encoding="UTF-8" standalone="no"?>
<!-- Created with Inkscape (http://www.inkscape.org/) -->

<svg
  xmlns:dc="http://purl.org/dc/elements/1.1/"
  xmlns:cc="http://creativecommons.org/ns#"
  xmlns:rdf="http://www.w3.org/1999/02/22-rdf-syntax-ns#"
  xmlns:svg="http://www.w3.org/2000/svg"
  xmlns="http://www.w3.org/2000/svg"
  xmlns:sodipodi="http://sodipodi.sourceforge.net/DTD/sodipodi-0.dtd"
  xmlns:inkscape="http://www.inkscape.org/namespaces/inkscape"
  version="1.1"
  width="400.67969"
  height="299.86914"
  id="svg7066"
  inkscape:version="0.91 r13725"
  sodipodi:docname="Kobe_rallway_logo_mark.svg">
  <sodipodi:namedview
    pagecolor="#ffffff"
    bordercolor="#666666"
    borderopacity="1"
    objecttolerance="10"
    gridtolerance="10"
    guidetolerance="10"
    inkscape:pageopacity="0"
    inkscape:pageshadow="2"
    inkscape:window-width="688"
    inkscape:window-height="480"
    id="namedview6"
    showgrid="false"
    fit-margin-top="0"
    fit-margin-left="0"
    fit-margin-right="0"
    fit-margin-bottom="0"
    inkscape:zoom="1.1683168"
    inkscape:cx="180.5517"
    inkscape:cy="144.79898"
    inkscape:window-x="0"
    inkscape:window-y="0"
    inkscape:window-maximized="0"
    inkscape:current-layer="svg7066" />
  <metadata
    id="metadata7072">
    <rdf:RDF>
      <cc:Work
        rdf:about="">
        <dc:format>image/svg+xml</dc:format>
        <dc:type
          rdf:resource="http://purl.org/dc/dcmitype/StillImage" />
        <dc:title></dc:title>
      </cc:Work>
    </rdf:RDF>
  </metadata>
  <defs
    id="defs7070" />
  <path
    inkscape:connector-curvature="0"
    style="color:#000000;font-style:normal;font-variant:normal;font-weight:normal;font-stretch:normal;font-size:medium;line-height:normal;font-family:sans-serif;text-indent:0;text-align:start;text-decoration:none;text-decoration-line:none;text-decoration-style:solid;text-decoration-color:#000000;letter-spacing:normal;word-spacing:normal;text-transform:none;direction:ltr;block-progression:tb;writing-mode:lr-tb;baseline-shift:baseline;text-anchor:start;white-space:normal;clip-rule:nonzero;display:inline;overflow:visible;visibility:visible;opacity:1;isolation:auto;mix-blend-mode:normal;color-interpolation:sRGB;color-interpolation-filters:linearRGB;solid-color:#000000;solid-opacity:1;fill:#e40011;fill-opacity:1;fill-rule:nonzero;stroke:none;stroke-width:12;stroke-linecap:butt;stroke-linejoin:round;stroke-miterlimit:4;stroke-dasharray:none;stroke-dashoffset:0;stroke-opacity:1;color-rendering:auto;image-rendering:auto;shape-rendering:auto;text-rendering:auto;enable-background:accumulate"
    d="m 0,0 46.857422,82 19.751953,0 c -0.500713,0.98265 -0.994952,1.969385 -1.474609,2.964844 -1.05347,2.18628 -2.056819,4.402694 -3.00586,6.646484 -0.94904,2.24377 -1.844086,4.516343 -2.685546,6.814453 -0.84143,2.298089 -1.628695,4.621459 -2.359375,6.970699 -0.7307,2.34924 -1.404735,4.724 -2.021485,7.12109 -0.61674,2.39711 -1.176141,4.81808 -1.675781,7.25977 -0.49964,2.44169 -0.938959,4.90374 -1.318359,7.38672 -0.37938,2.48295 -0.699069,4.98688 -0.955079,7.50781 -0.25601,2.52091 -0.448595,5.05975 -0.578125,7.61524 -0.129489,2.55533 -0.195312,5.12621 -0.195312,7.71289 0,80.76139 64.005046,146.71263 143.999996,149.86914 l 0,-12.00586 0,-58.08789 0,-12.05274 c -34.80126,-3.02819 -62,-32.11989 -62,-67.72265 0,-37.62645 30.37356,-68 68,-68 37.62648,0 68,30.37355 68,68 0,35.60276 -27.19871,64.69446 -62,67.72265 l 0,12.05274 0,58.08789 0,12.00586 c 79.99502,-3.15651 144,-69.10775 144,-149.86914 0,-24.4704 -5.87872,-47.58212 -16.29492,-68 L 353.82226,82 400.67968,0 200.33984,0 0,0 Z m 20.677735,12 179.662105,0 c 76.28646,0 138,61.713597 138,138 0,70.18457 -52.23763,128.03063 -120,136.83593 l 0,-58.90429 c 35.46837,-8.19113 62,-40.01062 62,-77.93164 0,-44.11173 -35.88825,-80 -80,-80 L 53.822266,70 20.677735,12 Z m 238.482415,0 120.8418,0 -33.14453,58 -19.6543,0 C 311.01163,44.397304 287.29056,24.021806 259.16015,12 Z M 80.236328,82 158.26172,82 c -22.74067,14.123697 -37.92188,39.31789 -37.92188,68 0,37.92102 26.53164,69.74051 62,77.93164 l 0,58.90429 C 114.57753,278.03063 62.339844,220.18457 62.339844,150 c 0,-2.38388 0.06041,-4.75208 0.179688,-7.10547 0.119289,-2.35326 0.297593,-4.69176 0.533203,-7.01172 0.23559,-2.31992 0.527973,-4.62224 0.876953,-6.90625 0.34899,-2.28398 0.75343,-4.54956 1.21289,-6.79492 0.45946,-2.24533 0.973956,-4.46987 1.541016,-6.67383 0.56705,-2.20396 1.187595,-4.38706 1.859375,-6.54688 0.67177,-2.15984 1.394319,-4.29719 2.167969,-6.41015 0.77365,-2.11292 1.598043,-4.200461 2.470703,-6.263671 0.87267,-2.06322 1.794852,-4.100728 2.763672,-6.111328 a 6.0006,6.0006 0 0 0 0,-0.002 c 0.9688,-2.01062 1.984755,-3.994039 3.046875,-5.949219 0.405989,-0.747363 0.824885,-1.485889 1.24414,-2.224609 z m 120.103512,5.734375 c -6.88542,0 -20.65625,3 -20.65625,3 l 0,18.343745 12.3125,4.15625 0,81.65625 c 0,1.38022 -1.4375,2.375 -1.4375,2.375 l -18.21875,5.8125 c -0.7269,1.45412 -1.4742,2.992 0,4.1875 l 56,0 c 1.2934,-1.2938 0.895,-2.66311 0,-4.1875 l -18.21875,-5.8125 c 0,0 -1.6284,-0.9123 -1.4375,-2.375 l 0,-81.65625 12.3125,-4.15625 0,-18.343745 c 0,0 -13.77083,-3 -20.65625,-3 z"
    id="path2838-7-4-1-1-7-1-0-3-9-1-2" />
</svg>
