<?xml version="1.0" encoding="UTF-8" standalone="no"?>
<!-- Microsoft Visio 11.0、SVG Export v1.0 により生成 Noseden-logo.svg Page-1 -->
<svg xmlns="http://www.w3.org/2000/svg"
  xmlns:v="http://schemas.microsoft.com/visio/2003/SVGExtensions/" width="6.31921in"
  height="7.25759in" viewBox="0 0 454.983 522.546" xml:space="preserve"
  color-interpolation-filters="sRGB" class="st3">
	<v:documentProperties v:langID="1041" v:metric="true" v:viewMarkup="false"/>

	<style type="text/css">
	<![CDATA[
		.st1 {fill:#c71781;stroke:none;stroke-linecap:round;stroke-linejoin:round;stroke-width:0.72}
		.st2 {fill:#ffffff;stroke:none;stroke-linecap:round;stroke-linejoin:round;stroke-width:0.72}
		.st3 {fill:none;fill-rule:evenodd;font-size:12;overflow:visible;stroke-linecap:square;stroke-miterlimit:3}
	]]>
	</style>

	<g v:mID="0" v:index="1" v:groupContext="foregroundPage">
		<title>
      Page-1</title>
		<v:pageProperties v:drawingScale="0.0393701" v:pageScale="0.0393701" v:drawingUnits="24" v:shadowOffsetX="8.50394"
				v:shadowOffsetY="-8.50394"/>
		<g id="group1-1" transform="translate(0.72,-0.72)" v:mID="1" v:groupContext="group">
			<title>シート.1</title>
			<g id="shape7-2" v:mID="7" v:groupContext="shape">
				<title>
          シート.7</title>
				<path d="M296.4 438.74 L453.54 278.98 L296.84 121 L297.12 118.56 L298.04 111.27 L299.35 101.68 L300.74 92.32 L302.23
							 83.14 L303.8 74.26 L305.42 65.63 L307.08 57.33 L308.78 49.36 L310.53 41.75 L312.26 34.55 L313.97 27.78
							 L315.68 21.49 L317.37 15.67 L318.99 10.38 L320.58 5.61 L321.69 2.46 L322.09 1.44 L319.73 3.51 L313.02
							 10.2 L304.66 19.76 L296.92 30.06 L289.71 40.97 L283 52.42 L276.67 64.3 L270.68 76.51 L266.32 85.84 L264.92
							 88.96 L226.12 49.88 L0 281.73 L73.57 355.39 L72.73 357.54 L70.33 364.04 L67.3 373.11 L64.43 382.57 L61.73
							 392.45 L59.23 402.7 L56.87 413.37 L54.69 424.41 L53.15 432.98 L52.67 435.86 L52.67 435.86 L52.6 436.31
							 L52.41 437.64 L52.1 439.71 L51.72 442.47 L51.28 445.8 L50.79 449.6 L50.28 453.79 L49.79 458.27 L49.32
							 462.94 L48.89 467.71 L48.56 472.51 L48.3 477.2 L48.17 481.71 L48.17 485.93 L48.31 489.81 L48.53 492.35
							 L48.62 493.19 L49.19 491.62 L50.84 486.92 L53.03 480.97 L55.24 475.39 L57.39 470.17 L59.5 465.3 L61.55
							 460.82 L63.5 456.7 L65.33 452.98 L67.04 449.68 L68.55 446.77 L69.92 444.3 L71.08 442.26 L72.02 440.63
							 L72.73 439.48 L73.13 438.77 L73.3 438.53 L73.3 438.53 L75.23 434.79 L81.3 423.67 L89.16 410.09 L96.93
							 397.7 L102.69 389.23 L104.67 386.45 L227.13 509.13 L263.7 472.01 L263.48 473.29 L262.24 480.03 L260.95
							 487.11 L260.68 488.57 L260.24 491.04 L300.92 522.55 L299.12 512.4 L298.77 509.83 L297.85 502.07 L296.86
							 491.96 L296.14 482.15 L295.68 472.66 L295.48 463.54 L295.53 454.81 L295.85 446.53 L296.24 440.68 L296.4
							 438.74 L296.4 438.74 L296.4 438.74 Z" class="st1"/>
			</g>
			<g id="shape8-4" v:mID="8" v:groupContext="shape" transform="translate(310.947,-249.387)">
				<title>シート.8</title>
				<path d="M28.77 465.06 L29.5 465.06 L31.72 465.19 L34.57 465.64 L37.33 466.35 L39.97 467.32 L42.48 468.52 L44.88
							 469.96 L47.06 471.62 L49.12 473.48 L50.98 475.52 L52.62 477.72 L54.06 480.11 L55.28 482.6 L56.24 485.25
							 L56.95 488 L57.41 490.86 L57.55 493.06 L57.55 493.82 L57.55 494.55 L57.41 496.75 L56.95 499.58 L56.24
							 502.36 L55.28 504.98 L54.06 507.5 L52.62 509.89 L50.98 512.09 L49.12 514.13 L47.06 515.99 L44.88 517.64
							 L42.48 519.09 L39.97 520.29 L37.33 521.26 L34.57 521.97 L31.72 522.39 L29.5 522.55 L28.77 522.55 L28.05
							 522.55 L25.83 522.39 L22.99 521.97 L20.24 521.26 L17.58 520.29 L15.07 519.09 L12.71 517.64 L10.49 515.99
							 L8.44 514.13 L6.57 512.09 L4.91 509.89 L3.47 507.5 L2.28 504.98 L1.31 502.36 L0.59 499.58 L0.14 496.75
							 L0 494.55 L0 493.82 L0 493.06 L0.14 490.86 L0.59 488 L1.31 485.25 L2.28 482.6 L3.47 480.11 L4.91 477.72
							 L6.57 475.52 L8.44 473.48 L10.49 471.62 L12.71 469.96 L15.07 468.52 L17.58 467.32 L20.24 466.35 L22.99
							 465.64 L25.83 465.19 L28.05 465.06 L28.77 465.06 L28.77 465.06 L28.77 465.06 Z" class="st2"/>
			</g>
			<g id="shape9-6" v:mID="9" v:groupContext="shape" transform="translate(59.7516,-75.7282)">
				<title>
          シート.9</title>
				<path d="M96.95 405.43 L95.37 406.06 L90.77 408.21 L84.61 411.61 L78.51 415.6 L72.44 420.19 L66.4 425.38 L60.38 431.14
							 L54.4 437.46 L48.45 444.35 L42.56 451.77 L36.66 459.77 L30.85 468.26 L25.03 477.3 L19.27 486.84 L13.51
							 496.91 L7.81 507.45 L3.5 515.7 L2.11 518.48 L0 522.55 L0.01 522.21 L0.14 521.21 L0.35 519.72 L0.58 518.14
							 L0.8 516.62 L1.01 515.26 L1.19 514.13 L1.32 513.37 L1.36 513.11 L1.36 513.11 L2.1 508.71 L4.55 495.55
							 L8.14 479.03 L12.11 463.54 L16.46 449.05 L21.18 435.55 L26.3 423.02 L31.81 411.46 L37.75 400.87 L44.05
							 391.22 L50.77 382.49 L57.88 374.71 L65.41 367.81 L73.36 361.81 L81.7 356.7 L90.49 352.45 L97.33 349.81
							 L99.66 349.07 L101.14 348.7 L105.65 347.97 L111.68 347.55 L117.69 347.79 L123.67 348.68 L129.57 350.25
							 L135.34 352.45 L140.95 355.31 L145.09 357.85 L146.4 358.8 L147.14 359.35 L149.37 361.13 L152.37 363.78
							 L155.31 366.71 L158.19 369.91 L161 373.34 L163.71 376.99 L166.32 380.84 L168.81 384.83 L171.13 388.97
							 L173.32 393.21 L175.32 397.54 L177.14 401.92 L178.77 406.35 L180.13 410.8 L181.27 415.21 L181.99 418.48
							 L182.18 419.61 L181 418.59 L177.38 415.7 L172.44 412.24 L167.45 409.18 L162.33 406.53 L157.14 404.28
							 L151.86 402.41 L146.54 400.95 L141.15 399.9 L135.7 399.24 L130.22 398.95 L124.72 399.08 L119.15 399.58
							 L113.59 400.47 L108.05 401.76 L102.49 403.41 L98.31 404.88 L96.95 405.43 L96.95 405.43 L96.95 405.43
							 Z" class="st2"/>
			</g>
			<g id="shape10-8" v:mID="10" v:groupContext="shape" transform="translate(241.143,-18.4274)">
				<title>シート.10</title>
				<path d="M46.61 486.87 L46.62 489.02 L46.87 495.55 L47.31 504.43 L48.02 513.45 L48.76 520.27 L49.03 522.55 L48.28
							 521.94 L45.96 520.11 L42.78 517.54 L39.58 514.94 L36.51 512.4 L33.68 510.1 L31.25 508.08 L29.31 506.5
							 L28.32 505.72 L28 505.46 L28.57 502.47 L30.2 493.45 L32.11 482.47 L33.76 472.43 L35.12 463.17 L36.17
							 454.6 L36.96 446.58 L37.43 438.98 L37.58 433.5 L37.58 431.67 L37.5 429.81 L37.17 424.2 L36.7 417.56
							 L36.13 411.64 L35.48 406.29 L34.74 401.44 L33.91 396.99 L32.95 392.77 L31.86 388.7 L30.63 384.69 L29.28
							 380.63 L27.79 376.38 L26.09 371.85 L24.3 366.92 L22.28 361.5 L20.11 355.44 L18.3 350.36 L17.71 348.65
							 L16.46 344.98 L12.99 333.79 L9.12 319.32 L6.03 305.19 L3.67 291.51 L1.97 278.22 L0.8 265.37 L0.18 253
							 L0 244.06 L0 241.1 L0 238.27 L0.21 229.86 L0.84 219.06 L1.83 208.68 L3.15 198.74 L4.73 189.23 L6.61
							 180.13 L8.65 171.51 L10.88 163.3 L13.2 155.57 L15.61 148.28 L18.09 141.44 L20.52 135.05 L22.94 129.15
							 L25.24 123.7 L27.41 118.72 L28.93 115.31 L29.44 114.21 L30.49 111.87 L33.64 104.93 L37.82 96.2 L41.94
							 87.97 L46.06 80.21 L50.16 72.9 L54.31 65.98 L58.45 59.47 L61.56 54.86 L62.65 53.34 L62.14 55.44 L60.7
							 61.78 L58.79 70.64 L56.93 79.89 L55.13 89.49 L53.36 99.34 L51.72 109.46 L50.14 119.74 L48.7 130.17 L47.37
							 140.68 L46.15 151.27 L45.1 161.83 L44.22 172.35 L43.51 182.75 L42.99 193.05 L42.67 203.12 L42.54 210.51
							 L42.54 212.98 L42.54 215.73 L42.69 223.96 L43.17 234.47 L43.98 244.46 L44.78 251.51 L45.16 253.84 L49.15
							 278.74 L49.59 281.47 L50.93 289.65 L52.61 300.39 L54.18 311.04 L55.53 321.65 L56.7 332.32 L57.59 343.09
							 L58.15 354.08 L58.34 362.52 L58.34 365.32 L58.34 367.24 L58.27 372.95 L57.98 380.74 L57.48 388.7 L56.75
							 396.86 L55.79 405.24 L54.6 413.84 L53.16 422.7 L51.86 429.57 L51.39 431.85 L51.19 432.93 L50.55 436.12
							 L49.67 441.08 L48.77 446.69 L47.98 453.06 L47.31 460.19 L46.8 468.18 L46.54 477.04 L46.54 484.41 L46.61
							 486.87 L46.61 486.87 L46.61 486.87 Z" class="st2"/>
			</g>
		</g>
	</g>
</svg>
