<?xml version="1.0" encoding="utf-8"?>
<!-- Generator: Adobe Illustrator 15.0.0, SVG Export Plug-In . SVG Version: 6.00 Build 0)  -->
<svg version="1.1" id="Laag_1" xmlns="http://www.w3.org/2000/svg"
  xmlns:xlink="http://www.w3.org/1999/xlink" x="0px" y="0px"
  width="612.575px" height="612.576px" viewBox="0 0 612.575 612.576"
  enable-background="new 0 0 612.575 612.576"
  xml:space="preserve">
<circle fill="#277C35" cx="306.288" cy="306.287" r="306.288"/>
<polygon fill="#FFFFFF" points="228.129,212.083 228.129,364.747 119.269,212.083 52.478,212.083 52.478,430.671 109.293,430.671
	109.293,279.651 215.551,430.671 284.943,430.671 284.943,212.083 "/>
<path fill="#FFFFFF" d="M334.387,363.88h56.814c0,0-1.735,39.466,48.574,39.466c50.312,0,72.432-13.876,72.432-30.358
	c0-16.48-28.192-26.454-80.237-37.731c-20.026-4.339-38.125-7.696-52.813-14.259c-23.491-10.493-38.265-27.149-38.265-53.832
	c0-43.372,54.645-61.587,103.22-61.587c48.577,0,115.367,5.638,115.367,63.754h-55.516c0,0-2.73-33.228-42.076-32.528
	c0,0-9.916-0.251-15.54,0c-13.418,0.604-48.641,3.904-48.641,31.662c0,8.411,14.754,20.94,37.072,27.251
	c51.316,14.518,135.751,22.761,134.24,72.935c-0.611,20.299-15.626,43.007-42.476,55.137
	c-24.148,10.906-53.413,12.258-82.853,12.585C389.752,436.975,334.387,416.664,334.387,363.88z"/>
</svg>
