<?xml version="1.0" encoding="UTF-8"?>
<svg id="_レイヤー_1" data-name="レイヤー_1" xmlns="http://www.w3.org/2000/svg" version="1.1" viewBox="0 0 82.8 43.8">
  <!-- Generator: Adobe Illustrator 29.1.0, SVG Export Plug-In . SVG Version: 2.1.0 Build 142)  -->
  <defs>
    <style>
      .st0 {
        fill: #db5009;
      }

      .st1 {
        fill: #938874;
      }
    </style>
  </defs>
  <path class="st0" d="M20.5,29.8c.6-1-.2-1.1-.6-1.2-8.2-.2-15.1,4.8-19.8,8.9-.2.2,0,.5.2.3,4.9-3.9,10-5.1,16.6-5.8,1.7-.2,2.9-1.1,3.6-2.2Z"/>
  <path class="st0" d="M22.7,22.9c.6-1.1-.3-1.1-.7-1.1-8.2.4-15.1,5.8-19.5,10.2-.2.2,0,.5.3.3,4.6-4.3,9.5-5.7,16-6.9,1.6-.3,3.3-1.4,3.9-2.5Z"/>
  <path class="st0" d="M24.4,16.2c.5-1.1-.3-1.1-.8-1.1-8.2.7-15.2,6.4-19.4,10.9-.2.2,0,.5.3.3,4.5-4.4,9.3-6.1,15.8-7.5,1.7-.3,3.6-1.4,4.1-2.6h0Z"/>
  <path class="st0" d="M16.4,12.1c.4-1.1-.8-.9-1.5-.5-2.6,1.7-4.3,3.5-8.4,8.1-.2.2.1.5.3.3,3.9-3.8,5.8-4,7.5-5.1,1.4-.9,1.6-1.7,2.1-2.8h0Z"/>
  <path class="st1" d="M49.5,37.9c-4.9-2.3-9.5-4-14.9-5.3-.3,0-.3-.4.1-.4,3.3,0,11.7,1.5,18.4,3.5,8.3,2.4,15.5,6.8,18.3,7.3.3,0,.2.3,0,.3-6.8,2-15.5-2.5-21.9-5.4h0Z"/>
  <path class="st1" d="M53.2,30.6c-5-2-10.3-3.6-15.8-4.6-.3,0-.4-.4.1-.4,3.2-.3,12.3.9,19.2,2.5,8.4,2,16,6,18.8,6.4.3,0,.2.3,0,.3-6.7,2.2-15.7-1.5-22.3-4.2Z"/>
  <path class="st1" d="M56.1,23c-5.2-1.6-10.6-2.7-16.1-3.3-.3,0-.4-.3.1-.4,3.2-.6,12.1.2,19,1.3,8.6,1.3,17,5,19.9,5.2.3,0,.3.2.1.3-6.7,2.5-16.2-1-23-3.1Z"/>
  <path class="st1" d="M61.8,16c-5.2-1.6-4.3-1.7-9.8-2.3-.3,0-.4-.4.1-.4,3.8-.3,7.1-.2,14,.8,8.6,1.3,13.6,3.2,16.5,3.4.3,0,.3.2,0,.3-6.6,2.6-14,.3-20.8-1.8Z"/>
  <path class="st0" d="M18.9,9.2c-.2.1-.4-.2-.2-.3,3.3-2.3,21.8-16.7,48-3.1.2.1.1.4-.1.4-15.7-3.3-32.6-5.2-47.7,3Z"/>
</svg>