<?xml version="1.0" encoding="UTF-8" standalone="no"?>
<!-- Created with Inkscape (http://www.inkscape.org/) -->

<svg
  xmlns:dc="http://purl.org/dc/elements/1.1/"
  xmlns:cc="http://creativecommons.org/ns#"
  xmlns:rdf="http://www.w3.org/1999/02/22-rdf-syntax-ns#"
  xmlns:svg="http://www.w3.org/2000/svg"
  xmlns="http://www.w3.org/2000/svg"
  xmlns:sodipodi="http://sodipodi.sourceforge.net/DTD/sodipodi-0.dtd"
  xmlns:inkscape="http://www.inkscape.org/namespaces/inkscape"
  width="88.462486mm"
  height="71.024536mm"
  viewBox="0 0 313.44974 251.66174"
  id="svg2"
  version="1.1"
  inkscape:version="0.91 r13725"
  sodipodi:docname="Noto Railway Logo.svg">
  <defs
    id="defs4" />
  <sodipodi:namedview
    id="base"
    pagecolor="#ffffff"
    bordercolor="#666666"
    borderopacity="1.0"
    inkscape:pageopacity="0.0"
    inkscape:pageshadow="2"
    inkscape:zoom="1.4142136"
    inkscape:cx="289.66085"
    inkscape:cy="80.952536"
    inkscape:document-units="px"
    inkscape:current-layer="layer1"
    showgrid="false"
    fit-margin-top="0"
    fit-margin-left="0"
    fit-margin-right="0"
    fit-margin-bottom="0"
    inkscape:window-width="1920"
    inkscape:window-height="1001"
    inkscape:window-x="-9"
    inkscape:window-y="-9"
    inkscape:window-maximized="1" />
  <metadata
    id="metadata7">
    <rdf:RDF>
      <cc:Work
        rdf:about="">
        <dc:format>image/svg+xml</dc:format>
        <dc:type
          rdf:resource="http://purl.org/dc/dcmitype/StillImage" />
        <dc:title></dc:title>
      </cc:Work>
    </rdf:RDF>
  </metadata>
  <g
    inkscape:label="レイヤー 1"
    inkscape:groupmode="layer"
    id="layer1"
    transform="translate(-122.88186,-442.48717)">
    <path
      inkscape:connector-curvature="0"
      style="color:#000000;font-style:normal;font-variant:normal;font-weight:normal;font-stretch:normal;font-size:medium;line-height:normal;font-family:sans-serif;text-indent:0;text-align:start;text-decoration:none;text-decoration-line:none;text-decoration-style:solid;text-decoration-color:#000000;letter-spacing:normal;word-spacing:normal;text-transform:none;direction:ltr;block-progression:tb;writing-mode:lr-tb;baseline-shift:baseline;text-anchor:start;white-space:normal;clip-rule:nonzero;display:inline;overflow:visible;visibility:visible;opacity:1;isolation:auto;mix-blend-mode:normal;color-interpolation:sRGB;color-interpolation-filters:linearRGB;solid-color:#000000;solid-opacity:1;fill:#00a0ea;fill-opacity:1;fill-rule:nonzero;stroke:none;stroke-width:85;stroke-linecap:butt;stroke-linejoin:round;stroke-miterlimit:4;stroke-dasharray:none;stroke-dashoffset:0;stroke-opacity:1;color-rendering:auto;image-rendering:auto;shape-rendering:auto;text-rendering:auto;enable-background:accumulate"
      d="m 415.70945,442.48736 c -6.76039,0.0283 -13.07215,3.38791 -16.8711,8.98002 l -38.32219,54.7289 c -5.962,-13.33709 -15.45649,-25.2699 -28.21271,-34.20191 -14.12923,-9.8934 -30.34832,-14.77385 -46.49493,-15.02292 -26.91102,-0.4151 -53.61894,12.03421 -70.10788,35.58287 l 9.6e-4,9.7e-4 -83.44557,119.17257 c -16.47522,23.52904 -10.64823,56.57167 12.88082,73.0469 23.52906,16.47522 56.57083,10.64812 73.04596,-12.88082 l 83.44558,-119.17257 c 6.68173,-9.27359 4.48875,-22.22041 -4.8742,-28.77631 -9.36295,-6.5559 -22.27899,-4.18835 -28.70788,5.26227 l -83.4456,119.17254 c -3.76726,5.3802 -10.56977,6.57995 -15.94984,2.81279 -5.38009,-3.76718 -6.57996,-10.5707 -2.81279,-15.95078 l 83.44557,-119.17257 0.0235,-0.0358 c 13.68141,-19.49925 39.96502,-24.12409 59.48219,-10.45802 19.52905,13.67439 24.16726,39.97859 10.49287,59.50763 l 9.6e-4,9.6e-4 -32.6608,46.64377 c -16.47518,23.52898 -10.6491,56.57078 12.87987,73.04596 10.3488,7.2463 22.574,9.37284 34.62676,9.37284 l 43.64445,0 c 11.43418,0 20.76154,-9.01273 20.76154,-20.38475 0,-11.37201 -9.34317,-20.54543 -20.76154,-20.38474 l -47.20142,0 c -2.55675,0 -5.57031,-0.8734 -7.55554,-2.18461 -5.38014,-3.76722 -6.57907,-10.57063 -2.81185,-15.95078 L 432.41948,474.98143 c 9.80493,-13.5899 0.0476,-32.56391 -16.71003,-32.49407 z"
      id="path4624"
      sodipodi:nodetypes="cccssccssscscsssccsccssccscccscc" />
  </g>
</svg>
