<?xml version="1.0" encoding="UTF-8"?>
<svg xmlns="http://www.w3.org/2000/svg" version="1.1" viewBox="0 0 512 512">
  <defs>
    <style>
      .cls-1 {
        fill: #fff;
      }

      .cls-2 {
        fill: #f8a517;
      }
    </style>
  </defs>
  <!-- Generator: Adobe Illustrator 28.7.1, SVG Export Plug-In . SVG Version: 1.2.0 Build 142)  -->
  <g>
    <g id="_レイヤー_1" data-name="レイヤー_1">
      <rect class="cls-2" width="512" height="512"/>
      <path class="cls-1" d="M152.34,351.37c18.93-19.23,48.39-39.23,88.39-59.99,24.12-12.82,43.05-24.57,56.79-35.26,13.74-10.68,23.66-21.6,29.77-32.74,6.1-11.14,9.16-23.74,9.16-37.78,0-24.42-7.33-43.12-21.98-56.1-14.66-12.97-35.72-19.46-63.2-19.46s-50.76,7.1-67.09,21.3c-16.34,14.2-24.81,33.66-25.42,58.39h-41.22c3.66-31.14,17.7-55.71,42.13-73.73,24.42-18.01,55.71-27.02,93.88-27.02,25.95,0,48.77,3.97,68.47,11.91,19.69,7.94,35.03,19.23,46.02,33.89,10.99,14.65,16.49,31.45,16.49,50.38,0,15.57-3.82,29.85-11.45,42.82-7.63,12.98-20.23,26.03-37.78,39.16-17.56,13.13-41.9,27.94-73.04,44.42-21.07,11.3-37.48,21.07-49.23,29.31-11.76,8.24-20.46,16.42-26.1,24.5-5.65,8.09-9.39,17.33-11.22,27.71h215.24v21.07H120.28c2.44-22.59,13.12-43.51,32.06-62.74Z"/>
    </g>
  </g>
</svg>