<?xml version="1.0" encoding="UTF-8"?>
<svg xmlns="http://www.w3.org/2000/svg" version="1.1" viewBox="0 0 512 512">
  <defs>
    <style>
      .cls-1 {
        fill: #ee1e24;
      }

      .cls-2 {
        fill: #fff;
      }
    </style>
  </defs>
  <!-- Generator: Adobe Illustrator 28.7.1, SVG Export Plug-In . SVG Version: 1.2.0 Build 142)  -->
  <g>
    <g id="_レイヤー_1" data-name="レイヤー_1">
      <rect class="cls-1" width="512" height="512"/>
      <path class="cls-2" d="M157.61,394.88c-24.89-15.87-37.94-37.85-39.16-65.95h40.76c1.22,22.29,10.38,39.54,27.48,51.75,17.09,12.21,40.6,18.32,70.53,18.32s52.82-6.48,68.7-19.46c15.87-12.97,23.81-31.67,23.81-56.1s-7.86-41.37-23.58-52.67c-15.73-11.29-40.07-16.94-73.05-16.94-21.37,0-40.92,1.68-58.62,5.04v-26.1c10.68,1.83,25.19,2.75,43.51,2.75,29,0,52.36-6.02,70.07-18.09,17.7-12.06,26.56-28.01,26.56-47.86s-7.33-33.81-21.98-44.65c-14.65-10.83-34.8-16.26-60.45-16.26-27.79,0-50.3,6.34-67.55,19.01-17.25,12.67-26.49,29.7-27.71,51.06h-41.22c.61-17.7,6.79-33.35,18.55-46.94,11.75-13.58,27.78-24.11,48.09-31.6,20.3-7.48,43.58-11.22,69.84-11.22s47.93,3.44,67.78,10.3c19.84,6.87,35.26,16.49,46.26,28.85,10.99,12.37,16.49,26.33,16.49,41.9,0,16.79-6.49,31.68-19.46,44.65-12.98,12.98-30.76,22.21-53.35,27.71,58.62,8.55,87.93,35.42,87.93,80.6,0,29.92-12.36,53.35-37.09,70.3-24.73,16.94-58.93,25.42-102.58,25.42s-75.64-7.94-100.52-23.81Z"/>
    </g>
  </g>
</svg>