<?xml version="1.0" encoding="UTF-8"?>
<svg xmlns="http://www.w3.org/2000/svg" version="1.1" viewBox="0 0 512 512">
  <defs>
    <style>
      .cls-1 {
        fill: #1174bd;
      }

      .cls-2 {
        fill: #fff;
      }
    </style>
  </defs>
  <!-- Generator: Adobe Illustrator 28.7.1, SVG Export Plug-In . SVG Version: 1.2.0 Build 142)  -->
  <g>
    <g id="_レイヤー_1" data-name="レイヤー_1">
      <rect class="cls-1" width="512" height="512"/>
      <path class="cls-2" d="M156.69,395.33c-23.06-15.57-35.19-37.7-36.41-66.4h48.09c1.22,21.98,9.31,39.16,24.27,51.52,14.96,12.37,34.96,18.55,59.99,18.55,29.31,0,52.21-7.4,68.69-22.21,16.49-14.8,24.73-35.49,24.73-62.05s-8.47-47.93-25.42-63.2c-16.95-15.26-40.38-22.9-70.3-22.9s-56.79,8.86-80.6,26.56h-41.67l16.94-161.66h233.56v20.61h-187.76l-12.37,113.12c22.28-12.82,49.15-19.23,80.6-19.23,27.17,0,50.98,4.28,71.44,12.82,20.45,8.55,36.18,20.77,47.17,36.64,10.99,15.88,16.49,34.2,16.49,54.96,0,33.28-12.52,59.31-37.55,78.08-25.04,18.78-59.69,28.17-103.96,28.17-40.92,0-72.89-7.79-95.94-23.36Z"/>
    </g>
  </g>
</svg>