<?xml version="1.0" encoding="UTF-8"?>
<svg id="_レイヤー_1" data-name="レイヤー 1" xmlns="http://www.w3.org/2000/svg" version="1.1" viewBox="0 0 100 100">
  <defs>
    <style>
      .cls-1 {
        fill: #eb6100;
        fill-rule: evenodd;
        stroke-width: 0px;
      }
    </style>
  </defs>
  <path class="cls-1" d="M51,14.3C27.4,14.3,4.8,33.5.7,57.1s11.6,42.8,35.2,42.8c11.8,0,23.9-4.9,33.4-13.5l-2.7-3.6c-5.4,2.7-11.2,4.1-16.8,4.1-18.7,0-31.3-15.2-28-33.9,3-17,18.1-31.3,35.3-33.6v-4.5c-2.1-.3-4.1-.5-6.2-.5Z"/>
  <path class="cls-1" d="M49,85.5c23.6,0,46.1-19.1,50.3-42.8S87.7,0,64.1,0c-11.8,0-23.9,4.9-33.4,13.5l2.7,3.6c5.4-2.7,11.2-4.1,16.8-4.1,18.7,0,31.3,15.2,28,33.9-3,17-18.1,31.3-35.3,33.6v4.5c2.1.3,4.1.5,6.2.5Z"/>
</svg>