<?xml version="1.0" encoding="UTF-8"?>
<svg xmlns="http://www.w3.org/2000/svg" xmlns:svg="http://www.w3.org/2000/svg" xmlns:sodipodi="http://sodipodi.sourceforge.net/DTD/sodipodi-0.dtd" xmlns:rdf="http://www.w3.org/1999/02/22-rdf-syntax-ns#" xmlns:inkscape="http://www.inkscape.org/namespaces/inkscape" xmlns:dc="http://purl.org/dc/elements/1.1/" xmlns:cc="http://creativecommons.org/ns#" version="1.1" viewBox="0 0 25 25">
  <defs>
    <style>
      .cls-1 {
        fill: #fff;
        stroke: #2a6482;
        stroke-linecap: round;
        stroke-miterlimit: 15.12;
        stroke-width: 1.7px;
      }
    </style>
  </defs>
  <!-- Generator: Adobe Illustrator 28.7.1, SVG Export Plug-In . SVG Version: 1.2.0 Build 142)  -->
  <g>
    <g id="svg3730">
      <sodipodi:namedview id="base" bordercolor="#666666" borderopacity="1.0" fit-margin-bottom="0" fit-margin-left="0" fit-margin-right="0" fit-margin-top="0" inkscape:current-layer="layer1" inkscape:cx="12.5" inkscape:cy="12.5" inkscape:document-units="px" inkscape:pageopacity="0.0" inkscape:pageshadow="2" inkscape:window-height="821" inkscape:window-maximized="0" inkscape:window-width="784" inkscape:window-x="800" inkscape:window-y="0" inkscape:zoom="25.16" pagecolor="#ffffff" showgrid="false" units="px"/>
      <path id="path137" class="cls-1" d="M24.15,12.5c0,6.44-5.22,11.65-11.65,11.65S.85,18.94.85,12.5,6.06.85,12.5.85s11.65,5.22,11.65,11.65Z" inkscape:connector-curvature="0"/>
      <path id="path139" d="M9.99,8.41v2.59h2.9c.52,0,.94-.09,1.25-.29.33-.19.49-.54.49-1.04,0-.55-.21-.91-.65-1.08-.37-.12-.84-.18-1.41-.18h-2.6ZM9.99,12.96v3.14h2.9c.52,0,.92-.07,1.21-.21.53-.26.79-.74.79-1.47,0-.61-.26-1.03-.77-1.27-.28-.13-.68-.19-1.19-.2h-2.94ZM13.37,6.37c1.45.02,2.47.44,3.07,1.25.37.5.55,1.1.55,1.8s-.18,1.3-.55,1.73c-.2.24-.5.47-.89.67.6.22,1.06.57,1.36,1.04.31.47.46,1.05.46,1.72s-.18,1.33-.53,1.87c-.23.37-.51.68-.84.93-.38.29-.83.48-1.35.59-.52.1-1.07.16-1.68.16h-5.36V6.37h5.75Z" inkscape:connector-curvature="0"/>
    </g>
  </g>
</svg>