<?xml version="1.0" encoding="UTF-8"?>
<svg xmlns="http://www.w3.org/2000/svg" xmlns:svg="http://www.w3.org/2000/svg" xmlns:sodipodi="http://sodipodi.sourceforge.net/DTD/sodipodi-0.dtd" xmlns:rdf="http://www.w3.org/1999/02/22-rdf-syntax-ns#" xmlns:inkscape="http://www.inkscape.org/namespaces/inkscape" xmlns:dc="http://purl.org/dc/elements/1.1/" xmlns:cc="http://creativecommons.org/ns#" version="1.1" viewBox="0 0 25 25">
  <defs>
    <style>
      .cls-1 {
        fill: #fff;
        stroke: #e25885;
        stroke-linecap: round;
        stroke-miterlimit: 15.12;
        stroke-width: 1.7px;
      }
    </style>
  </defs>
  <!-- Generator: Adobe Illustrator 28.7.1, SVG Export Plug-In . SVG Version: 1.2.0 Build 142)  -->
  <g>
    <g id="svg3730">
      <sodipodi:namedview id="base" bordercolor="#666666" borderopacity="1.0" fit-margin-bottom="0" fit-margin-left="0" fit-margin-right="0" fit-margin-top="0" inkscape:current-layer="layer1" inkscape:cx="12.5" inkscape:cy="12.5" inkscape:document-units="px" inkscape:pageopacity="0.0" inkscape:pageshadow="2" inkscape:window-height="821" inkscape:window-maximized="0" inkscape:window-width="784" inkscape:window-x="800" inkscape:window-y="0" inkscape:zoom="25.16" pagecolor="#ffffff" showgrid="false" units="px"/>
      <path id="path77" class="cls-1" d="M24.15,12.5c0,6.44-5.22,11.65-11.65,11.65S.85,18.94.85,12.5,6.06.85,12.5.85s11.65,5.22,11.65,11.65Z" inkscape:connector-curvature="0"/>
      <path id="path79" d="M9.97,8.45v7.48h2.22c1.13,0,1.93-.56,2.37-1.67.25-.61.37-1.34.37-2.19,0-1.17-.18-2.06-.55-2.68-.37-.63-1.1-.94-2.19-.94h-2.22ZM12.59,6.45c.72.01,1.31.09,1.78.25.81.26,1.46.75,1.96,1.45.4.57.68,1.19.82,1.86.14.66.22,1.29.22,1.9,0,1.52-.31,2.82-.92,3.87-.83,1.43-2.12,2.14-3.86,2.14h-4.96V6.45h4.96Z" inkscape:connector-curvature="0"/>
    </g>
  </g>
</svg>