<?xml version="1.0" encoding="UTF-8"?>
<svg xmlns="http://www.w3.org/2000/svg" xmlns:svg="http://www.w3.org/2000/svg" xmlns:sodipodi="http://sodipodi.sourceforge.net/DTD/sodipodi-0.dtd" xmlns:rdf="http://www.w3.org/1999/02/22-rdf-syntax-ns#" xmlns:inkscape="http://www.inkscape.org/namespaces/inkscape" xmlns:dc="http://purl.org/dc/elements/1.1/" xmlns:cc="http://creativecommons.org/ns#" version="1.1" viewBox="0 0 25 25">
  <defs>
    <style>
      .cls-1 {
        fill: #fff;
        stroke: #396;
        stroke-linecap: round;
        stroke-miterlimit: 15.12;
        stroke-width: 1.7px;
      }
    </style>
  </defs>
  <!-- Generator: Adobe Illustrator 28.7.1, SVG Export Plug-In . SVG Version: 1.2.0 Build 142)  -->
  <g>
    <g id="svg3730">
      <sodipodi:namedview id="base" bordercolor="#666666" borderopacity="1.0" fit-margin-bottom="0" fit-margin-left="0" fit-margin-right="0" fit-margin-top="0" inkscape:current-layer="layer1" inkscape:cx="12.5" inkscape:cy="12.5" inkscape:document-units="px" inkscape:pageopacity="0.0" inkscape:pageshadow="2" inkscape:window-height="821" inkscape:window-maximized="0" inkscape:window-width="784" inkscape:window-x="800" inkscape:window-y="0" inkscape:zoom="25.16" pagecolor="#ffffff" showgrid="false" units="px"/>
      <path id="path817-0-0-6-0-4-2" class="cls-1" d="M24.15,12.5c0,6.43-5.22,11.65-11.65,11.65-6.43,0-11.65-5.22-11.65-11.65S6.07.85,12.5.85c6.43,0,11.65,5.22,11.65,11.65Z" inkscape:connector-curvature="0"/>
      <g id="text821-22">
        <path id="path986" d="M15.41,10.36c-.18-.77-.62-1.32-1.32-1.62-.39-.17-.83-.25-1.31-.25-.92,0-1.67.35-2.26,1.04-.59.69-.88,1.72-.88,3.11,0,1.4.32,2.38.96,2.96s1.37.87,2.18.87,1.45-.23,1.96-.69c.51-.46.82-1.06.94-1.81h-2.63v-1.89h4.74v6.09h-1.58l-.24-1.42c-.46.54-.87.92-1.24,1.14-.63.38-1.4.58-2.32.58-1.51,0-2.75-.52-3.71-1.56-1-1.05-1.51-2.48-1.51-4.3s.51-3.31,1.52-4.42,2.36-1.66,4.03-1.66c1.45,0,2.61.37,3.48,1.1.88.73,1.39,1.64,1.51,2.73h-2.34Z" inkscape:connector-curvature="0"/>
      </g>
    </g>
  </g>
</svg>