<?xml version="1.0" encoding="UTF-8"?>
<svg xmlns="http://www.w3.org/2000/svg" xmlns:svg="http://www.w3.org/2000/svg" xmlns:sodipodi="http://sodipodi.sourceforge.net/DTD/sodipodi-0.dtd" xmlns:rdf="http://www.w3.org/1999/02/22-rdf-syntax-ns#" xmlns:inkscape="http://www.inkscape.org/namespaces/inkscape" xmlns:dc="http://purl.org/dc/elements/1.1/" xmlns:cc="http://creativecommons.org/ns#" version="1.1" viewBox="0 0 25 25">
  <defs>
    <style>
      .cls-1 {
        fill: #fff;
        stroke: #00b5ab;
        stroke-linecap: round;
        stroke-miterlimit: 15.12;
        stroke-width: 1.7px;
      }
    </style>
  </defs>
  <!-- Generator: Adobe Illustrator 28.7.1, SVG Export Plug-In . SVG Version: 1.2.0 Build 142)  -->
  <g>
    <g id="svg3730">
      <sodipodi:namedview id="base" bordercolor="#666666" borderopacity="1.0" fit-margin-bottom="0" fit-margin-left="0" fit-margin-right="0" fit-margin-top="0" inkscape:current-layer="layer1" inkscape:cx="12.5" inkscape:cy="12.5" inkscape:document-units="px" inkscape:pageopacity="0.0" inkscape:pageshadow="2" inkscape:window-height="821" inkscape:window-maximized="0" inkscape:window-width="784" inkscape:window-x="800" inkscape:window-y="0" inkscape:zoom="25.16" pagecolor="#ffffff" showgrid="false" units="px"/>
      <path id="path817-0-0-6-0-4-2-5-3" class="cls-1" d="M24.15,12.5c0,6.43-5.22,11.65-11.65,11.65-6.43,0-11.65-5.22-11.65-11.65S6.07.85,12.5.85c6.43,0,11.65,5.22,11.65,11.65Z" inkscape:connector-curvature="0"/>
      <g id="text821-01">
        <path id="path1002" d="M14.43,7.24h3.18v10.52h-2.06v-7.12c0-.2,0-.49,0-.86,0-.37,0-.66,0-.86l-2,8.83h-2.14l-1.99-8.83c0,.2,0,.49,0,.86,0,.37,0,.65,0,.86v7.12h-2.06V7.24h3.21l1.92,8.28,1.91-8.28Z" inkscape:connector-curvature="0"/>
      </g>
    </g>
  </g>
</svg>