<?xml version="1.0" encoding="UTF-8"?>
<svg xmlns="http://www.w3.org/2000/svg" xmlns:svg="http://www.w3.org/2000/svg" xmlns:sodipodi="http://sodipodi.sourceforge.net/DTD/sodipodi-0.dtd" xmlns:rdf="http://www.w3.org/1999/02/22-rdf-syntax-ns#" xmlns:inkscape="http://www.inkscape.org/namespaces/inkscape" xmlns:dc="http://purl.org/dc/elements/1.1/" xmlns:cc="http://creativecommons.org/ns#" version="1.1" viewBox="0 0 25 25">
  <defs>
    <style>
      .cls-1 {
        fill: #fff;
        stroke: #98a9d6;
        stroke-linecap: round;
        stroke-miterlimit: 15.12;
        stroke-width: 1.7px;
      }
    </style>
  </defs>
  <!-- Generator: Adobe Illustrator 28.7.1, SVG Export Plug-In . SVG Version: 1.2.0 Build 142)  -->
  <g>
    <g id="svg3730">
      <sodipodi:namedview id="base" bordercolor="#666666" borderopacity="1.0" fit-margin-bottom="0" fit-margin-left="0" fit-margin-right="0" fit-margin-top="0" inkscape:current-layer="layer1" inkscape:cx="12.5" inkscape:cy="12.5" inkscape:document-units="px" inkscape:pageopacity="0.0" inkscape:pageshadow="2" inkscape:window-height="821" inkscape:window-maximized="0" inkscape:window-width="784" inkscape:window-x="800" inkscape:window-y="0" inkscape:zoom="25.16" pagecolor="#ffffff" showgrid="false" units="px"/>
      <path id="path817-0" class="cls-1" d="M24.15,12.5c0,6.43-5.22,11.65-11.65,11.65-6.43,0-11.65-5.22-11.65-11.65S6.07.85,12.5.85c6.43,0,11.65,5.22,11.65,11.65Z" inkscape:connector-curvature="0"/>
      <g id="text821-5">
        <path id="path946" d="M10.13,14.67c.07.53.22.93.44,1.19.4.48,1.07.72,2.03.72.57,0,1.04-.06,1.4-.19.68-.24,1.02-.69,1.02-1.35,0-.38-.17-.68-.51-.89-.34-.2-.87-.39-1.59-.54l-1.23-.28c-1.21-.27-2.05-.57-2.52-.89-.79-.54-1.18-1.37-1.18-2.51,0-1.04.38-1.9,1.14-2.59s1.88-1.03,3.35-1.03c1.23,0,2.28.33,3.14.98.87.65,1.33,1.59,1.37,2.82h-2.34c-.04-.7-.35-1.2-.92-1.49-.38-.19-.85-.29-1.42-.29-.63,0-1.13.13-1.5.38s-.56.6-.56,1.06c0,.42.18.73.55.93.24.14.74.3,1.52.48l2.01.48c.88.21,1.55.49,1.99.84.7.55,1.04,1.34,1.04,2.37s-.41,1.94-1.23,2.65c-.81.7-1.96,1.05-3.45,1.05s-2.71-.34-3.58-1.03c-.87-.69-1.31-1.64-1.31-2.85h2.33Z" inkscape:connector-curvature="0"/>
      </g>
    </g>
  </g>
</svg>