<?xml version="1.0" encoding="UTF-8"?>
<svg xmlns="http://www.w3.org/2000/svg" xmlns:svg="http://www.w3.org/2000/svg" xmlns:sodipodi="http://sodipodi.sourceforge.net/DTD/sodipodi-0.dtd" xmlns:rdf="http://www.w3.org/1999/02/22-rdf-syntax-ns#" xmlns:inkscape="http://www.inkscape.org/namespaces/inkscape" xmlns:dc="http://purl.org/dc/elements/1.1/" xmlns:cc="http://creativecommons.org/ns#" version="1.1" viewBox="0 0 25 25">
  <defs>
    <style>
      .cls-1 {
        fill: #fff;
        stroke: #f90;
        stroke-linecap: round;
        stroke-miterlimit: 15.12;
        stroke-width: 1.7px;
      }
    </style>
  </defs>
  <!-- Generator: Adobe Illustrator 28.7.1, SVG Export Plug-In . SVG Version: 1.2.0 Build 142)  -->
  <g>
    <g id="svg3730">
      <sodipodi:namedview id="base" bordercolor="#666666" borderopacity="1.0" fit-margin-bottom="0" fit-margin-left="0" fit-margin-right="0" fit-margin-top="0" inkscape:current-layer="layer1" inkscape:cx="12.5" inkscape:cy="12.5" inkscape:document-units="px" inkscape:pageopacity="0.0" inkscape:pageshadow="2" inkscape:window-height="821" inkscape:window-maximized="0" inkscape:window-width="784" inkscape:window-x="800" inkscape:window-y="0" inkscape:zoom="25.16" pagecolor="#ffffff" showgrid="false" units="px"/>
      <path id="path817-9" class="cls-1" d="M24.15,12.5c0,6.43-5.22,11.65-11.65,11.65-6.43,0-11.65-5.22-11.65-11.65S6.07.85,12.5.85c6.43,0,11.65,5.22,11.65,11.65Z" inkscape:connector-curvature="0"/>
      <g id="text821-0">
        <path id="path938" d="M7.96,6.78h2.4v6.92c0,.77.09,1.34.28,1.69.29.63.91.95,1.87.95.96,0,1.58-.32,1.86-.95.18-.36.28-.92.28-1.69v-6.92h2.4v6.92c0,1.2-.19,2.13-.56,2.79-.69,1.22-2.02,1.83-3.98,1.83s-3.28-.61-3.98-1.83c-.37-.67-.56-1.6-.56-2.79v-6.92Z" inkscape:connector-curvature="0"/>
      </g>
    </g>
  </g>
</svg>