<?xml version="1.0" encoding="UTF-8" standalone="no"?>
<svg xmlns="http://www.w3.org/2000/svg" width="480" height="310" version="1.1" fill="#000080">
  <g transform="matrix(5.17565525,0,0,-5.17565525,-305.70759,229.42343)">
    <path
      d="m 123.690887,10.497528 -10.62,-24.72 -15.3,0 -4.56,0.06 c -3.277,-0.052 -7.386,1.019 -9.9,3.24 l -1.26,1.44 -1.26,1.74 c -1.517,2.161 -1.6,6.729 -0.84,9.18 l 0.66,2.22 0.9,2.46 14.82,1.56 -0.84,-0.96 -0.6,-0.66 c -1.935,-2.815 -3.363,-6.081 0,-8.52 l 1.68,-0.84 1.74,-0.6 c 3.757,-0.526 9.158,-1.112 11.04,3.18 l 0.36,0.66 0.24,0.6 -12.78,-1.14 4.68,8.64" />
    <path
      d="m 77.250878,37.557527 6.6,0.06 4.62,5.76 0.12,-5.7 6.36,0.06 -6.6,-3.78 -0.3,-6.06 -4.26,3.54 -6.9,-3.42 4.14,5.88 L 77.070878,37.557527" />
    <path transform="translate(60.330883,-13.742474)"
      d="m 0,0 12.36,0 7.62,19.8 -9.24,-0.84 9.6,1.86 L 27,37.86 14.94,37.8" />
    <path transform="translate(81.930882,7.317527)"
      d="M 0,0 1.38,2.34 2.64,4.32 4.32,6.3 c 2.513,3.281 9.164,7.339 13.26,8.52 l 1.5,0.48 2.1,0.48 1.86,0.42 1.5,0.24 1.2,0.18 1.62,0.12 1.86,0.06 27.48,0 1.8,-0.24 1.5,-0.12 1.2,-0.18 1.08,-0.24 0.9,-0.24 1.08,-0.36 L 65.1,15 c 2.461,-1.413 3.981,-3.657 4.02,-6.54 l 0,-1.08 -0.3,-1.74 C 67.806,1.521 66.68,-1.016 63.54,-3.84 l -0.54,-0.3 -0.72,-0.42 -0.9,-0.36 6.12,-16.74 -12.54,0 -8.34,22.62 6.6,-2.64 -1.98,6.78 7.2,5.88 L 49.86,9.3 47.52,15.84 43.8,8.22" />
  </g>
</svg>
