<?xml version="1.0" encoding="UTF-8" standalone="no"?>
<!-- Generator: Adobe Illustrator 16.0.3, SVG Export Plug-In . SVG Version: 6.00 Build 0)  -->

<svg
   xmlns:dc="http://purl.org/dc/elements/1.1/"
   xmlns:cc="http://creativecommons.org/ns#"
   xmlns:rdf="http://www.w3.org/1999/02/22-rdf-syntax-ns#"
   xmlns:svg="http://www.w3.org/2000/svg"
   xmlns="http://www.w3.org/2000/svg"
   xmlns:sodipodi="http://sodipodi.sourceforge.net/DTD/sodipodi-0.dtd"
   xmlns:inkscape="http://www.inkscape.org/namespaces/inkscape"
   version="1.0"
   id="レイヤー_1"
   x="0px"
   y="0px"
   width="43"
   height="20"
   viewBox="0 0 43 20"
   xml:space="preserve"
   inkscape:version="0.91 r13725"
   sodipodi:docname="ShonanMonorail_logo M.svg"><metadata
     id="metadata75"><rdf:RDF><cc:Work
         rdf:about=""><dc:format>image/svg+xml</dc:format><dc:type
           rdf:resource="http://purl.org/dc/dcmitype/StillImage" /><dc:title></dc:title></cc:Work></rdf:RDF></metadata><defs
     id="defs73" /><sodipodi:namedview
     pagecolor="#ffffff"
     bordercolor="#666666"
     borderopacity="1"
     objecttolerance="10"
     gridtolerance="10"
     guidetolerance="10"
     inkscape:pageopacity="0"
     inkscape:pageshadow="2"
     inkscape:window-width="1111"
     inkscape:window-height="893"
     id="namedview71"
     showgrid="false"
     inkscape:zoom="9.1571429"
     inkscape:cx="26.940203"
     inkscape:cy="-5.6534227"
     inkscape:window-x="805"
     inkscape:window-y="84"
     inkscape:window-maximized="0"
     inkscape:current-layer="レイヤー_1" /><style
     type="text/css"
     id="style3"><![CDATA[
	.st0{fill:#1D2088;}
	.st1{fill:#00B4ED;}
]]></style><g
     id="g4238"><path
       style="fill:#00b4ed"
       inkscape:connector-curvature="0"
       id="path9"
       d="m 9.683,2.382 c -0.235,0 -0.47,0.157 -0.627,0.392 -8.078,15.111 -8.078,15.111 -8.078,15.111 5.333,0 5.333,0 5.333,0 C 14.388,2.774 14.388,2.774 14.388,2.774 14.545,2.539 14.78,2.382 14.937,2.382 l -5.254,0 z"
       class="st1" /><path
       style="fill:#1d2088"
       inkscape:connector-curvature="0"
       id="path11"
       d="m 19.25,17.572 c 2.117,-3.915 2.117,-3.915 2.117,-3.915 C 15.564,2.774 15.564,2.774 15.564,2.774 15.407,2.539 15.172,2.382 14.937,2.382 c -0.157,0 -0.392,0.157 -0.549,0.392 -2.038,3.914 -2.038,3.914 -2.038,3.914 5.725,10.884 5.725,10.884 5.725,10.884 0.156,0.156 0.392,0.313 0.627,0.313 l 0,0 c 0.155,0 0.47,-0.156 0.548,-0.313"
       class="st0" /><path
       style="fill:#1d2088"
       inkscape:connector-curvature="0"
       id="path13"
       d="M 41.677,17.885 C 33.6,2.774 33.6,2.774 33.6,2.774 33.444,2.539 33.209,2.382 33.052,2.382 c -0.235,0 -0.47,0.157 -0.626,0.392 -2.038,3.915 -2.038,3.915 -2.038,3.915 5.958,11.196 5.958,11.196 5.958,11.196 l 5.331,0 z"
       class="st0" /><path
       style="fill:#00b4ed"
       inkscape:connector-curvature="0"
       id="path15"
       d="m 27.719,2.382 c -0.236,0 -0.47,0.157 -0.627,0.392 -7.842,14.798 -7.842,14.798 -7.842,14.798 -0.078,0.156 -0.393,0.313 -0.548,0.313 5.253,0 5.253,0 5.253,0 0.235,0 0.471,-0.156 0.627,-0.313 C 32.425,2.774 32.425,2.774 32.425,2.774 32.581,2.539 32.816,2.382 33.051,2.382 l -5.332,0 z"
       class="st1" /></g><g
     id="g41" /><g
     id="g43" /><g
     id="g45" /><g
     id="g47" /><g
     id="g49" /><g
     id="g51" /><g
     id="g53" /><g
     id="g55" /><g
     id="g57" /><g
     id="g59" /><g
     id="g61" /><g
     id="g63" /><g
     id="g65" /><g
     id="g67" /><g
     id="g69" /></svg>
