<?xml version="1.0" encoding="utf-8"?>
<!-- Generator: Adobe Illustrator 15.1.0, SVG Export Plug-In . SVG Version: 6.00 Build 0)  -->
<!DOCTYPE svg PUBLIC "-//W3C//DTD SVG 1.1//EN" "http://www.w3.org/Graphics/SVG/1.1/DTD/svg11.dtd">
<svg version="1.1" id="레이어_1" xmlns="http://www.w3.org/2000/svg" xmlns:xlink="http://www.w3.org/1999/xlink" x="0px"
	 y="0px" width="450px" height="450px" viewBox="0 0 450 450" enable-background="new 0 0 450 450" xml:space="preserve">
<ellipse fill="#004FA2" cx="224.436" cy="224.436" rx="224.436" ry="224.429"/>
<g enable-background="new    ">
	<path fill="#FFFFFF" d="M134.324,203.409c1.61,2.654,2.865,5.593,3.767,8.813c0.899,3.223,1.35,6.681,1.35,10.377
		c0,5.497-0.973,10.447-2.914,14.854c-1.943,4.406-4.597,8.173-7.96,11.301c-3.365,3.127-7.32,5.519-11.869,7.178
		c-4.548,1.657-9.43,2.487-14.641,2.487c-5.117,0-9.928-0.83-14.427-2.487c-4.502-1.659-8.436-4.051-11.798-7.178
		c-3.365-3.128-6.019-6.895-7.96-11.301c-1.943-4.406-2.914-9.356-2.914-14.854c0-3.696,0.449-7.154,1.351-10.377
		c0.899-3.22,2.154-6.158,3.767-8.813H49.465v-16.347h43.78V175.55H54.156v-47.476h94.524v16.204H71.071v15.352h77.609v15.92
		h-37.667v11.513h43.211v16.347H134.324z M102.058,242.214c2.748,0,5.353-0.546,7.818-1.635c2.463-1.09,4.595-2.559,6.396-4.406
		c1.799-1.848,3.22-3.958,4.264-6.325c1.042-2.367,1.563-4.784,1.563-7.249c0-2.463-0.522-4.855-1.563-7.179
		c-1.044-2.32-2.465-4.357-4.264-6.111c-1.801-1.753-3.934-3.174-6.396-4.265c-2.465-1.088-5.07-1.635-7.818-1.635
		c-2.75,0-5.308,0.547-7.676,1.635c-2.37,1.091-4.455,2.512-6.254,4.265c-1.801,1.754-3.222,3.791-4.264,6.111
		c-1.044,2.323-1.563,4.716-1.563,7.179c0,2.465,0.52,4.882,1.563,7.249c1.042,2.367,2.463,4.478,4.264,6.325
		c1.799,1.848,3.885,3.316,6.254,4.406C96.75,241.668,99.308,242.214,102.058,242.214z"/>
	<path fill="#FFFFFF" d="M169.715,151.385v-15.493h21.89v-13.219h15.92v13.219h21.89v15.493h-9.95
		c2.083,3.318,3.718,7.25,4.904,11.798c1.184,4.549,1.776,9.715,1.776,15.494c0,6.254-0.688,11.775-2.061,16.56
		c-1.375,4.786-3.247,8.813-5.614,12.082c-2.37,3.27-5.188,5.757-8.458,7.462c-3.27,1.706-6.752,2.559-10.448,2.559
		c-3.695,0-7.156-0.853-10.376-2.559c-3.223-1.705-6.042-4.192-8.458-7.462c-2.417-3.27-4.313-7.296-5.686-12.082
		c-1.375-4.784-2.061-10.306-2.061-16.56c0-5.779,0.591-10.945,1.777-15.494c1.184-4.548,2.818-8.479,4.904-11.798H169.715z
		 M199.565,200.709c1.421,0,2.748-0.545,3.98-1.635c1.23-1.089,2.297-2.605,3.198-4.549c0.899-1.941,1.635-4.24,2.203-6.894
		c0.569-2.652,0.853-5.544,0.853-8.671c0-3.221-0.284-6.23-0.853-9.026c-0.568-2.794-1.304-5.234-2.203-7.32
		c-0.901-2.083-1.968-3.718-3.198-4.903c-1.232-1.185-2.559-1.777-3.98-1.777s-2.725,0.593-3.909,1.777
		c-1.186,1.186-2.252,2.82-3.198,4.903c-0.948,2.086-1.684,4.526-2.203,7.32c-0.522,2.796-0.782,5.806-0.782,9.026
		c0,3.127,0.26,6.019,0.782,8.671c0.52,2.653,1.255,4.952,2.203,6.894c0.946,1.943,2.012,3.46,3.198,4.549
		C196.84,200.164,198.144,200.709,199.565,200.709z M258.27,251.311v-80.169h-7.817v80.169H233.68V128.074h16.772v27.291h7.817
		v-27.291h16.915v123.237H258.27z"/>
	<path fill="#FFFFFF" d="M363.596,194.454c-8.529-1.326-15.66-3.695-21.393-7.107c-5.734-3.411-10.354-7.533-13.859-12.366
		c-3.318,4.833-7.795,8.955-13.432,12.366c-5.64,3.412-12.676,5.781-21.109,7.107v-17.057c5.117-0.946,9.357-2.417,12.723-4.406
		c3.362-1.99,5.992-4.383,7.889-7.179c1.895-2.794,3.221-5.85,3.98-9.168c0.757-3.316,1.137-6.774,1.137-10.377v-18.193h16.914
		v18.193c0,3.603,0.449,7.061,1.352,10.377c0.898,3.318,2.391,6.374,4.477,9.168c2.084,2.796,4.879,5.188,8.387,7.179
		c3.504,1.989,7.818,3.46,12.936,4.406V194.454z M305.459,251.311v-46.339h16.773v30.561h76.613v15.778H305.459z M380.652,215.918
		v-53.445h-24.875v-15.778h24.875v-18.62h16.773v87.844H380.652z"/>
</g>
<g enable-background="new    ">
	<path fill="#FFFFFF" d="M38.394,312.7v-42.264c3.622-0.632,7.728-0.948,12.319-0.948c7.539,0,13.288,1.643,17.247,4.928
		c4.38,3.664,6.57,8.95,6.57,15.857c0,7.37-2.148,13.024-6.444,16.962c-4.296,3.938-10.719,5.906-19.268,5.906
		C44.731,313.141,41.257,312.995,38.394,312.7z M46.038,276.311v30.134c0.589,0.127,2.021,0.189,4.296,0.189
		c5.264,0,9.276-1.39,12.035-4.169c2.758-2.78,4.138-6.76,4.138-11.94c0-4.759-1.306-8.38-3.917-10.865
		c-2.612-2.485-6.381-3.728-11.308-3.728C49.512,275.932,47.764,276.058,46.038,276.311z"/>
	<path fill="#FFFFFF" d="M93.923,313.394c-4.591,0-8.298-1.484-11.119-4.453c-2.822-2.97-4.233-6.833-4.233-11.593
		c0-4.928,1.421-8.907,4.264-11.94c2.843-3.032,6.665-4.548,11.466-4.548c4.632,0,8.339,1.475,11.119,4.422
		c2.78,2.948,4.169,6.781,4.169,11.498c0,4.928-1.432,8.929-4.296,12.003C102.43,311.857,98.64,313.394,93.923,313.394z
		 M93.923,307.393c2.527,0,4.506-1.138,5.938-3.412c1.178-1.937,1.769-4.232,1.769-6.886c0-2.694-0.568-4.969-1.706-6.822
		c-1.348-2.274-3.307-3.412-5.875-3.412c-2.612,0-4.612,1.138-6.002,3.412c-1.137,1.854-1.706,4.169-1.706,6.948
		c0,2.653,0.568,4.928,1.706,6.823C89.438,306.277,91.396,307.393,93.923,307.393z"/>
	<path fill="#FFFFFF" d="M115.654,312.7v-21.796c0-1.052-0.042-2.559-0.126-4.517c-0.085-1.958-0.126-3.59-0.126-4.896h6.696
		l0.379,4.296c2.021-3.285,5.285-4.928,9.792-4.928c3.622,0,6.38,1.326,8.276,3.979c1.81,2.359,2.716,5.476,2.716,9.35V312.7h-7.644
		v-17.247c0-5.307-1.958-7.96-5.875-7.96c-1.39,0-2.643,0.433-3.759,1.295c-1.116,0.864-1.906,1.949-2.369,3.254
		c-0.211,0.717-0.316,1.516-0.316,2.4V312.7H115.654z"/>
	<path fill="#FFFFFF" d="M178.892,290.652v17.436c0,6.57-1.559,11.245-4.675,14.025c-2.738,2.441-6.633,3.664-11.687,3.664
		c-4.422,0-8.023-0.864-10.803-2.591l1.769-6.19c2.78,1.643,5.749,2.464,8.908,2.464c5.896,0,8.844-2.844,8.844-8.529v-2.464
		c-1.895,2.738-4.886,4.106-8.971,4.106c-4.001,0-7.224-1.516-9.666-4.548c-2.274-2.906-3.412-6.465-3.412-10.677
		c0-4.506,1.2-8.339,3.601-11.498c2.611-3.326,6.085-4.99,10.424-4.99c4.127,0,7.033,1.475,8.718,4.422l0.505-3.79h6.76
		C178.997,283.639,178.892,286.693,178.892,290.652z M171.248,299.054v-4.865c0-0.884-0.105-1.558-0.316-2.021
		c-0.969-3.369-3.095-5.054-6.38-5.054c-2.527,0-4.465,1.116-5.812,3.349c-1.137,1.769-1.706,3.979-1.706,6.633
		c0,2.527,0.569,4.675,1.706,6.444c1.305,1.895,3.243,2.843,5.812,2.843c3.159,0,5.264-1.558,6.317-4.675
		C171.121,301.034,171.248,300.149,171.248,299.054z"/>
	<path fill="#FFFFFF" d="M186.851,312.7v-45.17h7.644v17.878c1.095-1.305,2.338-2.357,3.728-3.158c1.769-0.926,3.559-1.39,5.37-1.39
		c3.58,0,6.338,1.369,8.276,4.106c1.684,2.442,2.527,5.581,2.527,9.412V312.7h-7.645v-17.058c0-5.433-1.98-8.149-5.938-8.149
		c-1.349,0-2.57,0.422-3.665,1.264c-1.095,0.843-1.874,1.874-2.337,3.096c-0.211,0.674-0.316,1.475-0.316,2.4V312.7H186.851z"/>
	<path fill="#FFFFFF" d="M245.982,293.81v11.119c0,3.158,0.189,5.749,0.568,7.771h-7.076l-0.505-3.223
		c-2.147,2.612-5.139,3.917-8.971,3.917c-2.78,0-5.096-0.842-6.949-2.526c-1.854-1.685-2.78-3.938-2.78-6.76
		c0-4.506,2.105-7.771,6.318-9.792c3.074-1.432,6.97-2.148,11.688-2.148v-0.442c0-3.326-2.044-4.99-6.129-4.99
		c-3.031,0-5.77,0.821-8.212,2.464l-1.706-5.496c3.2-1.896,6.949-2.843,11.245-2.843C241.813,280.86,245.982,285.177,245.982,293.81
		z M238.527,301.834v-4.106c-7.075,0-10.613,1.832-10.613,5.496c0,2.822,1.432,4.232,4.296,4.232c1.643,0,3.105-0.547,4.391-1.643
		C237.885,304.719,238.527,303.392,238.527,301.834z"/>
	<path fill="#FFFFFF" d="M279.591,299.37h-20.405c0,2.316,0.885,4.191,2.653,5.622c1.643,1.349,3.854,2.022,6.634,2.022
		c2.905,0,5.727-0.484,8.465-1.453l1.326,5.748c-3.243,1.349-6.844,2.022-10.803,2.022c-4.801,0-8.613-1.4-11.434-4.201
		c-2.822-2.801-4.233-6.665-4.233-11.593c0-4.843,1.306-8.802,3.917-11.877c2.695-3.242,6.359-4.864,10.992-4.864
		c4.211,0,7.496,1.453,9.855,4.359c2.231,2.779,3.348,6.359,3.348,10.739C279.906,296.906,279.801,298.065,279.591,299.37z
		 M259.186,293.431h13.456c0-1.811-0.505-3.349-1.517-4.611c-1.137-1.517-2.779-2.274-4.928-2.274c-2.021,0-3.643,0.717-4.863,2.147
		C260.111,290.126,259.396,291.705,259.186,293.431z"/>
	<path fill="#FFFFFF" d="M305.176,312.7v-42.896h7.645v36.136h17.436v6.76H305.176z"/>
	<path fill="#FFFFFF" d="M339.163,277.448c-1.307,0-2.369-0.399-3.19-1.2c-0.821-0.8-1.232-1.937-1.232-3.411
		c0-1.432,0.432-2.559,1.296-3.38c0.862-0.821,1.947-1.231,3.253-1.231c1.305,0,2.39,0.41,3.254,1.231
		c0.862,0.821,1.295,1.948,1.295,3.38c0,1.433-0.453,2.559-1.358,3.38C341.573,277.038,340.468,277.448,339.163,277.448z
		 M343.143,312.7h-7.707v-31.208h7.707V312.7z"/>
	<path fill="#FFFFFF" d="M351.165,312.7v-21.796c0-1.052-0.042-2.559-0.126-4.517c-0.085-1.958-0.127-3.59-0.127-4.896h6.697
		l0.379,4.296c2.021-3.285,5.285-4.928,9.792-4.928c3.621,0,6.381,1.326,8.275,3.979c1.811,2.359,2.717,5.476,2.717,9.35V312.7
		h-7.645v-17.247c0-5.307-1.958-7.96-5.875-7.96c-1.39,0-2.644,0.433-3.759,1.295c-1.116,0.864-1.906,1.949-2.369,3.254
		c-0.211,0.717-0.315,1.516-0.315,2.4V312.7H351.165z"/>
	<path fill="#FFFFFF" d="M412.507,299.37h-20.405c0,2.316,0.885,4.191,2.653,5.622c1.643,1.349,3.854,2.022,6.633,2.022
		c2.906,0,5.728-0.484,8.466-1.453l1.326,5.748c-3.243,1.349-6.844,2.022-10.803,2.022c-4.801,0-8.613-1.4-11.435-4.201
		s-4.232-6.665-4.232-11.593c0-4.843,1.305-8.802,3.917-11.877c2.694-3.242,6.358-4.864,10.992-4.864
		c4.211,0,7.496,1.453,9.855,4.359c2.231,2.779,3.348,6.359,3.348,10.739C412.822,296.906,412.717,298.065,412.507,299.37z
		 M392.102,293.431h13.456c0-1.811-0.506-3.349-1.517-4.611c-1.137-1.517-2.779-2.274-4.927-2.274c-2.022,0-3.644,0.717-4.865,2.147
		C393.027,290.126,392.312,291.705,392.102,293.431z"/>
</g>
</svg>
