<?xml version="1.0" encoding="UTF-8"?>
<svg id="_레이어_1" data-name="레이어_1" xmlns="http://www.w3.org/2000/svg"
  xmlns:xlink="http://www.w3.org/1999/xlink" version="1.1" viewBox="0 0 68.3 68.9">
  <!-- Generator: Adobe Illustrator 29.1.0, SVG Export Plug-In . SVG Version: 2.1.0 Build 142)  -->
  <defs>
    <style>
      .st0 {
      fill: url(#gradient2);
      }

      .st1 {
      fill: url(#gradient1);
      }

      .st2 {
      fill: url(#gradient3);
      }
    </style>
    <radialGradient id="gradient2" data-name="gradient2" cx="156.5" cy="-967.3" fx="156.5"
      fy="-967.3" r="7.6" gradientTransform="translate(-827.2 -5271.6) scale(5.5 -5.5)"
      gradientUnits="userSpaceOnUse">
      <stop offset="0" stop-color="#00afdc" />
      <stop offset=".2" stop-color="#00afdd" />
      <stop offset="1" stop-color="#0066b3" />
    </radialGradient>
    <radialGradient id="gradient3" data-name="gradient3" r="7.6" xlink:href="#gradient2" />
    <radialGradient id="gradient1" data-name="gradient1" cx="19" cy="43.3" fx="19" fy="43.3"
      r="27.2" gradientTransform="translate(0 69.9) scale(1 -1)" gradientUnits="userSpaceOnUse">
      <stop offset="0" stop-color="#00afdc" />
      <stop offset=".2" stop-color="#00afdd" />
      <stop offset="1" stop-color="#0066b3" />
    </radialGradient>
  </defs>
  <g>
    <path class="st0"
      d="M12.6,32.1s-7.9,3.6-8.4,12.6c-.5,8.7,6.1,14.8,6.1,14.8h0c6.9,6.5,16.4,10,26.6,9.2,13.3-1.1,24-9.7,28.7-21.2v-10.7c-26-10.1-44.4-9.3-53-4.7Z" />
    <path class="st2"
      d="M65.6,36.8v10.7c.9-2.1,1.5-4.2,2-6.5,0,0,0,0,0,0,.2-1,.4-2.1.5-3.3-.8-.3-1.7-.7-2.5-1Z" />
  </g>
  <g>
    <path class="st1"
      d="M24.2,14.3c-4.3,0-7.5.6-10.5,2.5-.5.3-.6.3-.6.2l.2-.5c1.8-2.3,5.6-5.9,11.9-7.8,0,0,10.1-3.5,23.7,4.7,7,4.3,12,7.9,16.7,11.7v-3.8C60,7.8,46.3-1.2,31,.1,15.3,1.5,2.9,13.1,0,27.7c8.4-7.5,24.4-10.1,49-1.8,5.5,1.9,10.6,3.9,15.2,6,.5.2.9.4,1.4.6v-3.5c-12.1-6.9-28.7-14.6-41.4-14.8Z" />
    <path class="st1" d="M65.6,29.1v3.5c.9.4,1.8.8,2.6,1.3,0-1.2,0-2.3-.2-3.4-.8-.5-1.6-.9-2.4-1.4Z" />
    <path class="st1"
      d="M67.3,26.4c-.4-1.5-.8-3-1.4-4.4,0,0,0-.1,0-.2,0-.2-.2-.4-.2-.6v3.8c.6.5,1.1.9,1.7,1.4Z" />
  </g>
</svg>
