<?xml version="1.0" encoding="utf-8"?>
<!-- Generator: Adobe Illustrator 15.1.0, SVG Export Plug-In . SVG Version: 6.00 Build 0)  -->
<!DOCTYPE svg PUBLIC "-//W3C//DTD SVG 1.1//EN" "http://www.w3.org/Graphics/SVG/1.1/DTD/svg11.dtd">
<svg version="1.1" id="레이어_1" xmlns="http://www.w3.org/2000/svg" xmlns:xlink="http://www.w3.org/1999/xlink" x="0px"
	 y="0px" width="450px" height="450px" viewBox="0 0 450 450" enable-background="new 0 0 450 450" xml:space="preserve">
<ellipse fill="#E0A134" cx="224.793" cy="224.793" rx="224.793" ry="224.787"/>
<g enable-background="new    ">
	<path d="M109.475,210.85v40.86H91.679v-40.86H49.538v-16.372h104.925v16.372H109.475z M150.477,178.96
		c-11.674-0.759-21.569-3.179-29.684-7.261c-8.115-4.08-14.5-9.063-19.148-14.948c-4.652,5.886-11.034,10.868-19.149,14.948
		c-8.115,4.082-18.009,6.502-29.684,7.261v-17.227c7.212-0.378,13.358-1.566,18.437-3.56c5.077-1.992,9.205-4.389,12.386-7.189
		c3.179-2.798,5.503-5.859,6.976-9.183c1.47-3.321,2.207-6.5,2.207-9.538v-5.41h17.654v5.41c0,3.038,0.734,6.217,2.207,9.538
		c1.471,3.323,3.795,6.385,6.976,9.183c3.179,2.801,7.308,5.197,12.386,7.189c5.076,1.993,11.223,3.182,18.437,3.56V178.96z"/>
	<path d="M208.562,124.575c4.649,0,8.992,0.783,13.027,2.35c4.033,1.565,7.545,3.893,10.535,6.976
		c2.99,3.086,5.361,6.883,7.119,11.39c1.755,4.509,2.634,9.705,2.634,15.589c0,5.887-0.879,11.083-2.634,15.59
		c-1.758,4.509-4.129,8.307-7.119,11.39c-2.989,3.085-6.502,5.435-10.535,7.047c-4.035,1.615-8.377,2.42-13.027,2.42
		c-4.747,0-9.16-0.805-13.24-2.42c-4.082-1.612-7.617-3.962-10.606-7.047c-2.99-3.083-5.363-6.881-7.118-11.39
		c-1.757-4.507-2.634-9.703-2.634-15.59c0-5.884,0.876-11.08,2.634-15.589c1.755-4.507,4.128-8.304,7.118-11.39
		c2.99-3.083,6.524-5.41,10.606-6.976C199.401,125.358,203.814,124.575,208.562,124.575z M183.505,251.711v-44.989h16.799v29.186
		h76.737v15.804H183.505z M208.562,180.098c2.087,0,4.058-0.449,5.909-1.353c1.851-0.9,3.488-2.182,4.912-3.844
		c1.423-1.659,2.538-3.677,3.346-6.051c0.805-2.371,1.21-5.029,1.21-7.973c0-2.847-0.405-5.456-1.21-7.83
		c-0.808-2.371-1.922-4.413-3.346-6.122c-1.424-1.708-3.061-3.012-4.912-3.915c-1.851-0.9-3.822-1.353-5.909-1.353
		c-4.462,0-8.186,1.758-11.176,5.268c-2.99,3.513-4.484,8.164-4.484,13.952c0,5.887,1.495,10.561,4.484,14.023
		C200.375,178.368,204.099,180.098,208.562,180.098z M258.818,216.118v-87.841h16.799v87.841H258.818z"/>
	<path d="M364.168,194.762c-8.541-1.328-15.686-3.701-21.426-7.118c-5.744-3.417-10.371-7.546-13.881-12.386
		c-3.324,4.84-7.809,8.969-13.455,12.386c-5.647,3.417-12.695,5.79-21.141,7.118v-17.084c5.125-0.947,9.371-2.42,12.742-4.413
		c3.367-1.993,6.001-4.39,7.9-7.189c1.898-2.799,3.227-5.859,3.986-9.184c0.759-3.32,1.139-6.784,1.139-10.393v-18.223h16.942V146.5
		c0,3.608,0.45,7.072,1.353,10.393c0.9,3.324,2.396,6.385,4.484,9.184c2.088,2.8,4.887,5.196,8.4,7.189
		c3.51,1.993,7.83,3.466,12.955,4.413V194.762z M305.939,251.711v-46.413h16.799v30.609h76.738v15.804H305.939z M381.252,216.26
		v-53.53h-24.914v-15.804h24.914v-18.649h16.801v87.983H381.252z"/>
</g>
<g enable-background="new    ">
	<path d="M100.996,328.78l1.835-6.645c3.29,1.814,6.707,2.721,10.25,2.721c2.151,0,3.944-0.421,5.378-1.265
		c1.519-1.013,2.278-2.468,2.278-4.366c0-1.729-0.759-3.228-2.278-4.492c-1.055-0.76-2.764-1.54-5.125-2.342
		c-7.635-2.784-11.453-7.002-11.453-12.655c0-4.049,1.539-7.17,4.619-9.364c2.741-1.982,6.158-2.974,10.25-2.974
		c4.007,0,7.424,0.759,10.25,2.277l-2.025,6.518c-2.489-1.434-5.315-2.151-8.479-2.151c-1.856,0-3.459,0.401-4.809,1.202
		c-1.435,0.929-2.151,2.194-2.151,3.797c0,1.604,0.886,3.017,2.657,4.239c1.054,0.718,2.848,1.561,5.378,2.531
		c3.458,1.351,6.032,2.869,7.72,4.556c2.235,2.193,3.354,4.978,3.354,8.353c0,4.429-1.688,7.804-5.062,10.123
		c-2.869,1.898-6.539,2.848-11.01,2.848C107.893,331.69,104.033,330.72,100.996,328.78z"/>
	<path d="M162.246,299.736v26.893l0.316,4.365h-6.833l-0.316-4.303c-2.32,3.333-5.631,4.999-9.934,4.999
		c-7.172,0-10.757-4.534-10.757-13.604v-18.351h7.72v16.642c0,5.78,1.898,8.669,5.695,8.669c2.826,0,4.83-1.393,6.011-4.177
		c0.295-0.59,0.443-1.392,0.443-2.404v-18.729H162.246z"/>
	<path d="M174.077,295.687c-1.308,0-2.373-0.4-3.196-1.202c-0.822-0.801-1.233-1.94-1.233-3.417c0-1.434,0.432-2.563,1.297-3.386
		c0.864-0.822,1.951-1.233,3.259-1.233c1.307,0,2.394,0.411,3.259,1.233c0.864,0.823,1.297,1.952,1.297,3.386
		c0,1.435-0.454,2.563-1.36,3.385C176.491,295.276,175.384,295.687,174.077,295.687z M178.063,330.994h-7.72v-31.258h7.72V330.994z"
		/>
	<path d="M186.099,330.994v-21.829c0-1.055-0.042-2.563-0.127-4.524c-0.085-1.962-0.126-3.596-0.126-4.904h6.707l0.38,4.303
		c2.025-3.29,5.293-4.935,9.808-4.935c3.627,0,6.391,1.328,8.289,3.986c1.813,2.362,2.721,5.483,2.721,9.364v18.539h-7.656V313.72
		c0-5.315-1.961-7.973-5.885-7.973c-1.392,0-2.647,0.433-3.765,1.297c-1.118,0.865-1.909,1.952-2.373,3.259
		c-0.212,0.718-0.316,1.519-0.316,2.404v18.286H186.099z"/>
	<path d="M241.021,330.994v-42.963h7.656v36.193h17.463v6.77H241.021z"/>
	<path d="M275.063,295.687c-1.309,0-2.373-0.4-3.196-1.202c-0.822-0.801-1.233-1.94-1.233-3.417c0-1.434,0.432-2.563,1.297-3.386
		c0.864-0.822,1.951-1.233,3.259-1.233s2.394,0.411,3.259,1.233c0.863,0.823,1.297,1.952,1.297,3.386
		c0,1.435-0.453,2.563-1.36,3.385C277.477,295.276,276.369,295.687,275.063,295.687z M279.049,330.994h-7.721v-31.258h7.721V330.994
		z"/>
	<path d="M287.084,330.994v-21.829c0-1.055-0.043-2.563-0.127-4.524c-0.086-1.962-0.127-3.596-0.127-4.904h6.707l0.38,4.303
		c2.024-3.29,5.294-4.935,9.808-4.935c3.627,0,6.391,1.328,8.289,3.986c1.813,2.362,2.721,5.483,2.721,9.364v18.539h-7.656V313.72
		c0-5.315-1.961-7.973-5.885-7.973c-1.392,0-2.647,0.433-3.765,1.297c-1.118,0.865-1.909,1.952-2.372,3.259
		c-0.213,0.718-0.316,1.519-0.316,2.404v18.286H287.084z"/>
	<path d="M348.523,317.643h-20.438c0,2.32,0.886,4.198,2.657,5.632c1.646,1.351,3.86,2.024,6.645,2.024
		c2.91,0,5.736-0.484,8.479-1.455l1.329,5.758c-3.249,1.351-6.855,2.024-10.82,2.024c-4.809,0-8.627-1.401-11.452-4.207
		c-2.827-2.806-4.24-6.676-4.24-11.611c0-4.851,1.308-8.816,3.924-11.896c2.699-3.248,6.369-4.872,11.01-4.872
		c4.217,0,7.508,1.455,9.871,4.365c2.234,2.784,3.354,6.37,3.354,10.757C348.84,315.176,348.733,316.337,348.523,317.643z
		 M328.085,311.695h13.478c0-1.813-0.506-3.354-1.519-4.618c-1.139-1.52-2.784-2.278-4.935-2.278c-2.025,0-3.65,0.718-4.873,2.151
		C329.013,308.385,328.296,309.967,328.085,311.695z"/>
</g>
</svg>
