<svg xmlns="http://www.w3.org/2000/svg" width="264.58398mm" height="264.58398mm" viewBox="0 0 264.58398 264.58398"><g style="opacity:.993"><path d="M260.725 132.292a128.434 128.434 0 0 1-128.433 128.433A128.434 128.434 0 0 1 3.858 132.292 128.434 128.434 0 0 1 132.292 3.858a128.434 128.434 0 0 1 128.433 128.434Z" style="color:#000;fill:#996192;fill-opacity:.996078;stroke-width:7.716;stroke-linecap:round;stroke-linejoin:round"/><path d="M132.291 0C59.274 0 0 59.274 0 132.291s59.274 132.293 132.291 132.293 132.293-59.276 132.293-132.293S205.308 0 132.291 0Zm0 7.717c68.847 0 124.576 55.727 124.576 124.574 0 68.847-55.73 124.576-124.576 124.576-68.847 0-124.574-55.73-124.574-124.576C7.717 63.444 63.444 7.717 132.29 7.717Z" style="color:#000;fill:#996192;fill-opacity:1;stroke-linecap:round;stroke-linejoin:round"/></g><g style="fill:#fff;fill-opacity:1"><path d="M55.584 134.595c-22.822-.13-21.168-.035-25.44-1.474-8.787-2.962-17.212-9.575-22.673-17.798C1.775 106.745-.344 98.174.204 85.92c.348-7.776 1.051-12.711 2.765-19.392 3.99-15.55 10.8-27.122 22.883-38.88C34.65 19.086 43.84 13.027 56.323 7.555c8.378-3.673 14.97-5.66 22.301-6.725C80.787.516 87.01.492 180.096.438L279.264.38l16.533 22.034c9.093 12.119 31.668 42.187 50.166 66.818l33.684 45.432-19.187-.004-18.86.004-15.381-21.209c-8.265-11.395-15.404-20.633-15.588-20.732-.723-.387-1.503-.2-2.268.542-.408.396-8.411 9.23-17.785 19.632a27020.864 27020.864 0 0 1-18.223 20.208l-1.237 1.555-20.002-.002-20.065.002 13.688-15.536c39.81-45.188 45.674-51.024 45.817-51.409.086-.23.106-.678.045-.994-.068-.355-5.413-7.704-13.892-19.104l-13.782-18.528h-22.111l-.502.864c-.548.944-10.636 17.663-51.746 88.267l-9.524 16.44-18.672-.002c-10.27.003-18.7.039-18.7-.001s4.83-8.32 10.706-18.233c15.308-25.83 41.362-69.829 46.135-77.912 3.339-5.655 4.074-7.029 4.082-7.631.011-.797-.391-1.565-.988-1.884-.262-.14-18.372-.185-59.28-.145-55.074.053-59.027.079-60.812.393-8.17 1.437-14.76 3.86-21.356 7.85-8.66 5.239-14.267 10.501-19.397 18.202-5.308 7.967-7.94 15.429-9.18 26.016-.43 3.68-.434 9.302-.008 11.328.635 3.015 1.992 5.521 4.366 8.063 1.806 1.933 3.63 3.116 6.314 4.093 4.285 1.559 2.608 1.445 22.458 1.522l17.767.068 6.575-10.857c3.616-5.973 6.624-10.987 6.684-11.145.096-.25-1.24-.292-10.902-.335L73.824 84l.007-.576c.005-.411 2.172-4.156 7.584-13.104l7.577-12.528H147.5l-.28.432c-.154.238-3.305 5.53-7.003 11.76-17.073 28.77-24.48 41.357-29.767 50.582-3.687 6.434-4.346 7.39-6.445 9.34-2.388 2.218-5.179 3.624-8.485 4.274-1.692.333-2.955.387-10.656.455-4.805.043-17.98.025-29.28-.04zm407-1.025c.054-.14 7.168-20.185 15.808-44.545l15.71-44.292 13.803.05 14.623.143L537.814 88.8c8.473 24.32 16.175 45.672 16.227 45.859 0 0-.64-.01-11.79-.005l-11.515.005-1.73-5.683c-.757-2.484-2.086-6.083-2.759-8.062l-1.223-3.599-16.543-.002-16.543-.002-.567 1.488c-.312.819-1.715 4.534-3.117 8.256l-2.78 7.604-12.175.024c-9.555.018-11.065-.029-11.065-.029zm57.16-33.652c0-.183-10.764-30.278-10.945-30.601-.13-.233-.21-.175-.385.283-.12.317-2.626 7.142-5.567 15.168a9616.53 9616.53 0 0 1-5.478 14.928c-.123.318.484.336 11.122.336 6.19 0 11.253-.051 11.253-.114zM395.52 82.464v-7.2h45.12v14.4h-45.12zM326.592 50.39c-4.805-6.268-8.728-11.508-8.709-11.572.02-.064 8.134-8.911 18.205-19.497L354.164.324l19.228.06c20.426.062 19.073-.123 18.8.192-.376.437-55.3 59.63-56.17 60.51l-.694.7z" style="fill:#fff;fill-opacity:1;stroke-width:.192" transform="matrix(.43824 0 0 .45093 10.864 101.839)"/></g></svg>