<?xml version="1.0" encoding="UTF-8" standalone="no"?>
<svg
  xmlns:dc="http://purl.org/dc/elements/1.1/"
  xmlns:cc="http://creativecommons.org/ns#"
  xmlns:rdf="http://www.w3.org/1999/02/22-rdf-syntax-ns#"
  xmlns:svg="http://www.w3.org/2000/svg"
  xmlns="http://www.w3.org/2000/svg"
  xmlns:sodipodi="http://sodipodi.sourceforge.net/DTD/sodipodi-0.dtd"
  xmlns:inkscape="http://www.inkscape.org/namespaces/inkscape"
  width="300.00006"
  height="300"
  viewBox="0 0 360.00007 360"
  version="1.0"
  id="svg2"
  sodipodi:version="0.32"
  inkscape:version="0.91 r13725"
  sodipodi:docname="Kyoto_MTB_Logo.svg"
  inkscape:output_extension="org.inkscape.output.svg.inkscape">
  <metadata
    id="metadata15">
    <rdf:RDF>
      <cc:Work
        rdf:about="">
        <dc:format>image/svg+xml</dc:format>
        <dc:type
          rdf:resource="http://purl.org/dc/dcmitype/StillImage" />
        <dc:title />
      </cc:Work>
    </rdf:RDF>
  </metadata>
  <defs
    id="defs13">
    <inkscape:perspective
      sodipodi:type="inkscape:persp3d"
      inkscape:vp_x="0 : 75 : 1"
      inkscape:vp_y="0 : 1000 : 0"
      inkscape:vp_z="150 : 75 : 1"
      inkscape:persp3d-origin="74.999999 : 50 : 1"
      id="perspective17" />
  </defs>
  <sodipodi:namedview
    inkscape:window-height="1001"
    inkscape:window-width="1920"
    inkscape:pageshadow="2"
    inkscape:pageopacity="0.0"
    guidetolerance="10.0"
    gridtolerance="10.0"
    objecttolerance="10.0"
    borderopacity="1.0"
    bordercolor="#666666"
    pagecolor="#ffffff"
    id="base"
    showgrid="false"
    inkscape:zoom="1.0889444"
    inkscape:cx="-56.496484"
    inkscape:cy="182.07165"
    inkscape:window-x="-9"
    inkscape:window-y="-9"
    inkscape:current-layer="svg2"
    showguides="true"
    inkscape:guide-bbox="true"
    inkscape:window-maximized="1"
    fit-margin-top="0"
    fit-margin-left="0"
    fit-margin-right="0"
    fit-margin-bottom="0" />
  <path
    style="color:#000000;clip-rule:nonzero;display:inline;overflow:visible;visibility:visible;opacity:1;isolation:auto;mix-blend-mode:normal;color-interpolation:sRGB;color-interpolation-filters:linearRGB;solid-color:#000000;solid-opacity:1;fill:#000000;fill-opacity:1;fill-rule:nonzero;stroke:none;stroke-width:1;stroke-linecap:butt;stroke-linejoin:miter;stroke-miterlimit:4;stroke-dasharray:none;stroke-dashoffset:0;stroke-opacity:0.6450382;color-rendering:auto;image-rendering:auto;shape-rendering:auto;text-rendering:auto;enable-background:accumulate"
    d="m 179.99997,14.837129 c -13.97422,0 -27.41617,2.274374 -39.98123,6.466073 l 0,2.295029 c 13.4339,0.578361 24.14918,11.648066 24.1492,25.224434 0,13.9464 -11.30588,25.252289 -25.25234,25.252289 -30.68568,0 -95.716108,-17.910296 -135.3154305,-35.570244 l -0.09039,0.156158 -0.468551,0.812182 -0.09039,0.156159 c 35.0936295,25.46404 83.1199495,72.826941 98.4627915,99.401551 6.97323,12.07793 2.83524,27.52181 -9.242772,34.49507 -11.75742,6.78808 -26.7019,3.0442 -33.91969,-8.30077 l -1.98763,1.14751 c 2.65245,12.97759 7.40312,25.75511 14.39022,37.85713 6.98711,12.10215 15.67838,22.60542 25.59102,31.39119 l 1.98763,-1.1475 c -6.21613,-11.92322 -1.98694,-26.73693 9.770482,-33.52511 12.07801,-6.97326 27.52188,-2.83527 34.49513,9.24279 15.34281,26.57451 32.34693,91.84783 36.85262,134.97181 l 1.11794,0 0.18083,0 c 4.50571,-43.12398 21.50981,-108.3973 36.85266,-134.97181 6.97325,-12.07806 22.41709,-16.21605 34.49509,-9.24279 11.75743,6.78818 15.98664,21.60189 9.7705,33.52511 l 1.98763,1.1475 c 9.91262,-8.78577 18.60391,-19.28916 25.59103,-31.39119 6.98712,-12.10202 11.73776,-24.87954 14.39021,-37.85713 l -1.98762,-1.14751 c -7.21781,11.34497 -22.16229,15.08885 -33.91971,8.30077 -12.07801,-6.97326 -16.21599,-22.41714 -9.24274,-34.49507 15.34284,-26.57461 63.36914,-73.937511 98.46276,-99.401551 l -0.0904,-0.156159 -0.55896,-0.96834 c -39.59933,17.659948 -104.62973,35.570244 -135.31541,35.570244 -13.94651,0 -25.25236,-11.305889 -25.25236,-25.252289 0,-13.576368 10.7153,-24.646073 24.14921,-25.224434 l 0,-2.295029 c -12.56511,-4.191699 -26.00704,-6.466073 -39.98124,-6.466073 z m -70.79699,85.386211 c 17.71926,5.24597 39.49087,8.04748 70.79699,8.04748 31.30615,0 53.07774,-2.80151 70.797,-8.04748 -13.40306,12.72229 -26.71343,30.17721 -42.36673,57.28958 -15.65257,27.11106 -24.11373,47.36596 -28.43027,65.33387 -4.31655,-17.96791 -12.77769,-38.22281 -28.43025,-65.33387 -15.65333,-27.11237 -28.96362,-44.56717 -42.36674,-57.28958 z"
    id="path8433-6"
    inkscape:connector-curvature="0" />
</svg>
