<svg id="レイヤー_1" data-name="レイヤー 1" xmlns="http://www.w3.org/2000/svg" viewBox="0 0 394 295.51">
  <defs>
    <style>.cls-1{fill:#e8373d;}.cls-2{fill:#fff;}</style>
  </defs>
  <title>JRK number</title>
  <path class="cls-1"
    d="M354.6,295.51H39.4A39.39,39.39,0,0,1,0,256.12V39.41A39.41,39.41,0,0,1,39.4,0H354.6A39.41,39.41,0,0,1,394,39.41V256.12a39.39,39.39,0,0,1-39.4,39.39" />
  <path class="cls-2"
    d="M104.51,44.46h45.42V171.77c0,57.37-27.49,77.4-71.72,77.4-10.46,0-24.21-1.8-33.17-4.79l5.08-36.75a74.94,74.94,0,0,0,23.31,3.58c19.12,0,31.08-8.66,31.08-40Z" />
  <path class="cls-2"
    d="M187.88,47.15C199.84,44.76,224,43,246.76,43c27.79,0,44.82,2.69,59.47,11.36,14,7.47,24.2,21.22,24.2,39.45,0,17.93-10.46,34.66-33.17,43v.6c23,6.27,40.05,23.61,40.05,49.61,0,18.23-8.37,32.57-20.92,42.73C301.74,241.4,277.24,248,237.19,248c-22.41,0-39.14-1.49-49.31-3ZM233,124.25H248c23.91,0,36.76-9.86,36.76-24.8,0-15.25-11.65-23.31-32.27-23.31A124.33,124.33,0,0,0,233,77.33Zm0,89.35c4.48.6,9.86.6,17.63.6,20.62,0,38.85-7.77,38.85-29,0-20.32-18.23-28.39-40.94-28.39H233Z" />
</svg>
