<svg id="レイヤー_1" data-name="レイヤー 1" xmlns="http://www.w3.org/2000/svg" viewBox="0 0 394 295.5">
  <defs>
    <style>.cls-1{fill:#f8b500;}.cls-2{fill:#231815;}</style>
  </defs>
  <title>JRK number</title>
  <path class="cls-1"
    d="M354.6,295.5H39.4A39.4,39.4,0,0,1,0,256.1V39.4A39.4,39.4,0,0,1,39.4,0H354.6A39.4,39.4,0,0,1,394,39.4V256.1a39.4,39.4,0,0,1-39.4,39.4" />
  <path class="cls-2"
    d="M105.85,44.44h45.42V171.75c0,57.37-27.49,77.4-71.72,77.4-10.46,0-24.21-1.8-33.17-4.78l5.08-36.76a74.94,74.94,0,0,0,23.31,3.58c19.12,0,31.08-8.66,31.08-40Z" />
  <path class="cls-2"
    d="M337.15,240.18c-8.37,4.19-27.19,8.67-51.7,8.67C215.82,248.85,180,205.52,180,148.14c0-68.74,49-107,110-107,23.6,0,41.53,4.78,49.6,9l-9.26,36.16A98.32,98.32,0,0,0,292,78.81c-36.16,0-64.25,21.81-64.25,66.64,0,40.34,23.9,65.74,64.55,65.74,13.74,0,29-3,37.95-6.57Z" />
</svg>
