<svg id="レイヤー_1" data-name="レイヤー 1" xmlns="http://www.w3.org/2000/svg" viewBox="0 0 394 295.49">
  <defs>
    <style>.cls-1{fill:#008cd6;}.cls-2{fill:#fff;}</style>
  </defs>
  <title>JRK number</title>
  <path class="cls-1"
    d="M354.59,295.49H39.4A39.39,39.39,0,0,1,0,256.09V39.4A39.39,39.39,0,0,1,39.4,0H354.59A39.4,39.4,0,0,1,394,39.4V256.09a39.41,39.41,0,0,1-39.41,39.4" />
  <path class="cls-2"
    d="M90.76,44.45h45.43v127.3c0,57.37-27.5,77.39-71.72,77.39-10.46,0-24.21-1.79-33.17-4.78l5.08-36.75a74.94,74.94,0,0,0,23.31,3.58c19.12,0,31.07-8.66,31.07-40Z" />
  <path class="cls-2"
    d="M174.14,47.14C190.87,44.45,212.69,43,235.7,43c38.25,0,63.05,6.88,82.47,21.52,20.92,15.54,34.07,40.34,34.07,75.9,0,38.55-14.05,65.15-33.47,81.58-21.22,17.63-53.49,26-92.93,26a393.23,393.23,0,0,1-51.7-3Zm45.72,164.35c3.88.9,10.16.9,15.84.9,41.24.3,68.13-22.41,68.13-70.52.3-41.84-24.21-63.95-63.35-63.95-10.16,0-16.74.89-20.62,1.79Z" />
</svg>
