<svg id="レイヤー_1" data-name="レイヤー 1" xmlns="http://www.w3.org/2000/svg" viewBox="0 0 394 295.5">
  <defs>
    <style>.cls-1{fill:#008cd6;}.cls-2{fill:#fff;}</style>
  </defs>
  <title>JRK number</title>
  <path class="cls-1"
    d="M354.6,295.5H39.38A39.4,39.4,0,0,1,0,256.1V39.4A39.4,39.4,0,0,1,39.38,0H354.6A39.39,39.39,0,0,1,394,39.4V256.1a39.39,39.39,0,0,1-39.4,39.4" />
  <path class="cls-2"
    d="M115,44.45h45.42V171.76c0,57.38-27.49,77.4-71.72,77.4-10.46,0-24.21-1.8-33.17-4.78l5.08-36.76a74.94,74.94,0,0,0,23.31,3.58c19.12,0,31.08-8.66,31.08-40Z" />
  <path class="cls-2"
    d="M318.2,160.7H244.09v47.82h82.78v37.35H198.36V44.45H322.68V81.81H244.09v41.83H318.2Z" />
</svg>
