<svg id="レイヤー_1" data-name="レイヤー 1" xmlns="http://www.w3.org/2000/svg" viewBox="0 0 394 295.49">
  <defs>
    <style>.cls-1{fill:#008cd6;}.cls-2{fill:#fff;}</style>
  </defs>
  <title>JRK number</title>
  <path class="cls-1"
    d="M354.61,295.49H39.39A39.4,39.4,0,0,1,0,256.09V39.4A39.4,39.4,0,0,1,39.39,0H354.61A39.39,39.39,0,0,1,394,39.4V256.09a39.39,39.39,0,0,1-39.39,39.4" />
  <path class="cls-2"
    d="M116,44.44h45.42v127.3c0,57.38-27.49,77.4-71.72,77.4-10.46,0-24.2-1.8-33.17-4.78l5.08-36.76a75,75,0,0,0,23.31,3.59c19.13,0,31.08-8.67,31.08-40.05Z" />
  <path class="cls-2" d="M199.39,44.44H322.51V81.79h-77.4v46h72.32v37.06H245.11v81H199.39Z" />
</svg>
