<svg id="レイヤー_1" data-name="レイヤー 1" xmlns="http://www.w3.org/2000/svg" viewBox="0 0 394 295.49">
  <defs>
    <style>.cls-1{fill:#1eac4b;}.cls-2{fill:#fff;}</style>
  </defs>
  <title>JRK number</title>
  <path class="cls-1"
    d="M354.6,295.49H39.4A39.41,39.41,0,0,1,0,256.09V39.41A39.41,39.41,0,0,1,39.4,0H354.6A39.41,39.41,0,0,1,394,39.41V256.09a39.41,39.41,0,0,1-39.4,39.4" />
  <path class="cls-2"
    d="M92.85,44.44h45.43v127.3c0,57.38-27.5,77.4-71.72,77.4-10.46,0-24.21-1.79-33.17-4.78l5.08-36.76a74.92,74.92,0,0,0,23.31,3.59c19.12,0,31.07-8.67,31.07-40Z" />
  <path class="cls-2"
    d="M344.47,236.59c-14.05,4.78-40.64,11.35-67.24,11.35-36.75,0-63.35-9.26-81.88-27.19-18.52-17.33-28.68-43.63-28.38-73.21.29-66.94,49-105.19,115-105.19,26,0,46,5.08,55.88,9.86l-9.56,36.46C317.28,83.89,303.53,80,281.42,80c-38,0-66.64,21.52-66.64,65.15,0,41.53,26,66,63.35,66,10.46,0,18.83-1.2,22.41-3V166.07H269.46V130.51h75Z" />
</svg>
