<svg id="レイヤー_1" data-name="レイヤー 1" xmlns="http://www.w3.org/2000/svg" viewBox="0 0 394 295.5"><defs><style>.cls-1{fill:#f8b500;}.cls-2{fill:#231815;}</style></defs><title>JRK number</title><path class="cls-1" d="M354.6,295.5H39.4A39.41,39.41,0,0,1,0,256.09V39.4A39.4,39.4,0,0,1,39.4,0H354.6A39.4,39.4,0,0,1,394,39.4V256.09a39.41,39.41,0,0,1-39.4,39.41"/><path class="cls-2" d="M91.81,44.45h45.42V171.76c0,57.38-27.49,77.4-71.72,77.4-10.46,0-24.21-1.8-33.17-4.78l5.08-36.76a75,75,0,0,0,23.31,3.58c19.13,0,31.08-8.66,31.08-40Z"/><path class="cls-2" d="M220.91,44.45v77.4h75V44.45h45.42V245.87H295.92V161.6h-75v84.27H175.19V44.45Z"/></svg>