<svg id="レイヤー_1" data-name="レイヤー 1" xmlns="http://www.w3.org/2000/svg" viewBox="0 0 394 295.5">
  <defs>
    <style>.cls-1{fill:#bc6e1b;}.cls-2{fill:#fff;}</style>
  </defs>
  <title>JRK number</title>
  <path class="cls-1"
    d="M354.59,295.5H39.38A39.38,39.38,0,0,1,0,256.11V39.41A39.4,39.4,0,0,1,39.38,0H354.59A39.42,39.42,0,0,1,394,39.41v216.7a39.4,39.4,0,0,1-39.41,39.39" />
  <path class="cls-2"
    d="M137.23,44.46h45.42v127.3c0,57.38-27.49,77.4-71.72,77.4-10.46,0-24.21-1.79-33.17-4.78l5.08-36.76a74.92,74.92,0,0,0,23.31,3.59c19.12,0,31.08-8.67,31.08-40.05Z" />
  <path class="cls-2" d="M295.9,44.46V245.87H250.18V44.46Z" />
</svg>
