<svg id="レイヤー_1" data-name="レイヤー 1" xmlns="http://www.w3.org/2000/svg" viewBox="0 0 394 295.49">
  <defs>
    <style>.cls-1{fill:#92308d;}.cls-2{fill:#fff;}</style>
  </defs>
  <title>JRK number</title>
  <path class="cls-1"
    d="M354.59,295.49H39.38A39.39,39.39,0,0,1,0,256.09V39.4A39.38,39.38,0,0,1,39.38,0H354.59A39.4,39.4,0,0,1,394,39.4V256.09a39.41,39.41,0,0,1-39.41,39.4" />
  <path class="cls-2"
    d="M118.42,44.46h45.42v127.3c0,57.37-27.49,77.39-71.72,77.39-10.46,0-24.2-1.79-33.17-4.78L64,207.62a75,75,0,0,0,23.31,3.58c19.13,0,31.08-8.66,31.08-40Z" />
  <path class="cls-2"
    d="M270.82,44.46h45.42v127.3c0,57.37-27.49,77.39-71.72,77.39-10.45,0-24.2-1.79-33.17-4.78l5.08-36.75a75,75,0,0,0,23.31,3.58c19.13,0,31.08-8.66,31.08-40Z" />
</svg>
