<svg id="レイヤー_1" data-name="レイヤー 1" xmlns="http://www.w3.org/2000/svg" viewBox="0 0 394 295.49">
  <defs>
    <style>.cls-1{fill:#92308d;}.cls-2{fill:#fff;}</style>
  </defs>
  <title>JRK number</title>
  <path class="cls-1"
    d="M354.6,295.49H39.4A39.41,39.41,0,0,1,0,256.09V39.4A39.4,39.4,0,0,1,39.4,0H354.6A39.39,39.39,0,0,1,394,39.4V256.09a39.39,39.39,0,0,1-39.4,39.4" />
  <path class="cls-2"
    d="M103,44.44h45.42v127.3c0,57.38-27.49,77.4-71.72,77.4-10.46,0-24.2-1.79-33.17-4.78l5.08-36.76a75,75,0,0,0,23.31,3.59c19.12,0,31.08-8.67,31.08-40Z" />
  <path class="cls-2"
    d="M186.39,44.44h45.13v89.05h.89c4.48-7.77,9.27-14.94,13.75-22.11l45.72-66.94h55.88l-66.64,85.77,70.23,115.64h-53.2l-49.3-87-17.33,21.22v65.74H186.39Z" />
</svg>
