<?xml version="1.0" encoding="UTF-8"?>
<svg width="550" height="550" version="1.1" viewBox="0 0 550 550" xmlns="http://www.w3.org/2000/svg">
  <title>Kobe Municipal Subway logo</title>
  <path transform="translate(0 -502)"
    d="m140 542-97.6 169 0.156 0.0899a201 201 0 0 0-27 100 201 201 0 0 0 201 201 201 201 0 0 0 174-100l0.16 0.09 150-260h-200l-100 173-0.0215-0.0117a27.5 27.5 0 0 1-23.8 13.8 27.5 27.5 0 0 1-27.5-27.5 27.5 27.5 0 0 1 3.71-13.7l-0.0215-0.0137 148-256h-200z"
    fill="#00a89c" />
</svg>
