<?xml version="1.0" encoding="UTF-8"?>
<svg id="svg8" xmlns="http://www.w3.org/2000/svg" xmlns:svg="http://www.w3.org/2000/svg"
  xmlns:sodipodi="http://sodipodi.sourceforge.net/DTD/sodipodi-0.dtd"
  xmlns:rdf="http://www.w3.org/1999/02/22-rdf-syntax-ns#"
  xmlns:inkscape="http://www.inkscape.org/namespaces/inkscape"
  xmlns:dc="http://purl.org/dc/elements/1.1/" xmlns:cc="http://creativecommons.org/ns#"
  version="1.1" viewBox="0 0 126.3 117">
  <!-- Generator: Adobe Illustrator 29.1.0, SVG Export Plug-In . SVG Version: 2.1.0 Build 142)  -->
  <defs>
    <style>
      .st0 {
      fill: #172a88;
      }
    </style>
  </defs>
  <sodipodi:namedview id="base" bordercolor="#666666" borderopacity="1.0" fit-margin-bottom="0"
    fit-margin-left="0" fit-margin-right="0" fit-margin-top="0" inkscape:current-layer="layer1"
    inkscape:cx="327.071" inkscape:cy="-87.740923" inkscape:document-units="mm"
    inkscape:pageopacity="0.0" inkscape:pageshadow="2" inkscape:window-height="1017"
    inkscape:window-maximized="1" inkscape:window-width="1920" inkscape:window-x="-8"
    inkscape:window-y="-8" inkscape:zoom="0.35" showgrid="false" />
  <g id="g3920">
    <g id="g4012">
      <path id="path4014" class="st0"
        d="M29.4,55.2l1.7-4.6c4.5-12.9,13.2-25.7,32-25.7h47l-4.2,11.5h-37.2c-7.7,0-11.8,4.2-15.5,11.8h72.1C120,20.8,94.2,0,63.1,0S0,26.2,0,58.5s0,2.1,0,3.2h96.7s-1.7,4.6-1.7,4.6c-4.5,12.9-13.2,25.7-32,25.7H16.1l4.2-11.5h37.2c7.7,0,11.8-4.2,15.5-11.8H1c5.2,27.5,31.1,48.3,62.2,48.3s63.1-26.2,63.1-58.5,0-2.2-.1-3.3H29.4Z"
        inkscape:connector-curvature="0" />
    </g>
  </g>
</svg>
