<?xml version="1.0" encoding="UTF-8"?>
<svg xmlns="http://www.w3.org/2000/svg" version="1.1" viewBox="0 0 512 512">
  <defs>
    <style>
      .cls-1 {
        fill: #e75183;
      }

      .cls-2 {
        fill: #fff;
      }
    </style>
  </defs>
  <!-- Generator: Adobe Illustrator 28.7.1, SVG Export Plug-In . SVG Version: 1.2.0 Build 142)  -->
  <g>
    <g id="_レイヤー_1" data-name="レイヤー_1">
      <rect class="cls-1" width="512" height="512"/>
      <path class="cls-2" d="M171.66,337.45c31.92,24.02,64.83,24.68,76.68,24.68,29.29,0,53.64-18.1,53.64-50.02s-30.28-46.4-65.49-57.59c-45.09-14.48-64.5-40.15-64.5-73.39,0-38.18,29.29-69.44,85.24-69.44,23.04,0,47.06,4.94,61.21,10.53l.33,41.8c-21.06-12.51-41.14-17.44-62.2-17.44-30.28,0-44.76,15.8-44.76,34.23s9.87,30.28,37.19,39.49c5.59,1.97,19.75,6.91,21.39,7.24,41.47,14.48,73.39,38.18,73.39,84.58,0,49.04-38.5,84.91-98.4,84.91-26.33,0-52.33-3.95-73.72-15.8v-43.77Z"/>
    </g>
  </g>
</svg>