<svg xmlns="http://www.w3.org/2000/svg" viewBox="0 0 100 100" preserveAspectRatio="xMidYMid" width="200" height="200" style="shape-rendering: auto; display: block; background: rgb(255, 255, 255);" xmlns:xlink="http://www.w3.org/1999/xlink"><g><g transform="translate(50 50)">
<g>
<animateTransform repeatCount="indefinite" dur="0.29940119760479045s" keyTimes="0;1" values="0;45" type="rotate" attributeName="transform"></animateTransform><path fill="#252525" d="M23.84848003542364 -7.5 L31.84848003542364 -7.5 L31.84848003542364 7.5 L23.84848003542364 7.5 A25 25 0 0 1 22.166722812939156 11.560121095140945 L22.166722812939156 11.560121095140945 L27.823577062431536 17.216975344633326 L17.216975344633326 27.823577062431536 L11.560121095140945 22.166722812939156 A25 25 0 0 1 7.500000000000003 23.84848003542364 L7.500000000000003 23.84848003542364 L7.5000000000000036 31.84848003542364 L-7.499999999999999 31.84848003542364 L-7.5 23.84848003542364 A25 25 0 0 1 -11.560121095140943 22.16672281293916 L-11.560121095140943 22.16672281293916 L-17.216975344633322 27.82357706243154 L-27.823577062431536 17.216975344633326 L-22.166722812939156 11.560121095140946 A25 25 0 0 1 -23.848480035423638 7.500000000000005 L-23.848480035423638 7.500000000000005 L-31.848480035423638 7.500000000000006 L-31.84848003542364 -7.499999999999997 L-23.84848003542364 -7.499999999999998 A25 25 0 0 1 -22.16672281293916 -11.560121095140941 L-22.16672281293916 -11.560121095140941 L-27.82357706243154 -17.21697534463332 L-17.21697534463333 -27.823577062431536 L-11.560121095140948 -22.166722812939156 A25 25 0 0 1 -7.500000000000007 -23.848480035423638 L-7.500000000000007 -23.848480035423638 L-7.500000000000009 -31.848480035423638 L7.499999999999996 -31.84848003542364 L7.499999999999997 -23.84848003542364 A25 25 0 0 1 11.56012109514094 -22.16672281293916 L11.56012109514094 -22.16672281293916 L17.21697534463332 -27.82357706243154 L27.823577062431536 -17.21697534463333 L22.166722812939156 -11.560121095140948 A25 25 0 0 1 23.848480035423638 -7.500000000000008 M0 -15A15 15 0 1 0 0 15 A15 15 0 1 0 0 -15"></path></g></g><g></g></g><!-- [ldio] generated by https://loading.io --></svg>