<?xml version="1.0" encoding="utf-8"?>
<!-- Generator: Adobe Illustrator 15.0.0, SVG Export Plug-In . SVG Version: 6.00 Build 0)  -->
<svg version="1.1" id="Laag_1" xmlns="http://www.w3.org/2000/svg"
  xmlns:xlink="http://www.w3.org/1999/xlink" x="0px" y="0px"
  width="612.905px" height="612.896px" viewBox="0 0 612.905 612.896"
  enable-background="new 0 0 612.905 612.896"
  xml:space="preserve">
<path fill="#FFFFFF" d="M100.239,598.396c-47.276,0-85.739-38.462-85.739-85.738V100.239c0-47.277,38.462-85.739,85.739-85.739
	h412.417c47.276,0,85.739,38.462,85.739,85.739v412.418c0,47.276-38.463,85.738-85.739,85.738H100.239z"/>
<path d="M512.656,29c18.916,0,36.774,7.441,50.286,20.953s20.953,31.37,20.953,50.286v412.418c0,18.916-7.441,36.773-20.953,50.285
	s-31.37,20.953-50.286,20.953H100.239c-18.916,0-36.774-7.441-50.286-20.953C36.441,549.432,29,531.573,29,512.657V100.239
	c0-18.916,7.441-36.774,20.953-50.286C63.464,36.441,81.323,29,100.239,29H512.656 M512.656,0H100.239C45.112,0,0,45.112,0,100.239
	v412.418c0,55.127,45.112,100.238,100.239,100.238h412.417c55.127,0,100.239-45.111,100.239-100.238V100.239
	C612.896,45.112,567.783,0,512.656,0L512.656,0z"/>
<polygon points="236.238,149.3 236.238,279.3 127.572,279.3 127.572,149.3 77.572,149.3 77.572,471.967 127.572,471.967
	127.572,325.967 236.238,325.967 236.238,471.967 286.238,471.967 286.238,149.3 "/>
<polygon points="483.572,471.967 542.238,471.967 542.238,149.3 492.238,149.3 492.238,375.3 393.572,149.3 334.905,149.3
	334.905,471.967 385.572,471.967 385.572,245.3 "/>
</svg>
