<?xml version="1.0" encoding="utf-8"?>
<!-- Generator: Adobe Illustrator 19.0.0, SVG Export Plug-In . SVG Version: 6.00 Build 0)  -->
<svg version="1.1" id="レイヤー_1" xmlns="http://www.w3.org/2000/svg"
  xmlns:xlink="http://www.w3.org/1999/xlink" x="0px"
  y="0px" viewBox="-282 84.70001 393.29999 393.29999"
  style="enable-background:new -282 84.70001 393.29999 393.29999;"
  xml:space="preserve">
<style type="text/css">
	.st0{fill:#09C0B0;}
	.st1{fill:#FFFFFF;}
</style>
<title>JRW_hiro</title>
<rect x="-282" y="84.70001" class="st0" width="393.29999" height="393.29999"/>
<path class="st1" d="M-140.21001,292.07001h70.91c15.33,0,28,4,36.3,11.31c7.32999,6.66,10.66,15.64999,10.66,29
	c0,27-16.64999,41.62-46.29001,41.62h-71.58V292.07001z M-140.21001,255.07001v-71.23h68.92c13.32001,0,24.64,3.67,32,10.33
	c5.33,5,8.66,14,8.66,24.64c0,22.64-15,36.28999-40.29001,36.28999L-140.21001,255.07001z M-62.63,411.59003
	c55.26999,0,86.25-26.32001,86.25-72.94c0-21.64999-7-38.29001-20.66-50.95001c-9-8.31-16.63998-11.64996-33.62-15.31
	c13-4,19-7,26.31-14c12.64001-11.66998,18.63998-26.64998,18.63998-46.99998c0-41.62-29-64.94-80.59-64.94H-144.88
	c-22.64999,0-28,0-42-0.64c1.77397,13.59473,2.66583,27.29004,2.67,41v180.88998c0,21.31-0.67,31-3,45
	c13.65001-0.67001,23.31999-1,42.63-1L-62.63,411.59003z"/>
</svg>
