<svg id="レイヤー_1" data-name="レイヤー 1" xmlns="http://www.w3.org/2000/svg" viewBox="0 0 393.3 393.34"><defs><style>.cls-1{fill:#ba7c32;}.cls-2{fill:#fff;}</style></defs><title>JRW_san</title><rect class="cls-1" width="393.3" height="393.34"/><path class="cls-2" d="M111.33,60.94H189c62.36,0,100.78,21.21,100.78,69.82,0,32.53-20.42,55.29-58.42,63.14v.78C271,199.37,296,223.31,296,259.78c0,56.07-51.35,74.89-105.08,74.89H111.33Zm45.49,116.48h17.65c38,0,68.65-5.11,68.65-40.37,0-31.79-26.67-39.63-62-39.63H156.82Zm0,121.17h23.55c46.27,0,68.61-12.92,68.61-43.15,0-30.57-23.51-43.5-74.51-43.5H156.82Z"/></svg>