<svg id="レイヤー_1" data-name="レイヤー 1" xmlns="http://www.w3.org/2000/svg" viewBox="0 0 393.3 393.29">
  <defs>
    <style>.cls-1{fill:#60ad3b;}.cls-2{fill:#fff;fill-rule:evenodd;}</style>
  </defs>
  <title>JRW_hiro</title>
  <rect class="cls-1" width="393.3" height="393.29" />
  <path class="cls-2"
    d="M306,223.65c0-18.65.66-28.93,2.32-41.27-14.29,1-24,1.33-39.3,1.33H251.71c-20.6,0-27.94-.35-39.93-2v43c10-1.68,17-2,34-2h18V277c-17,10.63-34,15-56.65,15-26.3,0-44.28-7-57.94-23-15-17.62-22.65-43.62-22.65-77.92,0-34,8-58.58,24.65-75.93,12.64-13,31-20.3,50.61-20.3,34.31,0,50.31,10.67,61.28,41l45.62-12.33c-7-18.67-13-28.3-24.64-39.65-18.66-18.32-46.28-28.63-76.61-28.63-30.61,0-53.24,6-73.91,19.64C98.89,98.1,80.26,138.74,80.26,191.71c0,41.26,11,77.23,31.3,101.22,20.95,25.31,52.94,38.29,94.57,38.29a197.61,197.61,0,0,0,49-6.34c17.64-4.67,29.63-10,53.26-23-2-14.64-2.32-23.67-2.32-43.3Z" />
</svg>
