<?xml version="1.0" encoding="utf-8"?>
<!-- Generator: Adobe Illustrator 19.0.0, SVG Export Plug-In . SVG Version: 6.00 Build 0)  -->
<svg version="1.1" id="レイヤー_1" xmlns="http://www.w3.org/2000/svg"
  xmlns:xlink="http://www.w3.org/1999/xlink" x="0px"
  y="0px" viewBox="-282 84.73 393.3 393.27" style="enable-background:new -282 84.73 393.3 393.27;"
  xml:space="preserve">
<style type="text/css">
	.st0{fill:#8F76D6;}
	.st1{fill:#FFFFFF;}
</style>
<title>JRW_hiro</title>
<rect x="-282" y="84.73" class="st0" width="393.3" height="393.27"/>
<path class="st1" d="M-133.32,274.44v-89.58h63.58c17.66,0,28.64,3.66,36.3,12c7.36,7.67,11,18.67,11,32
	c0,29.3-16.63,45.63-47.28,45.63L-133.32,274.44z M-130.68,411.62c-2-12.64-2.64-25.31-2.64-43.29v-55.6h63.58
	c32,0,54.64-7.65,70.95-24c14.65-15.33,22.28-36,22.28-61.28c0-24-7-44-20.63-57.27c-16-16-38.62-23.64-70.9-23.64h-69.63
	c-17.65,0-28-0.35-42.25-1c1.89,14.23,2.77,28.58,2.64,42.93v180.2c0,18-0.67,29.63-2.64,42.95H-130.68z"/>
</svg>
