<svg id="レイヤー_1" data-name="レイヤー 1" xmlns="http://www.w3.org/2000/svg" viewBox="0 0 393.3 393.3">
  <defs>
    <style>.cls-1{fill:#cb342e;}.cls-2{fill:#fff;fill-rule:evenodd;}</style>
  </defs>
  <title>JRW_hiro</title>
  <rect class="cls-1" width="393.3" height="393.3" />
  <path class="cls-2"
    d="M138.69,177.41V99.81h68.25c27.3,0,40.95,12.32,40.95,36.29,0,12.65-3.65,22.32-10.65,29.31-7.65,7.64-19.31,12-31.63,12ZM315.83,326.9c-4.67-9-13-27-15.64-32.94-33-77.94-39.3-87.27-60.28-93.94,19-5.31,27.63-9.64,37-19.29,11.31-11.65,17-28.3,17-49.65,0-43.93-29-69.22-79.59-69.22H134.35c-18.32,0-28.63-.36-42.62-1a296.79,296.79,0,0,1,2.66,43.32V283.58c0,20.35-.66,29.34-2.66,43.32h49.61c-2-13-2.65-23.63-2.65-43.59v-68H188.3c25.63,0,37.3,12.33,55.28,58.29,11,28.29,16.65,45.31,17.31,53.28Z" />
</svg>
