<svg id="レイヤー_1" data-name="レイヤー 1" xmlns="http://www.w3.org/2000/svg" viewBox="0 0 400 399.98">
  <defs>
    <style>.cls-1{fill:#c1d612;}.cls-2{fill:#231815;}</style>
  </defs>
  <rect class="cls-1" width="400" height="399.98" />
  <path class="cls-2"
    d="M266.47,105.71c-20.86-8.82-38.11-12-54.57-12-29.67,0-49.33,14.44-49.33,35.3,0,18.06,8.82,30.09,51.73,47.34,50.16,19.66,71.42,43.74,71.42,83,0,51.35-39.72,85.46-100.3,85.46-25.26,0-48.13-3.61-69.8-12l4.82-43.33c23.25,11.64,43.32,15.66,61.79,15.66,32.07,0,54.14-14.85,54.14-39.73,0-22.87-11.63-34.9-54.14-52.15-50.95-20.87-69.42-42.52-69.42-79.44,0-47.33,38.11-78.62,95.08-78.62,22.47,0,42.54,2.8,63.39,10.42Z" />
</svg>
