<svg xmlns="http://www.w3.org/2000/svg" viewBox="0 0 393 392.99">
  <defs>
    <style>.cls-1{fill:#f5a200;}.cls-2{fill:#231815;}</style>
  </defs>
  <rect class="cls-1" width="393" height="392.99" />
  <path class="cls-2"
    d="M205.55,159.82c-2.85-12.21-7.46-35.08-9.58-49.26h-.7c-1.8,14.18-5.7,36.26-8.53,49.26l-38,174.24H94.08L22.42,58.93H72l37.67,157.29c2.13,9.05,9.59,46.51,12.06,63.85h.72c2.83-17.34,10.29-54.8,12.06-63.85L168,58.93h58.53l34.83,157.29c2.14,9.45,9.23,46.51,11.72,63.85h.7c2.84-17.34,9.95-53.6,12.43-63.85L323.49,58.93h47.09L298.92,334.06H245Z" />
</svg>
