<?xml version="1.0" encoding="UTF-8"?>
<svg id="_レイヤー_1" data-name="レイヤー_1" xmlns="http://www.w3.org/2000/svg" xmlns:serif="http://www.serif.com/" version="1.1" viewBox="0 0 188.4 98.8">
  <!-- Generator: Adobe Illustrator 29.1.0, SVG Export Plug-In . SVG Version: 2.1.0 Build 142)  -->
  <defs>
    <style>
      .st0 {
        fill: #4bb748;
      }

      .st1 {
        fill: #0079a9;
      }
    </style>
  </defs>
  <path class="st0" d="M0,59.3l9.6-12.2c3.7-4.8,9.3-7.5,15.1-7.5h6.3c5.8,0,11.4-2.7,15.1-7.5l19.3-24.5c3.7-4.8,9.3-7.5,15.1-7.5h64.9l-9.6,12.2c-3.7,4.8-9.3,7.5-15.1,7.5h-6.3c-5.8,0-11.4,2.7-15.1,7.5l-19.3,24.5c-3.7,4.8-9.3,7.5-15.1,7.5H0Z"/>
  <path class="st1" d="M42.9,98.8l9.6-12.2c3.7-4.8,9.3-7.5,15.1-7.5h6.3c5.8,0,11.4-2.7,15.1-7.5l19.3-24.5c3.7-4.8,9.3-7.5,15.1-7.5h64.9l-9.6,12.2c-3.7,4.8-9.3,7.5-15.1,7.5h-6.3c-5.8,0-11.4,2.7-15.1,7.5l-19.3,24.5c-3.7,4.8-9.3,7.5-15.1,7.5H42.9Z"/>
</svg>