<?xml version="1.0" encoding="utf-8"?>
<!-- Generator: Adobe Illustrator 15.0.0, SVG Export Plug-In . SVG Version: 6.00 Build 0)  -->
<svg version="1.1" id="Laag_1" xmlns="http://www.w3.org/2000/svg"
  xmlns:xlink="http://www.w3.org/1999/xlink" x="0px" y="0px"
  width="475.22px" height="288.203px" viewBox="-295.58 -122.039 475.22 288.203"
  enable-background="new -295.58 -122.039 475.22 288.203" xml:space="preserve">
<g transform="translate(-166.34,836.32)">
	<path fill="#E6262C" d="M279.496-935.263c-19.279,14.131-37.8,34.409-55.322,60.562c0.307-4.332,0.465-8.466,0.465-12.367
		c0-44.129-17.76-59.354-31.857-64.503c-33.933-12.322-81.078,20.42-120.896,78.254c0.204-3.544,0.284-6.992,0.284-10.326
		c0-35.486-10.967-59.354-32.64-67.877c-22.331-8.761-50.899,1.985-80.431,30.224c-29.782,28.512-58.917,72.771-84.163,128.053
		c-2.949,6.453-0.091,14.097,6.351,17.046c6.487,2.948,14.097,0.113,17.068-6.352C-49.658-896.335,7.728-936.335,30.127-927.551
		c18.418,7.207,25.767,52.736-1.61,135.611c-2.2,6.578,1.236,13.7,7.746,16.116c6.499,2.404,13.746-0.806,16.365-7.225
		c19.223-47.031,45.331-88.098,73.502-115.566c22.592-22.042,45.285-33.343,57.874-28.755c17.602,6.391,23.272,50.814-3.788,135.555
		c-2.098,6.521,1.316,13.542,7.712,15.969c6.431,2.404,13.598-0.669,16.332-6.952C267.565-928.822,329.08-929.91,329.67-929.91
		h-0.283c7.043,0.267,13.109-5.166,13.473-12.231c0.352-7.071-4.956-13.088-12.01-13.468
		C328.603-955.751,308.201-956.25,279.496-935.263"/>
</g>
<g transform="translate(-182.77,819.68)">
	<path fill="#E6262C" d="M105.123-725.376c-0.374,0.454-38.39,45.751-94.222,43.006c-15.481-0.771-27.4-6.94-35.396-18.372
		c-6.408-9.164-8.052-18.464-8.086-18.555c-1.18-6.986-7.757-11.749-14.744-10.593c-6.998,1.135-11.727,7.667-10.661,14.653
		c3.028,19.257,21.049,56.274,67.616,58.565c69.045,3.402,113.548-50.15,115.408-52.419c4.491-5.512,3.663-13.587-1.814-18.078
		C117.723-731.682,109.614-730.866,105.123-725.376"/>
</g>
<g transform="translate(-190.08,826.52)">
	<path fill="#E6262C" d="M27.533-811.655c10.15-29.125,6.884-53.468-7.338-54.375c-14.176-0.924-33.91,21.939-44.038,51.092
		c-10.15,29.102-6.873,53.462,7.315,54.357C-2.317-759.662,17.417-782.525,27.533-811.655"/>
</g>
<g transform="translate(-191.64,826.62)">
	<path fill="#FFFFFF" d="M10.981-812.917c2.96-8.473,1.996-15.583-2.144-15.85C4.71-829.045-1.052-822.342-4-813.864
		c-2.949,8.477-1.996,15.582,2.155,15.849C2.271-797.737,8.044-804.411,10.981-812.917"/>
</g>
<g transform="translate(-176.87,826.52)">
	<path fill="#E6262C" d="M167.746-811.655c10.139-29.125,6.85-53.468-7.349-54.375c-14.188-0.924-33.91,21.939-44.072,51.092
		c-10.15,29.102-6.85,53.462,7.349,54.357C137.874-759.662,157.585-782.525,167.746-811.655"/>
</g>
<g transform="translate(-178.44,826.62)">
	<path fill="#FFFFFF" d="M151.079-812.917c2.949-8.473,2.007-15.583-2.132-15.85c-4.128-0.278-9.901,6.425-12.861,14.903
		c-2.948,8.477-1.973,15.582,2.155,15.849C142.369-797.737,148.119-804.411,151.079-812.917"/>
</g>
<g transform="translate(-200.17,822.52)">
	<path fill="#E6262C" d="M-79.554-761.196c-1.769,0-3.595-0.408-5.342-1.191c-6.441-2.937-9.3-10.581-6.351-17.045
		c50.854-111.28,118.538-176.361,164.594-158.255c23.692,9.3,34.602,36.961,32.356,78.158
		c39.819-57.857,87.009-90.525,120.896-78.231c15.345,5.574,34.954,23.113,31.438,76.706
		c53.949-80.721,100.267-81.083,106.629-80.744c7.088,0.38,12.498,6.493,12.123,13.587c-0.43,7.094-6.623,12.498-13.598,12.112
		c-0.295,0-61.809,1.094-125.127,147.123c-2.722,6.283-9.935,9.345-16.32,6.94c-6.419-2.427-9.81-9.436-7.734-15.968
		c27.083-84.741,21.423-129.153,3.811-135.55c-22.07-7.995-86.51,34.534-131.376,144.328c-2.631,6.419-9.867,9.617-16.365,7.213
		c-6.51-2.404-9.946-9.527-7.757-16.104c27.389-82.887,20.04-128.416,1.622-135.624c-22.398-8.806-79.785,31.217-131.784,145.014
		C-70.005-764.008-74.666-761.196-79.554-761.196"/>
</g>
<g transform="translate(-190.08,826.52)">
	<path fill="#E6262C" d="M27.533-811.655c10.15-29.125,6.884-53.468-7.338-54.375c-14.176-0.924-33.91,21.939-44.038,51.092
		c-10.15,29.102-6.873,53.462,7.315,54.357C-2.317-759.662,17.417-782.525,27.533-811.655"/>
</g>
<g transform="translate(-191.64,826.62)">
	<path fill="#FFFFFF" d="M10.981-812.917c2.96-8.473,1.996-15.583-2.144-15.85C4.71-829.045-1.052-822.342-4-813.864
		c-2.949,8.477-1.996,15.582,2.155,15.849C2.271-797.737,8.044-804.411,10.981-812.917"/>
</g>
<g transform="translate(-176.87,826.52)">
	<path fill="#E6262C" d="M167.746-811.655c10.139-29.125,6.85-53.468-7.349-54.375c-14.188-0.924-33.91,21.939-44.072,51.092
		c-10.15,29.102-6.85,53.462,7.349,54.357C137.874-759.662,157.585-782.525,167.746-811.655"/>
</g>
<g transform="translate(-178.44,826.62)">
	<path fill="#FFFFFF" d="M151.079-812.917c2.949-8.473,2.007-15.583-2.132-15.85c-4.128-0.278-9.901,6.425-12.861,14.903
		c-2.948,8.477-1.973,15.582,2.155,15.849C142.369-797.737,148.119-804.411,151.079-812.917"/>
</g>
</svg>
