<?xml version="1.0" encoding="UTF-8" standalone="no"?>
<!-- Created with Inkscape (http://www.inkscape.org/) -->

<svg
   xmlns:dc="http://purl.org/dc/elements/1.1/"
   xmlns:cc="http://creativecommons.org/ns#"
   xmlns:rdf="http://www.w3.org/1999/02/22-rdf-syntax-ns#"
   xmlns:svg="http://www.w3.org/2000/svg"
   xmlns="http://www.w3.org/2000/svg"
   xmlns:sodipodi="http://sodipodi.sourceforge.net/DTD/sodipodi-0.dtd"
   xmlns:inkscape="http://www.inkscape.org/namespaces/inkscape"
   width="86.006828mm"
   height="84.666664mm"
   viewBox="0 0 304.7486 299.99999"
   id="svg4328"
   version="1.1"
   inkscape:version="0.91 r13725"
   sodipodi:docname="Hitachinaka Logo.svg">
  <defs
     id="defs4330" />
  <sodipodi:namedview
     id="base"
     pagecolor="#ffffff"
     bordercolor="#666666"
     borderopacity="1.0"
     inkscape:pageopacity="0.0"
     inkscape:pageshadow="2"
     inkscape:zoom="0.98994949"
     inkscape:cx="218.14009"
     inkscape:cy="137.50709"
     inkscape:document-units="px"
     inkscape:current-layer="layer1"
     showgrid="false"
     fit-margin-top="0"
     fit-margin-left="0"
     fit-margin-right="0"
     fit-margin-bottom="0"
     inkscape:window-width="1092"
     inkscape:window-height="596"
     inkscape:window-x="766"
     inkscape:window-y="161"
     inkscape:window-maximized="0" />
  <metadata
     id="metadata4333">
    <rdf:RDF>
      <cc:Work
         rdf:about="">
        <dc:format>image/svg+xml</dc:format>
        <dc:type
           rdf:resource="http://purl.org/dc/dcmitype/StillImage" />
        <dc:title></dc:title>
      </cc:Work>
    </rdf:RDF>
  </metadata>
  <g
     inkscape:label="レイヤー 1"
     inkscape:groupmode="layer"
     id="layer1"
     transform="translate(-164.76856,-268.07649)">
    <g
       transform="translate(534.73606,439.28276)"
       style="display:inline"
       id="g4320">
      <path
         sodipodi:nodetypes="ccccccccccccccccccccccccccccccccccccccccccccc"
         inkscape:connector-curvature="0"
         id="path4141"
         d="m -217.59553,-171.20627 c -6.20172,0.063 -12.39356,0.51059 -18.53987,1.34017 l 18.53987,99.998399 18.55379,-100.049409 c -6.15197,-0.81309 -12.34848,-1.24364 -18.55379,-1.28916 z m -24.09997,2.01722 c -12.25066,2.03494 -24.20119,5.58333 -35.57727,10.56374 l 44.6107,90.923221 z m 48.19532,0.11129 -9.0288,101.375671 44.66171,-91.025241 c -11.40348,-4.91161 -23.37267,-8.38835 -35.63291,-10.35043 z m -88.88752,12.73863 c -11.19329,5.37117 -21.67645,12.11123 -31.20894,20.06554 l 67.08763,74.896761 z m 129.5658,0.0464 -35.86014,94.915931 67.16647,-74.975591 c -9.56966,-7.91726 -20.08559,-14.6153 -31.30633,-19.94034 z m 35.44742,23.70581 -59.80245,81.180289 84.138933,-53.171079 c -6.921676,-10.30763 -15.096363,-19.716 -24.336483,-28.00921 z m -200.43281,0.009 c -9.25272,8.28062 -17.44143,17.6781 -24.37822,27.97676 l 84.17603,53.194255 z m 227.797439,32.706801 -78.935899,61.267777 94.299224,-27.494417 c -3.703657,-11.850219 -8.864226,-23.194773 -15.363325,-33.77336 z m -255.106429,0.04174 c -6.5612,10.545618 -11.78723,21.865315 -15.55809,33.699164 l 94.43371,27.526878 z m 272.180929,39.059868 -91.725539,36.768989 96.9703,5.9e-5 c -0.218197,-12.426298 -1.979993,-24.777304 -5.244761,-36.769048 z m -289.185859,0.04637 c -3.29035,11.971478 -5.08168,24.305157 -5.33288,36.718038 l 96.92394,0.0045 z"
         style="color:#000000;clip-rule:nonzero;display:inline;overflow:visible;visibility:visible;opacity:0.98000004;isolation:auto;mix-blend-mode:normal;color-interpolation:sRGB;color-interpolation-filters:linearRGB;solid-color:#000000;solid-opacity:1;fill:#f29700;fill-opacity:1;fill-rule:nonzero;stroke:none;stroke-width:25;stroke-linecap:butt;stroke-linejoin:miter;stroke-miterlimit:4;stroke-dasharray:none;stroke-dashoffset:0;stroke-opacity:1;color-rendering:auto;image-rendering:auto;shape-rendering:auto;text-rendering:auto;enable-background:accumulate" />
      <path
         sodipodi:nodetypes="ccccccccsccccccc"
         inkscape:connector-curvature="0"
         id="path4141-1-8"
         d="m -328.40349,79.888895 c 218.93566,33.740735 109.46783,16.870368 0,0 z m 0,0 -41.56401,48.904835 37.98866,0 21.85553,-31.988012 c -6.5449,-5.138963 -12.67654,-10.778046 -18.28018,-16.916823 z m 18.28018,16.916823 c 25.49326,20.016962 57.60137,31.988012 92.52778,31.988012 34.92642,0 67.03944,-11.97105 92.53243,-31.988012 z m 185.06021,0 21.85554,31.988012 37.988654,0 -41.564004,-48.904835 c -5.60359,6.138777 -11.73536,11.77786 -18.28019,16.916823 z"
         style="color:#000000;clip-rule:nonzero;display:inline;overflow:visible;visibility:visible;opacity:0.98000004;isolation:auto;mix-blend-mode:normal;color-interpolation:sRGB;color-interpolation-filters:linearRGB;solid-color:#000000;solid-opacity:1;fill:#f18100;fill-opacity:1;fill-rule:nonzero;stroke:none;stroke-width:25;stroke-linecap:butt;stroke-linejoin:miter;stroke-miterlimit:4;stroke-dasharray:none;stroke-dashoffset:0;stroke-opacity:1;color-rendering:auto;image-rendering:auto;shape-rendering:auto;text-rendering:auto;enable-background:accumulate" />
      <path
         sodipodi:nodetypes="ccccccccccccccc"
         inkscape:connector-curvature="0"
         id="path4141-1-8-3"
         d="m -350.96853,47.44644 c 6.09217,11.80958 13.68821,22.71792 22.56504,32.44245 l 27.5733,-32.44245 z m 244.18562,32.44245 c 71.188607,33.74074 35.594303,16.87037 0,0 z m 0,0 c 8.876695,-9.72453 16.472855,-20.63284 22.565024,-32.44245 l -50.138324,0 z m -169.61805,-32.44245 -22.16623,32.44245 161.94333,0 -22.16623,-32.44245 z"
         style="color:#000000;clip-rule:nonzero;display:inline;overflow:visible;visibility:visible;opacity:0.98000004;isolation:auto;mix-blend-mode:normal;color-interpolation:sRGB;color-interpolation-filters:linearRGB;solid-color:#000000;solid-opacity:1;fill:#f38c00;fill-opacity:1;fill-rule:nonzero;stroke:none;stroke-width:25;stroke-linecap:butt;stroke-linejoin:miter;stroke-miterlimit:4;stroke-dasharray:none;stroke-dashoffset:0;stroke-opacity:1;color-rendering:auto;image-rendering:auto;shape-rendering:auto;text-rendering:auto;enable-background:accumulate" />
      <path
         sodipodi:nodetypes="ccccccccccccccc"
         inkscape:connector-curvature="0"
         id="path4141-1-8-6"
         d="m -362.90955,15.98709 c 1.82422,7.14655 4.16531,14.08058 6.97448,20.77505 l 64.18469,0 17.65415,-20.77505 z m 108.00242,0 -14.1901,20.77505 103.00805,0 -14.19473,-20.77505 z m 93.81231,0 17.65879,20.77505 64.184683,0 c 2.809359,-6.69486 5.150199,-13.62806 6.974479,-20.77505 z"
         style="color:#000000;clip-rule:nonzero;display:inline;overflow:visible;visibility:visible;opacity:0.98000004;isolation:auto;mix-blend-mode:normal;color-interpolation:sRGB;color-interpolation-filters:linearRGB;solid-color:#000000;solid-opacity:1;fill:#f29700;fill-opacity:1;fill-rule:nonzero;stroke:none;stroke-width:25;stroke-linecap:butt;stroke-linejoin:miter;stroke-miterlimit:4;stroke-dasharray:none;stroke-dashoffset:0;stroke-opacity:1;color-rendering:auto;image-rendering:auto;shape-rendering:auto;text-rendering:auto;enable-background:accumulate" />
      <path
         sodipodi:nodetypes="ccccccccccccccc"
         inkscape:connector-curvature="0"
         id="path4141-1-8-2"
         d="m -366.45707,-3.00724 c 0.50973,4.21085 1.18446,8.36922 2.03577,12.46503 l 95.8759,0 10.59157,-12.46503 z m 124.5297,0 -8.51869,12.46503 65.70108,0 -8.5187,-12.46503 z m 64.69015,0 10.5962,12.46503 95.875913,0 c 0.85133,-4.09582 1.52603,-8.25417 2.03577,-12.46503 z"
         style="color:#000000;clip-rule:nonzero;display:inline;overflow:visible;visibility:visible;opacity:0.98000004;isolation:auto;mix-blend-mode:normal;color-interpolation:sRGB;color-interpolation-filters:linearRGB;solid-color:#000000;solid-opacity:1;fill:#f4b600;fill-opacity:1;fill-rule:nonzero;stroke:none;stroke-width:25;stroke-linecap:butt;stroke-linejoin:miter;stroke-miterlimit:4;stroke-dasharray:none;stroke-dashoffset:0;stroke-opacity:1;color-rendering:auto;image-rendering:auto;shape-rendering:auto;text-rendering:auto;enable-background:accumulate" />
      <path
         sodipodi:nodetypes="ccccccccccccccc"
         inkscape:connector-curvature="0"
         id="path4141-1-8-36"
         d="m -367.47264,-16.065839 c 0.0738,2.189806 0.19958,4.364288 0.36635,6.5292986 l 114.70329,0 5.5462,-6.5292986 z m 134.46741,0 -4.46107,6.5292986 39.74155,0 -4.46107,-6.5292986 z m 44.67099,0 5.54619,6.5292986 114.707933,0 c 0.16668,-2.1650116 0.29249,-4.3394936 0.36636,-6.5292986 z"
         style="color:#000000;clip-rule:nonzero;display:inline;overflow:visible;visibility:visible;opacity:0.98000004;isolation:auto;mix-blend-mode:normal;color-interpolation:sRGB;color-interpolation-filters:linearRGB;solid-color:#000000;solid-opacity:1;fill:#ffd300;fill-opacity:1;fill-rule:nonzero;stroke:none;stroke-width:25;stroke-linecap:butt;stroke-linejoin:miter;stroke-miterlimit:4;stroke-dasharray:none;stroke-dashoffset:0;stroke-opacity:1;color-rendering:auto;image-rendering:auto;shape-rendering:auto;text-rendering:auto;enable-background:accumulate" />
    </g>
  </g>
</svg>
