<?xml version="1.0" encoding="UTF-8"?>
<svg xmlns="http://www.w3.org/2000/svg" version="1.1" viewBox="0 0 512 512">
  <defs>
    <style>
      .cls-1 {
        fill: #026e94;
      }

      .cls-2 {
        fill: #fff;
      }
    </style>
  </defs>
  <!-- Generator: Adobe Illustrator 28.7.1, SVG Export Plug-In . SVG Version: 1.2.0 Build 142)  -->
  <g>
    <g id="_レイヤー_1" data-name="レイヤー_1">
      <circle class="cls-1" cx="255.5" cy="255.5" r="255.5"/>
      <circle class="cls-2" cx="255.5" cy="257.68" r="220.56"/>
      <path class="cls-1" d="M169.48,355.44c-25.35-23.21-34.48-62.22-34.48-101.13s12.78-75.64,38.34-99.6c25.56-23.95,58.81-29.73,99.76-29.73,25.01,0,51.24,14.3,68.06,23.41v50.06c-19.92-11.02-42.03-32.03-69.06-32.48-29.21-.48-42.27,3.11-60.41,19.97-18.15,16.85-21.91,39.33-21.91,67.41s8.57,55.83,25.73,72.57c17.15,16.75,28.27,19.81,54.6,19.81s53.67-22.2,71.38-34.71v56.33c-15.72,9.96-42.72,20.26-70.38,20.26-40.06,0-76.29-8.97-101.63-32.18Z"/>
    </g>
  </g>
</svg>