<?xml version="1.0" encoding="utf-8"?>
<!-- Generator: Adobe Illustrator 21.1.0, SVG Export Plug-In . SVG Version: 6.00 Build 0)  -->
<svg version="1.1" id="レイヤー_1" xmlns="http://www.w3.org/2000/svg" xmlns:xlink="http://www.w3.org/1999/xlink" x="0px"
	 y="0px" viewBox="0 0 92.9 66.9" style="enable-background:new 0 0 92.9 66.9;" xml:space="preserve">
<style type="text/css">
	.st0{fill:#FFFFFF;stroke:#FFFFFF;stroke-width:5.9335;stroke-linecap:round;stroke-linejoin:round;}
	.st1{fill:#FCC800;}
	.st2{fill:#8FC31F;}
</style>
<g>
	<path class="st0" d="M68.5,0"/>
	<g>
		<path class="st0" d="M37.3,38.8"/>
		<path class="st0" d="M43,32.3"/>
		<path class="st0" d="M43.6,27.7"/>
		<path class="st0" d="M42.4,22.4"/>
	</g>
	<path class="st0" d="M55.6,38.7"/>
	<path class="st0" d="M48.8,32.2"/>
	<path class="st0" d="M49.4,27.6"/>
	<path class="st0" d="M50.6,22.3"/>
	<path d="M15.2,53.6v2.9h-0.9v-2.9H15.2z M9.7,57.1c0,0.5,0,1.3-0.2,2.2c-0.1,0.6-0.3,0.9-0.4,1.2l0.8,0.8c0.4-0.8,0.5-1.5,0.6-3.1
		h1.2V60c0,0.3-0.1,0.3-0.4,0.3h-0.9l0.2,1h0.8c1,0,1.1-0.4,1.1-1.1v-7.5H9.7V57.1z M11.8,53.6v1.5h-1.2v-1.5H11.8z M11.8,55.9v1.5
		h-1.2v-1.5H11.8z M13.4,52.7v7.4c0,0.8,0,1.1,1.1,1.1H17c0.9,0,1.3,0,1.4-2.4l-0.9-0.2c0,0.3,0,1.5-0.2,1.6
		c-0.1,0.1-0.2,0.1-0.3,0.1h-2.2c-0.3,0-0.4-0.1-0.4-0.4v-2.6h3.5v-4.7H13.4z M17,53.6v2.9h-0.9v-2.9H17z"/>
	<path d="M24.9,57.8v-0.5h0.8v0.5h1.7v0.7h-1.7V59h1.4v0.7h-1.4v0.5h1.8V61h-4.6v-0.8h2v-0.5h-1.4v-0.5l-0.7-0.4
		c-0.1,1.3-0.4,1.9-0.6,2.3l-0.9-0.5c0.2-0.3,0.7-1,0.7-2.3v-2h1.2c-0.1-0.4-0.1-0.6-0.3-0.9h-1v-0.7h2.2v-0.5h0.3v-0.4H22v0.4h-0.9
		v-0.4h-2.2V53h2.2v-0.6H22V53h2.4v-0.6h0.9V53h2.2v0.8h-2.2v0.4h-0.3v0.4h2.4v0.7h-1.1c0,0.1-0.1,0.5-0.2,0.5
		c-0.1,0.3-0.1,0.3-0.2,0.4h1.6v0.7h-4.7v1.4c0,0,0,0,0,0.2c0.2-0.3,0.5-0.8,0.7-1.5l0.8,0.2c-0.1,0.2-0.1,0.3-0.1,0.5H24.9z
		 M23.9,58.5c-0.1,0.3-0.2,0.3-0.2,0.5h1.3v-0.5H23.9z M25.2,56.3c0.1-0.3,0.2-0.6,0.2-0.9h-1.6c0,0.1,0.1,0.3,0.1,0.4
		c0,0.1,0.1,0.5,0.2,0.5H25.2z M21.7,54.5v0.8c0,0-0.2,0.7-0.2,0.8c-0.2,0.5-0.3,0.8-0.4,1c0.2,0.2,0.6,1,0.6,1.8
		c0,1-0.6,1.2-0.9,1.2h-0.6l-0.1-0.9h0.4c0.2,0,0.3-0.1,0.3-0.3c0-0.6-0.3-1.2-0.6-1.7c0.3-0.7,0.5-1.3,0.6-1.8H20v5.8h-0.8v-6.7
		H21.7z"/>
	<path d="M31,59.4c0,0.2,0,0.3-0.4,0.3c-0.3,0-1-0.1-1-0.8c0-0.6,0.4-1.3,1.4-1.7V59.4z M31,53.9h-2.3v1H31v1.4
		c-1.4,0.4-2.4,1.5-2.4,2.7c0,0.7,0.6,1.8,2.1,1.8c1.4,0,1.4-0.8,1.4-1.1v-2.7c0.2-0.1,0.7-0.2,1.4-0.2c0.4,0,2,0,2,1.5
		c0,1.7-1.9,1.7-3,1.7l0.2,1c1.9,0,3.8-0.4,3.8-2.6c0-2.5-2.6-2.5-3-2.5c-0.7,0-1.2,0.1-1.5,0.2v-1.1h2.1v-1H32v-1.1h-1V53.9z"/>
	<path d="M39.6,53.1c0-0.1,0-0.2,0-0.4h1.1c0,0.1,0,0.3,0,2c1-1.1,2.1-1.5,2.9-1.5c0.7,0,1.3,0.4,1.5,1c0.1,0.4,0.1,0.6,0.1,1.2
		L45,58c0,0.8,0,1.4,1.4,1.5l-0.2,1c-1.5-0.2-2.3-0.5-2.2-2.5l0.1-2.4c0-0.6,0-1.3-0.7-1.3c-0.4,0-1.5,0.3-2.7,1.8c0,0.6,0,1.2,0,2
		c0,1.2,0,2,0,2.6h-1.1l0-3.1l0,0c-0.4,0.7-0.8,1.2-1.2,1.7l-0.6-1c0.7-0.7,1.4-1.5,1.9-2.5l0-0.7H38v-1h1.6L39.6,53.1z"/>
	<path d="M50.9,52.9c-0.2,0.6-1.1,3-1.2,3.6l0,0c0.2-0.1,0.6-0.4,1.2-0.4c1.5,0,1.6,1.4,1.6,2.2v0.4c0,0.3,0,1.1,0.8,1.1
		c0.9,0,1.3-1.2,1.5-2.9l1,0.3c-0.2,2.1-0.8,3.6-2.5,3.6c-1.8,0-1.8-1.6-1.8-2.2v-0.3c0-0.6,0-1.2-0.7-1.2c-1,0-1.5,0.9-1.9,1.8
		c-0.1,0.3-0.4,1.7-0.5,2l-1.1-0.3c0.6-1.7,1.9-5.9,2.5-7.9L50.9,52.9z"/>
	<path d="M61.8,55.6c-0.2-0.3-0.5-0.9-0.9-1.4l0.7-0.4c0.4,0.4,0.7,0.8,1,1.4L61.8,55.6z M63,54.9c-0.3-0.5-0.6-0.9-1-1.3l0.7-0.4
		c0.3,0.3,0.6,0.7,1,1.3L63,54.9z M58.5,52.9c0,0.7-0.1,3.9-0.1,4.5c0,1.5,0.1,2.5,1.8,2.5c1.4,0,2.4-0.5,2.8-2.9l1,0.2
		c-0.5,3.3-2.4,3.7-3.8,3.7c-2.8,0-2.9-2-2.9-4.1c0-0.6,0-3.3,0-3.9H58.5z"/>
	<path d="M67.8,57.8c0,0.1-0.1,1-0.2,1.5l0.7,0.1c0.1-0.4,0.3-1.1,0.3-1.5L67.8,57.8z M69,61.3c1.2-0.7,1.9-1.7,2.3-2.9h0
		c0.4,1,0.9,1.9,2,2.9l0.6-0.9c-1.5-1.1-1.9-2.6-2-3h1.9v-1h-2c0-0.1,0-0.2,0-0.3v-1h1.8v-0.9h-1.8v-1.8h-1v1.8h-0.6
		c0.2-0.7,0.2-0.9,0.2-1.2l-1-0.1c-0.1,1.3-0.5,2.3-0.8,2.9l0.8,0.4c0.1-0.1,0.2-0.3,0.5-1h0.9v1c0,0.1,0,0.2,0,0.3h-1.9v1h1.8
		c-0.2,0.8-0.6,2.2-2.1,3l0-0.7c-0.2,0.1-0.6,0.2-1.4,0.2v-2.5h1.4v-0.9h-1.4v-0.8h0.9v-0.9h-2.4c0.6-0.7,1-1.2,1.1-1.5
		c0.1,0.2,0.6,1,1.4,1.5l0.6-0.8c-0.7-0.4-1.2-1-1.5-1.6h-1.1c-0.3,0.8-1,1.7-1.7,2.2l0.4,1c0.1-0.1,0.3-0.2,0.5-0.4v0.6h0.9v0.8
		h-1.5v0.9h1.5V60c-0.8,0.1-1.2,0.1-1.6,0.1l0.1,1c0.7-0.1,2.8-0.4,3.6-0.6L69,61.3z M64.9,58c0.1,0.4,0.2,1,0.2,1.6l0.8-0.1
		c-0.1-1-0.1-1.1-0.2-1.6L64.9,58z"/>
	<path d="M81.7,56.8v0.6h-3.5v-0.6H81.7z M77.7,52.6c0,0.1,0.3,0.5,0.4,0.7h-1.4v0.8h2.5c0,0.1-0.1,0.3-0.2,0.5h-1.8v4.9h5.4v-4.9
		H80c0.1-0.2,0.2-0.3,0.3-0.5h3v-0.8h-1.5c0.4-0.6,0.4-0.7,0.5-0.8l-1-0.2c-0.1,0.3-0.3,0.7-0.5,1h-1.6c-0.1-0.3-0.3-0.6-0.6-1
		L77.7,52.6z M81.7,55.5v0.7h-3.5v-0.7H81.7z M81.7,58.1v0.7h-3.5v-0.7H81.7z M74.4,53.1c0.5,0.5,0.8,0.9,1.3,1.7l0.8-0.6
		c-0.3-0.5-1-1.2-1.4-1.6L74.4,53.1z M74.4,57h0.9v2.5c-0.3,0.3-1,0.7-1,0.7l0.5,1.1c0.2-0.2,0.9-0.7,1.3-1.3
		c0.2,0.4,0.7,1.1,2.4,1.1h4.7l0.2-0.9h-5c-0.1,0-1.8,0-2.1-1.1v-3h-1.9V57z"/>
	<path d="M13.6,66.2h-0.7v-1.9h-2.6v1.9H9.6v-4h0.7v1.7h2.6v-1.7h0.7V66.2z"/>
	<path d="M15,62.2h-0.7v0.5H15V62.2z M15,63.4h-0.7v2.9H15V63.4z"/>
	<path d="M18.4,65.4c0,0.3-0.2,0.6-0.5,0.7c-0.3,0.1-0.6,0.2-1.1,0.2c-0.4,0-0.8-0.1-1-0.2c-0.2-0.2-0.4-0.4-0.4-0.7H16
		c0,0.2,0.1,0.3,0.2,0.4c0.1,0.1,0.4,0.1,0.7,0.1c0.2,0,0.4,0,0.6-0.1c0.2-0.1,0.2-0.2,0.2-0.3c0-0.1-0.1-0.2-0.3-0.3
		c-0.1,0-0.3-0.1-0.6-0.2c-0.4-0.1-0.7-0.2-0.9-0.3c-0.3-0.1-0.4-0.3-0.4-0.6c0-0.3,0.1-0.5,0.4-0.7c0.2-0.1,0.6-0.2,0.9-0.2
		c0.9,0,1.4,0.3,1.4,0.9h-0.6c0-0.2-0.1-0.3-0.2-0.3c-0.1-0.1-0.3-0.1-0.6-0.1c-0.5,0-0.7,0.1-0.7,0.4c0,0.1,0.1,0.2,0.3,0.3
		c0.1,0,0.3,0.1,0.7,0.2c0.4,0.1,0.7,0.2,0.9,0.3C18.3,64.9,18.4,65.1,18.4,65.4z"/>
	<path d="M21,65.5c-0.2,0.3-0.4,0.4-0.8,0.4c-0.2,0-0.4,0-0.5-0.1c-0.1-0.1-0.2-0.2-0.2-0.3c0-0.3,0.2-0.4,0.6-0.5
		c0.2,0,0.5-0.1,1.1-0.1C21.1,65.1,21.1,65.3,21,65.5z M21.7,65.6v-1.3c0-0.6-0.5-0.9-1.4-0.9c-0.4,0-0.7,0.1-1,0.2
		c-0.3,0.1-0.4,0.4-0.5,0.6h0.7c0-0.2,0.1-0.3,0.2-0.4c0.1-0.1,0.3-0.1,0.5-0.1c0.5,0,0.7,0.2,0.7,0.5v0.2c-0.5,0-0.8,0-1,0
		c-0.4,0-0.7,0.1-0.9,0.2c-0.3,0.2-0.5,0.4-0.5,0.7c0,0.3,0.1,0.5,0.4,0.7c0.2,0.2,0.5,0.2,0.9,0.2c0.4,0,0.7-0.1,1-0.3l0,0.2h0.7
		C21.7,66,21.7,65.8,21.7,65.6z"/>
	<path d="M24.6,63.8h-0.9l0,1.7c0,0.2,0.1,0.3,0.4,0.3h0.5v0.4H24c-0.6,0-0.9-0.2-0.9-0.7l0-1.7h-0.9v-0.4h0.9v-0.5l0.6-0.2v0.7h0.9
		V63.8z"/>
	<path d="M27.9,65.4c0,0.3-0.2,0.6-0.5,0.7c-0.3,0.1-0.6,0.2-1.1,0.2c-0.4,0-0.8-0.1-1-0.2c-0.3-0.2-0.4-0.4-0.4-0.7h0.6
		c0,0.2,0.1,0.3,0.2,0.4c0.1,0.1,0.4,0.1,0.7,0.1c0.2,0,0.4,0,0.6-0.1c0.2-0.1,0.2-0.2,0.2-0.3c0-0.1-0.1-0.2-0.3-0.3
		c-0.1,0-0.3-0.1-0.6-0.2c-0.4-0.1-0.7-0.2-0.9-0.3c-0.3-0.1-0.4-0.3-0.4-0.6c0-0.3,0.1-0.5,0.4-0.7c0.2-0.1,0.5-0.2,0.9-0.2
		c0.9,0,1.4,0.3,1.4,0.9h-0.6c0-0.2-0.1-0.3-0.2-0.3c-0.1-0.1-0.3-0.1-0.6-0.1c-0.5,0-0.7,0.1-0.7,0.4c0,0.1,0.1,0.2,0.3,0.3
		c0.1,0,0.3,0.1,0.7,0.2c0.4,0.1,0.7,0.2,0.9,0.3C27.8,64.9,27.9,65.1,27.9,65.4z"/>
	<path d="M31.4,65.6v-2.2h-0.6v1.7c0,0.2-0.1,0.4-0.2,0.6c-0.2,0.2-0.4,0.2-0.7,0.2c-0.5,0-0.8-0.2-0.8-0.6v-1.9h-0.6v1.8
		c0,0.8,0.4,1.2,1.3,1.2c0.4,0,0.7-0.1,1-0.3l0,0.2h0.7C31.4,66,31.4,65.8,31.4,65.6z"/>
	<path d="M38.2,65.4c-0.3,0.3-0.7,0.5-1.3,0.5c-0.6,0-1-0.2-1.3-0.5c-0.3-0.3-0.4-0.7-0.4-1.1c0-0.5,0.1-0.8,0.4-1.1
		c0.3-0.3,0.7-0.5,1.3-0.5c0.6,0,1,0.2,1.3,0.5c0.3,0.3,0.4,0.7,0.4,1.1C38.6,64.7,38.5,65.1,38.2,65.4z M38.7,62.7
		c-0.4-0.4-1-0.6-1.8-0.6c-0.8,0-1.4,0.2-1.8,0.6c-0.4,0.4-0.6,0.9-0.6,1.5c0,0.6,0.2,1.1,0.6,1.5c0.4,0.4,1,0.6,1.8,0.6
		c0.8,0,1.4-0.2,1.8-0.6c0.4-0.4,0.6-0.9,0.6-1.5C39.3,63.6,39.1,63.1,38.7,62.7z"/>
	<path d="M41.8,63.8c-0.2,0-0.3,0-0.4,0c-0.5,0-0.8,0.2-0.8,0.7v1.8H40v-2.2c0-0.2,0-0.4-0.1-0.7h0.7l0,0.2c0.2-0.2,0.5-0.3,0.7-0.3
		c0,0,0.1,0,0.5,0V63.8z"/>
	<path d="M44.2,65.5c-0.2,0.3-0.4,0.4-0.8,0.4c-0.2,0-0.4,0-0.5-0.1c-0.1-0.1-0.2-0.2-0.2-0.3c0-0.3,0.2-0.4,0.6-0.5
		c0.2,0,0.5-0.1,1-0.1C44.4,65.1,44.3,65.3,44.2,65.5z M45,65.6v-1.3c0-0.6-0.5-0.9-1.4-0.9c-0.4,0-0.7,0.1-1,0.2
		c-0.3,0.1-0.4,0.4-0.5,0.6h0.7c0-0.2,0.1-0.3,0.2-0.4c0.1-0.1,0.3-0.1,0.5-0.1c0.5,0,0.7,0.2,0.7,0.5v0.2c-0.5,0-0.8,0-1,0
		c-0.4,0-0.7,0.1-0.9,0.2c-0.3,0.2-0.5,0.4-0.5,0.7c0,0.3,0.1,0.5,0.4,0.7c0.2,0.2,0.5,0.2,0.9,0.2c0.4,0,0.7-0.1,1-0.3l0,0.2H45
		C45,66,45,65.8,45,65.6z"/>
	<path d="M48.7,66.2h-0.7v-1.9c0-0.4-0.3-0.6-0.8-0.6c-0.3,0-0.5,0.1-0.7,0.2c-0.2,0.1-0.2,0.3-0.2,0.6v1.7h-0.6v-2.2
		c0-0.1,0-0.4-0.1-0.7h0.7l0,0.2c0.3-0.2,0.6-0.3,1-0.3c0.5,0,0.9,0.2,1.2,0.5c0.1,0.2,0.2,0.4,0.2,0.7V66.2z"/>
	<path d="M51.7,65.2c-0.2,0.2-0.4,0.3-0.8,0.3c-0.3,0-0.6-0.1-0.8-0.3c-0.2-0.2-0.3-0.4-0.3-0.6c0-0.3,0.1-0.5,0.2-0.6
		c0.2-0.2,0.4-0.3,0.8-0.3c0.3,0,0.6,0.1,0.7,0.2c0.2,0.2,0.3,0.4,0.3,0.6C51.9,64.9,51.8,65.1,51.7,65.2z M51.9,63.4l0,0.3
		c-0.3-0.2-0.7-0.3-1.1-0.3c-0.5,0-0.9,0.1-1.2,0.4c-0.3,0.2-0.4,0.5-0.4,0.9c0,0.4,0.1,0.7,0.4,0.9c0.3,0.3,0.7,0.4,1.2,0.4
		c0.4,0,0.7-0.1,1.1-0.3v0.1c0,0.2-0.1,0.4-0.3,0.5c-0.2,0.1-0.5,0.2-0.7,0.2c-0.2,0-0.4,0-0.6-0.1c-0.2-0.1-0.3-0.2-0.3-0.3h-0.6
		c0,0.2,0.1,0.3,0.1,0.4c0.3,0.3,0.7,0.4,1.4,0.4c0.3,0,0.6,0,0.9-0.1c0.4-0.1,0.6-0.3,0.7-0.6c0.1-0.1,0.1-0.4,0.1-0.8v-1.3
		c0-0.1,0-0.3,0.1-0.7H51.9z"/>
	<path d="M56.1,63.8c-0.3-0.3-0.8-0.5-1.3-0.5c-0.5,0-0.9,0.2-1.3,0.5c-0.3,0.3-0.4,0.6-0.4,1c0,0.4,0.2,0.8,0.5,1.1
		c0.3,0.3,0.7,0.4,1.3,0.4c0.4,0,0.8-0.1,1.1-0.3c0.3-0.2,0.5-0.4,0.5-0.7h-0.7c-0.1,0.3-0.4,0.5-0.9,0.5c-0.3,0-0.6-0.1-0.8-0.3
		c-0.2-0.2-0.3-0.4-0.3-0.7h2.7C56.5,64.5,56.4,64.1,56.1,63.8z M53.8,64.5c0.1-0.5,0.5-0.7,1-0.7c0.3,0,0.5,0.1,0.7,0.2
		c0.2,0.1,0.3,0.3,0.4,0.5H53.8z"/>
	<path d="M62.2,63.9c-0.2,0.1-0.5,0.2-0.9,0.2h-1v-1.4h1.2c0.8,0,1.1,0.2,1.1,0.7C62.5,63.6,62.4,63.8,62.2,63.9z M63.2,65.8
		c-0.1-0.3-0.1-0.6-0.1-0.8c-0.1-0.4-0.3-0.6-0.7-0.7c0.2-0.1,0.4-0.2,0.6-0.3c0.2-0.2,0.2-0.3,0.2-0.5c0-0.4-0.2-0.7-0.5-0.9
		c-0.3-0.2-0.7-0.2-1.2-0.2h-1.9v4h0.7v-1.7h1.2c0.3,0,0.5,0,0.6,0c0.1,0,0.2,0.1,0.3,0.2c0,0.1,0.1,0.3,0.1,0.7
		c0.1,0.4,0.1,0.7,0.2,0.8h0.8C63.4,66.1,63.3,66,63.2,65.8z"/>
	<path d="M66,65.5c-0.2,0.3-0.4,0.4-0.8,0.4c-0.2,0-0.4,0-0.5-0.1c-0.1-0.1-0.2-0.2-0.2-0.3c0-0.3,0.2-0.4,0.6-0.5
		c0.2,0,0.5-0.1,1-0.1C66.2,65.1,66.1,65.3,66,65.5z M66.8,65.6v-1.3c0-0.6-0.5-0.9-1.4-0.9c-0.4,0-0.7,0.1-1,0.2
		c-0.3,0.1-0.4,0.4-0.5,0.6h0.7c0-0.2,0.1-0.3,0.2-0.4c0.1-0.1,0.3-0.1,0.5-0.1c0.5,0,0.7,0.2,0.7,0.5v0.2c-0.5,0-0.8,0-1,0
		c-0.4,0-0.7,0.1-0.9,0.2c-0.3,0.2-0.5,0.4-0.5,0.7c0,0.3,0.1,0.5,0.4,0.7c0.2,0.2,0.5,0.2,0.9,0.2c0.4,0,0.7-0.1,1-0.3l0,0.2h0.7
		C66.8,66,66.8,65.8,66.8,65.6z"/>
	<path d="M68.1,62.2h-0.7v0.5h0.7V62.2z M68.1,63.4h-0.7v2.9h0.7V63.4z"/>
	<path d="M69.4,62.2h-0.7v4h0.7V62.2z"/>
	<path d="M76,63.4l-1.5,2.9h-0.7l-1-2.2l-1,2.2h-0.7l-1.5-2.9h0.7l1.1,2.2l1-2.2h0.7l1,2.2l1.1-2.2H76z"/>
	<path d="M79.3,66.2h-0.7l0-0.2c-0.3,0.2-0.7,0.3-1,0.3c-0.3,0-0.6-0.1-0.9-0.2c-0.3-0.2-0.4-0.4-0.4-0.7c0-0.3,0.1-0.6,0.5-0.7
		c0.2-0.1,0.5-0.2,0.9-0.2c0.2,0,0.5,0,1,0v-0.2c0-0.3-0.2-0.5-0.7-0.5c-0.3,0-0.4,0-0.5,0.1c-0.1,0.1-0.2,0.2-0.2,0.4h-0.7
		c0-0.3,0.2-0.5,0.5-0.6c0.3-0.1,0.6-0.2,1-0.2c0.9,0,1.4,0.3,1.4,0.9v1.3C79.2,65.8,79.3,66,79.3,66.2z M78.6,64.9
		c-0.5,0-0.9,0-1,0.1C77.2,65,77,65.2,77,65.4c0,0.1,0.1,0.3,0.2,0.3c0.1,0.1,0.3,0.1,0.5,0.1c0.4,0,0.7-0.1,0.8-0.4
		C78.6,65.3,78.6,65.1,78.6,64.9z"/>
	<path d="M83.3,63.4l-1.9,3.5h-0.7l0.4-0.7l-1.5-2.8h0.7l1.1,2.2l1.2-2.2H83.3z"/>
	<path class="st1" d="M0,25C0,13.2,9.5,3.7,21.3,3.7C33,3.7,42.6,13.2,42.6,25c0,11.8-9.5,21.3-21.3,21.3C9.5,46.3,0,36.8,0,25"/>
	<path class="st1" d="M42.4,22.4c0.5,3.2,2.5,3.3,1.2,5.3C42.1,30,43,29.8,43,32.3c0,2-3.1,3.9-5.7,6.5"/>
	<path class="st1" d="M92.9,25c0,11.8-9.5,21.3-21.3,21.3c-11.8,0-21.3-9.5-21.3-21.3c0-11.8,9.5-21.3,21.3-21.3
		C83.4,3.7,92.9,13.2,92.9,25z"/>
	<path class="st1" d="M50.6,22.3c-0.5,3.2-2.4,3.2-1.2,5.3c1.4,2.3-0.6,2.1-0.6,4.6c0,2,4.2,3.9,6.8,6.5"/>
	<path class="st2" d="M68.5,0c-3.8,3.3-8.3,3.8-8.6,7.6c-0.3,3.5,0.6,1.8,2.5,0C64.4,5.8,68.5,0,68.5,0z"/>
	<path class="st2" d="M56.9,14.5c0.4,3.2-0.6,2.6,2.4-0.9c1.3-1.5,1.2-4.5,1.2-4.7C58.2,10.9,56.3,9.9,56.9,14.5z"/>
	<path class="st2" d="M54.2,18.5c-1.5,4.2-1.7,3.8,1.1,2.1c2.8-1.8,2.1-4.4,2-4.7C55.7,18.2,55.2,15.8,54.2,18.5z"/>
	<path class="st2" d="M50.1,24.7c-1.1,2.4-3.9,2.7,1.2,1.1c1.9-0.6,2-4.5,2-4.6C52.3,23.4,51.4,22,50.1,24.7z"/>
	<path class="st2" d="M44.1,29.6c1.2,7-1.9,1.9,2.9,1.6c2.3-0.1,0.9-3.2,1-4.2C46.5,27.5,43.8,27.7,44.1,29.6z"/>
	<path class="st2" d="M40.7,35.4c-1,2.1-2.6,2.4,2.2,1.9c2.4-0.3,1.6-2.7,1.2-3.6C43.3,34.4,40.6,33.8,40.7,35.4z"/>
	<path class="st2" d="M34.8,36.9c0.7,3.5-2.9,3.2,2,2.1c2.6-0.6,2.1-1.1,3.6-2.2C39.1,36.4,34.8,35.7,34.8,36.9z"/>
	<path class="st2" d="M32.4,40.8c1,3.4-0.1,6,1.9,2.8c1-1.6-0.1-2.9,0.5-4.4C33,39,32.8,39.8,32.4,40.8z"/>
	<path class="st2" d="M33.4,43.7c0,3.3,2.5,4.8-0.3,7.5c-1.3,1.3-1.6,0.8-1.4-2C31.8,47.6,33.3,43.4,33.4,43.7z"/>
	<path class="st2" d="M32.7,52.8c1.8,2.8-0.5,2.7,3.5,3.7c3.1,0.8,0.9-0.9,0.2-2.3C35.5,52.5,32.7,52.8,32.7,52.8z"/>
</g>
</svg>
