<?xml version="1.0" encoding="UTF-8" standalone="no"?>
<!-- Created with Inkscape (http://www.inkscape.org/) -->

<svg
  xmlns:dc="http://purl.org/dc/elements/1.1/"
  xmlns:cc="http://creativecommons.org/ns#"
  xmlns:rdf="http://www.w3.org/1999/02/22-rdf-syntax-ns#"
  xmlns:svg="http://www.w3.org/2000/svg"
  xmlns="http://www.w3.org/2000/svg"
  xmlns:sodipodi="http://sodipodi.sourceforge.net/DTD/sodipodi-0.dtd"
  xmlns:inkscape="http://www.inkscape.org/namespaces/inkscape"
  width="84.666664mm"
  height="84.666679mm"
  viewBox="0 0 299.99999 300.00004"
  id="svg4772"
  version="1.1"
  inkscape:version="0.91 r13725"
  sodipodi:docname="ECHIZEN1.svg">
  <defs
    id="defs4774" />
  <sodipodi:namedview
    id="base"
    pagecolor="#ffffff"
    bordercolor="#666666"
    borderopacity="1.0"
    inkscape:pageopacity="0.0"
    inkscape:pageshadow="2"
    inkscape:zoom="0.98994949"
    inkscape:cx="252.40123"
    inkscape:cy="160.90241"
    inkscape:document-units="px"
    inkscape:current-layer="layer1"
    showgrid="false"
    fit-margin-top="0"
    fit-margin-left="0"
    fit-margin-right="0"
    fit-margin-bottom="0"
    inkscape:window-width="1081"
    inkscape:window-height="794"
    inkscape:window-x="723"
    inkscape:window-y="55"
    inkscape:window-maximized="0" />
  <metadata
    id="metadata4777">
    <rdf:RDF>
      <cc:Work
        rdf:about="">
        <dc:format>image/svg+xml</dc:format>
        <dc:type
          rdf:resource="http://purl.org/dc/dcmitype/StillImage" />
        <dc:title></dc:title>
      </cc:Work>
    </rdf:RDF>
  </metadata>
  <g
    inkscape:label="レイヤー 1"
    inkscape:groupmode="layer"
    id="layer1"
    transform="translate(432.85714,-359.50504)">
    <path
      style="display:inline;fill:#004097;fill-opacity:1"
      d="m -319.30297,644.20705 c -61.88418,-5.20147 -106.50576,-20.89897 -112.63162,-39.34222 -4.90513,-14.76796 9.44923,-29.12884 50.29584,-50.31864 7.07317,-3.66933 12.56974,-6.83879 12.21459,-7.04323 -0.35516,-0.20446 -2.01987,-0.80674 -3.69938,-1.3384 -9.70149,-3.07105 -28.22997,-11.83987 -35.4198,-16.76282 -16.63402,-11.3895 -16.34205,-22.06536 0.98015,-35.83853 6.49038,-5.16062 22.03447,-14.99843 32.74234,-20.72254 4.94475,-2.64332 8.72364,-5.03487 8.39753,-5.31454 -0.3261,-0.27968 -6.43303,-2.49774 -13.57093,-4.92901 -7.13791,-2.43128 -14.65542,-5.26364 -16.70559,-6.29412 -4.60648,-2.31539 -10.61928,-7.84518 -12.2368,-11.25388 -9.06295,-19.09874 33.63878,-45.21924 99.93973,-61.13283 12.56051,-3.01477 31.50532,-6.35986 48.09497,-8.49214 28.66437,-3.68426 55.50759,-2.27132 68.27458,-0.007 31.495,5.58679 42.9531,20.15563 28.17539,34.48053 -8.96067,8.68609 -12.67679,8.80165 -36.1404,15.92906 -24.56714,7.46264 -51.32404,16.47203 -73.28758,24.67689 -17.62735,6.58499 -34.08041,13.15215 -34.96303,13.95532 -0.33523,0.30505 1.38245,1.24623 3.81705,2.0915 15.91076,7.6765 58.19695,14.44302 58.10789,32.45261 -0.0891,18.0096 -38.53741,34.83633 -44.32085,37.9357 -7.48256,3.97891 -10.88835,6.1744 -9.57816,6.1744 0.13977,0 8.14725,1.86396 17.79439,4.14214 9.64714,2.27819 37.63709,8.45696 62.19988,13.73063 49.55474,10.63946 55.6425,12.13987 64.5756,15.91557 15.1856,6.41842 23.31904,14.63397 23.38972,24.9944 0.0563,8.2631 -6.80616,15.57847 -20.15881,22.43728 -20.4174,10.48769 -52.42211,18.39914 -92.2357,20.57699 -24.60393,1.34587 -49.48407,1.3614 -74.051,-0.70349 z m 137.01775,-34.29561 c 12.53297,-3.2352 16.32308,-4.59657 18.50576,-6.64708 2.19942,-2.06626 2.20266,-3.72024 0.0119,-5.77893 -3.68787,-3.46458 -9.12695,-4.81284 -68.12412,-16.88702 -49.27387,-10.08424 -86.34757,-18.1121 -96.95337,-20.99408 l -3.81705,-1.03724 -17.17678,8.74195 c -30.78488,15.66765 -43.63271,23.73504 -44.72397,28.08299 -1.15325,4.59491 4.84407,9.75397 15.1092,12.99737 12.95494,4.09326 47.89411,9.55653 70.07563,10.95739 14.92324,0.94247 45.02348,0.99239 65.3515,-0.15658 20.32803,-1.14896 42.73027,-4.37136 61.74127,-9.27877 z m -125.05232,-91.27608 c 26.52738,-13.04033 30.20982,-16.10521 25.07167,-20.86709 -2.34834,-2.1764 -14.49702,-6.9102 -37.52084,-14.62027 l -17.66051,-5.91403 -7.9138,4.19592 c -17.28407,9.16409 -35.19572,20.97315 -37.86171,24.96201 -4.8187,7.2098 0.6712,12.83802 17.95214,18.4045 7.01895,2.26089 21.80638,6.57049 27.26102,7.94483 1.08352,0.27301 6.33021,-2.13991 30.67203,-14.10587 z m -22.27151,-67.15569 c 37.08475,-15.63451 81.18971,-30.79328 135.66534,-46.62776 12.0399,-3.49965 13.06796,-10.44195 1.90874,-12.88949 -6.20634,-1.36123 -28.06158,-2.1708 -39.87402,-1.477 -38.15947,2.24123 -76.61232,10.56915 -110.67806,23.97003 -14.82678,5.83262 -25.57836,11.33753 -29.18544,14.94325 -5.05474,5.05283 -5.24014,10.34191 -0.47241,13.47673 2.37487,1.5615 33.06657,12.34379 34.23832,12.02828 0.41988,-0.11306 4.19878,-1.65388 8.39753,-3.42404 z"
      id="path4849"
      inkscape:connector-curvature="0"
      sodipodi:nodetypes="ssscsssscssssssssscczcsssssssssscsscsssscsssscssssssssssssss" />
  </g>
</svg>
