<?xml version="1.0" encoding="UTF-8"?>
<svg id="_レイヤー_1" data-name="レイヤー_1" xmlns="http://www.w3.org/2000/svg" viewBox="0 0 512 375.81">
  <defs>
    <style>
      .cls-1 {
        fill: #1e9c43;
      }

      .cls-2 {
        fill: #f99c1a;
      }

      .cls-3 {
        fill: #333;
      }
    </style>
  </defs>
  <g id="g4210">
    <path id="path4141" class="cls-1" d="M2.01,0v188.76h113.72c-3.19-23.15-9.92-45.6-19.38-66.97,133.2-32.29,263.61-56.64,405.44-61.8-166.8-.73-277.71,8.77-414.19,43.81C66.49,63.88,36.07,28.36,2.01,0Z"/>
    <path id="path4141-2" class="cls-2" d="M157.68,59.57c56.89,32.85,88.87,77.01,88.87,129.18h188.33c-52.64-52.64-184.25-129.18-277.2-129.18Z"/>
    <path id="path4174" class="cls-3" d="M82.86,209.15v71.05h14.85c0-11.84,0-23.68,0-35.52l29.82,35.52h17.06l-30.49-35.35,30.49-35.69h-17.06s-29.82,35.35-29.82,35.35v-35.36h-14.86Z"/>
    <path id="path4176" class="cls-3" d="M168.57,209.15c-14.49,0-21.73,7.07-21.73,21.22v28.44c0,14.26,7.24,21.39,21.73,21.39h29.03c14.49,0,21.76-7.13,21.82-21.39,0-4.75,0-9.48,0-14.18,0-4.75,0-9.51,0-14.26,0-14.15-7.27-21.22-21.82-21.22h-29.03ZM161.61,253.46v-17.66c0-8.71,4.3-13.1,12.9-13.16h17.23c8.54,0,12.85,4.39,12.9,13.16v17.66c0,8.83-4.3,13.24-12.9,13.24h-17.23c-8.54,0-12.85-4.41-12.9-13.24Z"/>
    <path id="path4178" class="cls-3" d="M225.68,209.15v71.05h14.68v-50.85l37.18,50.85h15.02v-71.05h-14.68v50.42l-35.82-50.42h-16.38Z"/>
    <path id="path4180" class="cls-3" d="M371.83,280.19l-29.37-71.05h-15.53l-29.37,71.05h15.53l5.35-13.92h32.43l5.43,13.92h15.53ZM334.65,224.6l10.7,27.67h-21.48l10.78-27.67h0Z"/>
    <path id="path4182" class="cls-3" d="M377.24,209.15v71.05h14.68v-50.85l37.18,50.85h15.02v-71.05h-14.68v50.42l-35.82-50.42h-16.38Z"/>
    <path id="path4184" class="cls-3" d="M26.4,304.76H0v13.5h26.4v57.55h14.77v-57.55h25.72v-13.5H26.4Z"/>
    <path id="path4186" class="cls-3" d="M87.84,375.81h48.81v-13.5h-48.81v-15.28h43.04v-13.5h-43.04v-15.28h47.2v-13.5h-61.96v71.05h14.77Z"/>
    <path id="path4188" class="cls-3" d="M168.46,304.76h-26.4v13.5h26.4v57.55h14.77v-57.55h25.72v-13.5h-40.49Z"/>
    <path id="path4190" class="cls-3" d="M261.14,331.84h-25.89c-3.96,0-5.94-2.12-5.94-6.37,0-4.81,2.18-7.22,6.54-7.22h22.41c4.47,0,6.73,2.55,6.79,7.64h14.77c0-7.87-1.16-13.38-3.48-16.55-2.26-3.06-6.11-4.58-11.54-4.58h-27.59c-15.11,0-22.66,5.86-22.66,17.57v8.83c0,10.75,6.22,16.13,18.67,16.13h25.72c4.64,0,6.96,2.09,6.96,6.28,0,5.83-2.26,8.74-6.79,8.74h-24.19c-4.24,0-6.37-2.09-6.37-6.28,0-1.02,0-2.15,0-3.4h-14.77v8.06c0,10.07,5.32,15.11,15.96,15.11h34.89c10.7,0,16.04-5.52,16.04-16.55,0-2.26,0-4.16,0-5.69,0-1.36,0-3,0-4.92,0-11.2-6.51-16.81-19.52-16.81Z"/>
    <path id="path4192" class="cls-3" d="M286.84,304.76v48.47c0,15,8.54,22.52,25.63,22.58h15.28c17.32,0,25.97-7.53,25.97-22.58v-48.47h-14.77v44.31c0,8.15-3.99,12.22-11.97,12.22h-13.5c-7.87,0-11.83-4.07-11.88-12.22v-44.31h-14.77Z"/>
    <path id="path4194" class="cls-3" d="M376.71,375.81h30.73c16.69,0,25.04-6.54,25.04-19.61v-32c0-12.96-8.35-19.44-25.04-19.44h-45.5v71.05h14.77ZM403.37,318.17c9.56,0,14.35,4.05,14.35,12.14v19.69c0,8.04-4.78,12.05-14.35,12.05h-26.65v-43.88h26.65Z"/>
    <path id="path4196" class="cls-3" d="M461.15,304.76c-14.49,0-21.73,7.07-21.73,21.22v28.44c0,14.26,7.24,21.39,21.73,21.39h29.03c14.49,0,21.76-7.13,21.82-21.39v-28.44c0-14.15-7.27-21.22-21.82-21.22h-29.03ZM454.19,349.07v-17.66c0-8.71,4.3-13.1,12.9-13.16h17.23c8.54,0,12.85,4.39,12.9,13.16v17.66c0,8.83-4.3,13.24-12.9,13.24h-17.23c-8.54,0-12.85-4.41-12.9-13.24Z"/>
  </g>
</svg>