<?xml version="1.0" encoding="UTF-8" standalone="no"?>
<!-- Created with Inkscape (http://www.inkscape.org/) -->

<svg
  xmlns:dc="http://purl.org/dc/elements/1.1/"
  xmlns:cc="http://creativecommons.org/ns#"
  xmlns:rdf="http://www.w3.org/1999/02/22-rdf-syntax-ns#"
  xmlns:svg="http://www.w3.org/2000/svg"
  xmlns="http://www.w3.org/2000/svg"
  xmlns:sodipodi="http://sodipodi.sourceforge.net/DTD/sodipodi-0.dtd"
  xmlns:inkscape="http://www.inkscape.org/namespaces/inkscape"
  width="200"
  height="200"
  viewBox="0 0 52.916665 52.91667"
  version="1.1"
  id="svg8"
  inkscape:version="0.92.4 (5da689c313, 2019-01-14)"
  sodipodi:docname="KW.svg">
  <defs
    id="defs2" />
  <sodipodi:namedview
    id="base"
    pagecolor="#ffffff"
    bordercolor="#666666"
    borderopacity="1.0"
    inkscape:pageopacity="0.0"
    inkscape:pageshadow="2"
    inkscape:zoom="4"
    inkscape:cx="91.345262"
    inkscape:cy="63.906896"
    inkscape:document-units="mm"
    inkscape:current-layer="layer1"
    showgrid="false"
    units="px"
    inkscape:window-width="2560"
    inkscape:window-height="1346"
    inkscape:window-x="-11"
    inkscape:window-y="-11"
    inkscape:window-maximized="1" />
  <metadata
    id="metadata5">
    <rdf:RDF>
      <cc:Work
        rdf:about="">
        <dc:format>image/svg+xml</dc:format>
        <dc:type
          rdf:resource="http://purl.org/dc/dcmitype/StillImage" />
        <dc:title></dc:title>
      </cc:Work>
    </rdf:RDF>
  </metadata>
  <g
    inkscape:label="レイヤー 1"
    inkscape:groupmode="layer"
    id="layer1"
    transform="translate(0,-244.0833)">
    <path
      style="fill:#da2129;fill-opacity:1;stroke-width:0.13229167"
      d="m 16.644591,295.421 c -4.374145,-0.70348 -7.9937579,-3.87348 -11.3136279,-9.9083 -2.50048,-4.54534 -3.7055,-8.76334 -3.860501,-13.51311 -0.110714,-3.39267 0.188804,-5.58423 1.165135,-8.52522 1.561317,-4.70312 4.772742,-8.44084 8.7047229,-10.13127 1.74101,-0.74849 3.134681,-1.06094 5.105834,-1.14467 2.489732,-0.10577 5.079649,0.31939 7.300337,1.19841 0.449924,0.1781 0.840978,0.30088 0.869009,0.27285 0.02803,-0.028 -0.226278,-1.70382 -0.56513,-3.72397 -0.338852,-2.02015 -0.656196,-3.92601 -0.705209,-4.23525 l -0.08911,-0.56224 h 3.044272 c 1.674349,0 3.042817,0.0446 3.041039,0.0992 -0.0018,0.0546 -0.318273,1.96058 -0.703318,4.23557 -0.385046,2.275 -0.680841,4.1556 -0.657322,4.17912 0.02352,0.0235 0.622235,-0.15914 1.330481,-0.4059 2.486972,-0.86649 3.403067,-1.01816 6.118808,-1.01308 2.203815,0.004 2.574044,0.0385 3.719894,0.34542 2.586943,0.69288 4.764611,1.98422 6.673081,3.95708 3.557982,3.67802 5.377266,8.64777 5.355149,14.62871 -0.01866,5.0455 -1.340575,9.8008 -4.077202,14.66681 -2.950014,5.24544 -5.97408,8.11499 -9.75922,9.26058 -1.086519,0.32884 -1.374878,0.35904 -3.499202,0.36648 -1.685283,0.006 -2.74698,-0.0614 -3.902604,-0.24748 -2.012025,-0.32394 -5.200914,-0.32901 -7.276041,-0.0116 -1.716894,0.26264 -4.987572,0.37773 -6.019271,0.21181 z"
      id="path4618"
      inkscape:connector-curvature="0"
      sodipodi:nodetypes="csscscccsccscsccccssssccccc" />
    <path
      style="fill:#ffffff;fill-opacity:1;stroke:none;stroke-width:0.06681738;stroke-opacity:1"
      d="m 9.5766103,283.29918 c -0.1475412,-0.0186 -0.2220751,-0.0702 -0.2496526,-0.17305 -0.053992,-0.20135 -0.1749687,-13.16098 0.00277,-16.13845 l 0.044242,-2.41636 h 1.5199682 1.519968 l 0.03837,0.55125 c 0.0211,0.30318 0.05779,1.86956 0.08113,3.48083 0.038,2.6237 0.05306,2.91897 0.144191,2.82784 0.05597,-0.056 1.310099,-1.62986 2.786958,-3.49754 l 2.6852,-3.39579 h 1.743169 c 0.958743,0 1.763598,0.0205 1.788567,0.0455 0.06305,0.0632 -0.380808,0.63618 -3.731581,4.81724 l -2.933202,3.66003 0.186102,0.2822 c 0.102357,0.15521 1.269252,1.83069 2.593101,3.72329 1.323849,1.8926 2.823784,4.05749 3.333188,4.81086 l 0.926188,1.36975 -0.287648,0.0452 c -0.158205,0.0248 -1.030044,0.0474 -1.937417,0.0501 l -1.649771,0.005 -2.717783,-4.05916 c -1.494781,-2.23253 -2.759411,-4.10318 -2.81029,-4.15699 -0.07888,-0.0834 -0.09251,0.30612 -0.09251,2.64522 0,1.50868 -0.01981,3.37933 -0.04403,4.15699 l -0.04403,1.41394 -1.342427,-0.0107 c -0.738334,-0.006 -1.4370787,-0.0226 -1.5527637,-0.0371 z"
      id="path4636"
      inkscape:connector-curvature="0"
      sodipodi:nodetypes="ccsccccccscsccccscccccccsccccc" />
    <path
      style="fill:#ffffff;fill-opacity:1;stroke:none;stroke-width:0.25253814;stroke-opacity:1"
      d="m 107.13804,148.23312 c -0.70211,-0.10211 -0.85284,-0.2583 -1.08644,-1.12582 -0.14917,-0.55399 -2.35885,-9.60994 -4.91039,-20.12433 -2.551535,-10.51438 -6.295808,-25.89421 -8.320602,-34.177379 -2.024793,-8.283173 -3.681443,-15.186934 -3.681443,-15.341692 0,-0.199307 1.841456,-0.281377 6.313454,-0.281377 3.472399,0 6.313451,0.09542 6.313451,0.212051 0,0.116627 1.59547,7.531778 3.54548,16.478113 1.95001,8.946334 4.45539,20.518584 5.56751,25.716104 1.11212,5.19753 2.09232,9.56377 2.17822,9.70276 0.23842,0.38577 0.44089,-0.32477 2.2042,-7.73523 1.86091,-7.82063 10.24318,-44.017163 10.24318,-44.232343 0,-0.0778 2.95469,-0.141455 6.56599,-0.141455 5.97706,0 6.60661,0.04062 7.01888,0.452888 0.51561,0.515609 0.37493,-0.114141 5.62467,25.17973 5.34503,25.75296 5.3415,25.73646 5.54847,25.97074 0.45046,0.50994 1.32738,-2.93125 7.55129,-29.63254 2.50913,-10.764438 4.68235,-20.003275 4.82939,-20.53075 0.18906,-0.678244 0.46588,-1.034532 0.94546,-1.216868 0.72562,-0.275882 11.25127,-0.21829 11.53177,0.0631 0.16213,0.162654 -1.17811,5.38005 -9.07341,35.321578 -2.4356,9.23658 -5.53665,21.03116 -6.89121,26.21018 l -2.46284,9.4164 -6.36441,-0.0725 c -4.58442,-0.0522 -6.45036,-0.15857 -6.67178,-0.3803 -0.16905,-0.1693 -1.42613,-5.45366 -2.79351,-11.74302 -1.36738,-6.28937 -3.67264,-16.83347 -5.12281,-23.43134 -1.45017,-6.59787 -2.80057,-12.940585 -3.00089,-14.094926 -0.36432,-2.09941 -0.5287,-2.544028 -0.8294,-2.243335 -0.37045,0.370454 -1.83094,6.348071 -6.92282,28.334391 -2.95939,12.77843 -5.38899,23.2522 -5.3991,23.27504 -0.05,0.11289 -11.74582,0.27459 -12.45036,0.17212 z"
      id="path4638"
      inkscape:connector-curvature="0"
      transform="matrix(0.26458333,0,0,0.26458333,0,244.0833)" />
  </g>
</svg>
