<?xml version="1.0" encoding="utf-8"?>
<!-- Generator: Adobe Illustrator 19.0.0, SVG Export Plug-In . SVG Version: 6.00 Build 0)  -->
<svg version="1.1" id="Layer_1" xmlns="http://www.w3.org/2000/svg"
  xmlns:xlink="http://www.w3.org/1999/xlink" x="0px" y="0px"
  viewBox="-279 81 400 400" style="enable-background:new -279 81 400 400;" xml:space="preserve">
<style type="text/css">
	.st0{fill:#00947F;}
	.st1{fill:#FFFFFF;}
</style>
<g transform="translate(0,-652.36218)">
	<rect x="-279" y="733.4" class="st0" width="400" height="400"/>
	<g>
		<rect x="-229" y="1063.4" class="st1" width="300" height="20"/>
		<rect x="-189" y="983.4" class="st1" width="30" height="80"/>
		<rect x="1" y="983.4" class="st1" width="30" height="80"/>
		<path class="st1" d="M-209,973.4h70c5.5,0,10,4.5,10,10v30c0,5.5-4.5,10-10,10h-70c-5.5,0-10-4.5-10-10v-30
			C-219,977.8-214.5,973.4-209,973.4z"/>
		<path class="st1" d="M-194,783.4H36c13.8,0,25,11.2,25,25v180c0,13.8-11.2,25-25,25h-230c-13.8,0-25-11.2-25-25v-180
			C-219,794.6-207.8,783.4-194,783.4z"/>
	</g>
	<path class="st0" d="M-119,1003.4h80c5.5,0,10,4.5,10,10v40c0,5.5-4.5,10-10,10h-80c-5.5,0-10-4.5-10-10v-40
		C-129,1007.8-124.5,1003.4-119,1003.4z"/>
	<rect x="-89" y="1013.4" class="st1" width="20" height="60"/>
	<path class="st1" d="M-19,973.4h70c5.5,0,10,4.5,10,10v30c0,5.5-4.5,10-10,10h-70c-5.5,0-10-4.5-10-10v-30
		C-29,977.8-24.5,973.4-19,973.4z"/>
	<g>
		<path class="st0" d="M-94,975.7c0.3-1.8,0.5-2.4,0.9-3.4c0.4-0.8,0.8-1.3,1.4-2c1-1,2.2-1.8,3.8-2.5c2-0.9,8.6-3.4,9-3.4
			c0.1,0,0.1,0,0,0.1c-0.2,0.5-1.1,2.2-2.9,5.3l-0.9,1.6l-5.7,2.3c-3.1,1.3-5.7,2.3-5.7,2.3C-94.1,976.1-94.1,975.9-94,975.7
			L-94,975.7z"/>
		<path class="st0" d="M-89,979.3c-0.6-0.1-1.5-0.4-2.5-0.9c-1.1-0.5-1.9-1.1-2.4-1.5c-0.2-0.2-0.3-0.4-0.3-0.5c0,0,0-0.1,0.1-0.1
			c0.2-0.1,1.6-0.2,3.3-0.3c1.1-0.1,4.7-0.3,4.7-0.3c0,0,0,0.1-0.5,0.9c-0.7,1.3-0.9,1.6-1.2,2c-0.3,0.4-0.6,0.7-0.7,0.8
			C-88.5,979.3-88.8,979.3-89,979.3L-89,979.3z"/>
		<path class="st0" d="M-105.6,994.3c-0.2-0.1-0.3-0.4-0.1-1c0.1-0.3,1.1-3.9,1.1-3.9c0,0,1-0.4,2.1-0.8c7.6-2.9,10-3.9,12-4.9
			c1.6-0.8,2.4-1.4,2.7-2.1c0.1-0.2,0.1-0.6,0-0.8c-0.1-0.2-0.3-0.5-0.5-0.8c-0.2-0.3-0.2-0.5,0.2-0.9c0.6-0.6,2.4-1.9,3.1-2.3
			c0.5-0.2,0.9-0.3,1.2-0.2c0.4,0.1,0.7,0.5,1.1,1.2c1.1,1.8,1.2,3.7,0.4,5.4c-0.3,0.6-0.7,1.2-1.3,1.8c-1.4,1.4-3.4,2.5-7.4,4
			c-0.5,0.2-3.1,1.2-5.8,2.2c-2.7,1-5.3,2-5.6,2.2C-104.5,994.3-105.3,994.5-105.6,994.3L-105.6,994.3z"/>
		<path class="st0" d="M-77.7,967.9c-0.1-0.8-0.2-1.9-0.2-2.5l0-1.1l0.4-0.2c2.1-1,24.8-9.8,25.2-9.8c0.1,0-0.6,5.2-0.8,5.3
			c0,0-1,0.4-2.1,0.9c-3.7,1.5-22.1,8.7-22.2,8.8C-77.5,969.4-77.6,969.1-77.7,967.9L-77.7,967.9z"/>
		<path class="st0" d="M-75.3,983.3c0,0,0-0.2,0.1-0.3c0.2-1.2,2.7-13.6,2.7-13.6c0,0,3.4-2.4,3.7-2.6c0.6-0.4,1.6-1.1,1.9-1.2
			c0.2-0.1,0.2-0.1,0.2-0.1c0.1,0.4-2.1,10.3-3.1,14.4c-0.3,1.2-0.4,1.4-0.4,1.5C-70.5,981.6-74.3,983.2-75.3,983.3
			C-75.3,983.4-75.3,983.4-75.3,983.3L-75.3,983.3L-75.3,983.3z"/>
		<path class="st0" d="M-179,813.4H21c5.5,0,10,4.5,10,10v110c0,5.5-4.5,10-10,10h-200c-5.5,0-10-4.5-10-10v-110
			C-189,817.8-184.5,813.4-179,813.4z"/>
		<path class="st0" d="M-184,963.4h20c2.8,0,5,2.2,5,5v30c0,2.8-2.2,5-5,5h-20c-2.8,0-5-2.2-5-5v-30
			C-189,965.6-186.8,963.4-184,963.4z"/>
		<path class="st0" d="M6,963.4h20c2.8,0,5,2.2,5,5v30c0,2.8-2.2,5-5,5H6c-2.8,0-5-2.2-5-5v-30C1,965.6,3.2,963.4,6,963.4z"/>
	</g>
</g>
</svg>
