<?xml version="1.0" encoding="UTF-8" standalone="no"?>
<svg xmlns="http://www.w3.org/2000/svg" width="400" height="400" version="1.1">
  <rect fill="#ffa500" width="400" height="400" x="0" y="0" />
  <g fill="#ffffff">
    <rect width="300" height="20" x="50" y="330" />
    <rect width="30" height="80" x="90" y="250" />
    <rect width="30" height="80" x="280" y="250" />
    <rect width="90" height="50" x="60" y="240" ry="10" />
    <rect width="280" height="230" x="60" y="50" ry="25" />
  </g>
  <rect fill="#ffa500" width="100" height="60" x="150" y="270" ry="10" />
  <g fill="#ffffff">
    <rect width="20" height="60" x="190" y="280" />
    <rect width="90" height="50" x="250" y="240" ry="10" />
  </g>
  <g fill="#ffa500">
    <g transform="translate(0,-652.36218)">
      <path
        d="m 184.97594,894.66914 c 0.31782,-1.80005 0.49859,-2.44358 0.94207,-3.35431 0.38102,-0.78225 0.75575,-1.29585 1.44876,-1.98496 0.95816,-0.95294 2.24738,-1.80149 3.77965,-2.48804 1.99488,-0.89371 8.58411,-3.36116 8.976,-3.36116 0.0571,0 0.0571,0.002 -6.4e-4,0.14612 -0.1962,0.49783 -1.09749,2.15603 -2.88045,5.30056 l -0.89684,1.5814 -5.69572,2.2764 c -3.13271,1.25203 -5.70595,2.27638 -5.71872,2.27638 -0.0141,0 0.009,-0.17653 0.0468,-0.39239 z" />
      <path
        d="m 190.04951,898.25225 c -0.60165,-0.0923 -1.5254,-0.42874 -2.51018,-0.91714 -1.06963,-0.53037 -1.92428,-1.07923 -2.36218,-1.51716 -0.24734,-0.24735 -0.32995,-0.40523 -0.27392,-0.52336 0.0149,-0.027 0.0425,-0.0586 0.0627,-0.066 0.16319,-0.0641 1.55802,-0.19935 3.33467,-0.31955 1.07308,-0.0718 4.66616,-0.29121 4.70272,-0.28618 0.0249,0.004 -0.0363,0.12055 -0.47684,0.88444 -0.73966,1.28336 -0.9061,1.55218 -1.23862,2.00029 -0.31598,0.42582 -0.59923,0.71753 -0.73305,0.75453 -0.0762,0.0226 -0.33863,0.0184 -0.50675,-0.01 z" />
      <path
        d="m 173.43135,913.3121 c -0.22223,-0.11122 -0.25904,-0.3832 -0.13483,-0.99624 0.0634,-0.31471 1.05494,-3.85564 1.08561,-3.87901 0.007,-0.005 0.97131,-0.37264 2.14432,-0.81768 7.5906,-2.88004 9.99593,-3.86029 12.02519,-4.90099 1.64787,-0.84508 2.39814,-1.42318 2.70377,-2.08411 0.0988,-0.21329 0.1099,-0.55701 0.0245,-0.7983 -0.0581,-0.16688 -0.25953,-0.48334 -0.47853,-0.75133 -0.24803,-0.30347 -0.20933,-0.4743 0.19928,-0.87715 0.62738,-0.61886 2.37957,-1.92567 3.10296,-2.31413 0.45721,-0.24532 0.91248,-0.33598 1.20595,-0.2397 0.36077,0.11864 0.68382,0.45561 1.10503,1.15336 1.08292,1.79359 1.21208,3.67443 0.37141,5.40461 -0.28327,0.58267 -0.74887,1.21726 -1.30497,1.77811 -1.36285,1.3747 -3.39107,2.48856 -7.36188,4.04321 -0.4635,0.18165 -3.08174,1.18756 -5.81863,2.23554 -2.73685,1.04798 -5.27414,2.02075 -5.63884,2.16166 -2.1742,0.83973 -2.91295,1.04148 -3.23194,0.88215 z" />
      <path
        d="m 201.32345,886.88715 c -0.0745,-0.80859 -0.15027,-1.94269 -0.16746,-2.5205 l -0.0302,-1.0503 0.40778,-0.18311 c 2.14943,-0.96492 24.8438,-9.77106 25.18125,-9.77106 0.13363,0 -0.61273,5.1615 -0.76776,5.30951 -0.0405,0.0385 -1.00663,0.44343 -2.14692,0.89965 -3.6637,1.46565 -22.06445,8.71198 -22.24728,8.76112 -0.0791,0.0207 -0.11162,-0.18412 -0.22855,-1.44531 z" />
      <path
        d="m 203.71063,902.28429 c 0.01,-0.0384 0.0364,-0.19033 0.0619,-0.33678 0.20943,-1.19152 2.70573,-13.59193 2.74221,-13.62166 0.0466,-0.037 3.36743,-2.38831 3.72817,-2.63884 0.56321,-0.39111 1.57074,-1.05875 1.85116,-1.22667 0.18512,-0.11086 0.20829,-0.11817 0.2162,-0.0667 0.0575,0.35357 -2.0973,10.32225 -3.11692,14.43036 -0.29826,1.20149 -0.35263,1.38893 -0.43275,1.49062 -0.23978,0.30494 -4.03997,1.85488 -4.95387,2.02069 -0.10711,0.021 -0.11176,0.0186 -0.097,-0.0509 l 0,0 z" />
    </g>
    <rect width="220" height="130" x="90" y="80" ry="10" />
    <rect width="30" height="40" x="90" y="230" ry="5" />
    <rect width="30" height="40" x="280" y="230" ry="5" />
  </g>
</svg>
