<?xml version="1.0" encoding="UTF-8"?><svg id="_レイヤー_1" xmlns="http://www.w3.org/2000/svg" viewBox="0 0 116.76 45.05"><defs><style>.cls-1{fill:#06a676;}</style></defs><path class="cls-1" d="M104.12.02c4.15-.19,7.92,1.63,9.68,4.79,1.12,2.01,1.14,4.03,1.05,5.14h-36.85V.91l-26.14,21.62,28.06,22.52h-16.94l-21.84-17.57v-10.49L62.06.02h42.06Z"/><path class="cls-1" d="M95.02,27.04l21.74,18.02h-15.6l-23.14-18.94v-9.32h36.86c.05.66.26,4.11-2.29,7.06-2.16,2.5-4.93,3.05-5.72,3.18h-11.86Z"/><path class="cls-1" d="M.02,10.02h39.99V0H11.11C6.73-.11,2.82,1.82,1.04,5.13.04,6.99-.05,8.85.02,10.02Z"/><path class="cls-1" d="M.97,35.04h25.04c2.51.28,4.67-1.71,4.66-4.04,0-2.31-2.16-4.29-4.66-4.01h-15.93c-.33,0-5.58-.18-8.05-4.45-1.32-2.29-1.17-4.59-1.06-5.51h28.94c6.98,1.38,11.92,7.64,11.65,14.54-.26,6.5-5.08,12.12-11.65,13.41H.97v-9.95Z"/></svg>