<?xml version="1.0" standalone="no"?>
<!DOCTYPE svg PUBLIC "-//W3C//DTD SVG 20010904//EN"
 "http://www.w3.org/TR/2001/REC-SVG-20010904/DTD/svg10.dtd">
<svg version="1.0" xmlns="http://www.w3.org/2000/svg"
 width="1024.000000pt" height="1024.000000pt" viewBox="0 0 1024.000000 1024.000000"
 preserveAspectRatio="xMidYMid meet">

<g transform="translate(0.000000,1024.000000) scale(0.100000,-0.100000)"
fill="#000000" stroke="none">
<path d="M1260 10219 c-319 -41 -603 -181 -830 -409 -202 -201 -329 -435 -392
-723 l-23 -102 0 -3865 0 -3865 23 -102 c63 -288 190 -522 392 -723 201 -202
435 -329 723 -392 l102 -23 3865 0 3865 0 102 23 c288 63 522 190 723 392 202
201 329 435 392 723 l23 102 0 3865 0 3865 -23 102 c-63 288 -190 522 -392
723 -199 200 -430 326 -718 392 l-97 23 -3835 1 c-2109 1 -3864 -2 -3900 -7z
m7600 -637 c96 -27 245 -94 317 -143 69 -47 198 -174 249 -245 60 -84 127
-230 156 -339 l23 -90 0 -3645 0 -3645 -23 -90 c-26 -99 -91 -246 -143 -322
-47 -69 -174 -198 -245 -249 -84 -60 -230 -127 -339 -156 l-90 -23 -3645 0
-3645 0 -90 23 c-109 29 -255 96 -339 156 -71 51 -198 180 -245 249 -52 76
-117 223 -143 322 l-23 90 0 3645 0 3645 23 90 c29 109 96 255 156 339 50 70
180 198 246 243 66 44 177 99 254 123 156 51 -36 48 3836 47 l3625 -2 85 -23z"/>
<path d="M1950 5120 l0 -2840 245 0 245 0 -2 2838 -3 2837 -242 3 -243 2 0
-2840z"/>
<path d="M3844 7947 c-2 -7 -3 -102 -2 -212 l3 -200 1863 -3 c1024 -1 1862 -5
1862 -8 0 -3 -98 -125 -217 -272 -119 -147 -277 -341 -351 -432 -73 -91 -166
-205 -207 -255 -40 -49 -135 -167 -211 -261 -229 -282 -442 -545 -1014 -1249
-726 -894 -693 -854 -877 -1080 -209 -258 -330 -407 -653 -805 -145 -179 -290
-357 -322 -397 l-58 -72 2 -208 3 -208 2313 -3 2312 -2 0 215 0 215 -2011 2
-2012 3 86 105 c95 117 524 643 688 845 58 72 422 519 809 995 387 476 740
910 785 965 148 182 494 607 639 785 78 96 228 281 333 410 105 129 279 343
387 475 l196 240 -3 210 -2 210 -2168 3 c-1754 2 -2169 0 -2173 -11z"/>
</g>
</svg>
