<?xml version="1.0" encoding="UTF-8" standalone="no"?>
<svg
  xmlns:dc="http://purl.org/dc/elements/1.1/"
  xmlns:cc="http://creativecommons.org/ns#"
  xmlns:rdf="http://www.w3.org/1999/02/22-rdf-syntax-ns#"
  xmlns:svg="http://www.w3.org/2000/svg"
  xmlns="http://www.w3.org/2000/svg"
  xmlns:xlink="http://www.w3.org/1999/xlink"
  xmlns:sodipodi="http://sodipodi.sourceforge.net/DTD/sodipodi-0.dtd"
  xmlns:inkscape="http://www.inkscape.org/namespaces/inkscape"
  version="1.1"
  id="svg2"
  viewBox="0 0 270.55328 232.98305"
  height="232.98305"
  width="270.55328"
  inkscape:version="0.91 r13725"
  sodipodi:docname="Isaribi Logomark.svg">
  <sodipodi:namedview
    pagecolor="#ffffff"
    bordercolor="#666666"
    borderopacity="1"
    objecttolerance="10"
    gridtolerance="10"
    guidetolerance="10"
    inkscape:pageopacity="0"
    inkscape:pageshadow="2"
    inkscape:window-width="1920"
    inkscape:window-height="1001"
    id="namedview19"
    showgrid="false"
    fit-margin-top="0"
    fit-margin-left="0"
    fit-margin-right="0"
    fit-margin-bottom="0"
    inkscape:zoom="1.6054723"
    inkscape:cx="235.17013"
    inkscape:cy="30.81103"
    inkscape:window-x="-9"
    inkscape:window-y="-9"
    inkscape:window-maximized="1"
    inkscape:current-layer="svg2" />
  <defs
    id="defs4">
    <linearGradient
      gradientUnits="userSpaceOnUse"
      y2="-143.59639"
      x2="317.49805"
      y1="723.48615"
      x1="317.49805"
      id="linearGradient4540"
      xlink:href="#linearGradient4534"
      gradientTransform="matrix(0.24414034,0,0,0.24414034,157.052,77.91441)" />
    <linearGradient
      id="linearGradient4534">
      <stop
        id="stop4536"
        offset="0"
        style="stop-color:#153c95;stop-opacity:1" />
      <stop
        id="stop4538"
        offset="1"
        style="stop-color:#1892d1;stop-opacity:1" />
    </linearGradient>
  </defs>
  <metadata
    id="metadata7">
    <rdf:RDF>
      <cc:Work
        rdf:about="">
        <dc:format>image/svg+xml</dc:format>
        <dc:type
          rdf:resource="http://purl.org/dc/dcmitype/StillImage" />
        <dc:title></dc:title>
      </cc:Work>
    </rdf:RDF>
  </metadata>
  <g
    id="g4163"
    transform="translate(-114.54309,-42.856737)">
    <path
      inkscape:connector-curvature="0"
      id="path3574"
      d="m 138.76316,254.29064 c -3.12032,-0.71279 -6.25025,-2.6967 -8.37278,-5.3071 -4.44998,-5.47285 -10.78178,-24.64295 -13.57452,-41.09805 -1.84059,-10.84495 -2.43006,-18.75335 -2.23829,-30.02926 0.18613,-10.94461 0.83414,-16.98632 2.89217,-26.96502 5.41637,-26.26218 19.16726,-50.71137 40.0366,-71.185401 15.98708,-15.684249 34.16287,-26.065167 56.43586,-32.232777 6.79912,-1.882742 13.21536,-3.093768 21.53117,-4.063877 4.03738,-0.470996 5.92033,-0.542526 14.52635,-0.551835 10.11974,-0.01094 12.47855,0.123859 19.40915,1.109237 23.02083,3.273052 41.81451,11.338226 56.27435,24.149732 1.00708,0.892277 2.09143,1.833826 2.40967,2.092329 0.31821,0.258503 2.06205,2.06302 3.87519,4.010039 10.74505,11.538517 18.04028,25.479165 21.14433,40.405223 1.23838,5.95487 1.49036,8.74717 1.4761,16.35741 -0.012,6.34547 -0.0789,7.51069 -0.64565,11.23045 -1.97324,12.95016 -6.178,23.15074 -13.12413,31.83852 -12.03549,15.05325 -27.17588,24.0397 -44.06614,26.1551 -2.858,0.35795 -10.56085,0.3609 -13.67186,0.005 -18.63193,-2.13006 -32.48602,-11.6501 -39.91008,-27.42482 -5.26023,-11.17698 -6.24026,-24.0961 -2.73601,-36.06721 2.65312,-9.06352 8.37824,-15.99143 17.07076,-20.65722 0.9726,-0.52206 1.76911,-1.03159 1.77001,-1.1323 0.003,-0.32028 -5.63698,-0.19713 -8.77748,0.19167 -7.64115,0.946 -12.87346,2.77558 -18.2706,6.3887 -2.41408,1.61611 -6.27097,5.34731 -7.91677,7.65877 -4.52707,6.35812 -6.83105,15.44314 -6.46254,25.48308 0.32632,8.89076 2.65023,16.79503 7.1891,24.45213 1.82563,3.07986 2.49274,5.45269 2.49808,8.88542 0.006,4.06873 -1.4287,7.57559 -4.25087,10.38811 -3.44739,3.4356 -7.90518,5.04526 -12.40693,4.48 -2.94844,-0.37022 -5.25225,-1.34822 -7.80733,-3.31431 -2.35377,-1.81118 -5.16891,-5.74897 -8.08588,-11.31043 -2.93081,-5.58786 -4.72811,-10.40926 -6.12748,-16.43738 -1.14249,-4.9216 -1.60106,-9.09423 -1.60106,-14.56845 0,-15.43381 4.80387,-29.98736 13.94145,-42.23628 3.10148,-4.15753 9.1598,-10.22067 13.21413,-13.22466 5.49486,-4.071307 10.5603,-6.625525 17.57184,-8.860474 12.03801,-3.837151 23.93126,-4.927555 34.49612,-3.162689 9.95944,1.663731 20.41221,6.303123 27.47653,12.195283 4.69081,3.91246 9.72714,10.39322 11.47152,14.76153 0.67646,1.69403 0.91096,5.02646 0.48303,6.86492 -0.66189,2.84383 -2.6361,5.53109 -4.85583,6.60974 -1.26823,0.61628 -1.96294,0.64472 -8.08602,0.33101 -11.87138,-0.60822 -19.8212,3.39804 -23.69465,11.94076 -2.20227,4.85698 -2.27341,11.15988 -0.18284,16.19656 1.59316,3.83827 4.92448,7.3329 8.98493,9.42539 8.06808,4.15777 19.41364,3.17484 28.56227,-2.47449 2.76638,-1.70826 4.51781,-3.09288 7.16661,-5.66565 5.69419,-5.53071 7.8092,-8.95649 9.80024,-15.87389 1.81525,-6.30676 2.42639,-15.28596 1.47067,-21.60873 -1.76711,-11.69068 -7.735,-23.03646 -16.64373,-31.642056 -4.76686,-4.604679 -9.05453,-7.646565 -14.91543,-10.58176 -3.85134,-1.928799 -4.63594,-2.248019 -9.94748,-4.047283 -6.8319,-2.314277 -13.60772,-3.907419 -20.874,-4.907923 -5.33705,-0.734868 -15.45747,-0.912851 -20.92059,-0.367922 -9.24224,0.921888 -17.85859,2.896161 -26.9078,6.165412 -21.01458,7.592045 -36.11715,19.909997 -51.43167,41.948702 -7.25571,10.44148 -12.67119,23.47766 -15.46956,37.23842 -1.73453,8.52941 -2.45109,15.94516 -2.45335,25.39012 -0.004,16.78995 2.52934,30.72045 8.34401,45.8823 3.08911,8.05487 3.19944,8.43302 3.31852,11.37325 0.0802,1.98007 0.004,3.10786 -0.28902,4.27246 -1.64363,6.53502 -7.34265,10.98257 -14.55172,11.35625 -1.28945,0.0669 -2.64144,-0.0217 -3.57067,-0.23403 z"
      style="fill:url(#linearGradient4540);fill-opacity:1" />
    <g
      transform="matrix(0.24414034,0,0,0.24414034,157.052,77.91441)"
      id="g4546">
      <path
        inkscape:connector-curvature="0"
        style="fill:#ed7101;fill-opacity:1"
        d="m 712.47769,809.82938 c -30.6007,-5.1527 -52.7634,-31.5803 -52.7634,-62.9171 0,-29.228 20.1725,-54.7195 48.7262,-61.5742 10.2859,-2.4693 26.2628,-1.6759 35.5154,1.7636 24.9838,9.2875 40.8797,30.5632 42.4923,56.8734 2.4446,39.8853 -34.2396,72.5443 -73.9705,65.8543 z"
        id="path3582" />
      <path
        inkscape:connector-curvature="0"
        style="fill:#eb5606;fill-opacity:1"
        d="m 855.43789,792.29608 c -17.4168,-4.2197 -33.8434,-17.4774 -41.5606,-33.5428 -4.0652,-8.4627 -7.163,-20.4687 -7.163,-27.761 0,-6.0672 2.6153,-18.3745 5.3358,-25.1099 9.8683,-24.4313 35.4135,-40.31855 62.1642,-38.66146 16.3838,1.0149 29.8416,7.02307 41.4683,18.51336 12.4167,12.2709 18.5271,27.2688 18.3858,45.1279 -0.1416,17.9105 -5.9646,31.7487 -18.7729,44.6134 -7.9917,8.0269 -19.22,14.3815 -29.8329,16.8838 -7.7475,1.8267 -22.3508,1.7959 -30.0247,-0.063 z"
        id="path3580" />
      <path
        inkscape:connector-curvature="0"
        style="fill:#f38c01;fill-opacity:1"
        d="m 561.21429,791.38618 c -19.8244,-4.3517 -35.1793,-16.2127 -43.9056,-33.9156 -4.7943,-9.7261 -6.5944,-17.3936 -6.5944,-28.0886 0,-37.0425 29.7989,-65.23319 66.8731,-63.26401 17.0851,0.90747 31.3947,7.68188 43.016,20.36441 18.0605,19.7099 21.924,47.2628 10.002,71.3294 -4.3934,8.8687 -13.2469,18.9315 -21.3911,24.3127 -13.9396,9.2105 -32.1902,12.732 -48,9.2617 z"
        id="path3578" />
      <path
        inkscape:connector-curvature="0"
        style="fill:#f4a000;fill-opacity:1"
        d="m 422.79509,730.25758 c -18.4568,-4.0361 -34.6132,-16.7774 -42.9806,-33.8954 -5.1338,-10.5027 -6.5717,-16.88059 -6.5383,-29 0.046,-16.50235 5.8095,-30.58772 17.5935,-42.99346 7.631,-8.03366 14.5598,-12.53839 25.0097,-16.25993 6.4295,-2.28974 8.9396,-2.61876 20.3349,-2.66532 11.0088,-0.045 14.0148,0.29549 19.6253,2.22284 20.9564,7.19901 36.7886,24.17087 42.4767,45.53455 3.3561,12.60458 0.8214,32.32332 -5.7811,44.97532 -4.4762,8.5773 -17.2555,21.1374 -26.3209,25.8694 -13.6684,7.1347 -29.1023,9.3428 -43.4192,6.212 z"
        id="path3576" />
      <path
        inkscape:connector-curvature="0"
        style="fill:#f8b600;fill-opacity:1"
        d="m 305.38887,636.38612 c -9.7592,-2.03842 -22.03646,-8.30205 -29.36715,-14.98259 -15.50248,-14.12758 -23.54916,-36.18516 -20.30263,-55.65362 3.6149,-21.67746 15.87764,-38.71403 34.4952,-47.92404 34.65371,-17.143 74.0811,-1.1839 88.116,35.66691 3.5192,9.24021 4.4171,25.77308 1.9177,35.31155 -6.0026,22.90795 -20.4709,38.40794 -43.0337,46.10229 -7.9038,2.69536 -22.70913,3.38362 -31.82542,1.4795 z"
        id="path3437" />
    </g>
  </g>
</svg>
