<?xml version="1.0" encoding="UTF-8" standalone="no"?>
<!-- Created with Inkscape (http://www.inkscape.org/) -->

<svg
  xmlns:dc="http://purl.org/dc/elements/1.1/"
  xmlns:cc="http://creativecommons.org/ns#"
  xmlns:rdf="http://www.w3.org/1999/02/22-rdf-syntax-ns#"
  xmlns:svg="http://www.w3.org/2000/svg"
  xmlns="http://www.w3.org/2000/svg"
  xmlns:sodipodi="http://sodipodi.sourceforge.net/DTD/sodipodi-0.dtd"
  xmlns:inkscape="http://www.inkscape.org/namespaces/inkscape"
  version="1.1"
  id="svg866"
  width="200"
  height="200"
  viewBox="0 0 200 200"
  sodipodi:docname="asdfsd.svg"
  inkscape:version="0.92.2 5c3e80d, 2017-08-06">
  <metadata
    id="metadata872">
    <rdf:RDF>
      <cc:Work
        rdf:about="">
        <dc:format>image/svg+xml</dc:format>
        <dc:type
          rdf:resource="http://purl.org/dc/dcmitype/StillImage" />
        <dc:title></dc:title>
      </cc:Work>
    </rdf:RDF>
  </metadata>
  <defs
    id="defs870" />
  <sodipodi:namedview
    pagecolor="#ffffff"
    bordercolor="#666666"
    borderopacity="1"
    objecttolerance="10"
    gridtolerance="10"
    guidetolerance="10"
    inkscape:pageopacity="0"
    inkscape:pageshadow="2"
    inkscape:window-width="1440"
    inkscape:window-height="856"
    id="namedview868"
    showgrid="false"
    inkscape:zoom="1.5547565"
    inkscape:cx="122.47458"
    inkscape:cy="47.816585"
    inkscape:window-x="0"
    inkscape:window-y="0"
    inkscape:window-maximized="1"
    inkscape:current-layer="svg866" />
  <path
    inkscape:export-ydpi="1800.139"
    inkscape:export-xdpi="1800.139"
    inkscape:connector-curvature="0"
    id="path1459"
    d="m 87.95955,182.92524 c -8.148766,-1.31859 -23.391243,-6.67311 -23.391243,-8.21717 0,-0.51784 3.638388,-7.41742 4.441096,-8.42174 0.117071,-0.14648 2.614923,0.68289 5.550782,1.84303 5.753507,2.27358 15.268767,4.76009 18.244696,4.76766 l 1.83789,0.005 v -5.01242 -5.01241 h -1.84002 c -3.186818,0 -18.209623,-4.79568 -18.209623,-5.81299 0,-0.26496 4.555719,-8.27281 4.953563,-8.70714 0.07619,-0.0831 1.774686,0.47127 3.774447,1.23212 4.641188,1.76578 12.436262,3.26318 16.987322,3.26318 4.69691,0 13.6373,-1.7324 17.51228,-3.39341 2.47145,-1.0594 3.22835,-1.15689 3.67919,-0.4739 2.74269,4.15492 4.61946,8.07905 4.10834,8.59017 -0.96726,0.96727 -9.49499,3.77276 -14.59162,4.80041 l -4.67826,0.94298 -0.19636,4.79154 c -0.1929,4.70713 -0.16718,4.79154 1.46003,4.79154 3.27604,0 11.55228,-2.07344 17.6593,-4.42415 3.42368,-1.31783 6.31885,-2.29005 6.43375,-2.16049 0.72115,0.81337 4.38359,7.81917 4.38359,8.38527 0,1.17418 -8.72694,4.71988 -17.0422,6.92413 -6.03864,1.60074 -24.454378,2.37038 -31.07695,1.29877 z M 53.206836,168.14791 c -4.901183,-3.65757 -11.462481,-10.07134 -15.134912,-14.7946 -1.64334,-2.11358 -3.295631,-3.84285 -3.671771,-3.84285 -0.376132,0 -2.533715,1.08414 -4.794602,2.40922 -3.229616,1.89283 -4.224248,2.21515 -4.640396,1.50371 -0.291328,-0.49801 -1.545328,-2.62237 -2.786666,-4.72075 -2.515316,-4.25195 -2.637559,-3.94774 2.791091,-6.9456 3.779881,-2.08738 4.172042,-3.06127 2.519501,-6.25694 -1.971702,-3.81284 -5.100748,-16.21506 -5.49286,-21.77136 l -0.399019,-5.65421 h 4.977795 4.977786 l 0.834996,5.77509 c 0.792712,5.48274 4.031372,16.7982 5.424571,18.95282 0.554022,0.85679 1.209805,0.69051 4.512664,-1.14413 4.47988,-2.48846 4.480172,-2.49004 1.982158,-10.55975 -0.911688,-2.94516 -1.874864,-7.09372 -2.1404,-9.219 l -0.482796,-3.86417 5.254982,0.19665 5.254989,0.19665 1.046652,5.01241 c 1.145416,5.48539 2.545323,10.02481 3.091537,10.02481 0.191593,0 2.917001,-1.51181 6.056454,-3.35959 3.139463,-1.84778 5.77141,-3.2763 5.848771,-3.17452 0.842375,1.10835 5.019116,8.75156 5.019116,9.18473 0,0.31571 -2.386138,1.95035 -5.302528,3.63251 -2.91639,1.68218 -5.464159,3.32004 -5.661718,3.63968 -0.326247,0.52788 5.798245,6.95659 9.449195,9.91856 l 1.492397,1.21076 -2.311775,3.67577 c -1.271477,2.02168 -2.420141,3.97652 -2.55259,4.34409 -0.145299,0.40324 -0.990392,0.27069 -2.130616,-0.33416 -2.163656,-1.14776 -10.967183,-9.53706 -12.608959,-12.01568 -1.079311,-1.62947 -1.127511,-1.63725 -2.932239,-0.47347 -1.009198,0.65078 -2.812313,1.67758 -4.006941,2.28173 -1.194618,0.60418 -2.172038,1.47678 -2.172038,1.93912 0,1.453 7.886627,10.05525 12.562043,13.70191 2.46408,1.92188 4.736717,3.71201 5.050305,3.97803 0.575092,0.48788 -3.980256,9.30385 -4.804688,9.29849 -0.244043,-7.8e-4 -2.097813,-1.23725 -4.119489,-2.74596 z m 87.294064,-1.309 c -1.32948,-2.23179 -2.41725,-4.27217 -2.41725,-4.53416 0,-0.26196 0.83206,-0.96781 1.84901,-1.56855 4.64298,-2.74268 16.19569,-14.74475 16.19569,-16.82566 0,-0.4409 -1.68953,-1.77206 -3.75454,-2.95813 l -3.75452,-2.15649 -4.09428,4.46817 c -4.41946,4.82307 -10.07564,9.58797 -11.38139,9.58797 -0.44554,0 -1.84708,-1.96928 -3.11451,-4.3762 l -2.30443,-4.3762 2.00497,-1.42308 c 3.33978,-2.3705 9.10884,-8.52519 8.66467,-9.24388 -0.2291,-0.37067 -2.79868,-2.05807 -5.71017,-3.74975 -2.91149,-1.6917 -5.29364,-3.20724 -5.29364,-3.36786 0,-0.29086 2.71901,-5.20101 4.44849,-8.03336 l 0.90885,-1.48844 5.63159,3.32632 c 3.09736,1.82947 5.7976,3.3263 6.00053,3.3263 0.66569,0 2.14367,-4.26168 3.0131,-8.68817 1.42799,-7.27007 0.85554,-6.68321 6.51905,-6.68321 h 5.04521 l -0.48153,4.49657 c -0.26485,2.47312 -1.35814,7.17912 -2.42958,10.45779 -1.0714,3.27867 -1.86716,6.0352 -1.76834,6.12565 1.272,1.16426 7.57847,4.31283 8.17778,4.08286 1.55622,-0.59718 4.75424,-11.00012 5.98909,-19.48214 l 0.77839,-5.34657 4.58072,-0.19991 c 2.51942,-0.10997 4.85598,0.0753 5.19237,0.41169 1.43683,1.43684 -1.79126,17.21151 -5.34577,26.12314 l -1.70725,4.28031 1.36682,1.06625 c 0.75177,0.58646 2.76489,1.89054 4.47356,2.89799 l 3.10671,1.83172 -1.85491,3.2318 c -1.02021,1.7775 -2.31377,3.91705 -2.87455,4.75456 l -1.01967,1.52276 -3.99275,-2.40756 c -2.19602,-1.32415 -4.31772,-2.40832 -4.7149,-2.40925 -0.39715,-6.5e-4 -1.70517,1.36717 -2.90671,3.04028 -4.27223,5.94898 -17.84846,18.34427 -20.09198,18.34427 -0.28419,0 -1.60445,-1.82603 -2.93393,-4.05783 z M 21.692758,100.39726 c -0.179163,-0.17917 -0.07857,-2.509939 0.223527,-5.179499 2.402355,-21.22879 13.66044,-40.78413 31.06464,-53.95946 l 4.447585,-3.366902 2.684576,4.482575 2.684576,4.482589 -2.623366,2.003469 c -4.650724,3.551775 -15.739077,15.181228 -15.52559,16.283217 0.112275,0.579465 1.897249,1.974008 3.966642,3.098993 l 3.762517,2.045404 4.674442,-4.999037 c 2.570945,-2.749488 6.047805,-5.982342 7.726359,-7.184147 l 3.051918,-2.18509 2.37879,4.058788 c 1.30834,2.232327 2.37879,4.223158 2.37879,4.424074 0,0.200917 -2.207988,2.523698 -4.906629,5.16173 -8.11046,7.9283 -12.962676,16.770402 -14.581222,26.571137 L 52.342636,100.723 H 47.094 c -4.704227,0 -5.248624,-0.13123 -5.248624,-1.265148 0,-2.350977 2.155728,-11.745003 3.452758,-15.046095 0.708576,-1.803445 1.149929,-3.639652 0.980769,-4.080474 -0.304473,-0.793453 -7.748285,-5.287551 -8.085069,-4.881256 -1.213002,1.463364 -4.195638,11.268039 -5.299009,17.419233 l -1.408427,7.85179 -4.733942,6.8e-4 c -2.603676,5.3e-4 -4.880534,-0.14562 -5.059698,-0.32478 z M 148.48104,99.887592 c -0.13959,-0.45947 -0.59503,-2.708038 -1.01207,-4.996838 -1.66808,-9.154589 -6.23187,-17.247716 -14.10015,-25.004281 -4.21049,-4.150717 -5.65376,-5.978362 -5.13263,-6.499503 0.39877,-0.398767 1.5006,-2.161039 2.44853,-3.916185 0.94792,-1.755135 2.07589,-3.191162 2.50656,-3.191162 1.24329,0 8.97706,6.709113 11.90976,10.331821 1.47031,1.816236 3.06366,3.317213 3.54079,3.335509 0.47713,0.01835 2.53324,-1.032285 4.56913,-2.334631 4.16143,-2.66204 4.26136,-1.885348 -1.04973,-8.157958 -1.63385,-1.929658 -5.4697,-5.518313 -8.52413,-7.974805 -3.05437,-2.456482 -5.54281,-4.636972 -5.52984,-4.845537 0.013,-0.208577 1.17298,-2.266152 2.57778,-4.572422 l 2.55416,-4.193197 4.23293,3.116111 c 6.13125,4.513575 10.28259,8.564645 14.98879,14.626794 8.95881,11.540033 14.20341,23.8045 16.34482,38.222336 1.1019,7.418966 1.45803,6.889356 -4.63273,6.889356 h -5.34655 l -0.0106,-2.17205 c -0.0232,-4.810805 -4.5176,-21.291784 -6.28951,-23.0637 -0.16767,-0.167675 -2.15232,0.817414 -4.41032,2.189081 -2.95298,1.793831 -4.00828,2.799059 -3.75924,3.580885 0.1904,0.597822 0.8453,2.440292 1.4553,4.094387 1.34045,3.63474 2.96183,11.003577 2.97782,13.533514 l 0.0118,1.837883 h -5.03339 c -3.4458,0 -5.11343,-0.26349 -5.2872,-0.835408 z M 95.088313,70.202987 c -0.24505,-0.245047 -0.445542,-3.402865 -0.445542,-7.017374 0,-3.6145 -0.225558,-6.566669 -0.501241,-6.560375 -1.244944,0.02848 -10.029735,2.52801 -11.329449,3.223602 -2.540002,1.359366 -3.423861,0.865002 -5.847823,-3.270857 -2.715503,-4.633312 -2.800113,-5.021845 -1.201576,-5.517552 0.643263,-0.199475 3.425152,-1.154839 6.181975,-2.123027 2.756826,-0.968197 6.666507,-1.968293 8.688185,-2.222423 l 3.675759,-0.462084 0.195426,-5.190962 0.195411,-5.190959 -2.868704,0.417655 c -5.471293,0.796592 -13.460234,3.040939 -17.753122,4.987424 -2.373027,1.075985 -4.561675,1.803636 -4.863642,1.617005 -0.64614,-0.399329 -4.645663,-7.659421 -4.645663,-8.432965 0,-1.682858 15.270126,-6.891276 23.7254,-8.092388 l 6.014894,-0.854446 0.195196,-5.167693 0.195192,-5.167706 h 5.652611 5.65263 v 4.999678 c 0,5.686022 -0.81435,5.034173 8.01986,6.419412 5.3341,0.836412 16.09777,4.225346 20.16164,6.347869 l 2.45114,1.2802 -2.63667,4.487622 c -2.92504,4.978473 -2.17522,4.815058 -8.83666,1.925874 -3.83628,-1.663866 -12.39903,-3.885696 -16.15186,-4.191032 l -2.67329,-0.2175 -0.19595,4.825345 c -0.19535,4.810329 -0.19014,4.826468 1.67081,5.184374 9.02838,1.73634 18.23777,4.73679 18.2397,5.942575 0.002,1.03081 -4.75253,8.441439 -5.41549,8.441439 -0.35277,0 -1.7343,-0.456639 -3.07004,-1.01475 -3.10094,-1.29566 -10.37055,-2.985073 -11.0467,-2.567186 -0.28406,0.175564 -0.51649,3.308911 -0.51649,6.962989 v 6.643768 h -5.23518 c -2.87936,0 -5.435694,-0.200495 -5.680737,-0.445552 z"
    style="fill:#830d31;fill-opacity:1;stroke-width:0.66832143" />
</svg>
