<?xml version="1.0" encoding="UTF-8"?>
<svg id="_レイヤー_1" data-name="レイヤー 1" xmlns="http://www.w3.org/2000/svg" viewBox="0 0 512 352.19">
  <defs>
    <style>
      .cls-1 {
        fill: #277996;
      }

      .cls-1, .cls-2 {
        stroke-width: 0px;
      }

      .cls-2 {
        fill: #04043a;
      }
    </style>
  </defs>
  <g>
    <path class="cls-1" d="M15.72,257.15c-5.73,0-11.26-3.14-14.03-8.61-3.9-7.71-.85-17.12,6.86-21.05,3.17-1.62,79.48-39.57,245.31-38.98,108.5.37,154.63,9.2,247.02,37.37,8.29,2.53,12.96,11.29,10.43,19.58-2.53,8.29-11.29,12.96-19.58,10.43-89.02-27.15-133.46-35.65-237.97-36.01-157.18-.55-230.28,35.23-231,35.58-2.18,1.1-4.59,1.67-7.03,1.67Z"/>
    <circle class="cls-1" cx="182.98" cy="143.33" r="23.32"/>
    <path class="cls-1" d="M224.61,92.12c7.3-8.29,16.88-13.94,29.76-18.29,16.55-5.6,38.53-7.92,68.1,1.08,40.1,12.2,39.19,48.09,17.33,79.85-11.77,17.11-34.28,32.74-53.51,42.2l-22.88,1.31s76.93-37.05,54.92-64.29c-3.6-4.46-6.9-6.08-10.25-5.83-13.94,1.03-13.72,13.02-35.73,18.03-15.49,3.53-42.92-3.79-52.03-20.62-5.94-10.98-7.57-19.96,4.3-33.43h0Z"/>
  </g>
  <path class="cls-2" d="M68.56,352.19c-6.4,0-12.56-2.42-17.24-6.79-10.21-9.53-10.77-25.52-1.25-35.73l33.31-35.72V25.28c0-13.96,11.32-25.28,25.28-25.28h299.89c13.96,0,25.28,11.32,25.28,25.28v294.07c0,13.96-11.32,25.28-25.28,25.28h-179.58c-13.96,0-25.28-11.32-25.28-25.28s11.32-25.28,25.28-25.28h154.3V50.57h-249.32v233.34c0,6.4-2.43,12.56-6.79,17.24l-40.1,43.01c-4.98,5.34-11.73,8.04-18.5,8.04h0Z"/>
</svg>