<?xml version="1.0" encoding="UTF-8"?>
<svg xmlns="http://www.w3.org/2000/svg" version="1.1" viewBox="0 0 512 512">
  <defs>
    <style>
      .cls-1 {
        fill: #0061d8;
        isolation: isolate;
      }

      .cls-2 {
        fill: #86d124;
      }
    </style>
  </defs>
  <!-- Generator: Adobe Illustrator 28.6.0, SVG Export Plug-In . SVG Version: 1.2.0 Build 709)  -->
  <g>
    <g id="_レイヤー_2">
      <path class="cls-2" d="M286.7,418.6v-18.1h34.4l-17.2-35.3h-14.1c-74.9,57.9-157.4,81.8-214.6,63.5,3.5,20.1,12.9,38.7,27.1,53.4,57.9,57.9,181.7,29.1,282.9-63.5h-98.5.1Z"/>
      <path class="cls-2" d="M363.2,202.1c0-32.9-42.6-56.6-98.5-56.6s-15,.5-22.4,1.6v110.1c7.4,1.1,14.8,1.6,22.4,1.6,55.8,0,98.5-27.5,98.5-56.7Z"/>
      <path class="cls-2" d="M242.5,272.3v74.9h52.5l-35.2-71.9c-5.9-.8-11.9-1.8-17.4-3Z"/>
      <path class="cls-2" d="M242.5,132.2c69.4-47.3,142.4-65.6,194.7-48.9-3.5-20.1-12.9-38.7-27.2-53.4C356.3-23.6,246.8-3.1,150.6,73.2h136.1v18.1h-44.2v40.8h0Z"/>
      <path class="cls-1" d="M409.5,202.1c0,38.1-38.1,62.6-90,71.7l61.7,126.6h22.5c100.4-102.9,133.4-233.5,73.4-293.4-49-49-145-36-234.7,25.1,14.1-3.1,28.6-4.7,43-4.7,68.4,0,123.9,30.2,123.9,74.6h.1Z"/>
      <path class="cls-1" d="M144,347.2h44.2V91.2h-59c-5.8,5.1-11.5,10.5-17,16C8.7,210.9-25.9,344.1,34.9,405c52.7,52.7,159.6,33.7,254.8-39.7h-145.6s0-18.1,0-18.1Z"/>
    </g>
  </g>
</svg>