<?xml version="1.0" encoding="UTF-8" standalone="no"?>
<svg
  xmlns:dc="http://purl.org/dc/elements/1.1/"
  xmlns:cc="http://creativecommons.org/ns#"
  xmlns:rdf="http://www.w3.org/1999/02/22-rdf-syntax-ns#"
  xmlns:svg="http://www.w3.org/2000/svg"
  xmlns="http://www.w3.org/2000/svg"
  xmlns:sodipodi="http://sodipodi.sourceforge.net/DTD/sodipodi-0.dtd"
  xmlns:inkscape="http://www.inkscape.org/namespaces/inkscape"
  width="300"
  height="300"
  viewBox="0 0 79.374999 79.374999"
  version="1.1"
  id="svg8"
  inkscape:version="1.0.1 (3bc2e813f5, 2020-09-07)"
  sodipodi:docname="Abukyu_logo.svg"
  inkscape:export-filename="D:\ekimei\Project\03合作\結合\素材\AB.png"
  inkscape:export-xdpi="256"
  inkscape:export-ydpi="256">
  <defs
    id="defs2" />
  <sodipodi:namedview
    id="base"
    pagecolor="#ffffff"
    bordercolor="#666666"
    borderopacity="1.0"
    inkscape:pageopacity="0.0"
    inkscape:pageshadow="2"
    inkscape:zoom="1.2210113"
    inkscape:cx="76.70913"
    inkscape:cy="157.52706"
    inkscape:document-units="px"
    inkscape:current-layer="layer1"
    inkscape:document-rotation="0"
    showgrid="false"
    showguides="false"
    inkscape:window-width="1366"
    inkscape:window-height="705"
    inkscape:window-x="-8"
    inkscape:window-y="-8"
    inkscape:window-maximized="1"
    units="px" />
  <metadata
    id="metadata5">
    <rdf:RDF>
      <cc:Work
        rdf:about="">
        <dc:format>image/svg+xml</dc:format>
        <dc:type
          rdf:resource="http://purl.org/dc/dcmitype/StillImage" />
        <dc:title />
      </cc:Work>
    </rdf:RDF>
  </metadata>
  <g
    inkscape:label="レイヤー 1"
    inkscape:groupmode="layer"
    id="layer1">
    <circle
      style="fill:#ffffff;fill-opacity:1;stroke-width:0.306958;stroke-linecap:round;stroke-linejoin:round;stroke:none;stroke-opacity:1;opacity:0.99499998"
      id="path837"
      cx="39.6875"
      cy="39.6875"
      r="39.6875" />
    <g
      id="g947"
      transform="matrix(0.33222732,0,0,0.33222732,7.1144857,-8.4314572)"
      style="opacity:0.995">
      <path
        id="path849"
        style="opacity:1;fill:#ffffff;fill-opacity:1;stroke-width:0.297858;stroke-linecap:round;stroke-linejoin:round"
        d="M 209.5393,144.83745 A 111.49494,111.49494 0 0 1 98.044357,256.33239 111.49494,111.49494 0 0 1 -13.450584,144.83745 111.49494,111.49494 0 0 1 98.044357,33.342506 111.49494,111.49494 0 0 1 209.5393,144.83745 Z" />
      <path
        id="path853"
        style="fill:#258db4;fill-opacity:1;stroke:none;stroke-width:0.999999px;stroke-linecap:butt;stroke-linejoin:miter;stroke-opacity:1"
        d="m 369.76172,126.01953 a 421.3982,421.3982 0 0 0 -21.93555,0.61524 l -0.64844,1.90625 c -3.41052,262.37272 1.74627,298.31838 -7.50585,394.93554 -9.50334,99.24068 -71.54326,277.27267 -179.50782,385.57813 l -0.47461,3.20508 a 421.3982,421.3982 0 0 0 210.8711,56.55468 421.3982,421.3982 0 0 0 210.87304,-56.55664 l -0.47461,-3.20312 C 472.99444,800.74923 410.95449,622.71724 401.45117,523.47656 392.19904,426.8594 397.35584,390.91374 393.94531,128.54102 l -0.64843,-1.90821 a 421.3982,421.3982 0 0 0 -22.73633,-0.61328 421.3982,421.3982 0 0 0 -0.79883,0 z"
        transform="scale(0.26458333)" />
      <path
        id="path881"
        style="fill:#258db4;fill-opacity:1;stroke:none;stroke-width:0.999999px;stroke-linecap:butt;stroke-linejoin:miter;stroke-opacity:1"
        d="m 307.53516,130.75977 a 421.3982,421.3982 0 0 0 -47.46094,10.00195 c 4.48897,288.97152 3.20267,325.28087 -48.52734,408.66992 C 144.175,658.03547 56.942428,697.54181 -15.789062,715.67383 a 421.3982,421.3982 0 0 0 58.640624,96.66015 C 142.24231,772.77024 238.87934,685.42828 279.0957,578.86523 c 43.21072,-114.4973 26.81303,-97.8159 28.43946,-448.10546 z"
        transform="scale(0.26458333)" />
      <path
        id="path883"
        style="fill:#45a460;fill-opacity:1;stroke:none;stroke-width:0.999999px;stroke-linecap:butt;stroke-linejoin:miter;stroke-opacity:1"
        d="m 223.60547,152.47461 a 421.3982,421.3982 0 0 0 -274.441408,394.94336 421.3982,421.3982 0 0 0 5.816407,69.76953 C 101.81662,600.16441 153.82951,526.96717 193.98633,459.49414 c 43.25152,-72.67285 27.50901,-133.9257 29.61914,-307.01953 z"
        transform="scale(0.26458333)" />
      <path
        id="path892"
        style="fill:#258db4;fill-opacity:1;stroke:none;stroke-width:0.999999px;stroke-linecap:butt;stroke-linejoin:miter;stroke-opacity:1"
        d="m 433.58594,130.75977 c 1.62644,350.28956 -14.77123,333.60816 28.43945,448.10546 40.2166,106.56369 136.85473,193.9073 236.24609,233.47071 a 421.3982,421.3982 0 0 0 58.63868,-96.66406 C 684.17901,697.53966 596.9475,658.03459 529.57617,549.43164 477.84615,466.04259 476.55792,429.73324 481.04688,140.76172 a 421.3982,421.3982 0 0 0 -47.46094,-10.00195 z"
        transform="scale(0.26458333)" />
      <path
        id="path894"
        style="fill:#45a460;fill-opacity:1;stroke:none;stroke-width:0.999999px;stroke-linecap:butt;stroke-linejoin:miter;stroke-opacity:1"
        d="m 517.51758,152.47461 c 2.11014,173.09382 -13.63431,234.34668 29.61719,307.01953 40.15684,67.47303 92.17166,140.67027 239.00781,157.69336 a 421.3982,421.3982 0 0 0 5.8164,-69.76953 421.3982,421.3982 0 0 0 -274.4414,-394.94336 z"
        transform="scale(0.26458333)" />
    </g>
  </g>
</svg>
