<?xml version="1.0" encoding="UTF-8"?>
<svg xmlns="http://www.w3.org/2000/svg" xmlns:svg="http://www.w3.org/2000/svg" xmlns:sodipodi="http://sodipodi.sourceforge.net/DTD/sodipodi-0.dtd" xmlns:rdf="http://www.w3.org/1999/02/22-rdf-syntax-ns#" xmlns:inkscape="http://www.inkscape.org/namespaces/inkscape" xmlns:dc="http://purl.org/dc/elements/1.1/" xmlns:cc="http://creativecommons.org/ns#" version="1.1" viewBox="0 0 25 25">
  <defs>
    <style>
      .cls-1 {
        fill: #fff;
        stroke: #a4aeb4;
        stroke-linecap: round;
        stroke-miterlimit: 15.12;
        stroke-width: 1.7px;
      }
    </style>
  </defs>
  <!-- Generator: Adobe Illustrator 28.7.1, SVG Export Plug-In . SVG Version: 1.2.0 Build 142)  -->
  <g>
    <g id="svg3730">
      <sodipodi:namedview id="base" bordercolor="#666666" borderopacity="1.0" fit-margin-bottom="0" fit-margin-left="0" fit-margin-right="0" fit-margin-top="0" inkscape:current-layer="layer1" inkscape:cx="12.5" inkscape:cy="12.5" inkscape:document-units="px" inkscape:pageopacity="0.0" inkscape:pageshadow="2" inkscape:window-height="821" inkscape:window-maximized="0" inkscape:window-width="784" inkscape:window-x="800" inkscape:window-y="0" inkscape:zoom="25.16" pagecolor="#ffffff" showgrid="false" units="px"/>
      <path id="path817-0-0-6-0-4-2-5-3-9-6" class="cls-1" d="M24.15,12.5c0,6.43-5.22,11.65-11.65,11.65-6.43,0-11.65-5.22-11.65-11.65S6.07.85,12.5.85c6.43,0,11.65,5.22,11.65,11.65Z" inkscape:connector-curvature="0"/>
      <g id="text821-27-0">
        <path id="path1021" d="M10.57,10.74c-.12-.64-.42-1.09-.9-1.34-.27-.14-.57-.21-.89-.21-.63,0-1.14.29-1.55.86-.4.57-.6,1.42-.6,2.57s.22,1.97.66,2.45c.44.48.93.72,1.49.72s.99-.19,1.34-.57c.35-.38.56-.88.65-1.49h-1.8v-1.56h3.25v5.03h-1.08l-.16-1.17c-.31.44-.6.76-.85.94-.43.32-.96.48-1.59.48-1.03,0-1.88-.43-2.54-1.29-.69-.86-1.03-2.05-1.03-3.55s.35-2.73,1.04-3.65c.69-.92,1.61-1.37,2.76-1.37.99,0,1.79.3,2.39.91.6.6.95,1.35,1.04,2.26h-1.6Z" inkscape:connector-curvature="0"/>
        <path id="path1023" d="M13.72,7.81h1.71l3.1,6.54v-6.54h1.52v9.37h-1.63l-3.18-6.65v6.65h-1.52V7.81Z" inkscape:connector-curvature="0"/>
      </g>
    </g>
  </g>
</svg>