<?xml version="1.0" encoding="UTF-8" standalone="no"?>
<!-- Created with Inkscape (http://www.inkscape.org/) -->

<svg
  xmlns:dc="http://purl.org/dc/elements/1.1/"
  xmlns:cc="http://creativecommons.org/ns#"
  xmlns:rdf="http://www.w3.org/1999/02/22-rdf-syntax-ns#"
  xmlns:svg="http://www.w3.org/2000/svg"
  xmlns="http://www.w3.org/2000/svg"
  xmlns:sodipodi="http://sodipodi.sourceforge.net/DTD/sodipodi-0.dtd"
  xmlns:inkscape="http://www.inkscape.org/namespaces/inkscape"
  width="90.311111mm"
  height="47.496811mm"
  viewBox="0 0 320 168.29579"
  id="svg4831"
  version="1.1"
  inkscape:version="0.91 r13725"
  sodipodi:docname="MIZSIMA2.svg">
  <defs
    id="defs4833" />
  <sodipodi:namedview
    id="base"
    pagecolor="#ffffff"
    bordercolor="#666666"
    borderopacity="1.0"
    inkscape:pageopacity="0.0"
    inkscape:pageshadow="2"
    inkscape:zoom="0.98994949"
    inkscape:cx="176.03537"
    inkscape:cy="-16.450111"
    inkscape:document-units="px"
    inkscape:current-layer="layer1"
    showgrid="false"
    fit-margin-top="0"
    fit-margin-left="0"
    fit-margin-right="0"
    fit-margin-bottom="0"
    inkscape:window-width="956"
    inkscape:window-height="706"
    inkscape:window-x="840"
    inkscape:window-y="225"
    inkscape:window-maximized="0" />
  <metadata
    id="metadata4836">
    <rdf:RDF>
      <cc:Work
        rdf:about="">
        <dc:format>image/svg+xml</dc:format>
        <dc:type
          rdf:resource="http://purl.org/dc/dcmitype/StillImage" />
        <dc:title></dc:title>
      </cc:Work>
    </rdf:RDF>
  </metadata>
  <g
    inkscape:label="レイヤー 1"
    inkscape:groupmode="layer"
    id="layer1"
    transform="translate(420,-411.07145)">
    <g
      style="display:inline"
      id="g4826"
      transform="matrix(1.0199745,0,0,1.0199745,-730.83114,-277.73643)">
      <path
        sodipodi:nodetypes="ccccccccccsscccccc"
        inkscape:connector-curvature="0"
        id="path3681-1-2-2-4-2-6"
        transform="translate(307.75377,535.32068)"
        d="m 142,139.99805 c -1.41445,-9e-5 -2.76277,0.59884 -3.71094,1.64843 l -139.9999975,155 C -4.6145275,299.8624 -2.33278,304.99755 2,304.99805 l 103.5,0 c 1.41445,9e-5 2.76277,-0.59885 3.71094,-1.64844 l 39.60742,-43.85156 156.89648,0 c 4.37135,-10e-4 6.63667,-5.21615 3.6543,-8.41211 L 295.34766,236.06836 C 301.48221,231.87147 307,224.4268 307,214.22656 c 0,-12.04105 -7.6416,-20.54388 -14.97461,-23.98633 -6.71711,-3.1533 -13.05859,-3.01367 -13.05859,-3.01367 l -62.49414,0 c -0.8788,-5e-5 -1.74445,0.0957 -2.59766,0.2461 l 35.33594,-39.12305 c 2.90359,-3.21592 0.62183,-8.35105 -3.71094,-8.35156 z"
        style="color:#000000;font-style:normal;font-variant:normal;font-weight:normal;font-stretch:normal;font-size:medium;line-height:normal;font-family:sans-serif;text-indent:0;text-align:start;text-decoration:none;text-decoration-line:none;text-decoration-style:solid;text-decoration-color:#000000;letter-spacing:normal;word-spacing:normal;text-transform:none;direction:ltr;block-progression:tb;writing-mode:lr-tb;baseline-shift:baseline;text-anchor:start;white-space:normal;clip-rule:nonzero;display:inline;overflow:visible;visibility:visible;opacity:1;isolation:auto;mix-blend-mode:normal;color-interpolation:sRGB;color-interpolation-filters:linearRGB;solid-color:#000000;solid-opacity:1;fill:#ffffff;fill-opacity:1;fill-rule:nonzero;stroke:none;stroke-width:10;stroke-linecap:butt;stroke-linejoin:round;stroke-miterlimit:4;stroke-dasharray:none;stroke-dashoffset:0;stroke-opacity:1;color-rendering:auto;image-rendering:auto;shape-rendering:auto;text-rendering:auto;enable-background:accumulate" />
      <path
        inkscape:connector-curvature="0"
        id="path3681-1-2-2-4-2-6-0-1"
        d="m 505.75377,680.31873 -140,155 47.5,0 45.1875,-50.0293 0,-46.74219 c -10e-6,-2.65266 1.05385,-5.19667 2.92969,-7.07226 l 1,-1 c 1.87544,-1.87465 4.4186,-2.92775 7.07031,-2.92774 l 12.52734,0 c 2.85541,-1.8e-4 5.57472,1.22017 7.47266,3.35352 l 8.99414,10.10937 54.81836,-60.6914 -47.5,0 z m -7.31836,60.6914 -13.48633,14.93164 10.49414,11.79493 c 1.89749,2.13284 4.61599,3.35314 7.47071,3.35351 l 0.36718,0 c 2.8554,1.9e-4 5.57472,-1.22016 7.47266,-3.35351 l 17,-19.10938 0,41.19141 20,0 0,-51.27149 c 10e-6,-2.65266 -1.05385,-5.19667 -2.92969,-7.07226 l -1,-1 c -1.87544,-1.87465 -4.4186,-2.92775 -7.07031,-2.92774 l -12.52734,0 c -2.85541,-1.8e-4 -5.57472,1.22017 -7.47266,3.35352 l -13.65625,15.35156 -4.66211,-5.24219 z m 55.31836,-13.46289 0,16 32.95508,0 c 4.02101,0 7.04492,2.02719 7.04492,6 0,3.97281 -2.961,6 -7.04492,6 l -5.24024,0 -3.71484,0 -18.28516,0 32,34.27149 22,0 -18.45507,-19.76563 c 0.86194,-0.29349 1.7417,-0.62292 2.64062,-1.04492 5.58515,-2.62191 12.09961,-9.62836 12.09961,-19.46094 0,-9.8326 -6.51446,-16.83901 -12.09961,-19.46094 -5.58516,-2.62192 -10.85547,-2.53906 -10.85547,-2.53906 -0.015,-4e-5 -0.0299,-4e-5 -0.0449,0 l -33,0 z"
        style="color:#000000;font-style:normal;font-variant:normal;font-weight:normal;font-stretch:normal;font-size:medium;line-height:normal;font-family:sans-serif;text-indent:0;text-align:start;text-decoration:none;text-decoration-line:none;text-decoration-style:solid;text-decoration-color:#000000;letter-spacing:normal;word-spacing:normal;text-transform:none;direction:ltr;block-progression:tb;writing-mode:lr-tb;baseline-shift:baseline;text-anchor:start;white-space:normal;clip-rule:nonzero;display:inline;overflow:visible;visibility:visible;opacity:1;isolation:auto;mix-blend-mode:normal;color-interpolation:sRGB;color-interpolation-filters:linearRGB;solid-color:#000000;solid-opacity:1;fill:#37bdef;fill-opacity:1;fill-rule:nonzero;stroke:none;stroke-width:47.5;stroke-linecap:butt;stroke-linejoin:miter;stroke-miterlimit:4;stroke-dasharray:none;stroke-dashoffset:0;stroke-opacity:1;color-rendering:auto;image-rendering:auto;shape-rendering:auto;text-rendering:auto;enable-background:accumulate" />
      <path
        sodipodi:nodetypes="ccccc"
        inkscape:connector-curvature="0"
        id="path3681-1-2-2-4-2-6-5"
        d="m 449.75377,680.31864 -140,154.99972 47.5,0 140,-154.99972 z"
        style="color:#000000;font-style:normal;font-variant:normal;font-weight:normal;font-stretch:normal;font-size:medium;line-height:normal;font-family:sans-serif;text-indent:0;text-align:start;text-decoration:none;text-decoration-line:none;text-decoration-style:solid;text-decoration-color:#000000;letter-spacing:normal;word-spacing:normal;text-transform:none;direction:ltr;block-progression:tb;writing-mode:lr-tb;baseline-shift:baseline;text-anchor:start;white-space:normal;clip-rule:nonzero;display:inline;overflow:visible;visibility:visible;opacity:1;isolation:auto;mix-blend-mode:normal;color-interpolation:sRGB;color-interpolation-filters:linearRGB;solid-color:#000000;solid-opacity:1;fill:#007bbd;fill-opacity:1;fill-rule:nonzero;stroke:none;stroke-width:47.5;stroke-linecap:butt;stroke-linejoin:miter;stroke-miterlimit:4;stroke-dasharray:none;stroke-dashoffset:0;stroke-opacity:1;color-rendering:auto;image-rendering:auto;shape-rendering:auto;text-rendering:auto;enable-background:accumulate" />
    </g>
  </g>
</svg>
