<svg id="レイヤー_1" data-name="レイヤー 1" xmlns="http://www.w3.org/2000/svg" viewBox="0 0 393.27 393.31">
  <defs>
    <style>.cls-1{fill:#00a7e3;}.cls-2{fill:#fff;}</style>
  </defs>
  <title>JRW_kinki</title>
  <rect class="cls-1" width="393.27" height="393.31" />
  <path class="cls-2"
    d="M111.65,59h78.13c62.69,0,101.36,21.3,101.36,70.24,0,32.73-20.54,55.61-58.73,63.48v.81c39.83,4.7,66,28.79,66,65.46,0,56.4-52.64,75.35-106.65,75.35H111.65Zm45.82,117.18h17.76c38.22,0,68.94-5.12,68.94-40.64,0-32-26.76-39.85-62.29-39.85H157.47Zm0,121.87h23.64c46.56,0,70-13,70-43.41,0-30.75-24.62-43.77-75.86-43.77H157.47Z" />
</svg>
