<svg id="レイヤー_1" data-name="レイヤー 1" xmlns="http://www.w3.org/2000/svg" viewBox="0 0 393.24 393.32">
  <defs>
    <style>.cls-1{fill:#00a469;}.cls-2{fill:#fff;}</style>
  </defs>
  <title>JRW_kinki</title>
  <rect class="cls-1" width="393.24" height="393.32" />
  <path class="cls-2"
    d="M293.4,298.91C316,274,328.65,238.55,328.65,195.62c0-86-51.72-141.23-131-141.23-84.69,0-136.82,53.64-136.82,142.8,0,86.81,52.83,142,133.77,142,6.24,0,17.52-1,18.93-1.17,22.28-2.7,35.43-8.22,44.55-12.63,1.91-.93,3.72-2,5.57-3,13.24,11.22,27.85,24.3,39.81,36.64L332.92,332c-11.46-10.32-26.16-22.48-39.52-33.07m-98.1,3.24c-50.07,0-83.21-41.84-83.21-105.32,0-62.79,33.5-105,82.47-105,50.85,0,83.16,40.25,83.16,105,0,30.24-7.84,55.82-21.39,74.16a140.41,140.41,0,0,0-52.09-18.61c-8.79-1.26-17.55-1.26-28.4-.5l1.5,24.35A60.84,60.84,0,0,1,199,277.67c9.58,2.71,21.94,11.2,28.86,16.17.31.18.58.42,1,.67a74.62,74.62,0,0,1-33.51,7.64" />
</svg>
