<?xml version="1.0" encoding="utf-8"?>
<!-- Generator: Adobe Illustrator 19.0.0, SVG Export Plug-In . SVG Version: 6.00 Build 0)  -->
<svg version="1.1" id="レイヤー_1" xmlns="http://www.w3.org/2000/svg"
  xmlns:xlink="http://www.w3.org/1999/xlink" x="0px"
  y="0px" viewBox="-282 84.66 393.24 393.34" style="enable-background:new -282 84.66 393.24 393.34;"
  xml:space="preserve">
<style type="text/css">
	.st0{fill:#FF8E1F;}
	.st1{fill:#221815;}
</style>
<title>JRW_kinki</title>
<rect x="-282" y="84.66" class="st0" width="393.24" height="393.34"/>
<path class="st1" d="M-175.95,143.14h79.64c67.86,0,112.83,14.61,112.83,72.23c0,36.27-21.8,58-57.59,65v0.8
	c19.31,5.13,26.42,16.18,35.09,36.7l42.54,100.62h-61.05l-30.78-78.12c-11.48-28.81-16.64-36.34-50.51-36.34h-18v114.51h-52.17
	V143.14z M-123.82,261.48h19.6c43.77,0,67-11,67-38.64c0-30-27.15-36.29-67-36.29h-19.6V261.48z"/>
</svg>
