<svg id="レイヤー_1" data-name="レイヤー 1" xmlns="http://www.w3.org/2000/svg" viewBox="0 0 393.3 393.3">
  <defs>
    <style>.cls-1{fill:#00a6bf;}.cls-2{fill:#fff;}</style>
  </defs>
  <title>JRW_kinki</title>
  <rect class="cls-1" width="393.3" height="393.3" />
  <path class="cls-2"
    d="M205.67,159.93c-2.81-12.22-7.41-35.1-9.56-49.3h-.73c-1.73,14.2-5.64,36.28-8.46,49.3L148.86,334.31H94.13L22.47,59H72.11l37.63,157.41c2.12,9.07,9.59,46.54,12.08,63.91h.7c2.87-17.37,10.29-54.84,12.14-63.91L168.05,59H226.7l34.8,157.41c2.16,9.49,9.28,46.54,11.74,63.91h.65c2.89-17.37,10-53.64,12.51-63.91L323.75,59h47.08L299.16,334.31h-54Z" />
</svg>
