<svg id="レイヤー_1" data-name="レイヤー 1" xmlns="http://www.w3.org/2000/svg" viewBox="0 0 393.24 393.36"><defs><style>.cls-1{fill:#009e03;}.cls-2{fill:#fff;}</style></defs><rect class="cls-1" width="400" height="400" rx="45"/><path class="cls-2" d="M262,104c-20.48-8.67-37.46-11.83-53.66-11.83-29.17,0-48.46,14.22-48.46,34.72,0,17.75,8.68,29.63,50.83,46.53C260,192.73,281,216.4,281,255.05c0,50.52-39.09,84.06-98.64,84.06-24.81,0-47.31-3.57-68.64-11.85l4.75-42.6c22.85,11.43,42.61,15.39,60.74,15.39,31.54,0,53.25-14.59,53.25-39.07,0-22.46-11.48-34.31-53.25-51.27-50-20.49-68.27-41.81-68.27-78.11,0-46.54,37.5-77.31,93.51-77.31,22.16,0,41.82,2.76,62.36,10.25Z"/></svg>