<?xml version="1.0" encoding="utf-8"?>
<svg viewBox="81.582 150.061 209.68 184.636" xmlns="http://www.w3.org/2000/svg">
  <path class="st0" d="M 150.996 150.061 C 178.193 150.061 205.385 150.061 233.298 150.061 C 236.873 164.371 258.342 225.919 247.608 240.945 C 244.033 245.956 236.157 246.672 229.002 247.388 C 219.7 248.104 209.681 246.672 203.953 241.661 C 200.378 238.797 198.946 233.79 196.799 229.494 C 187.496 210.889 180.341 187.988 174.613 165.803 C 173.898 163.655 173.898 162.223 173.898 160.796 C 173.182 160.796 173.182 161.511 171.75 161.511 C 171.75 162.223 171.034 162.223 171.034 162.939 C 171.034 164.371 172.466 167.234 173.182 167.95 C 174.613 172.246 175.329 175.821 176.045 179.401 C 179.625 194.431 183.2 208.741 184.632 225.203 C 185.348 232.358 186.78 240.229 184.632 247.388 C 182.484 253.827 173.898 262.414 168.175 265.994 C 161.015 270.289 153.144 272.432 145.274 276.012 C 145.274 276.012 134.539 280.308 129.527 282.451 C 123.088 284.599 117.361 287.463 110.206 289.611 C 110.206 290.326 110.922 292.47 110.922 292.47 C 129.527 286.747 146.705 279.592 167.459 275.296 C 172.466 274.58 178.909 272.432 185.348 273.864 C 201.81 278.16 215.404 316.803 221.132 334.697 C 220.416 334.697 218.268 333.981 217.552 333.981 C 211.113 317.519 200.378 296.049 185.348 288.895 C 184.632 288.895 183.916 287.463 183.2 287.463 C 176.761 285.315 169.606 288.179 167.459 291.758 C 164.595 296.049 163.163 302.493 161.015 308.216 C 158.156 316.803 154.576 326.105 151.712 334.697 C 128.095 334.697 105.194 334.697 81.582 334.697 C 98.04 291.042 114.502 248.104 130.243 204.45 C 136.687 185.84 144.558 167.95 150.996 150.061 Z" style="fill: rgb(44, 62, 141);" transform="matrix(1, 0, 0, 1, 7.105427357601002e-15, 0)"/>
  <path class="st0" d="M 256.91 249.531 C 256.91 250.247 257.626 250.963 258.342 252.395 C 246.892 256.691 246.176 256.691 235.441 263.13 C 229.002 266.709 228.286 268.857 228.286 268.857 C 226.855 270.289 227.57 271.001 227.57 272.432 L 228.286 274.58 C 236.873 273.148 249.756 272.432 257.626 275.296 C 259.058 276.012 260.49 277.444 261.922 278.16 C 273.373 284.599 277.668 296.049 282.675 309.648 C 285.539 317.519 288.403 326.105 291.262 334.697 C 269.793 334.697 248.324 334.697 226.855 334.697 C 223.279 323.246 209.681 276.728 220.416 266.709 C 220.416 266.709 223.991 263.846 224.707 263.846 C 228.286 261.698 234.725 259.555 239.021 257.407 C 244.033 253.827 249.756 252.395 256.91 249.531 Z" style="fill: rgb(44, 62, 141);" transform="matrix(1, 0, 0, 1, 7.105427357601002e-15, 0)"/>
</svg>
