<svg id="レイヤー_1" data-name="レイヤー 1" xmlns="http://www.w3.org/2000/svg" viewBox="0 0 50 50">
  <defs>
    <style>
      .cls-1 {
        fill: #ea5504;
      }

      .cls-2 {
        fill: #fff;
      }
    </style>
  </defs>
  <g>
    <rect class="cls-1" width="50" height="50" rx="8.333"/>
    <g>
      <path class="cls-2" d="M9.275,13.353h7.536c3.458,0,6.264,1.534,6.264,5.644,0,2.839-1.109,4.568-3.425,5.285v.066c2.544.456,4.175,1.99,4.175,5.937,0,3.882-2.8,6.362-7.177,6.362H9.275Zm6.655,9.82c2.251,0,3.426-1.5,3.426-3.686,0-2.774-1.664-3.328-3.752-3.328h-2.61v7.014Zm.751,10.668c2.218,0,3.425-1.435,3.425-4.111,0-2.512-1.5-3.947-3.654-3.947H12.994v8.058Z"/>
      <path class="cls-2" d="M29.665,29.437v.587c0,2.838,1.24,4.274,3.817,4.274a3.3,3.3,0,0,0,3.524-3.393c0-2.447-1.24-3.523-3.328-4.143l-2.545-.881c-3.393-1.3-4.861-3.067-4.861-6.394,0-4.242,2.871-6.59,7.243-6.59,5.97,0,6.59,3.719,6.59,6.133v.522H36.386v-.49c0-2.12-.946-3.36-3.263-3.36-1.6,0-3.131.881-3.131,3.36,0,1.991,1.011,3,3.49,3.948l2.512.913c3.3,1.175,4.731,2.969,4.731,6.166,0,4.959-3,7.014-7.7,7.014-5.775,0-7.08-3.849-7.08-7.111v-.555Z"/>
    </g>
  </g>
</svg>
