<svg id="レイヤー_1" data-name="レイヤー 1" xmlns="http://www.w3.org/2000/svg" viewBox="0 0 50 50">
  <defs>
    <style>
      .cls-1 {
        fill: #717071;
      }

      .cls-2 {
        fill: #fff;
      }
    </style>
  </defs>
  <g>
    <rect class="cls-1" width="50" height="50" rx="8.333"/>
    <g>
      <path class="cls-2" d="M23.173,28.3v.489c0,4.209-1.7,8.319-7.177,8.319-5.873,0-7.7-3.784-7.7-12.1s1.827-12.1,7.732-12.1c6.623,0,7.014,4.893,7.014,7.307v.424H19.323v-.391c0-2.153-.652-4.633-3.327-4.535-2.741,0-3.981,1.7-3.981,9.2s1.24,9.4,3.981,9.4c3.1,0,3.458-3.458,3.458-5.612V28.3Z"/>
      <path class="cls-2" d="M27.414,13.353h3.72v9.331h6.851V13.353H41.7V36.647H37.985V25.816H31.134V36.647h-3.72Z"/>
    </g>
  </g>
</svg>
