<svg id="レイヤー_1" data-name="レイヤー 1" xmlns="http://www.w3.org/2000/svg" viewBox="0 0 50 50">
  <defs>
    <style>
      .cls-1 {
        fill: #654d9d;
      }

      .cls-2 {
        fill: #fff;
      }
    </style>
  </defs>
  <g>
    <rect class="cls-1" width="50" height="50" rx="8.333"/>
    <g>
      <path class="cls-2" d="M20.433,33.939h-.066c-1.011,2.153-2.349,3.164-5.089,3.164-5.089,0-6.916-3.784-6.916-12.1s2.349-12.1,7.732-12.1c5.839,0,6.818,4.6,6.818,6.72v.424H19.389v-.554c0-1.73-.718-3.785-3.263-3.785-2.642,0-4.045,1.762-4.045,9.2,0,7.5,1.24,9.4,3.752,9.4,2.838.032,3.882-2.023,3.882-7.112H15.8V24.38h7.438V36.647h-2.8Z"/>
      <path class="cls-2" d="M26.762,13.353H31.3L38.05,30.709h.065V13.353h3.523V36.647H37.1L30.35,18.834h-.065V36.647H26.762Z"/>
    </g>
  </g>
</svg>
