<svg id="レイヤー_1" data-name="レイヤー 1" xmlns="http://www.w3.org/2000/svg" viewBox="0 0 50 50">
  <defs>
    <style>
      .cls-1 {
        fill: #00a0e9;
      }

      .cls-2 {
        fill: #fff;
      }
    </style>
  </defs>
  <g>
    <rect class="cls-1" width="50" height="50" rx="8.333"/>
    <g>
      <path class="cls-2" d="M9.373,13.353h3.719V23.5h.065L20.2,13.353h4.078l-6.721,9.82L25,36.647H20.791L15.147,26.174l-2.055,2.937v7.536H9.373Z"/>
      <path class="cls-2" d="M40.627,28.3v.489c0,4.209-1.7,8.319-7.177,8.319-5.872,0-7.7-3.784-7.7-12.1s1.827-12.1,7.731-12.1C40.1,12.9,40.5,17.79,40.5,20.2v.424h-3.72v-.391c0-2.153-.652-4.633-3.327-4.535-2.741,0-3.98,1.7-3.98,9.2s1.239,9.4,3.98,9.4c3.1,0,3.458-3.458,3.458-5.612V28.3Z"/>
    </g>
  </g>
</svg>
