<svg id="レイヤー_1" data-name="レイヤー 1" xmlns="http://www.w3.org/2000/svg" viewBox="0 0 50 50">
  <defs>
    <style>
      .cls-1 {
        fill: #008b41;
      }

      .cls-2 {
        fill: #fff;
      }
    </style>
  </defs>
  <g>
    <rect class="cls-1" width="50" height="50" rx="8.333"/>
    <g>
      <path class="cls-2" d="M9.373,13.353h3.719V23.5h.065L20.2,13.353h4.078l-6.721,9.82L25,36.647H20.791L15.147,26.174l-2.055,2.937v7.536H9.373Z"/>
      <path class="cls-2" d="M37.821,33.939h-.065c-1.011,2.153-2.349,3.164-5.089,3.164-5.089,0-6.916-3.784-6.916-12.1S28.1,12.9,33.482,12.9c5.84,0,6.819,4.6,6.819,6.72v.424H36.777v-.554c0-1.73-.717-3.785-3.262-3.785-2.642,0-4.045,1.762-4.045,9.2,0,7.5,1.239,9.4,3.751,9.4,2.839.032,3.883-2.023,3.883-7.112H33.189V24.38h7.438V36.647H37.821Z"/>
    </g>
  </g>
</svg>
