<?xml version="1.0" encoding="UTF-8" standalone="no"?>
<svg xmlns="http://www.w3.org/2000/svg" width="247.85156" height="254.00398" version="1.1">
<path fill="#004ea2" d="m 65.039062,252.83208 c 0.390518,-4.2968 1.660048,-8.1542 3.808594,-11.5723 2.148324,-3.4179 4.882697,-6.6894 8.203125,-9.8144 12.304556,-10.3515 25.195169,-20.0195 38.671879,-29.0039 13.47639,-8.98429 27.05059,-18.06631 40.72265,-27.24611 L 145.3125,227.34378 c -1.36737,8.7891 -4.78534,15.4298 -10.25391,19.9219 l 58.30078,0 c -2.92991,-3.5156 -4.59007,-6.4453 -4.98046,-8.7891 -0.39086,-2.3437 -0.19555,-4.7851 0.58593,-7.3242 l 19.04297,-90.52732 c 12.49973,-14.45296 20.99582,-28.90607 25.48828,-43.35938 4.49191,-14.45291 6.54268,-26.56227 6.15234,-36.32812 l -3.51562,0 c -2.8e-4,2.7346 -0.92801,6.29905 -2.78321,10.69336 -1.85574,4.39475 -4.44363,8.78927 -7.76367,13.18359 -3.32057,4.39474 -10.44947,10.40059 -21.38672,18.01758 -10.93773,7.61737 -22.55881,15.47869 -34.86327,23.58398 -12.30489,8.10563 -25.39081,16.94351 -39.25782,26.51367 -13.86734,9.57045 -23.68178,16.89466 -29.44335,21.97266 -5.76186,5.07824 -10.205215,9.47277 -13.330083,13.18359 -3.125126,3.71105 -6.445435,7.71495 -9.960937,12.01172 -3.515741,4.29697 -7.373159,10.98637 -11.572266,20.06837 -4.199322,9.0821 -5.712993,20.3614 -4.541016,33.8379 l 3.808594,-1.1719 z"/>
<path fill="#00a496" d="m 29.58984,247.26568 c -1.95319,-2.1484 -3.1739,-4.7851 -3.66211,-7.9102 -0.48835,-3.1249 -0.43952,-6.2499 0.14649,-9.375 l 29.0039,-122.46095 0.58594,0 19.92187,48.63281 c -2.34386,4.68763 -3.95519,9.27747 -4.83398,13.76952 -0.87902,4.4923 -1.41613,8.4962 -1.61133,12.0117 -0.19542,3.5158 0.0975,8.2033 0.87891,14.0625 l 4.10156,-0.5859 c 0.78113,-7.0312 3.02723,-13.2323 6.73828,-18.6035 3.71081,-5.371 8.30065,-10.5956 13.76953,-15.67385 9.37486,-8.78892 17.9686,-15.72251 25.78126,-20.80078 7.81233,-5.07797 17.82208,-11.52327 30.02929,-19.33594 12.20683,-7.81232 24.16971,-15.52715 35.88867,-23.14453 11.71851,-7.61698 21.63061,-15.57596 29.73633,-23.87695 8.1052,-8.30056 15.18527,-19.14039 21.24023,-32.51953 6.0544,-13.37864 9.57003,-27.19699 10.54688,-41.45508 l -4.10157,0 c -1.36747,4.68779 -3.41825,9.42411 -6.15234,14.20898 -2.73465,4.78543 -6.15262,9.22879 -10.25391,13.33008 -17.969,13.08619 -36.42601,25.63501 -55.37108,37.64648 -18.94551,12.01194 -37.40253,24.4631 -55.3711,37.35352 -1.17203,-3.90605 -2.58805,-7.22636 -4.24805,-9.96094 -1.6603,-2.73417 -3.95522,-5.37088 -6.88476,-7.91015 -2.92983,-2.53885 -5.85952,-4.39432 -8.78907,-5.56641 -2.92982,-1.17166 -5.95716,-2.05056 -9.08203,-2.63672 l -49.21875,0 c 2.14836,2.14865 3.51554,4.05295 4.10157,5.71289 0.58585,1.66037 0.78116,3.56466 0.58593,5.71289 L 12.01172,225.87898 c -1.36724,5.8594 -2.88091,10.3028 -4.54102,13.3301 -1.6602,3.0274 -4.15044,5.7129 -7.4707,8.0566 l 29.58984,0 z"/>
</svg>
