<svg id="レイヤー_1" data-name="レイヤー 1" xmlns="http://www.w3.org/2000/svg" viewBox="0 0 50 50">
  <defs>
    <style>
      .cls-1 {
        fill: #7f1084;
      }

      .cls-2 {
        fill: #fff;
      }
    </style>
  </defs>
  <g>
    <rect class="cls-1" width="50" height="50" rx="8.333"/>
    <g>
      <path class="cls-2" d="M12.929,29.437v.587c0,2.838,1.24,4.274,3.817,4.274a3.3,3.3,0,0,0,3.523-3.393c0-2.447-1.239-3.523-3.327-4.143L14.4,25.881c-3.393-1.3-4.861-3.067-4.861-6.394,0-4.242,2.871-6.59,7.243-6.59,5.97,0,6.59,3.719,6.59,6.133v.522h-3.72v-.49c0-2.12-.946-3.36-3.262-3.36-1.6,0-3.132.881-3.132,3.36,0,1.991,1.011,3,3.491,3.948l2.512.913c3.3,1.175,4.73,2.969,4.73,6.166,0,4.959-3,7.014-7.7,7.014-5.774,0-7.079-3.849-7.079-7.111v-.555Z"/>
      <path class="cls-2" d="M31.623,16.485H26.077V13.353H40.79v3.132H35.342V36.647H31.623Z"/>
    </g>
  </g>
</svg>
