<svg id="レイヤー_1" data-name="レイヤー 1" xmlns="http://www.w3.org/2000/svg" viewBox="0 0 50 50">
  <defs>
    <style>
      .cls-1 {
        fill: #ea5504;
      }

      .cls-2 {
        fill: #fff;
      }
    </style>
  </defs>
  <g>
    <rect class="cls-1" width="50" height="50" rx="8.333"/>
    <g>
      <path class="cls-2" d="M14.446,16.485H8.9V13.353H23.613v3.132H18.165V36.647H14.446Z"/>
      <path class="cls-2" d="M26.55,13.353h7.536c3.458,0,6.264,1.534,6.264,5.644,0,2.839-1.109,4.568-3.426,5.285v.066c2.545.456,4.176,1.99,4.176,5.937,0,3.882-2.806,6.362-7.177,6.362H26.55Zm6.655,9.82c2.251,0,3.426-1.5,3.426-3.686,0-2.774-1.664-3.328-3.752-3.328h-2.61v7.014Zm.75,10.668c2.219,0,3.426-1.435,3.426-4.111,0-2.512-1.5-3.947-3.654-3.947H30.269v8.058Z"/>
    </g>
  </g>
</svg>
