<?xml version="1.0" encoding="UTF-8" standalone="no"?>
<svg
   xmlns:dc="http://purl.org/dc/elements/1.1/"
   xmlns:cc="http://creativecommons.org/ns#"
   xmlns:rdf="http://www.w3.org/1999/02/22-rdf-syntax-ns#"
   xmlns:svg="http://www.w3.org/2000/svg"
   xmlns="http://www.w3.org/2000/svg"
   xmlns:sodipodi="http://sodipodi.sourceforge.net/DTD/sodipodi-0.dtd"
   xmlns:inkscape="http://www.inkscape.org/namespaces/inkscape"
   width="170"
   height="170"
   viewBox="0 0 170 170"
   version="1.1"
   id="svg34"
   sodipodi:docname="JR SE line symbol.svg"
   inkscape:version="0.92.4 (5da689c313, 2019-01-14)">
  <metadata
     id="metadata40">
    <rdf:RDF>
      <cc:Work
         rdf:about="">
        <dc:format>image/svg+xml</dc:format>
        <dc:type
           rdf:resource="http://purl.org/dc/dcmitype/StillImage" />
        <dc:title></dc:title>
      </cc:Work>
    </rdf:RDF>
  </metadata>
  <defs
     id="defs38" />
  <sodipodi:namedview
     pagecolor="#ffffff"
     bordercolor="#666666"
     borderopacity="1"
     objecttolerance="10"
     gridtolerance="10"
     guidetolerance="10"
     inkscape:pageopacity="0"
     inkscape:pageshadow="2"
     inkscape:window-width="2560"
     inkscape:window-height="1369"
     id="namedview36"
     showgrid="false"
     inkscape:zoom="7.8530447"
     inkscape:cx="101.66825"
     inkscape:cy="87.913806"
     inkscape:window-x="1016"
     inkscape:window-y="-8"
     inkscape:window-maximized="1"
     inkscape:current-layer="svg34" />
  <rect
     rx="19.75"
     ry="19.75"
     width="170"
     height="170"
     id="rect26"
     style="fill:#00a7e3;fill-opacity:1"
     fill="#DD6935" />
  <rect
     fill="#FFF"
     x="19"
     y="19"
     width="132"
     height="132"
     id="rect28" />
  <path
     style="fill:#000000;stroke-width:0.16601562"
     d="m 51.962891,121.91903 c -2.1543,-0.19175 -5.171522,-0.62971 -7.387696,-1.07234 -2.673202,-0.5339 -6.519435,-1.54288 -6.746302,-1.76975 -0.115422,-0.11542 1.084962,-13.12173 1.222765,-13.24879 0.02476,-0.0228 0.916411,0.38409 1.981443,0.90427 4.801162,2.34496 10.788107,3.68371 15.412211,3.44637 2.27681,-0.11686 3.469576,-0.31831 5.167635,-0.87278 2.688849,-0.87798 4.976192,-2.79843 6.155943,-5.16851 0.625664,-1.25694 0.685968,-1.49631 0.758987,-3.01266 0.101201,-2.10166 -0.28321,-3.501505 -1.365135,-4.971198 -1.615546,-2.194564 -3.38866,-3.204532 -12.460594,-7.097571 -3.104492,-1.332233 -6.279541,-2.760644 -7.055664,-3.174251 -5.733155,-3.05527 -9.20624,-7.088229 -10.562956,-12.265741 -0.528174,-2.015625 -0.730057,-6.308653 -0.402133,-8.55134 0.879424,-6.014422 4.340581,-11.05287 9.719972,-14.149487 7.147605,-4.114476 18.940668,-4.678162 31.003418,-1.481905 2.161527,0.572739 2.282715,0.626844 2.282715,1.019137 0,0.542502 -1.159632,11.327976 -1.246027,11.588999 -0.0464,0.140176 -0.381555,0.05849 -1.111855,-0.270977 -4.284506,-1.932923 -11.592574,-3.241525 -15.856921,-2.839383 -3.395717,0.320225 -5.454179,1.148072 -7.392068,2.972848 -1.57087,1.479178 -2.316233,2.990944 -2.416495,4.901201 -0.138718,2.642901 0.837927,4.685695 3.038014,6.354451 1.482138,1.124193 3.48045,2.062807 10.541993,4.95161 7.00553,2.86589 8.111805,3.377897 9.960937,4.610146 1.738838,1.158749 4.521027,4.036272 5.618264,5.810774 2.798942,4.526582 3.726782,9.792281 2.741549,15.558917 -0.669295,3.91743 -2.629779,7.68356 -5.537547,10.63774 -3.671472,3.73007 -8.23644,5.76455 -15.439453,6.88093 -1.679912,0.26037 -8.834759,0.46864 -10.625,0.30929 z m 41.711054,-36.960534 0.04187,-36.398926 21.623545,-0.04212 21.62352,-0.04212 v 6.143197 6.143198 h -14.19433 -14.19433 v 8.631801 8.6318 l 12.99072,0.04252 12.99071,0.04252 0.0436,5.934045 0.0436,5.934046 -12.99281,0.04252 -12.99282,0.04252 -0.0429,9.587402 -0.0428,9.587401 h 14.3617 14.3617 v 6.05957 6.05957 H 115.4635 93.632069 Z"
     id="path826"
     inkscape:connector-curvature="0" />
</svg>
