<?xml version="1.0" encoding="UTF-8" standalone="no"?>
<svg
   xmlns:dc="http://purl.org/dc/elements/1.1/"
   xmlns:cc="http://creativecommons.org/ns#"
   xmlns:rdf="http://www.w3.org/1999/02/22-rdf-syntax-ns#"
   xmlns:svg="http://www.w3.org/2000/svg"
   xmlns="http://www.w3.org/2000/svg"
   xmlns:sodipodi="http://sodipodi.sourceforge.net/DTD/sodipodi-0.dtd"
   xmlns:inkscape="http://www.inkscape.org/namespaces/inkscape"
   width="170"
   height="170"
   viewBox="0 0 170 170"
   version="1.1"
   id="svg34"
   sodipodi:docname="JR SN line symbol.svg"
   inkscape:version="0.92.4 (5da689c313, 2019-01-14)">
  <metadata
     id="metadata40">
    <rdf:RDF>
      <cc:Work
         rdf:about="">
        <dc:format>image/svg+xml</dc:format>
        <dc:type
           rdf:resource="http://purl.org/dc/dcmitype/StillImage" />
        <dc:title></dc:title>
      </cc:Work>
    </rdf:RDF>
  </metadata>
  <defs
     id="defs38" />
  <sodipodi:namedview
     pagecolor="#ffffff"
     bordercolor="#666666"
     borderopacity="1"
     objecttolerance="10"
     gridtolerance="10"
     guidetolerance="10"
     inkscape:pageopacity="0"
     inkscape:pageshadow="2"
     inkscape:window-width="2560"
     inkscape:window-height="1369"
     id="namedview36"
     showgrid="false"
     inkscape:zoom="3.9265224"
     inkscape:cx="225.21478"
     inkscape:cy="66.997763"
     inkscape:window-x="1016"
     inkscape:window-y="-8"
     inkscape:window-maximized="1"
     inkscape:current-layer="svg34" />
  <rect
     rx="19.75"
     ry="19.75"
     width="170"
     height="170"
     id="rect26"
     style="fill:#d56a29;fill-opacity:1"
     fill="#DD6935" />
  <rect
     fill="#FFF"
     x="19"
     y="19"
     width="132"
     height="132"
     id="rect28" />
  <path
     style="fill:#000000;stroke-width:0.16601562"
     d="m 42.666016,121.84967 c -2.290511,-0.21777 -4.941148,-0.61525 -7.264653,-1.08937 -2.255052,-0.46016 -6.199583,-1.50744 -6.372286,-1.69186 -0.0609,-0.065 0.178538,-2.95711 0.53209,-6.42684 0.353554,-3.46973 0.645266,-6.43509 0.64825,-6.58969 0.0044,-0.22732 0.394542,-0.0941 2.039118,0.69604 5.053408,2.42805 10.450951,3.64131 15.31243,3.44192 4.388392,-0.17999 7.214708,-1.20015 9.499792,-3.42895 2.047659,-1.99722 2.792826,-3.83425 2.675111,-6.59484 -0.06045,-1.417675 -0.140575,-1.782815 -0.600863,-2.738247 -0.950734,-1.973462 -2.687312,-3.54912 -5.42895,-4.925872 -0.730469,-0.366817 -3.868164,-1.762233 -6.972657,-3.100925 -9.109294,-3.928034 -10.956561,-4.975234 -13.779296,-7.811365 -2.505173,-2.517061 -4.055226,-5.299105 -4.826735,-8.663054 -0.405895,-1.769787 -0.497574,-6.26366 -0.166891,-8.180523 0.5517,-3.198026 1.695048,-5.978701 3.40886,-8.290507 1.041244,-1.40456 3.422065,-3.707987 4.799173,-4.643163 1.520777,-1.032738 4.488952,-2.40797 6.434212,-2.981134 5.951648,-1.753633 14.724189,-1.855681 22.373907,-0.260271 1.888889,0.393943 5.649669,1.406204 5.808639,1.563468 0.123123,0.1218 -0.955562,11.265905 -1.153679,11.918898 -0.04867,0.160421 -0.224619,0.130872 -0.71727,-0.120459 -2.629049,-1.34124 -7.922495,-2.650539 -12.187724,-3.014552 -5.372496,-0.458513 -9.195042,0.60185 -11.708547,3.247918 -1.586601,1.670279 -2.071996,2.719652 -2.157001,4.663218 -0.08235,1.882807 0.200389,2.954969 1.157026,4.387542 1.465474,2.194566 3.022995,3.065989 12.217362,6.835531 7.461869,3.059246 8.6729,3.626216 10.459587,4.896885 5.916868,4.207998 8.923217,10.934777 8.337225,18.654742 -0.267377,3.52247 -1.14551,6.42607 -2.768775,9.15513 -3.700935,6.22208 -9.49536,9.56996 -18.80644,10.86591 -2.120551,0.29515 -8.624402,0.43041 -10.791015,0.22442 z M 84.169922,84.751461 V 48.141648 l 8.890243,0.04294 8.890245,0.04295 14.33584,27.802248 c 7.88471,15.291238 14.41779,27.829574 14.51796,27.862954 0.13167,0.0439 0.18212,-7.66952 0.18212,-27.843751 V 48.144531 h 6.55762 6.55761 v 36.606446 36.606443 h -8.87801 -8.878 l -0.23632,-0.37353 C 125.97925,120.77844 119.67438,108.58252 112.09841,93.881836 104.52243,79.181152 98.108864,66.742432 97.846035,66.240234 l -0.477871,-0.913086 -0.08301,27.973633 -0.08301,27.973629 -6.516113,0.0434 -6.516113,0.0434 z"
     id="path841"
     inkscape:connector-curvature="0" />
</svg>
