<?xml version="1.0" encoding="UTF-8"?>
<svg id="_レイヤー_1" data-name="レイヤー_1" xmlns="http://www.w3.org/2000/svg"
  xmlns:xlink="http://www.w3.org/1999/xlink" version="1.1" viewBox="0 0 230.8 300">
  <!-- Generator: Adobe Illustrator 29.1.0, SVG Export Plug-In . SVG Version: 2.1.0 Build 142)  -->
  <defs>
    <style>
      .st0 {
      fill: #e94818;
      }

      .st1 {
      fill: url(#gradient3);
      }

      .st2 {
      fill: url(#gradient2);
      }

      .st3 {
      fill: #5ca532;
      }

      .st4 {
      fill: #237bb3;
      }

      .st5 {
      fill: url(#gradient1);
      }
    </style>
    <linearGradient id="gradient1" data-name="gradient1" x1="487.8" y1="226.2" x2="488.8"
      y2="226.2" gradientTransform="translate(49362.7 -22668.1) rotate(-180) scale(100.8 -100.8)"
      gradientUnits="userSpaceOnUse">
      <stop offset="0" stop-color="#f8b500" />
      <stop offset="1" stop-color="#e94818" />
    </linearGradient>
    <linearGradient id="gradient2" data-name="gradient2" x1="485.8" y1="223.2" x2="486.8"
      y2="223.2" gradientTransform="translate(19600.1 -52344.8) rotate(135) scale(104.8 -104.8)"
      gradientUnits="userSpaceOnUse">
      <stop offset="0" stop-color="#72b4d2" />
      <stop offset="1" stop-color="#237bb3" />
    </linearGradient>
    <linearGradient id="gradient3" data-name="gradient3" x1="485.2" y1="228.5" x2="486.2"
      y2="228.5" gradientTransform="translate(90969.5 32717.1) rotate(-135) scale(179.9 -179.9)"
      gradientUnits="userSpaceOnUse">
      <stop offset="0" stop-color="#f7f28a" />
      <stop offset=".3" stop-color="#5ca532" />
      <stop offset="1" stop-color="#5ca532" />
    </linearGradient>
  </defs>
  <path class="st0"
    d="M148.2,164.9l30.4-8.7c.9-.3,1.7-1.3,1.7-2.3l5.1-73.5c0-.9-.7-1.7-1.7-1.8l-27.3-.6c.4,6.2.7,12.5.7,18.8,0,23.6-3.1,46.4-8.9,68.1" />
  <path class="st4"
    d="M229.4,158.4l-89.8,32.9c-13,33.7-32.8,64.4-58.1,90.1l-1.2,17.6c0,.9.5,1.1,1.4.8,85.5-23.4,124.4-78.8,124.4-78.8,19.4-23,24.7-61.6,24.7-61.6.1-.9-.5-1.4-1.4-1" />
  <path class="st3"
    d="M207.8,57.1c1,0,1.5-.6,1.1-1.5,0,0-7.6-22.6-22.6-33.7,0,0-16.5-16.4-47.2-20.8,6.2,16,10.9,32.6,13.9,49.5l54.8,6.5Z" />
  <path class="st5"
    d="M9.1,76.3L0,205.7c0,.9.6,1.4,1.5,1.1l146.6-42c5.9-22.2,8.9-45.1,8.9-68.1,0-6.3-.2-12.6-.7-18.8l-145.5-3.4h0c-.9,0-1.7.7-1.8,1.7" />
  <path class="st2"
    d="M88,210.3c-.9.3-1.7,1.4-1.7,2.3l-4.8,68.9c25.3-25.7,45.1-56.4,58.1-90.1l-51.6,18.9Z" />
  <path class="st1"
    d="M123.1,1.6l-3,43.4c0,.9.7,1.8,1.6,1.8l31.4,3.7c-3-16.9-7.6-33.5-13.9-49.5C134.4.4,129.7,0,124.9,0h0c-.9,0-1.7.7-1.8,1.6" />
</svg>
