<?xml version="1.0" encoding="UTF-8"?>
<svg id="_レイヤー_1" data-name="レイヤー_1" xmlns="http://www.w3.org/2000/svg" version="1.1" viewBox="0 0 500 500">
  <!-- Generator: Adobe Illustrator 29.1.0, SVG Export Plug-In . SVG Version: 2.1.0 Build 142)  -->
  <defs>
    <style>
      .st0 {
        isolation: isolate;
      }

      .st1 {
        fill: #fff;
      }

      .st2 {
        fill: #fa9e0d;
      }
    </style>
  </defs>
  <circle class="st2" cx="250" cy="250" r="250"/>
  <g class="st0">
    <path class="st1" d="M251,387c-17.5,0-33-3.2-46.6-9.6-13.6-6.4-24.3-15.3-32-26.6-7.7-11.3-11.5-24.3-11.5-38.9s2.5-22.8,7.5-32.1c5-9.4,11.5-17.6,19.4-24.6,8-7.1,16.2-12.9,24.6-17.5v-1.5c-10.3-7.2-19.2-16-26.8-26.4-7.6-10.4-11.4-22.8-11.4-37.2s3.4-26.4,10.2-37c6.8-10.5,16-18.7,27.7-24.4,11.7-5.8,24.8-8.7,39.5-8.7s30,3.1,41.6,9.2c11.5,6.2,20.4,14.8,26.6,25.8,6.2,11,9.2,23.6,9.2,37.7s-2,18.9-6,27.3c-4,8.5-8.9,16-14.6,22.5s-11.4,12-16.7,16.4v1.5c8,4.9,15.6,10.5,22.9,16.7,7.3,6.3,13.2,13.8,17.7,22.5,4.5,8.7,6.7,19.4,6.7,32s-3.7,25.6-11,36.8c-7.3,11.2-17.6,20-30.8,26.4-13.2,6.4-28.7,9.6-46.4,9.6ZM251.3,360.8c11,0,20.6-2.1,28.7-6.2,8.1-4.1,14.4-9.8,18.9-16.9,4.5-7.2,6.7-15.4,6.7-24.6s-2.1-16.7-6.2-23.1c-4.1-6.4-9.6-11.9-16.4-16.6-6.8-4.6-14.7-8.9-23.7-12.9-9-4-18.5-7.9-28.5-11.7-11.3,7.2-20.6,15.8-27.9,25.8s-11,21.4-11,34.3,2.6,18.6,7.7,26.6c5.1,8,12.3,14.2,21.4,18.7,9.1,4.5,19.2,6.7,30.2,6.7ZM270.2,232.6c9.2-8.5,16.4-17.3,21.4-26.4,5-9.1,7.5-18.8,7.5-29.1s-1.9-17.1-5.6-24.4c-3.7-7.3-9.2-13.2-16.4-17.5-7.2-4.4-15.8-6.5-25.8-6.5s-23.9,4-32.3,11.9c-8.5,8-12.7,18.6-12.7,32s3,20.2,9,27.3c6,7.2,13.9,13.3,23.7,18.3,9.8,5,20.1,9.8,31.2,14.4Z"/>
  </g>
</svg>