<?xml version="1.0" encoding="UTF-8"?>
<svg id="_レイヤー_1" data-name="レイヤー_1" xmlns="http://www.w3.org/2000/svg" version="1.1" viewBox="0 0 500 500">
  <!-- Generator: Adobe Illustrator 29.1.0, SVG Export Plug-In . SVG Version: 2.1.0 Build 142)  -->
  <defs>
    <style>
      .st0 {
        isolation: isolate;
      }

      .st1 {
        fill: #fff;
      }

      .st2 {
        fill: #fa9e0d;
      }
    </style>
  </defs>
  <circle class="st2" cx="250" cy="250" r="250"/>
  <g class="st0">
    <path class="st1" d="M62.7,382v-29.3h63.1v-202.5h-50.4v-22.3c12.6-2.3,23.5-5.1,32.9-8.5,9.4-3.3,17.9-7.3,25.6-11.9h26.9v245.2h56.6v29.3H62.7Z"/>
    <path class="st1" d="M349.5,387c-18.2,0-33.9-5.5-47-16.6-13.1-11-23.2-27.2-30.2-48.5-7.1-21.3-10.6-47.4-10.6-78.2s3.5-56.3,10.6-77.4c7.1-21,17.1-37,30.2-47.7,13.1-10.8,28.7-16.2,47-16.2s33.9,5.4,47,16.2c13.1,10.8,23.2,26.7,30.2,47.7,7.1,21,10.6,46.8,10.6,77.4s-3.5,56.9-10.6,78.2c-7.1,21.3-17.1,37.5-30.2,48.5-13.1,11-28.7,16.6-47,16.6ZM349.5,358.5c10.8,0,20.2-4,28.3-11.9,8.1-8,14.4-20.4,18.9-37.3,4.5-16.9,6.7-38.8,6.7-65.5s-2.2-48.4-6.7-65.1c-4.5-16.7-10.8-28.9-18.9-36.6s-17.5-11.5-28.3-11.5-19.9,3.8-28.1,11.5c-8.2,7.7-14.6,19.9-19.1,36.6-4.5,16.7-6.7,38.4-6.7,65.1s2.2,48.5,6.7,65.5c4.5,16.9,10.8,29.4,19.1,37.3,8.2,8,17.6,11.9,28.1,11.9Z"/>
  </g>
</svg>