<?xml version="1.0" encoding="UTF-8"?><svg id="Layer_1" xmlns="http://www.w3.org/2000/svg" viewBox="0 0 131.84 100.97"><defs><style>.cls-1{fill:#e1251b;}</style></defs><path class="cls-1" d="M51.18,44.5h-22.92c.1-.9.28-2.14.48-2.98,4.17-16.08,19.22-28.28,37.22-28.28,13.02,0,24.45,6.3,31.43,15.81h-29.08c-2.38,0-4.7,1.28-6.65,3.74l-7.08,9.78c-.69,1.16-1.93,1.93-3.41,1.93M60.4,54.99l9.43-12.21c.6-.9,1.55-1.54,2.75-1.54h44.57C112.73,17.82,91.6,0,65.97,0S19.15,17.94,14.68,41.3h0s-.01.07-.03.17c-.01.06-.02.11-.03.17h0c-.12.73-.4,2.46-.37,2.87h-4.48L0,56.7h57.06c1.4,0,2.6-.68,3.34-1.71"/><path class="cls-1" d="M103.11,59.38c-4.18,16.06-19.25,28.35-37.25,28.35-13.02,0-24.46-6.3-31.42-15.81h29.07c2.38,0,4.71-1.27,6.65-3.74l7.09-9.77c.68-1.16,1.93-1.93,3.41-1.93h22.93c-.1.88-.27,2.07-.47,2.9M122.06,56.47l9.78-12.21h-57.06c-1.4,0-2.61.68-3.34,1.71l-9.42,12.2c-.6.9-1.57,1.54-2.74,1.54H14.58c4.42,23.43,25.65,41.25,51.29,41.25s46.8-17.99,51.31-41.32h0s0-.05.02-.13c.02-.09.04-.18.06-.27h-.01c.12-.76.37-2.35.36-2.78h4.46Z"/></svg>