<?xml version="1.0" encoding="UTF-8"?>
<svg id="_レイヤー_1" data-name="レイヤー_1" xmlns="http://www.w3.org/2000/svg" version="1.1" viewBox="0 0 500 500">
  <!-- Generator: Adobe Illustrator 29.1.0, SVG Export Plug-In . SVG Version: 2.1.0 Build 142)  -->
  <defs>
    <style>
      .st0 {
        isolation: isolate;
      }

      .st1 {
        fill: #fff;
      }

      .st2 {
        fill: #9d5b25;
      }
    </style>
  </defs>
  <circle class="st2" cx="250" cy="250" r="250"/>
  <g class="st0">
    <path class="st1" d="M70.2,382v-29.3h63.1v-202.5h-50.4v-22.3c12.6-2.3,23.5-5.1,32.9-8.5,9.4-3.3,17.9-7.3,25.6-11.9h27v245.2h56.6v29.3H70.2Z"/>
    <path class="st1" d="M351.3,387c-14.6,0-27.5-1.8-38.7-5.4-11.2-3.6-21-8.3-29.5-14.2-8.5-5.9-15.8-12.3-21.9-19.2l18.1-22.7c8.2,8.5,17.9,16,29.1,22.5s24.7,9.8,40.6,9.8,21.2-2.1,29.8-6.2c8.6-4.1,15.3-9.9,20.2-17.5,4.9-7.6,7.3-16.5,7.3-26.8s-2.8-20.6-8.3-28.7c-5.5-8.1-14.7-14.4-27.5-18.9-12.8-4.5-30.2-6.7-52-6.7v-27.3c19.5,0,34.9-2.2,46.2-6.7,11.3-4.5,19.4-10.6,24.4-18.5,5-7.8,7.5-16.5,7.5-26s-4.2-23.9-12.7-31.8c-8.5-7.8-20.2-11.7-35-11.7s-21.9,2.6-31.8,7.9c-9.9,5.3-18.8,12-26.8,20.2l-18.9-22.3c10.8-9.8,22.5-17.9,35.2-24.4s27.1-9.8,43.3-9.8,30.1,2.7,42.5,8.1c12.4,5.4,22.2,13.3,29.3,23.7,7.1,10.4,10.6,22.9,10.6,37.5s-4.6,30.4-13.9,41.2c-9.2,10.8-21.3,18.9-36.2,24.3v1.5c11,2.8,21,7.3,30,13.5,9,6.2,16.2,13.9,21.6,23.3,5.4,9.4,8.1,20.5,8.1,33.3s-4.1,30.4-12.3,42c-8.2,11.5-19.1,20.5-32.7,26.8-13.6,6.3-28.9,9.4-45.8,9.4Z"/>
  </g>
</svg>