<?xml version="1.0" encoding="UTF-8" standalone="no"?>
<svg
  xmlns:dc="http://purl.org/dc/elements/1.1/"
  xmlns:cc="http://creativecommons.org/ns#"
  xmlns:rdf="http://www.w3.org/1999/02/22-rdf-syntax-ns#"
  xmlns:svg="http://www.w3.org/2000/svg"
  xmlns="http://www.w3.org/2000/svg"
  version="1.1"
  id="svg4191"
  viewBox="0 0 104.99999 104.99999"
  height="105"
  width="105">
  <defs
    id="defs4193" />
  <metadata
    id="metadata4196">
    <rdf:RDF>
      <cc:Work
        rdf:about="">
        <dc:format>image/svg+xml</dc:format>
        <dc:type
          rdf:resource="http://purl.org/dc/dcmitype/StillImage" />
        <dc:title></dc:title>
      </cc:Work>
    </rdf:RDF>
  </metadata>
  <circle
    r="50.070705"
    cy="52.499992"
    cx="52.499992"
    id="path4757"
    style="opacity:1;fill:#ffffff;fill-opacity:1;stroke:#1f64b1;stroke-width:4.85859394;stroke-miterlimit:4;stroke-dasharray:none;stroke-opacity:1" />
  <g
    transform="translate(-350.35715,-417.00508)"
    id="g4759">
    <path
      id="path4174"
      d="m 400.24947,485.85082 -8.43085,0 0,-14.40273 -12.44869,0 0,14.40273 -8.43085,0 0,-32.69151 8.43085,0 0,11.96564 12.44869,0 0,-11.96564 8.43085,0 0,32.69151 z"
      style="fill:#1f64b1;fill-opacity:1;fill-rule:evenodd;stroke-width:28.22200012;stroke-linejoin:round" />
    <path
      id="path4176"
      d="m 434.77521,475.57573 q 0,4.83016 -4.10565,7.86001 -4.08369,3.00788 -11.10941,3.00788 -4.06174,0 -7.09158,-0.70257 -3.00788,-0.72454 -5.64252,-1.82229 l 0,-7.83808 0.92212,0 q 2.61269,2.08577 5.84013,3.20549 3.24939,1.11972 6.23532,1.11972 0.76843,0 2.01989,-0.13174 1.25145,-0.13174 2.04185,-0.43909 0.96603,-0.39522 1.58078,-0.98801 0.63671,-0.5928 0.63671,-1.75642 0,-1.07582 -0.92213,-1.84425 -0.90017,-0.79037 -2.6566,-1.20753 -1.84425,-0.43912 -3.90805,-0.81237 -2.04185,-0.39519 -3.84219,-0.98798 -4.1276,-1.33927 -5.9499,-3.62264 -1.80034,-2.30532 -1.80034,-5.70838 0,-4.56672 4.0837,-7.44286 4.10565,-2.8981 10.53857,-2.8981 3.22744,0 6.36705,0.63669 3.16157,0.61473 5.46688,1.55881 l 0,7.5307 -0.90016,0 q -1.97598,-1.58078 -4.85214,-2.63463 -2.85419,-1.07582 -5.84012,-1.07582 -1.05386,0 -2.10772,0.15368 -1.0319,0.13174 -1.99793,0.52692 -0.85626,0.32935 -1.47101,1.00995 -0.61475,0.65867 -0.61475,1.51494 0,1.29536 0.98799,1.99793 0.98799,0.6806 3.73241,1.25146 1.80034,0.37322 3.44699,0.72454 1.66861,0.35128 3.57872,0.96601 3.75437,1.22949 5.53275,3.35916 1.80034,2.10774 1.80034,5.48887 z"
      style="fill:#1f64b1;fill-opacity:1;fill-rule:evenodd;stroke-width:28.22200012;stroke-linejoin:round" />
  </g>
</svg>
