<?xml version="1.0" encoding="UTF-8" standalone="no"?>
<svg
   xmlns:dc="http://purl.org/dc/elements/1.1/"
   xmlns:cc="http://creativecommons.org/ns#"
   xmlns:rdf="http://www.w3.org/1999/02/22-rdf-syntax-ns#"
   xmlns:svg="http://www.w3.org/2000/svg"
   xmlns="http://www.w3.org/2000/svg"
   xmlns:sodipodi="http://sodipodi.sourceforge.net/DTD/sodipodi-0.dtd"
   xmlns:inkscape="http://www.inkscape.org/namespaces/inkscape"
   version="1.1"
   width="400px"
   height="400px"
   viewBox="0 0 400 400"
   id="svg4569"
   sodipodi:docname="Tokyu_SH_line_symbol.svg"
   inkscape:version="0.92.4 (5da689c313, 2019-01-14)">
  <metadata
     id="metadata4575">
    <rdf:RDF>
      <cc:Work
         rdf:about="">
        <dc:format>image/svg+xml</dc:format>
        <dc:type
           rdf:resource="http://purl.org/dc/dcmitype/StillImage" />
        <dc:title></dc:title>
      </cc:Work>
    </rdf:RDF>
  </metadata>
  <defs
     id="defs4573" />
  <sodipodi:namedview
     pagecolor="#ffffff"
     bordercolor="#666666"
     borderopacity="1"
     objecttolerance="10"
     gridtolerance="10"
     guidetolerance="10"
     inkscape:pageopacity="0"
     inkscape:pageshadow="2"
     inkscape:window-width="2560"
     inkscape:window-height="1369"
     id="namedview4571"
     showgrid="false"
     inkscape:zoom="2.36"
     inkscape:cx="333.17981"
     inkscape:cy="165.06784"
     inkscape:window-x="-8"
     inkscape:window-y="-8"
     inkscape:window-maximized="1"
     inkscape:current-layer="svg4569" />
  <path
     inkscape:connector-curvature="0"
     style="fill:#890d84;fill-opacity:1"
     id="path4559"
     d="M 326.131,399.717 H 73.869 c -40.578,0 -73.586,-33.009 -73.586,-73.586 V 73.869 C 0.283,33.291 33.291,0.283 73.869,0.283 h 252.262 c 40.559,0 73.586,33.008 73.586,73.586 v 252.262 c 0,40.577 -33.028,73.586 -73.586,73.586 z" />
  <g
     style="fill:#ffffff"
     id="g4565" />
  <path
     style="opacity:1;fill:#ffffff;fill-opacity:1;stroke:none;stroke-width:0.42372882;stroke-opacity:1"
     d="m 100.63744,280.23971 c -7.047228,-0.77228 -17.618115,-2.92061 -22.457627,-4.56408 -7.358647,-2.49894 -10.59322,-3.89561 -10.59322,-4.57411 0,-0.3327 0.832589,-3.88764 1.850197,-7.89985 1.017609,-4.01221 2.575365,-10.27085 3.46168,-13.90809 l 1.611483,-6.61316 3.423913,1.57896 c 4.559763,2.10277 14.277387,5.24223 19.525608,6.30813 6.956176,1.41277 15.507946,1.95913 21.494876,1.37327 6.07105,-0.59409 9.71277,-1.75019 13.39953,-4.25382 4.87666,-3.31168 7.0147,-7.61066 6.76492,-13.60226 -0.22749,-5.45652 -2.3648,-9.08496 -7.65162,-12.98983 -2.75986,-2.03844 -11.05604,-6.07776 -16.41589,-7.99271 -15.540367,-5.55221 -25.390083,-10.95039 -32.791127,-17.97132 -5.326361,-5.05281 -9.375496,-11.59394 -11.165792,-18.03766 -1.077564,-3.87843 -1.17647,-4.84736 -1.167827,-11.44068 0.0086,-6.54961 0.115886,-7.58797 1.182229,-11.44068 6.055538,-21.87872 27.926745,-35.33462 57.494767,-35.37273 13.67316,-0.0176 27.74048,2.54745 38.28936,6.98178 1.97828,0.83159 2.07443,-0.024 -1.38104,12.28925 -1.37342,4.89407 -2.93012,10.51907 -3.45935,12.5 -0.52922,1.98094 -0.99857,3.65373 -1.04298,3.71733 -0.0444,0.0636 -2.2533,-0.73272 -4.90863,-1.76959 -2.65532,-1.03687 -6.32829,-2.27718 -8.16215,-2.75623 -8.59639,-2.24562 -22.35732,-3.00908 -28.65724,-1.58992 -8.61918,1.94161 -13.93913,7.08229 -14.33131,13.84838 -0.53128,9.16586 5.18867,14.01542 26.19572,22.20956 16.0499,6.26053 24.85191,11.21917 31.47023,17.72884 7.56375,7.43959 11.31064,15.52289 12.13631,26.18206 0.83632,10.7968 -1.49573,20.47749 -7.01411,29.11666 -3.44067,5.38646 -11.52023,12.3512 -18.16023,15.65448 -10.3718,5.15977 -20.62893,7.32063 -35.80509,7.54302 -5.24364,0.0768 -11.15466,-0.0379 -13.13559,-0.255 z"
     id="path5131"
     inkscape:connector-curvature="0" />
  <path
     style="opacity:1;fill:#ffffff;fill-opacity:1;stroke:none;stroke-width:0.42372882;stroke-opacity:1"
     d="m 204.02727,200.1864 v -78.38983 h 17.37288 17.37288 v 30.08474 30.08475 h 29.87289 29.87288 v -30.08475 -30.08474 h 17.37288 17.37288 v 78.38983 78.38983 H 315.89168 298.5188 v -32.79365 c 0,-29.51263 -0.0671,-32.81938 -0.67025,-33.05085 -0.87576,-0.33606 -57.52951,-0.33606 -58.40527,0 -0.60319,0.23147 -0.67025,3.53822 -0.67025,33.05085 v 32.79365 h -17.37288 -17.37288 z"
     id="path5133"
     inkscape:connector-curvature="0" />
</svg>
