<svg version="1.1" xmlns="http://www.w3.org/2000/svg" width="400px" height="400px" viewBox="0 0 400 400">
<g>
	<path fill="#DA0042" d="M326.131,399.717H73.869c-40.578,0-73.586-33.009-73.586-73.586V73.869
		c0-40.578,33.008-73.586,73.586-73.586h252.262c40.559,0,73.586,33.008,73.586,73.586v252.262
		C399.717,366.708,366.689,399.717,326.131,399.717L326.131,399.717z"/>
	<g fill="#FFFFFF">
		<path d="M111.802,152.153H69.215v-29.939h121.188v29.939h-43.058v127.733h-35.544V152.153z"/>
		<path d="M254.012,279.887v-64.568l-49.829-93.104h40.958l15.896,37.897c4.908,11.47,8.42,19.881,12.149,30.166
			h0.49c3.495-9.813,7.26-18.94,11.914-30.166l15.916-37.897h39.996l-51.93,91.945v65.728H254.012z"/>
	</g>
</g>
</svg>
