<?xml version="1.0" encoding="UTF-8"?>
<svg width="467.9" height="467.9" enable-background="new 0 0 468.275 517.757" overflow="visible"
  version="1.1" viewBox="0 0 467.9 467.9" xml:space="preserve" xmlns="http://www.w3.org/2000/svg">
<title>Osaka Metro logo</title>
<path d="m467.8 435.7c0 17.74-15.86 32.12-35.43 32.12h-396.8c-19.57 0-35.43-14.38-35.43-32.12v-403.5c0-17.74 15.86-32.12 35.43-32.12h396.9c19.57 0 35.43 14.38 35.43 32.12v403.5z" style="fill:#1d2088"/><g transform="translate(-.715 21.41)"><path d="m173.3 230.1c0.245-1.724 0.45-3.408 0.694-5.111 3.388-25.16 6.14-50.19 9.918-75.35 3.996-26.69 8.9-55.87 14.12-72.31 1.83-5.718 4.768-11.42 7.44-11.42 3.113 0 5.562 4.367 6.628 6.931 2.526 6.168 4.054 13.49 5.679 19.99 4.307 17.21 9.262 47.29 12.16 67.95 1.646 11.83 3.615 25.61 4.701 34.46-0.186 1.507-0.412 3.016-0.598 4.542-1.889 14.31-3.691 28.51-5.6 42.82-3.084 22.52-6.148 45.08-10.17 67.52-2.32 12.96-4.66 25.93-8.938 38.48-1.352 3.799-4.269 10.5-6.794 10.5-2.919 0-4.357-2.153-5.454-4.19-3.779-6.971-5.355-14.08-7.128-21.72-4.454-19.44-7.577-39.16-10.39-58.86-2.261-15.86-4.992-34.8-6.264-44.23" style="fill:#9794c3"/><path d="m366.6 262.8h-18.2s-3.984 27.53-6.039 39.75c-2.439 14.82-5.033 29.65-9.566 43.96-1.439 4.602-4.299 12.61-7.891 12.61-2.508 0-3.867-2.33-4.768-3.76-2.449-4.054-4.623-11.31-6.121-17.23-4.541-17.89-7.498-36.05-10.25-54.32-2.818-18.76-7.725-55.28-7.725-55.28 0.137-0.861 0.244-1.665 0.324-2.585 4.504-32.78 8.262-63.76 13.6-96.48 2.654-16.35 5.592-34.85 10.58-50.77 1.605-5.15 4.807-12.77 7.783-12.77 3.291-0.088 5.531 4.288 6.561 6.736 2.662 6.306 4.375 12.98 5.934 20.19 4.504 20.46 8.381 43.84 11.26 63.93 2.361 16.86 4.621 33.7 6.943 50.54 2.299 16.86 7.332 53.91 7.576 55.47" style="fill:#9794c3"/><path d="m102.8 262.8c-1.732 12.06-3.417 23.75-4.259 29.55-2.585 17.25-5.933 37.3-11.09 53.99-1.518 4.855-4.435 12.9-7.479 12.9-2.663 0-4.436-1.84-5.934-4.875-3.25-6.384-5.032-13.82-6.755-21.28-4.798-20.93-12.08-70.28-12.08-70.28h47.6z" style="fill:#9794c3"/><path d="m174 225c3.387-25.16 6.118-50.19 9.898-75.35 4.005-26.69 8.919-55.87 14.12-72.31 1.841-5.718 4.778-11.42 7.451-11.42l-63.77 0.039c-1.312 0-4.621 0.078-7.235 6.305-4.993 11.67-9.34 31.29-14.09 63.46-2.165 14.96-4.416 29.75-6.452 44.72-2.175 15.82-4.19 31.82-6.345 47.66-1.566 11.59-7.255 51.73-9.086 64.23-2.584 17.26-5.934 37.31-11.11 53.99-1.499 4.855-4.417 12.9-7.481 12.9h63.46c2.056 0 4.767-0.921 7.392-6.246 4.238-8.597 8.938-32.88 12.1-50.68 2.613-14.76 6.06-40.89 8.175-55.69 1.047-7.126 2.015-14.59 2.966-21.62" style="fill:#fefefe"/><path d="m296.3 226c4.496-32.79 8.254-63.76 13.58-96.48 2.664-16.35 5.602-34.85 10.59-50.78 1.605-5.141 4.807-12.76 7.783-12.76l-63.99-0.079c-2.75 0-5.541 2.291-7.803 7.813-6 14.69-9.574 38.07-12.51 56.71-3.592 22.93-6.678 46.45-9.947 69.44-1.869 14.31-3.672 28.51-5.59 42.82-3.074 22.52-6.158 45.08-10.16 67.52-2.34 12.96-4.66 25.93-8.958 38.48-1.352 3.799-4.269 10.5-6.784 10.5l63.67-0.039c2.076 0 4.631-0.45 7.773-7.362 2.938-6.599 5.973-20.13 8.273-32.06 3.27-16.9 5.855-33.92 8.342-50.95 2.057-14.24 3.858-28.43 5.737-42.77" style="fill:#fefefe"/><path d="m324.9 359.1c3.592 0 6.461-8.009 7.881-12.61 4.543-14.32 7.137-29.14 9.576-43.96 2.055-12.22 6.039-39.75 6.039-39.75h65.84c-4.604 30.41-6.629 43.53-8.725 54.48-4.787 25.28-7.646 31.66-8.92 34.7-2.133 5.11-4.953 7.029-7.195 7.05l-64.5 0.097z" style="fill:#fefefe"/></g></svg>
