<svg version="1.1" xmlns="http://www.w3.org/2000/svg" width="160px" height="160px" viewBox="0 0 160 160">
	<path fill="#3564AF" d="M159.757,80.483c0,43.782-35.658,79.274-79.646,79.274
		c-43.987,0-79.646-35.492-79.646-79.274c0-43.783,35.659-79.275,79.646-79.275C124.099,1.208,159.757,36.701,159.757,80.483"/>
	<ellipse fill="#FCFCFC" cx="79.625" cy="80" rx="57.267" ry="54.5"/>
	<path d="M39.628,84.593h9.255c0.351,2.497,1.373,4.349,3.065,5.556c1.691,1.208,4.137,1.812,7.336,1.812
		c2.724,0,4.777-0.485,6.16-1.455c1.382-0.97,2.074-2.404,2.074-4.303c0-2.766-3.973-5.056-11.917-6.872
		c-0.104-0.021-0.196-0.041-0.278-0.062c-0.207-0.041-0.526-0.113-0.96-0.217c-4.251-0.928-7.285-1.97-9.101-3.126
		c-1.609-1.031-2.837-2.419-3.684-4.163c-0.846-1.744-1.269-3.802-1.269-6.176c0-4.437,1.506-7.836,4.52-10.199
		c3.013-2.363,7.367-3.544,13.063-3.544c5.324,0,9.488,1.259,12.49,3.776c3.003,2.518,4.586,6.067,4.752,10.648h-9.008
		c-0.166-2.208-1.012-3.89-2.539-5.045c-1.527-1.156-3.704-1.733-6.531-1.733c-2.456,0-4.349,0.479-5.68,1.439
		c-1.331,0.96-1.997,2.327-1.997,4.102c0,2.415,2.589,4.221,7.77,5.417c1.403,0.331,2.497,0.588,3.281,0.774
		c3.322,0.847,5.68,1.507,7.073,1.981c1.393,0.475,2.605,1.001,3.637,1.579c1.857,1.032,3.25,2.399,4.179,4.102
		c0.929,1.702,1.393,3.741,1.393,6.114c0,4.746-1.6,8.425-4.798,11.035s-7.708,3.916-13.527,3.916
		c-5.737,0-10.236-1.331-13.497-3.993S39.876,89.504,39.628,84.593z"/>
	<path d="M84.018,98.677V53.081h22.102c4.974,0,8.657,1.063,11.051,3.188c2.394,2.126,3.591,5.376,3.591,9.751
		c0,2.786-0.583,5.107-1.749,6.965s-2.843,3.126-5.03,3.808c1.981,0.702,3.39,1.775,4.226,3.219
		c0.836,1.444,1.315,3.694,1.439,6.748l0.186,5.387c0,0.041,0,0.104,0,0.186c0.063,2.724,0.65,4.375,1.765,4.953v1.393h-10.277
		c-0.33-0.64-0.583-1.429-0.758-2.368c-0.176-0.938-0.284-2.059-0.325-3.358l-0.124-4.798c-0.104-2.827-0.635-4.736-1.594-5.727
		c-0.96-0.99-2.688-1.486-5.186-1.486h-9.937v17.737H84.018z M93.396,73.015h11.021c2.394,0,4.152-0.484,5.277-1.455
		c1.125-0.97,1.688-2.497,1.688-4.582c0-1.981-0.547-3.482-1.641-4.504c-1.095-1.021-2.725-1.532-4.891-1.532H93.396V73.015z"/>
</svg>
