<?xml version="1.0" encoding="UTF-8" standalone="no"?>
<!-- Created with Inkscape (http://www.inkscape.org/) -->

<svg
   xmlns:dc="http://purl.org/dc/elements/1.1/"
   xmlns:cc="http://creativecommons.org/ns#"
   xmlns:rdf="http://www.w3.org/1999/02/22-rdf-syntax-ns#"
   xmlns:svg="http://www.w3.org/2000/svg"
   xmlns="http://www.w3.org/2000/svg"
   version="1.1"
   width="97"
   height="91"
   id="svg5389">
  <metadata
     id="metadata5395">
    <rdf:RDF>
      <cc:Work
         rdf:about="">
        <dc:format>image/svg+xml</dc:format>
        <dc:type
           rdf:resource="http://purl.org/dc/dcmitype/StillImage" />
        <dc:title></dc:title>
      </cc:Work>
    </rdf:RDF>
  </metadata>
  <defs
     id="defs5393" />
  <path
     d="m -0.06779661,61.674458 0,-7.098187 3.75000001,-0.01478 C 20.653135,54.494597 42.140937,41.242635 50.197903,25.874316 c 3.67201,-7.004202 6.72269,-16.921692 6.749613,-21.94239 0.01186,-2.211264 0.234056,-2.517174 0.984687,-1.355655 1.419634,2.196728 1.179521,11.479542 -0.504396,19.5 C 52.290588,46.544729 31.560841,65.144192 6.1822034,68.055642 l -6.25000001,0.717003 0,-7.098187 z m 0,-21.526231 0,-6.428043 L 5.6822034,33.11867 C 25.496005,31.045927 41.985382,21.024418 51.182203,5.465797 55.276318,-1.460377 55.73565,-0.928567 53.401011,8.034717 49.815608,21.800009 40.116453,33.780507 27.530981,39.989648 19.930133,43.739587 9.7768094,46.537467 3.6822034,46.56149 l -3.75000001,0.01478 0,-6.428044 z"
     id="path5911"
     style="fill:#4344a3;fill-opacity:1" />
  <path
     d="m 96.57172,30.0354 0.15406,7.096518 -3.7488,0.09618 c -16.965476,0.435221 -38.160596,14.150427 -45.88211,29.689994 -3.519126,7.082249 -6.353839,17.063613 -6.271787,22.083718 0.03614,2.21101 -0.179368,2.52165 -0.955032,1.37671 -1.466977,-2.1654 -1.428394,-11.451249 0.08105,-19.50636 C 44.554048,46.297972 64.87523,27.252973 90.1847,23.79139 l 6.23297,-0.85248 0.15405,7.096508 z m 0.46721,21.521164 0.13952,6.426529 -5.73559,0.726169 C 71.678704,61.211556 55.410718,71.588589 46.553748,87.34315 c -3.942826,7.0134 -4.413593,6.49169 -2.274043,-2.520155 3.285797,-13.839867 12.722643,-26.028053 25.170388,-32.508886 7.517669,-3.914025 17.60788,-6.931613 23.700527,-7.087907 l 3.7488,-0.09616 0.13951,6.426529 z"
     id="path5915"
     style="fill:#009cc9;fill-opacity:1" />
</svg>
