<?xml version="1.0" encoding="UTF-8"?>
<svg id="_レイヤー_1" data-name="レイヤー_1" xmlns="http://www.w3.org/2000/svg" version="1.1" viewBox="0 0 500 500">
  <!-- Generator: Adobe Illustrator 29.1.0, SVG Export Plug-In . SVG Version: 2.1.0 Build 142)  -->
  <defs>
    <style>
      .st0 {
        isolation: isolate;
      }

      .st1 {
        fill: #fff;
      }

      .st2 {
        fill: #90a;
      }
    </style>
  </defs>
  <circle class="st2" cx="250" cy="250" r="250"/>
  <g class="st0">
    <path class="st1" d="M252.7,387c-13.6,0-26.2-2.7-37.7-8.1s-21.6-13.6-30-24.6c-8.5-11-15.1-24.8-19.8-41.4-4.8-16.6-7.1-35.9-7.1-57.9s2.8-50.9,8.5-70.3c5.6-19.4,13.3-35.2,23.1-47.4,9.8-12.2,20.9-21,33.5-26.6,12.6-5.5,25.7-8.3,39.3-8.3s27.7,2.8,38.5,8.3c10.8,5.5,20,12.4,27.7,20.6l-19.6,21.9c-5.4-6.7-12.1-11.9-20.2-15.8-8.1-3.8-16.4-5.8-24.8-5.8-13.1,0-25.2,3.8-36.2,11.5-11,7.7-19.9,20.5-26.6,38.5-6.7,18-10,42.3-10,73.2s2.4,41.6,7.3,57.2c4.9,15.5,11.9,27.3,21,35.2,9.1,8,20.1,11.9,32.9,11.9s17.5-2.5,24.8-7.5,13.1-12,17.3-21c4.2-9,6.4-19.5,6.4-31.6s-1.9-22.5-5.8-31.2c-3.8-8.7-9.6-15.5-17.1-20.2-7.6-4.7-17-7.1-28.3-7.1s-18.7,3-29.3,8.9c-10.5,5.9-20.5,15.9-30,30l-1.2-27.7c5.9-7.7,12.4-14.4,19.6-20,7.2-5.6,14.8-9.9,22.9-12.9,8.1-2.9,15.8-4.4,23.3-4.4,15.9,0,29.8,3.1,41.6,9.4,11.8,6.3,20.9,15.7,27.3,28.3,6.4,12.6,9.6,28.2,9.6,47s-3.7,32.8-11,46c-7.3,13.2-17.1,23.5-29.5,30.8-12.3,7.3-25.8,11-40.4,11Z"/>
  </g>
</svg>