<?xml version="1.0" encoding="UTF-8"?>
<svg id="_圖層_1" data-name="圖層_1" xmlns="http://www.w3.org/2000/svg" version="1.1" viewBox="0 0 71.3 35.8">
  <!-- Generator: Adobe Illustrator 29.1.0, SVG Export Plug-In . SVG Version: 2.1.0 Build 142)  -->
  <defs>
    <style>
      .st0 {
        fill: #5d1e79;
      }

      .st1 {
        fill: #d93b20;
      }
    </style>
  </defs>
  <path class="st0" d="M16.8,6.4s6.5-1.6,23.5-1.6c0,0,22.3.1,31,1.5,0,0-4.1,2.1-17,3.2,0,0-13,.4-13.8.3l-6.7,25.9s-4.3-3.6-2.4-11.8c0,0,2-9.4,3.3-14.2,0,0-12.8-.8-17.9-3.4"/>
  <path class="st1" d="M0,1c0,0,9-1.4,20.1-1,0,0,16.3.3,20.2,1.2,0,0-2.8,1.5-20.8,1.9,0,0-15.1,0-19.5-2.2"/>
</svg>