<?xml version="1.0" encoding="UTF-8"?><svg id="_レイヤー_1" xmlns="http://www.w3.org/2000/svg" viewBox="0 0 80 54.4"><defs><style>.cls-1{fill:#fff;}.cls-2{fill:#0080cb;}</style></defs><rect class="cls-2" width="80" height="54.4"/><rect class="cls-1" x="4.22" y="42.08" width="71.56" height="3.76"/><path class="cls-1" d="M26.41,7.18c-7.51,0-13.59,6.27-13.59,14s6.08,14,13.59,14,13.59-6.27,13.59-14-6.08-14-13.59-14ZM26.41,30.07c-3.96,0-6.93-3.36-6.93-8.89,0-5.08,3.19-8.71,6.93-8.71,4.16,0,6.93,4.4,6.93,8.71,0,5.67-2.9,8.89-6.93,8.89Z"/><polygon class="cls-1" points="66.16 7.95 41.79 7.95 41.79 13.41 50.64 13.41 50.64 34.21 57.41 34.21 57.41 13.41 66.16 13.41 66.16 7.95"/></svg>