<?xml version="1.0" encoding="UTF-8" standalone="no"?>
<!-- Generator: Adobe Illustrator 21.1.0, SVG Export Plug-In . SVG Version: 6.00 Build 0)  -->

<svg
   xmlns:dc="http://purl.org/dc/elements/1.1/"
   xmlns:cc="http://creativecommons.org/ns#"
   xmlns:rdf="http://www.w3.org/1999/02/22-rdf-syntax-ns#"
   xmlns:svg="http://www.w3.org/2000/svg"
   xmlns="http://www.w3.org/2000/svg"
   xmlns:sodipodi="http://sodipodi.sourceforge.net/DTD/sodipodi-0.dtd"
   xmlns:inkscape="http://www.inkscape.org/namespaces/inkscape"
   version="1.1"
   id="레이어_1"
   x="0px"
   y="0px"
   width="450px"
   height="450px"
   viewBox="0 0 450 450"
   style="enable-background:new 0 0 450 450;"
   xml:space="preserve"
   sodipodi:docname="Seoul_Metro_Line_EverLine.svg"
   inkscape:version="0.92.3 (2405546, 2018-03-11)"><metadata
   id="metadata21"><rdf:RDF><cc:Work
       rdf:about=""><dc:format>image/svg+xml</dc:format><dc:type
         rdf:resource="http://purl.org/dc/dcmitype/StillImage" /></cc:Work></rdf:RDF></metadata><defs
   id="defs19" /><sodipodi:namedview
   pagecolor="#ffffff"
   bordercolor="#666666"
   borderopacity="1"
   objecttolerance="10"
   gridtolerance="10"
   guidetolerance="10"
   inkscape:pageopacity="0"
   inkscape:pageshadow="2"
   inkscape:window-width="1920"
   inkscape:window-height="1017"
   id="namedview17"
   showgrid="false"
   inkscape:zoom="0.52444444"
   inkscape:cx="225"
   inkscape:cy="225"
   inkscape:window-x="-8"
   inkscape:window-y="-8"
   inkscape:window-maximized="1"
   inkscape:current-layer="레이어_1" />
<style
   type="text/css"
   id="style2">
	.st0{fill:#4EA346;}
	.st1{fill:#FFFFFF;}
</style>
<circle
   class="st0"
   cx="225"
   cy="225"
   r="225"
   id="circle4" />
<g
   id="g14">
	<path
   class="st1"
   d="M191.7,201.8h-17.3v-67.4h-12.2c-0.9,4.3-2.3,8.2-4.3,11.8c-2,3.6-4.5,6.8-7.5,9.4c-3,2.8-6.5,4.9-10.4,6.4   c-3.9,1.5-8.2,2.2-12.8,2.2c-5.3,0-10.2-1-14.6-3c-4.4-2-8.2-4.8-11.4-8.3c-3.2-3.5-5.7-7.6-7.4-12.2c-1.7-4.6-2.6-9.5-2.6-14.6   c0-5,0.9-9.8,2.6-14.5c1.7-4.6,4.2-8.7,7.4-12.2c3.2-3.5,7-6.3,11.4-8.5c4.4-2.1,9.2-3.2,14.6-3.2c9.2,0,16.9,2.9,23.3,8.7   c6.3,5.8,10.3,13,11.9,21.7h12V69.3h17.3V201.8z M145.3,126.1c0-5.8-1.5-10.9-4.5-15.5c-3-4.6-7.5-6.9-13.6-6.9   c-3.1,0-5.8,0.6-8.1,1.9c-2.3,1.3-4.2,3-5.7,5.1c-1.5,2-2.6,4.4-3.4,7c-0.7,2.7-1.1,5.4-1.1,8.2c0,2.9,0.4,5.7,1.2,8.4   c0.8,2.7,1.9,5.1,3.4,7.1c1.6,2.1,3.5,3.8,5.8,5c2.2,1.2,4.9,1.8,7.8,1.8c6,0,10.5-2.2,13.5-6.6   C143.8,137.3,145.3,132.1,145.3,126.1z M221,211.7h-16.8V66.1H221V211.7z"
   id="path6" />
	<path
   class="st1"
   d="M304,168.2h-66.2V85.3h17v28.3h32V85.3H304V168.2z M286.8,152v-22.6h-32V152H286.8z M352,211.7h-17.1v-81.1   h-27.8v-16h27.8V66.1H352V211.7z"
   id="path8" />
	<path
   class="st1"
   d="M173,331.4H94.6v-51.7h44.5v-18.4H93.8v-16h63v50.6H112v19.5h61V331.4z M227.9,295.7h-25.6v76H185V226.1h17.3   v53.4h25.6V295.7z"
   id="path10" />
	<path
   class="st1"
   d="M308.2,271.4c0,4.9-1,9.5-3,13.7c-2,4.2-4.7,7.9-8.2,11.1c-3.4,3.1-7.4,5.5-11.8,7.4   c-4.5,1.8-9.2,2.7-14.2,2.7c-4.9,0-9.5-0.9-13.9-2.6c-4.4-1.7-8.2-4.1-11.5-7.2c-3.3-3-5.9-6.6-7.8-11c-1.9-4.3-2.9-9-2.9-14.2   c0-4.8,1-9.3,2.9-13.5c1.9-4.2,4.5-7.9,7.7-11.1c3.3-3.1,7.1-5.6,11.5-7.4c4.4-1.9,9.1-2.8,14.1-2.8c5.1,0,9.9,0.9,14.4,2.6   s8.4,4.2,11.8,7.3c3.4,3.1,6.1,6.8,8.1,11C307.2,261.7,308.2,266.4,308.2,271.4z M290.9,271.4c0-5.1-1.9-9.6-5.7-13.5   c-3.8-3.9-8.6-5.8-14.3-5.8c-5.4,0-10,1.9-13.7,5.8c-3.7,3.8-5.5,8.3-5.5,13.4c0,5.4,1.8,10.1,5.5,13.9s8.2,5.8,13.7,5.8   c5.8,0,10.5-1.9,14.3-5.7C289,281.4,290.9,276.8,290.9,271.4z M353.8,375.7h-79.7v-53.6h17.1v37.3h62.6V375.7z M351.9,331.4h-17   V226.1h17V331.4z"
   id="path12" />
</g>
<text
   xml:space="preserve"
   style="font-style:normal;font-variant:normal;font-weight:normal;font-stretch:normal;font-size:53.33333206px;line-height:1.25;font-family:Arial;-inkscape-font-specification:Arial;letter-spacing:0px;word-spacing:0px;fill:#000000;fill-opacity:1;stroke:none"
   x="118.22034"
   y="417.58475"
   id="text833"><tspan
     sodipodi:role="line"
     id="tspan831"
     x="118.22034"
     y="417.58475"
     style="fill:#ffffff;fill-opacity:1">EverLine</tspan></text>
</svg>