<?xml version="1.0" encoding="UTF-8" standalone="no"?>
<svg xmlns="http://www.w3.org/2000/svg" width="50" height="50" viewBox="0 0 52 44" version="1.0">
  <g transform="matrix(1.300208,0,0,1.2984152,-9.1419698,-6.5697799)" fill="#ffffff">
    <path
      d="M 15.96,10.06 C 23.6,2.31 38.41,5.51 42.11,15.76 C 45.44,23.09 42.08,31.71 35.76,36.21 C 34.59,35.13 33.58,33.89 32.51,32.72 C 33.17,32.59 34.48,32.33 35.14,32.2 C 37.184926,26.894265 35.901544,21.552059 36.621691,15.946324 C 36.514926,14.170882 36.47,11.62 33.74,11.43 C 29.28,11.14 24.78,11.14 20.32,11.43 C 18.08,11.57 17.34,14.1 17.56,15.99 C 17.86,21.39 16.67,27.08 18.93,32.19 C 19.59,32.31 20.92,32.56 21.59,32.68 C 20.63,33.84 19.67,35 18.72,36.16 C 9.51,31.09 7.91,16.89 15.96,10.06 z" />
    <path
      d="M 20.125417,37.242128 C 20.825043,35.70401 21.52467,34.165893 22.235228,32.627776 C 25.285161,32.665754 28.324163,32.646765 31.374096,32.608787 C 32.11745,34.146904 32.860803,35.685021 33.582292,37.261117 C 29.220559,40.052515 24.476218,39.995548 20.125417,37.242128 z" />
  </g>
  <path
    transform="matrix(1.300208,0,0,1.2984152,-9.1419698,-6.5697799)"
    d="M 21.5,2.75 C 30.03,0.21 39.8,4.13 44.24,11.82 C 48.58,18.9 47.81,28.91 42.19,35.11 C 35.77,43.02 22.91,44.38 14.99,37.98 C 10.05,34.29 6.84,28.18 7.04,21.96 C 6.9130996,17.154337 8.8166668,12.540458 11.934417,8.9632001 C 14.467418,6.0568739 17.801862,3.8347872 21.5,2.75 M 15.96,10.06 C 7.91,16.89 9.51,31.09 18.72,36.16 C 19.67,35 20.63,33.84 21.59,32.68 C 20.92,32.56 19.59,32.31 18.93,32.19 C 16.956765,26.602059 17.477647,21.891838 17.56,15.99 C 17.555074,14.076103 18.08,11.57 20.32,11.43 C 24.78,11.14 29.28,11.14 33.74,11.43 C 36.47,11.62 36.491029,13.597353 36.526103,15.874632 C 36.403382,22.006103 36.82647,26.750883 35.14,32.2 C 34.48,32.33 33.17,32.59 32.51,32.72 C 33.58,33.89 34.59,35.13 35.76,36.21 C 42.08,31.71 45.44,23.09 42.11,15.76 C 38.41,5.51 23.6,2.31 15.96,10.06 M 23.013897,14.255588 C 24.318897,14.305588 29.53,14.306691 30.84,14.281691 L 30.83,12.63 C 29.417721,12.666029 23.754559,12.622794 23.013897,12.630588 M 19.67,15.82 C 19.677805,16.23397 19.651269,21.036367 19.68,23.21 C 24.56,23.28 29.44,23.315588 34.31,23.26 C 34.315441,20.325956 34.377132,18.321691 34.343897,15.76 C 29.463897,15.736618 26.031618,15.776103 19.67,15.82 M 20.89,37.25 C 21.260201,37.384872 21.633517,37.507459 22.009376,37.617696 C 25.674345,38.692603 29.581131,38.593267 33.2,37.26 C 32.54,36.43 30.498086,33.705902 29.818086,32.895902 C 27.028086,32.915902 27.019701,32.878049 24.229701,32.858049 C 23.579701,33.668049 21.53,36.44 20.89,37.25 z"
    fill="#ee5511" />
  <g fill="#ffffff">
    <rect width="19.201967" height="10.487567" x="16.367445" y="13.76092" />
    <rect width="10.253478" height="2.4512362" x="20.748472" y="9.7582693" />
    <path
      d="M 34.101102,28.275736 A 1.5413603,1.5533088 0 1 1 31.018382,28.275736 A 1.5413603,1.5533088 0 1 1 34.101102,28.275736"
      transform="matrix(1.300208,0,0,1.2984152,-9.5458948,-6.7869779)" />
    <path
      transform="matrix(1.300208,0,0,1.2984152,-23.030773,-6.7869779)"
      d="M 34.101102,28.275736 A 1.5413603,1.5533088 0 1 1 31.018382,28.275736 A 1.5413603,1.5533088 0 1 1 34.101102,28.275736" />
  </g>
</svg>
