<?xml version="1.0" encoding="utf-8"?>
<!-- Generator: Adobe Illustrator 19.0.0, SVG Export Plug-In . SVG Version: 6.00 Build 0)  -->
<svg version="1.1" id="Layer_1" xmlns="http://www.w3.org/2000/svg"
  xmlns:xlink="http://www.w3.org/1999/xlink" x="0px" y="0px"
  viewBox="-454 256 50 50" style="enable-background:new -454 256 50 50;" xml:space="preserve">
<style type="text/css">
	.st0{fill:#FFFFFF;}
	.st1{fill:#00936B;}
</style>
<g transform="matrix(1.300208,0,0,1.2984152,-9.1419698,-6.5697799)">
	<path class="st0" d="M-333.6,210c7.3-7.5,21.6-4.4,25.1,5.5c3.2,7,0,15.3-6.1,19.7c-1.1-1-2.1-2.2-3.1-3.4c0.6-0.1,1.9-0.4,2.5-0.5
		c2-5.1,0.7-10.2,1.4-15.6c-0.1-1.7-0.1-4.2-2.8-4.3c-4.3-0.3-8.6-0.3-12.9,0c-2.2,0.1-2.9,2.6-2.7,4.4c0.3,5.2-0.9,10.7,1.3,15.6
		c0.6,0.1,1.9,0.4,2.6,0.5c-0.9,1.1-1.8,2.2-2.8,3.3C-339.8,230.2-341.3,216.6-333.6,210z"/>
	<path class="st0" d="M-329.2,236.3c0.6-1.6,1.3-3.2,2-4.8c2.8,0,5.6,0,8.5,0c0.7,1.6,1.4,3.2,2,4.8
		C-320.8,239.3-325.2,239.2-329.2,236.3z"/>
</g>
<path class="st1" d="M-435.9,257c10.7-3.2,22.9,1.7,28.4,11.3c5.4,8.8,4.5,21.3-2.6,29.1c-8,9.9-24.1,11.6-34,3.6
	c-6.2-4.6-10.2-12.2-9.9-20C-454.3,270.1-446.2,260-435.9,257 M-442.8,266.1c-10.1,8.5-8.1,26.3,3.5,32.6c1.2-1.4,2.4-2.9,3.6-4.3
	c-0.8-0.1-2.5-0.5-3.3-0.6c-2.5-7-1.8-12.9-1.7-20.2c0-2.4,0.7-5.5,3.5-5.7c5.6-0.4,11.2-0.4,16.8,0c3.4,0.2,3.4,2.7,3.5,5.5
	c-0.2,7.7,0.4,13.6-1.7,20.4c-0.8,0.2-2.5,0.5-3.3,0.6c1.3,1.5,2.6,3,4.1,4.4c7.9-5.6,12.1-16.4,7.9-25.5
	C-414.8,260.4-433.3,256.4-442.8,266.1 M-434,271.3c1.6,0.1,8.1,0.1,9.8,0l0-2.1c-1.8,0-8.8,0-9.8,0 M-438.2,273.3
	c0,0.5,0,6.5,0,9.2c6.1,0.1,12.2,0.1,18.3,0.1c0-3.7,0.1-6.2,0-9.4C-426,273.2-430.2,273.2-438.2,273.3 M-436.7,300
	c5,1.8,10.4,1.8,15.4,0c-0.8-1-3.4-4.4-4.2-5.4c-3.5,0-3.5,0-7,0C-433.3,295.6-435.9,299-436.7,300z"/>
<g>
	<rect x="-438.3" y="273.1" class="st0" width="18.5" height="10.1"/>
	<rect x="-434" y="269.2" class="st0" width="9.9" height="2.4"/>
	<path class="st0" d="M-420.5,288.6c0,1.1-0.9,1.9-1.9,1.9c-1.1,0-1.9-0.9-1.9-1.9c0,0,0,0,0,0c0-1.1,0.9-1.9,1.9-1.9
		C-421.4,286.7-420.5,287.5-420.5,288.6C-420.5,288.6-420.5,288.6-420.5,288.6"/>
	<path class="st0" d="M-433.5,288.6c0,1.1-0.9,1.9-1.9,1.9c-1.1,0-1.9-0.9-1.9-1.9c0,0,0,0,0,0c0-1.1,0.9-1.9,1.9-1.9
		C-434.4,286.7-433.5,287.5-433.5,288.6C-433.5,288.6-433.5,288.6-433.5,288.6"/>
</g>
</svg>
