<?xml version="1.0" encoding="UTF-8" standalone="no"?>
<!-- Created with Inkscape (http://www.inkscape.org/) -->

<svg
  xmlns:dc="http://purl.org/dc/elements/1.1/"
  xmlns:cc="http://creativecommons.org/ns#"
  xmlns:rdf="http://www.w3.org/1999/02/22-rdf-syntax-ns#"
  xmlns:svg="http://www.w3.org/2000/svg"
  xmlns="http://www.w3.org/2000/svg"
  xmlns:sodipodi="http://sodipodi.sourceforge.net/DTD/sodipodi-0.dtd"
  xmlns:inkscape="http://www.inkscape.org/namespaces/inkscape"
  width="84.666664mm"
  height="84.495239mm"
  viewBox="0 0 299.99999 299.39258"
  id="svg4709"
  version="1.1"
  inkscape:version="0.91 r13725"
  sodipodi:docname="TARUMI.svg">
  <defs
    id="defs4711" />
  <sodipodi:namedview
    id="base"
    pagecolor="#ffffff"
    bordercolor="#666666"
    borderopacity="1.0"
    inkscape:pageopacity="0.0"
    inkscape:pageshadow="2"
    inkscape:zoom="0.98994949"
    inkscape:cx="365.33981"
    inkscape:cy="-40.850343"
    inkscape:document-units="px"
    inkscape:current-layer="layer1"
    showgrid="false"
    fit-margin-top="0"
    fit-margin-left="0"
    fit-margin-right="0"
    fit-margin-bottom="0"
    inkscape:window-width="1920"
    inkscape:window-height="1017"
    inkscape:window-x="-8"
    inkscape:window-y="-8"
    inkscape:window-maximized="1" />
  <metadata
    id="metadata4714">
    <rdf:RDF>
      <cc:Work
        rdf:about="">
        <dc:format>image/svg+xml</dc:format>
        <dc:type
          rdf:resource="http://purl.org/dc/dcmitype/StillImage" />
        <dc:title></dc:title>
      </cc:Work>
    </rdf:RDF>
  </metadata>
  <g
    inkscape:label="レイヤー 1"
    inkscape:groupmode="layer"
    id="layer1"
    transform="translate(15.714286,-36.951629)">
    <path
      inkscape:connector-curvature="0"
      style="color:#000000;font-style:normal;font-variant:normal;font-weight:normal;font-stretch:normal;font-size:medium;line-height:normal;font-family:sans-serif;text-indent:0;text-align:start;text-decoration:none;text-decoration-line:none;text-decoration-style:solid;text-decoration-color:#000000;letter-spacing:normal;word-spacing:normal;text-transform:none;direction:ltr;block-progression:tb;writing-mode:lr-tb;baseline-shift:baseline;text-anchor:start;white-space:normal;clip-rule:nonzero;display:inline;overflow:visible;visibility:visible;opacity:1;isolation:auto;mix-blend-mode:normal;color-interpolation:sRGB;color-interpolation-filters:linearRGB;solid-color:#000000;solid-opacity:1;fill:#047bf6;fill-opacity:1;fill-rule:nonzero;stroke:none;stroke-width:14.99996948;stroke-linecap:round;stroke-linejoin:round;stroke-miterlimit:4;stroke-dasharray:none;stroke-dashoffset:0;stroke-opacity:1;color-rendering:auto;image-rendering:auto;shape-rendering:auto;text-rendering:auto;enable-background:accumulate"
      d="M 123.03571,36.951629 C 45.523151,42.717707 -15.714286,107.56234 -15.714286,186.53171 c 0,23.29686 5.339024,45.35886 14.84375029,65.04297 L 12.10798,244.08054 C 3.8861993,226.62984 -0.71428571,207.12745 -0.71428571,186.53171 -0.71428571,115.67395 53.668323,57.704428 123.03571,52.000457 l 0,-15.048828 z m 22.5,0 0,70.367191 c 38.9193,5.44897 68.75,38.76144 68.75,79.21289 0,10.57172 -2.04533,20.65226 -5.75,29.8789 l 13.04688,7.53321 c 4.9443,-11.48923 7.70312,-24.13206 7.70312,-37.41211 0,-43.2758 -29.09601,-79.88723 -68.75,-91.306644 l 0,-41.142578 c 62.04831,12.193092 108.75,66.786932 108.75,132.449222 0,20.59574 -4.60048,40.09813 -12.82227,57.54883 l 12.97852,7.49414 c 9.50473,-19.68411 14.84375,-41.74611 14.84375,-65.04297 0,-78.96938 -61.2375,-143.814004 -138.75,-149.580081 z m -22.5,27.601562 C 60.727649,70.249256 11.785714,122.75907 11.785714,186.53171 c 0,18.28215 4.025597,35.65015 11.224609,51.25586 l 13.039063,-7.5293 c -5.951806,-13.34896 -9.263672,-28.13636 -9.263672,-43.72656 0,-55.65922 42.097097,-101.309798 96.249996,-106.917972 l 0,-15.060547 z m 52.5,6.626953 0,16.029297 c 38.93039,16.148239 66.25,54.486309 66.25,99.322269 0,15.59084 -3.31141,30.37913 -9.26367,43.72851 l 13.03906,7.52735 c 7.19939,-15.60559 11.22461,-32.97391 11.22461,-51.25586 0,-53.09709 -33.92894,-98.386713 -81.25,-115.351566 z m -52.5,21.021485 c -47.096084,5.583457 -83.749996,45.758091 -83.749996,94.330081 0,13.28005 2.758817,25.92288 7.703125,37.41211 l 13.046875,-7.53321 c -3.704664,-9.22664 -5.75,-19.30717 -5.75,-29.8789 0,-40.45146 29.830675,-73.76392 68.749996,-79.21289 l 0,-15.117191 z m -19.25,36.330081 c -3.813416,0 -6.999996,2.42876 -6.999996,6.61914 l 0,12.72656 c 0,3.68121 1.78164,5.90004 5.437496,6.4043 l 1.8125,0.25 3.625,0.5 3.625,0.5 c 9.72182,1.4162 14.5,7.4395 14.5,15 l 0,30.94336 c 0,6.99481 -4.80196,10.36213 -8.88867,11.47265 l -32.94531,8.95117 c -2.639,0.73425 -4.166016,1.21042 -4.166016,3.00782 l 0,1.875 0,1.875 c 0,1.25114 0.845217,1.875 1.560547,1.875 l 52.939449,0 52.93945,0 c 0.71533,0 1.56055,-0.62386 1.56055,-1.875 l 0,-1.875 0,-1.875 c 0,-1.7974 -1.52702,-2.27357 -4.16602,-3.00782 l -32.94531,-8.95117 c -4.08671,-1.11052 -8.88867,-4.47784 -8.88867,-11.47265 l 0,-30.94336 c 0,-7.5605 4.77818,-13.5838 14.5,-15 l 3.625,-0.5 3.625,-0.5 1.8125,-0.25 c 3.65586,-0.50426 5.4375,-2.72309 5.4375,-6.4043 l 0,-12.72656 c 0,-4.19038 -3.18658,-6.61914 -7,-6.61914 l -30.5,0 -30.5,0 z m -32.494137,107.35937 -13.02539,7.51953 c 13.01793,17.34989 31.815371,30.12938 53.519527,35.42188 l 0,40.82812 C 75.218258,313.54366 43.670694,292.76465 23.365792,263.561 l -12.96875,7.48828 c 25.710919,37.58253 68.067452,62.90747 116.388668,65.29493 l 0,-70.16407 c -22.5337,-2.08376 -42.309086,-13.47241 -55.494137,-30.28906 z m 125.988277,0 c -13.18505,16.81665 -32.96046,28.2053 -55.49414,30.28906 l 0,70.16407 c 48.32118,-2.38746 90.67774,-27.71239 116.38867,-65.29493 L 245.20563,263.561 c -20.30491,29.20365 -51.85249,49.98266 -88.41992,56.09961 l 0,-40.82812 c 21.70415,-5.2925 40.5016,-18.07199 53.51953,-35.42188 l -13.02539,-7.51953 z"
      id="path2838-7-4-1-1-7-1-0-3-9-4-2" />
  </g>
</svg>
