<?xml version="1.0" encoding="utf-8"?>
<svg viewBox="0 0 500 500" xmlns="http://www.w3.org/2000/svg">
  <path id="path3094" display="none" d="M 224.09 231.265 L 227.111 231.265 L 229.125 231.265 L 229.125 235.293 L 229.125 240.329 L 261.353 240.329 L 261.353 237.307 L 261.353 232.272 C 261.353 232.145 261.27 231.335 261.353 231.265 C 261.732 230.931 262.922 231.52 263.367 231.265 L 266.389 231.265 L 266.389 234.286 L 266.389 238.315 C 266.389 238.315 266.389 241.001 266.389 242.343 C 266.389 243.685 266.389 245.029 266.389 246.372 C 266.389 247.694 266.509 249.081 266.389 250.4 C 266.386 250.427 265.448 250.376 265.382 250.4 C 265.247 250.599 265.55 251.239 265.382 251.407 C 265.284 251.502 264.521 251.396 264.375 251.407 C 264.128 251.42 263.589 251.303 263.367 251.407 C 263.233 251.47 263.477 252.302 263.367 252.414 C 263.269 252.51 262.508 252.403 262.36 252.414 C 262.031 252.431 261.679 252.37 261.353 252.414 C 259.719 252.639 257.969 252.331 256.318 252.414 C 252.646 252.601 248.912 252.414 245.24 252.414 L 234.16 252.414 L 229.125 252.414 C 229.125 252.414 225.768 252.414 224.09 252.414 L 224.09 250.4 L 261.353 250.4 L 261.353 243.35 L 256.318 243.35 C 256.318 243.35 252.961 243.35 251.282 243.35 C 248.526 243.35 244.971 243.404 242.218 243.35 C 240.541 243.317 238.86 243.35 237.182 243.35 L 231.14 243.35 C 230.895 243.35 230.355 243.446 230.132 243.35 C 230.007 243.293 230.237 242.448 230.132 242.343 C 230.008 242.218 229.308 242.391 229.125 242.343 C 228.495 242.178 227.741 242.498 227.111 242.343 C 226.929 242.298 226.227 242.466 226.103 242.343 C 225.936 242.175 226.238 241.534 226.103 241.336 C 225.888 241.199 225.283 241.503 225.097 241.336 C 224.926 241.183 225.26 240.489 225.097 240.329 C 224.992 240.224 224.145 240.455 224.09 240.329 C 223.863 239.804 224.165 238.882 224.09 238.315 C 223.915 236.992 224.223 235.608 224.09 234.286 L 224.09 231.265 Z" style=""/>
  <g id="g3126" transform="matrix(1.9868580102920532, 0, 0, 1.9868580102920532, -16.46788215637207, 9.202213287353516)" style="">
    <defs id="defs3128">
      <path id="SVGID_3_" d="M20.625,12.756c-15.881,9.174-14.215,29.048-2.325,54.972,30.241,65.885,125.74,145.71,147.01,159.1,12.594,7.924,21.88,10.513,28.788,9.985-10.13-11.605-19.105-25.731-26.89-41.246-23.579-46.969-36.267-106.72-37.002-148.02-35.699-16.628-73.229-37.316-97.232-37.316-4.67,0-8.822,0.78-12.353,2.522"/>
    </defs>
    <clipPath id="SVGID_4_">
      <path id="use3132" d="M20.625,12.756c-15.881,9.174-14.215,29.048-2.325,54.972,30.241,65.885,125.74,145.71,147.01,159.1,12.594,7.924,21.88,10.513,28.788,9.985-10.13-11.605-19.105-25.731-26.89-41.246-23.579-46.969-36.267-106.72-37.002-148.02-35.699-16.628-73.229-37.316-97.232-37.316-4.67,0-8.822,0.78-12.353,2.522" overflow="visible"/>
    </clipPath>
    <linearGradient id="SVGID_5_" y2="542.7" gradientUnits="userSpaceOnUse" x2="214.29" gradientTransform="matrix(13.3047 36.5544 36.5544 -13.3047 -22542.4883 -358.6977)" y1="542.7" x1="207.35">
      <stop id="stop3135" stop-color="#5DB6E7" offset="0"/>
      <stop id="stop3137" stop-color="#5DB6E7" offset="0.1"/>
      <stop id="stop3139" stop-color="#004EA1" offset="0.9"/>
      <stop id="stop3141" stop-color="#004EA1" offset="1"/>
    </linearGradient>
    <path id="polygon3143" fill="url(#SVGID_5_)" d="m171.94-50.621,95.14,261.4l-240.18,87.42-95.144-261.4z" clip-path="url(#SVGID_4_)"/>
  </g>
  <g id="g3145" transform="matrix(1.9868580102920532, 0, 0, 1.9868580102920532, -16.46788215637207, 9.202213287353516)" style="">
    <defs id="defs3147">
      <path id="SVGID_6_" d="M130.2,47.542c41.582,19.358,85.082,43.923,115.18,70.349,5.961-8.934,10.584-17.678,13.265-25.863-2.603-8.313-9.697-13.418-22.022-21.539-27.869-18.325-76.894-38.222-105.18-47.092-0.99,6.943-1.39,15.104-1.24,24.146"/>
    </defs>
    <clipPath id="SVGID_7_">
      <path id="use3151" d="M130.2,47.542c41.582,19.358,85.082,43.923,115.18,70.349,5.961-8.934,10.584-17.678,13.265-25.863-2.603-8.313-9.697-13.418-22.022-21.539-27.869-18.325-76.894-38.222-105.18-47.092-0.99,6.943-1.39,15.104-1.24,24.146" overflow="visible"/>
    </clipPath>
    <linearGradient id="SVGID_8_" y2="531.55" gradientUnits="userSpaceOnUse" x2="203.31" gradientTransform="matrix(18.5107 0 0 -18.5107 -3504.7197 9909.9707)" y1="531.55" x1="196.36">
      <stop id="stop3154" stop-color="#5DB6E7" offset="0"/>
      <stop id="stop3156" stop-color="#5DB6E7" offset="0.05"/>
      <stop id="stop3158" stop-color="#54B4E7" offset="0.2178"/>
      <stop id="stop3160" stop-color="#3DAEE7" offset="0.4859"/>
      <stop id="stop3162" stop-color="#18A5E8" offset="0.8189"/>
      <stop id="stop3164" stop-color="#009FE8" offset="1"/>
    </linearGradient>
    <path id="rect3166" fill="url(#SVGID_8_)" d="m130.05,23.398,128.6,0,0,94.493-128.6,0z" clip-path="url(#SVGID_7_)"/>
  </g>
  <path id="path3168" d="M 24.491 34.549 C 67.599 13.257 157.529 64.212 242.23 103.657 C 241.912 85.698 242.727 69.483 244.716 55.692 C 193.494 39.529 144.107 28.313 105.139 24.729 C 64.938 21.006 43.164 23.767 24.502 34.549" fill="#00A4E3" style=""/>
  <g id="g3170" transform="matrix(1.9868580102920532, 0, 0, 1.9868580102920532, -16.46788215637207, 9.202213287353516)" style="">
    <defs id="defs3172">
      <path id="SVGID_9_" d="M245.39,117.89c-18.892,28.335-51.322,58.418-78.182,77.676,7.785,15.515,16.76,29.641,26.89,41.246,14.858-1.153,28.347-24.416,33.309-33.648,18.319-33.932,31.764-85.956,32.38-100.62,0.152-4.098-0.21-7.503-1.132-10.517-2.69,8.177-7.31,16.927-13.27,25.857"/>
    </defs>
    <clipPath id="SVGID_10_">
      <path id="use3176" d="M245.39,117.89c-18.892,28.335-51.322,58.418-78.182,77.676,7.785,15.515,16.76,29.641,26.89,41.246,14.858-1.153,28.347-24.416,33.309-33.648,18.319-33.932,31.764-85.956,32.38-100.62,0.152-4.098-0.21-7.503-1.132-10.517-2.69,8.177-7.31,16.927-13.27,25.857" overflow="visible"/>
    </clipPath>
    <linearGradient id="SVGID_11_" y2="538.83" gradientUnits="userSpaceOnUse" x2="191.23" gradientTransform="matrix(14.1144 -16.8209 -16.8209 -14.1144 6632.3203 10921.665)" y1="538.83" x1="184.3">
      <stop id="stop3179" stop-color="#5DB6E7" offset="0"/>
      <stop id="stop3181" stop-color="#5DB6E7" offset="0.1"/>
      <stop id="stop3183" stop-color="#55ADE1" offset="0.2305"/>
      <stop id="stop3185" stop-color="#4096D1" offset="0.4399"/>
      <stop id="stop3187" stop-color="#1E70B8" offset="0.7003"/>
      <stop id="stop3189" stop-color="#004EA1" offset="0.9"/>
      <stop id="stop3191" stop-color="#004EA1" offset="1"/>
    </linearGradient>
    <path id="polygon3193" fill="url(#SVGID_11_)" d="M95.908,176.99,205.52,46.366,331.23,151.85,221.62,282.48z" clip-path="url(#SVGID_10_)"/>
  </g>
</svg>
