<?xml version="1.0" encoding="UTF-8"?>
<svg id="grtc" data-name="grtc" xmlns="http://www.w3.org/2000/svg" version="1.1"
  viewBox="0 0 330.8 285.8">
  <!-- Generator: Adobe Illustrator 29.1.0, SVG Export Plug-In . SVG Version: 2.1.0 Build 142)  -->
  <defs>
    <style>
      .st0 {
      fill: #8bc53f;
      }

      .st1 {
      fill: #0066a5;
      }
    </style>
  </defs>
  <path class="st1"
    d="M101.3,176.4c14.2-12.4,29.5-21.3,44.5-29.4,64.9-34.9,127.1-33.8,158.8-32.7l9.5-37.2c-53.3,1.8-120.6,14.9-186.6,65.1-30.4,23.1-45.7,49.7-44.8,50.6,0,0,32.7-11.4,53.3-15.2,35.2-6.6,70.5-11.4,101.8-5.5-12.5,40.6-50.4,70.1-95,70.1s-99.4-44.6-99.4-99.4,44.6-99.4,99.4-99.4,26.9,2.8,38.9,7.9c12.7-8.8,29.1-16.7,47.2-22.6C205,10.8,175.2,0,142.9,0,64.1,0,0,64.1,0,142.9s64.1,142.9,142.9,142.9,142.9-64.1,142.9-142.9-.7-12.4-.9-12.6c-1.6-2.8-95.6-12-182.2,47.4-4.8,3.3-9.6,6.7-9.6,6.7,0,0,3.4-3.9,8.1-8h0Z" />
  <path class="st0"
    d="M120.5,115.7c-18.4,20.6-35.9,54.6-38.6,71.4,0,0,16.1-34.3,58.9-64.2,63.7-44.6,104-52.8,177.3-60.2l12.8-46.8c-79.7,10.3-148.6,30.8-210.3,99.8h0Z" />
</svg>
