<?xml version="1.0" encoding="UTF-8" standalone="no"?>
<svg
  xmlns:dc="http://purl.org/dc/elements/1.1/"
  xmlns:cc="http://creativecommons.org/ns#"
  xmlns:rdf="http://www.w3.org/1999/02/22-rdf-syntax-ns#"
  xmlns:svg="http://www.w3.org/2000/svg"
  xmlns="http://www.w3.org/2000/svg"
  xmlns:sodipodi="http://sodipodi.sourceforge.net/DTD/sodipodi-0.dtd"
  xmlns:inkscape="http://www.inkscape.org/namespaces/inkscape"
  width="48pt"
  height="48pt"
  viewBox="0 0 48 833"
  version="1.1"
  id="svg2"
  inkscape:version="0.91 r13725"
  sodipodi:docname="Nankai airport line symbol.svg">
  <metadata
    id="metadata12">
    <rdf:RDF>
      <cc:Work
        rdf:about="">
        <dc:format>image/svg+xml</dc:format>
        <dc:type
          rdf:resource="http://purl.org/dc/dcmitype/StillImage" />
        <dc:title />
      </cc:Work>
    </rdf:RDF>
  </metadata>
  <defs
    id="defs10" />
  <sodipodi:namedview
    pagecolor="#ffffff"
    bordercolor="#757575"
    borderopacity="0"
    objecttolerance="10"
    gridtolerance="10"
    guidetolerance="10"
    inkscape:pageopacity="0"
    inkscape:pageshadow="2"
    inkscape:window-width="1440"
    inkscape:window-height="847"
    id="namedview8"
    showgrid="false"
    inkscape:zoom="10.466667"
    inkscape:cx="29.999999"
    inkscape:cy="29.999999"
    inkscape:window-x="-8"
    inkscape:window-y="-8"
    inkscape:window-maximized="1"
    inkscape:current-layer="svg2" />
  <path
    d="m -382.01273,-2.6528662 833,0 0,832.9999962 -833,0 0,-832.9999962 z"
    id="path4"
    inkscape:connector-curvature="0"
    style="fill:#757575" />
  <path
    d="m 26.437269,68.807134 c 33.65,-4.21 57.03,28.86 67.12,56.949996 15.450001,52.63 3.94,108.37 6.840001,162.12 95.19,64.69 190.82,128.88 286.88,192.21 0.26,29.15 3.1,60.3 -1.47,89.21 -97.13,-30.16 -192.95,-65.05 -289.730001,-96.01 1.01,54.07 -2.5,109.62 -24.85,159.64 27.32,19.55 55.390001,38.11 82.620001,57.74 0.3,20.2 0.18,40.43 0.06,60.64 -0.74,3.35 0.8,10.54 -5.65,6.64 -29.36,-10.18 -58.630001,-20.62 -87.910001,-31.03 -17.44,-3.21 -35.15,-19.71 -53.0199996,-9.36 -39.8900004,12.17 -79.0300004,27.18 -119.2699994,37.85 -0.79,-17.38 1.8,-34.68 0.88,-52.06 0.54,-5.99 -1.65,-14.66 4.46,-18.62 26.309999,-18.71 55.289999,-35.14 80.509999,-54.46 -20.48,-49.93 -20.19,-104.96 -18.03,-157.96 -95.619999,29.97 -190.499999,63.67 -286.839999,91.06 -1.58,-26.73 -0.35,-57.45 1.19,-85.82 96.07,-63.35 192.57,-126.08 288.469999,-189.69 0.3,-40.72 1.43,-81.39 2.69,-122.09 2.64,-27.84 12.55,-55.59 31.3900004,-76.649996 9.13,-9.53 20.0499996,-18.65 33.6599996,-20.31 z"
    id="path6"
    inkscape:connector-curvature="0"
    style="fill:#ffffff" />
</svg>
