<?xml version="1.0" encoding="UTF-8" standalone="no"?>
<svg xmlns="http://www.w3.org/2000/svg" viewBox="0 0 48 48" height="48" width="48" version="1.1">
  <rect fill="#0083e3" width="48" height="48" x="0" y="0" />

  <g fill="#fff">
    <path
      d="m 16.315008,41.908073 c -1.154383,-0.07929 -2.9151,-0.346996 -3.528642,-0.5365 -1.27098,-0.392565 -2.531964,-1.461413 -3.5748649,-3.030159 -0.9613512,-1.446079 -1.4203,-2.824403 -1.7514731,-5.260058 -0.2504994,-1.842331 -0.2612891,-5.240535 -0.01944,-6.122714 0.2611211,-0.952478 0.968754,-2.271151 2.007886,-3.741693 1.5227734,-2.154973 2.8834864,-4.206438 4.1333834,-6.231654 1.543911,-2.501609 2.127651,-3.303164 3.307495,-4.541644 2.771732,-2.9094809 6.573307,-4.7729728 10.284043,-5.0411283 2.824868,-0.2041385 4.962732,0.2057548 7.166349,1.3740065 3.106557,1.6469468 4.718313,4.2169198 4.330946,6.9057658 -0.298446,2.071618 -1.724286,3.558914 -3.960036,4.130722 -1.075096,0.274963 -1.889238,0.261604 -2.531239,-0.04153 -0.904018,-0.426859 -2.485576,-1.917342 -3.088308,-2.910465 -0.369994,-0.609641 -0.295869,-0.958211 0.444115,-2.088449 0.363491,-0.555189 0.708084,-1.152429 0.765764,-1.3272 0.262725,-0.796067 -0.360068,-1.161186 -1.641523,-0.962362 -1.375974,0.21349 -2.30791,0.696929 -3.200404,1.660199 -1.452549,1.567739 -2.246999,3.689209 -2.352319,6.281545 -0.06561,1.61482 0.08696,2.564438 0.643518,4.00556 0.628963,1.628593 1.344042,2.600198 1.913686,2.600198 0.300646,0 0.741205,-0.489966 1.178828,-1.311029 0.470509,-0.882765 1.239295,-1.564839 2.363534,-2.096947 2.321581,-1.098817 5.525835,-1.42327 7.943774,-0.804364 2.492457,0.63798 4.667905,2.766068 5.297125,5.181807 0.19936,0.765396 0.200541,2.199357 0.0024,2.866701 -0.207533,0.698839 -0.909424,1.624249 -1.58174,2.08545 -0.911745,0.625444 -1.573744,0.80178 -3.060795,0.815297 -1.264228,0.01149 -1.300143,0.0056 -1.97545,-0.326904 -1.185424,-0.583582 -1.768591,-1.347874 -1.770243,-2.320057 -7.12e-4,-0.447177 0.182397,-0.858755 0.753147,-1.69242 0.719876,-1.051486 0.606995,-1.384034 -0.417641,-1.23038 -0.611433,0.09169 -1.180413,0.606175 -1.353306,1.223692 -0.181279,0.647466 -0.07781,2.264453 0.198402,3.10068 0.335512,1.015748 1.277194,2.855837 1.925976,3.763451 1.424047,1.992169 2.375886,2.828328 5.096245,4.476889 1.034745,0.627064 1.900423,1.15748 1.923729,1.178702 0.05232,0.04764 -25.167179,0.01547 -25.872882,-0.033 l 2e-6,0 z" />
    <path
      d="M 9.3482479,17.477864 C 8.5531392,17.236002 7.7705604,16.499099 7.4682986,15.707638 7.2361764,15.099834 7.3499882,14.651657 7.9193838,13.931318 8.9467166,12.631644 10.817505,12.523082 11.67956,13.713115 c 0.704756,0.972887 0.618093,2.368362 -0.200948,3.235746 -0.482689,0.511179 -1.422095,0.744448 -2.1303641,0.529003 z" />
    <path
      d="M 13.260978,10.142836 C 12.353953,9.8790046 11.930943,8.7415376 12.446969,7.9539823 c 0.547563,-0.8356857 1.906156,-0.8515453 2.519964,-0.029417 0.504186,0.675303 0.217578,1.7733383 -0.554317,2.1236666 -0.474076,0.215161 -0.679237,0.232015 -1.151638,0.0946 z" />
    <path
      d="m 25.705118,23.070143 c -0.815073,-0.158744 -1.165665,-0.62764 -1.060033,-1.417728 0.176811,-1.322475 1.509286,-2.303939 2.460269,-1.812167 1.083201,0.560145 1.622814,2.066105 1.003886,2.80166 -0.379945,0.451538 -1.374693,0.628729 -2.404122,0.428235 z" />
  </g>
</svg>
