<?xml version="1.0" encoding="utf-8"?>
<!-- Generator: Adobe Illustrator 15.0.0, SVG Export Plug-In . SVG Version: 6.00 Build 0)  -->
<svg version="1.1" id="Laag_1" xmlns="http://www.w3.org/2000/svg"
  xmlns:xlink="http://www.w3.org/1999/xlink" x="0px" y="0px"
  width="609.993px" height="470.805px" viewBox="0 0 609.993 470.805"
  enable-background="new 0 0 609.993 470.805"
  xml:space="preserve">
<path fill="#1A4BA7" d="M609.993,235.402c0,129.472-135,235.403-300,235.403H300c-165,0-300-105.932-300-235.403
	C0,105.931,135,0,300,0h9.993C474.993,0,609.993,105.931,609.993,235.402z"/>
<g>
	<path fill="#FFFFFF" d="M206.83,368.235c-27.743,0-44.506-11.141-53.684-20.486c-20.705-21.084-21.195-49.9-21.149-54.141v-8.205
		h39v8.621c0.018,1.076,0.313,10.65,4.982,19.469c3.578,6.76,10.669,15.742,30.851,15.742c16.941,0,28.866-5.5,36.455-16.813
		c6.24-9.303,7.67-19.766,7.711-22.059c0-3.15,0-7.52-3.954-13.213c-4.646-6.688-15.733-16.496-42.167-25.232
		c-28.877-9.547-49.12-23.496-60.166-41.463c-9.972-16.219-9.805-31.052-9.724-38.18c0.005-0.434,0.01-0.836,0.01-1.206
		c0-3.558,0.605-22.217,12.558-40.178c9.205-13.833,27.308-30.322,61.276-30.322c33.418,0,51.542,14.952,60.861,27.496
		c12.665,17.045,13.306,34.648,13.306,38.004v12.667h-39V166.07c-0.021-1.561-1.055-8.71-5.73-14.904
		c-5.807-7.694-15.71-11.596-29.437-11.596c-13.596,0-23.019,4.229-28.808,12.928c-4.919,7.392-6.026,16.104-6.026,18.572
		c0,0.504-0.006,1.054-0.012,1.646c-0.054,4.764-0.121,10.694,3.95,17.315c6.01,9.777,19.559,18.373,39.181,24.858
		c48.362,15.983,72.883,41.389,72.883,75.514c0,8.156-2.932,26.42-13.915,43.129C265.675,349.364,245.211,368.235,206.83,368.235z"
		/>
</g>
<path fill="#FFFFFF" d="M442.521,229.684c15.896-12.619,31.477-30.957,31.477-52.948c0-27.302-9.807-48.5-33.061-59.69
	c-16.107-7.751-34.771-7.144-37.746-7.144H325.33v250.999h79.5c45.814,0,73.225-18.5,73.168-75.166
	C477.964,254.129,461.998,240.903,442.521,229.684z M403.158,143.903c0.104,0,10.445,0.133,20.021,4.888
	c10.791,5.356,15.816,15.236,15.816,28.946c0,13.923-5.518,24.29-17.363,30.476c-9.479,4.95-19.553,5.949-21.367,6.093H360.33
	v-70.403H403.158z M402.83,326.903h-42.5v-81.598c0,0,28.684,0,38.576,0c35.842,0,44.092,25.996,44.092,40.43
	C442.998,313.514,432.998,326.903,402.83,326.903z"/>
</svg>
