<?xml version="1.0" encoding="UTF-8" standalone="no"?>
<svg xmlns="http://www.w3.org/2000/svg" version="1.1" width="48" height="48" viewBox="0 0 48 48">
  <rect style="fill:#048b0f;fill-opacity:0.94117647" width="48" height="48" x="0" y="0" />
  <path fill="#ffffff"
    d="m 16.633114,42.88734 c -0.489224,-0.06876 -0.82236,-0.221047 -1.07468,-0.491274 -0.322994,-0.345918 -0.419328,-0.804729 -0.490509,-2.336159 -0.03706,-0.797222 -0.09166,-1.511196 -0.121336,-1.586609 -0.03109,-0.07899 -0.135968,-0.137115 -0.247411,-0.137115 -0.191814,0 -0.51472,0.225369 -1.809635,1.263014 -1.077213,0.863195 -1.823979,1.161052 -2.9162723,1.16319 -0.4587905,8.97e-4 -0.6768711,-0.0404 -0.994634,-0.188347 -0.8238995,-0.3836 -1.3764205,-1.080569 -1.6307805,-2.057124 -0.329334,-1.264397 0.08933,-2.568031 1.367909,-4.259366 0.7330667,-0.969721 1.1348415,-1.425915 3.0741818,-3.490567 2.294193,-2.442437 3.049623,-3.42276 2.816895,-3.655489 -0.146599,-0.146599 -0.819574,0.121379 -2.038275,0.811638 -1.128232,0.639018 -1.804433,0.93257 -2.148186,0.93257 -0.6327363,0 -1.4763733,-0.492048 -2.3527438,-1.372226 -0.6276,-0.630327 -0.78293,-0.956595 -0.744293,-1.563374 0.06351,-0.997358 0.573908,-1.714558 3.8213268,-5.369615 2.229181,-2.509003 3.528248,-4.263717 3.314674,-4.477291 C 14.254639,15.86849 13.246241,16.38149 12.275126,17.184368 11.568508,17.76857 11.407235,17.841287 10.965204,17.775 10.544602,17.71193 10.13864,17.432225 9.4429575,16.726192 8.9050365,16.180268 8.6458441,15.731129 8.6430846,15.34014 8.6376646,14.572326 9.8001137,13.053854 12.74001,9.9884426 c 2.475724,-2.5814213 4.384385,-4.2643881 5.402627,-4.7637811 0.400896,-0.1966177 0.466662,-0.2072789 0.751745,-0.1218659 0.686432,0.2056599 1.565937,1.0435326 2.768331,2.6372879 1.139457,1.5103331 1.956106,2.0958911 2.923036,2.0958911 0.97659,0 1.803885,-0.606338 2.986701,-2.1890005 0.851496,-1.1393406 1.493437,-1.8228292 2.079744,-2.2143502 0.647982,-0.4327058 0.901317,-0.4671813 1.437926,-0.1956821 1.584693,0.8017817 7.527102,6.7399442 8.94755,8.9411552 0.419998,0.650854 0.533766,1.070424 0.412471,1.52117 -0.127667,0.474424 -1.426035,1.783085 -1.973282,1.988925 -0.558653,0.210129 -0.810601,0.125799 -1.648375,-0.551733 -1.090831,-0.882187 -2.174621,-1.376062 -2.174621,-0.990958 0,0.227404 0.853302,1.477177 1.696932,2.485384 0.432705,0.517117 1.464468,1.69826 2.292807,2.624762 2.40729,2.692567 3.115686,3.718277 3.198464,4.631159 0.05734,0.632326 -0.146368,1.010673 -0.95759,1.778563 -0.761906,0.721207 -1.218745,1.009736 -1.786405,1.128252 -0.581946,0.121498 -1.029334,-0.03128 -2.446255,-0.835362 -1.534033,-0.870544 -2.154655,-1.077971 -2.154655,-0.720142 0,0.144523 0.517359,0.913934 0.982308,1.460883 0.20148,0.237012 1.170096,1.294752 2.152482,2.350532 2.018062,2.168835 2.574923,2.815709 3.121176,3.625695 0.961759,1.426097 1.300719,2.520984 1.109544,3.583974 -0.196187,1.090855 -0.797395,1.913682 -1.700273,2.327033 -0.395968,0.18128 -0.501203,0.19543 -1.188988,0.159867 -1.17503,-0.06076 -1.73022,-0.328315 -3.182146,-1.533543 -0.947401,-0.786428 -1.345558,-1.016487 -1.494457,-0.863513 -0.06827,0.07014 -0.131235,0.569839 -0.190888,1.514985 -0.120088,1.902692 -0.182766,2.19864 -0.541649,2.557523 -0.421211,0.421213 -0.750754,0.485743 -2.514556,0.492402 -1.68773,0.0064 -2.047953,-0.06497 -2.450577,-0.485318 -0.339488,-0.354434 -0.437173,-0.71325 -0.522939,-1.920853 -0.104589,-1.472652 -0.200073,-1.909795 -0.477815,-2.187538 -0.173236,-0.173236 -0.290992,-0.219116 -0.562384,-0.219116 -0.401823,0 -0.744847,0.197604 -1.62527,0.936261 -0.979292,0.821605 -1.111708,0.815955 -1.852139,-0.07902 -0.761239,-0.920127 -1.272468,-1.133132 -1.751728,-0.72986 -0.472873,0.397895 -0.57575,0.763424 -0.787249,2.797153 -0.04404,0.423434 -0.127511,0.883434 -0.185501,1.022222 -0.133129,0.318624 -0.515952,0.64382 -0.893098,0.758659 -0.35333,0.107587 -2.708048,0.165099 -3.3079,0.08079 z" />
</svg>
