<?xml version="1.0" encoding="UTF-8" standalone="no"?>
<!-- Created with Inkscape (http://www.inkscape.org/) -->

<svg
   width="88.835999"
   height="100"
   viewBox="0 0 23.504524 26.458333"
   version="1.1"
   id="svg1"
   xmlns="http://www.w3.org/2000/svg"
   xmlns:svg="http://www.w3.org/2000/svg">
  <defs
     id="defs1" />
  <path
     d="m 11.511888,15.297595 -5.9361461,-0.002 c -0.768859,0.009 -1.216904,-0.29196 -1.480179,-0.78251 -0.220492,-0.41078 -0.185214,-0.82326 0.110254,-1.28665 l 0.884622,-1.30535 c 0.315741,-0.46679 0.836775,-0.74687 1.40035,-0.74857 l 1.473348,-0.009 c 0.790908,-0.004 1.529341,-0.3989 1.972313,-1.0541 L 11.606695,7.634545 H 6.1208049 c -1.78247,0 -3.062217,0.64167 -4.156972,2.25929 l -0.96576704,1.41906 c -1.246012,1.85019 -1.246012,3.39996 -0.437901,5.05503 0.70249304,1.43772 2.27439604,2.47316 4.35519604,2.47486 l 2.18289,-0.002 -1.398591,2.06919 c -0.238135,0.35646 -0.369985,0.77402 -0.371975,1.20348 v 4.01105 c 0,0.32932 0.426217,0.4583 0.610988,0.18675 l 6.3248761,-9.37136 c 0.497438,-0.75197 0.08377,-1.64308 -0.748578,-1.64308"
     fill="#8fc31f"
     id="path272"
     style="display:inline;stroke-width:0.434543" />
  <path
     d="m 11.993665,11.159465 5.934156,0.004 c 0.76886,-0.009 1.216905,0.29196 1.480179,0.78083 0.220491,0.41249 0.187418,0.82495 -0.110246,1.28834 l -0.884621,1.30532 c -0.31575,0.4668 -0.836561,0.74692 -1.40036,0.74862 l -1.473347,0.009 c -0.790908,0.002 -1.527582,0.3972 -1.970777,1.05242 l -1.67178,2.47652 h 5.486112 c 1.782257,0 3.062226,-0.64162 4.156967,-2.25925 l 0.967532,-1.42077 c 1.246009,-1.84848 1.244249,-3.39823 0.436354,-5.05503 -0.701166,-1.43606 -2.122025,-2.47318 -4.355409,-2.47318 l -2.181355,0.002 1.397056,-2.07085 c 0.240781,-0.35476 0.370207,-0.77401 0.371753,-1.20179 V 0.33458501 c 0,-0.32932 -0.426441,-0.46001 -0.609443,-0.18677 L 11.239792,9.517445 c -0.497429,0.7537 -0.08377,1.64313 0.750345,1.64313"
     fill="#0095d8"
     id="path273"
     style="display:inline;stroke-width:0.434543" />
</svg>
